<svg xmlns="http://www.w3.org/2000/svg" xmlns:xlink="http://www.w3.org/1999/xlink" viewBox="0 0 714 456"><defs><clipPath id="clip-path"><rect x="-34" y="-24" width="800" height="500" fill="none"/></clipPath><radialGradient id="radial-gradient" cx="174.02" cy="-26.12" r="718.76" gradientTransform="translate(-313.73) scale(1.6 1)" gradientUnits="userSpaceOnUse"><stop offset="0" stop-color="#ff0257"/><stop offset="1" stop-color="#29139c"/></radialGradient><linearGradient id="linear-gradient" x1="-121.54" y1="179.3" x2="423.6" y2="179.3" gradientUnits="userSpaceOnUse"><stop offset="0" stop-color="gold"/><stop offset="1" stop-color="#fd0063"/></linearGradient><linearGradient id="linear-gradient-2" x1="-71.16" y1="142.52" x2="321.54" y2="142.52" xlink:href="#linear-gradient"/><pattern id="New_Pattern_Swatch_3" data-name="New Pattern Swatch 3" width="16" height="16" patternTransform="translate(-50.56 373.45)" patternUnits="userSpaceOnUse" viewBox="0 0 16 16"><rect width="16" height="16" fill="none"/><path d="M16.92,12a.92.92,0,1,1-.92-.92A.92.92,0,0,1,16.92,12Z" fill="#fff"/><circle cx="8" cy="16" r="0.92" fill="#fff"/><circle cy="12" r="0.92" fill="#fff"/><path d="M16.92,4A.92.92,0,1,1,16,3.08.92.92,0,0,1,16.92,4Z" fill="#fff"/><circle cx="8" cy="8" r="0.92" fill="#fff"/><path d="M.92,4A.92.92,0,0,1,0,4.92.92.92,0,0,1-.92,4,.92.92,0,0,1,0,3.08.92.92,0,0,1,.92,4Z" fill="#fff"/><path d="M8.92,0A.92.92,0,0,1,7.08,0,.92.92,0,0,1,8-.92.92.92,0,0,1,8.92,0Z" fill="#fff"/></pattern><pattern id="New_Pattern_Swatch_3-3" data-name="New Pattern Swatch 3" width="16" height="16" patternTransform="translate(-38.63 365.5)" patternUnits="userSpaceOnUse" viewBox="0 0 16 16"><rect width="16" height="16" fill="none"/><path d="M16.92,12a.92.92,0,1,1-.92-.92A.92.92,0,0,1,16.92,12Z" fill="#fff"/><circle cx="8" cy="16" r="0.92" fill="#fff"/><circle cy="12" r="0.92" fill="#fff"/><path d="M16.92,4A.92.92,0,1,1,16,3.08.92.92,0,0,1,16.92,4Z" fill="#fff"/><circle cx="8" cy="8" r="0.92" fill="#fff"/><path d="M.92,4A.92.92,0,0,1,0,4.92.92.92,0,0,1-.92,4,.92.92,0,0,1,0,3.08.92.92,0,0,1,.92,4Z" fill="#fff"/><path d="M8.92,0A.92.92,0,0,1,7.08,0,.92.92,0,0,1,8-.92.92.92,0,0,1,8.92,0Z" fill="#fff"/></pattern><linearGradient id="linear-gradient-3" x1="274.27" y1="357.38" x2="808.93" y2="357.38" gradientUnits="userSpaceOnUse"><stop offset="0" stop-color="#00c1ff"/><stop offset="1" stop-color="#aa2cff"/></linearGradient><linearGradient id="linear-gradient-4" x1="520.88" y1="461.15" x2="786.01" y2="461.15" xlink:href="#linear-gradient-3"/></defs><title>Artboard 2</title><g style="isolation:isolate"><g id="artboard_2" data-name="artboard 2"><g clip-path="url(#clip-path)"><rect x="-34" y="-24" width="800" height="500" fill="url(#radial-gradient)"/><g opacity="0.24"><path d="M387.33-92.47c36.83,23,47.74,75.59,22.83,109.9-21.39,29.46-62.31,43.3-81,74.34-16.77,27.88-11.43,62.28-6.85,94s6.91,67.18-14.05,92.45c-23.21,28-65.88,32.73-103.7,32.65S125.69,309,95,329.72c-39.26,26.41-48.32,81.13-88.9,105.72C-12.4,446.64-35,449.93-57,450.81a338,338,0,0,1-64.53-3.62l75-539.25Z" fill="url(#linear-gradient)"/></g><g opacity="0.91"><path d="M-49.71-37C-42-58.54-14.77-69.41,9.38-67.45s46,13.67,67,25,43.11,22.74,67.3,24c23.75,1.28,46.64-7.35,69-14.9s46.51-14.25,69.64-9.07S326.06-15.8,320.68,5.92c-7.47,30.19-52.69,35.61-72,60.76-24.13,31.42,1.79,77.25-12.8,113.47C227,202.07,203.13,217.29,178.2,219s-50-9.24-66.43-26.87C99.2,178.68,91.27,161.76,77.93,149s-35.85-20.42-51.38-10.06C13,148,11.1,166.63,15.91,181.55S30.65,209.48,36.78,224c12.91,30.54,7.12,67.35-14.63,93.1s-58.64,39.48-93.31,34.71" fill="url(#linear-gradient-2)"/></g><ellipse cx="173.4" cy="496.45" rx="117.85" ry="110.49" opacity="0.53" fill="url(#New_Pattern_Swatch_3)"/><ellipse cx="527.47" cy="-23.5" rx="117.85" ry="110.49" opacity="0.53" fill="url(#New_Pattern_Swatch_3-3)"/><g opacity="0.33" style="mix-blend-mode:screen"><path d="M306.07,513.82c-20.13-30.27-35.19-65.42-31.14-100.89s31.71-70.22,69.43-74.89c26.23-3.24,51.71,7.78,77,15s55.92,9.68,75.35-7.15c19.1-16.55,19.26-44.25,18.55-68.62s.86-52.4,21.3-67.47c20.87-15.38,52.7-9.07,73.41,6.49s33.61,38.18,48.46,58.8,33.93,40.82,59.72,46.7c26.13,6,58-2.77,77.5,14.59,15.72,14,14.24,37.45,11.59,57.62l1.67,79.59Z" fill="url(#linear-gradient-3)"/></g><g opacity="0.65" style="mix-blend-mode:multiply"><path d="M581.76-77c-12.58,2.52-25.16,6.22-35.57,13.31s-18.44,18-19.08,30.06c-1,18.79,15.19,34.21,31.07,45.72s33.88,23.28,39.25,41.41c8.2,27.72-17,54.89-16.92,83.65.06,23.72,18.57,45.42,42.07,54.21s50.73,5.93,73.72-4,42.17-26.29,58.61-44.32C785.67,109.33,808.53,67.34,809.3,23s-24-90.54-67.17-108.82Z" fill="#9c53d3"/></g><g opacity="0.35"><path d="M-102.53,426.87A252.7,252.7,0,0,0,2.12,437.34c30.47-3.43,61.16-12.61,86.6-30.12a120.37,120.37,0,0,0,30.18-29.46c10.06-14.2,16.91-30.3,22.7-46.62,11.58-32.66,20.05-67.25,43.58-93.85,20.45-23.12,48.36-38.51,77.21-48.57,32.56-11.36,67.17-16.47,101.55-17.51,35.29-1.06,71,1.91,105.42,10,33.25,7.79,65.51,19.55,97,32.7,66.09,27.62,129.06,62,192.1,95.81q10.06,5.4,20.15,10.76c.29.16.55-.29.26-.44-62-32.89-123.28-67.09-187.35-95.78-31.64-14.17-64-27.15-97.25-37a410.27,410.27,0,0,0-99.07-16.38c-35-1.48-70.34,1-104.45,9.07-29.71,7-59.07,18.36-83.7,36.69a141.3,141.3,0,0,0-29.12,28.77C167.82,259,160.78,274.49,155,290.3c-12.32,33.52-20.17,70.16-44.69,97.49C89.47,411,59.78,424.75,29.92,432c-34.65,8.36-71.33,8.39-106.19,1.27a252.58,252.58,0,0,1-26.12-6.85c-.32-.1-.45.4-.14.5Z" fill="#f7fafb"/><path d="M-103.09,424.85a270.4,270.4,0,0,0,95,3.47C22.8,424.1,54,415,80.87,398.72a134.12,134.12,0,0,0,35.18-30.32c9.46-11.73,16.81-24.94,23.24-38.53,13.24-27.92,23.47-57.79,44.26-81.32C202.42,227.19,227.72,212.38,254,202c29.86-11.8,61.7-18.34,93.57-21.66a498.14,498.14,0,0,1,108.63.37c36.4,4.23,72.11,13.67,106.86,25.08,68.45,22.47,134.17,53.14,198.81,84.71q10.43,5.1,20.82,10.24c.3.14.56-.3.26-.45-62.79-31-126.26-61.16-192.07-85.33-34.56-12.7-70-23.57-106.17-30.39-35.35-6.66-71.55-8.43-107.46-6.9-32.33,1.37-64.71,5.71-95.88,14.57-27.37,7.77-54.28,19.16-77,36.46-23,17.48-38.13,40.7-50.09,66.67C141.07,324,130,354.28,107.55,377.21c-23,23.43-54.7,37-86.08,44.88a277,277,0,0,1-99.1,6.55,252.44,252.44,0,0,1-25.32-4.28c-.32-.08-.46.42-.14.49Z" fill="#f7fafb"/><path d="M-103.57,422.85c30.22,3.33,61,1.42,90.82-4.14,30.37-5.65,60.92-15,88-30.1a153.4,153.4,0,0,0,36.11-27.39c10.4-10.81,19-23.16,26.75-36,15.73-25.91,29-53.57,51.47-74.58,20.74-19.42,46.74-32.59,73.31-42.07,30.24-10.79,62-17.12,93.84-20.85A627.64,627.64,0,0,1,463,184.06c35.68,1.92,71.07,8.16,105.69,16.89,67.32,17,132.68,42,196.08,70.08q11.06,4.89,22,10c.3.14.56-.3.26-.44C724.92,252,661,226.49,595.21,207.59c-33.7-9.69-68-17.4-102.85-21.51-35.33-4.16-71.09-4-106.54-1.51-32.17,2.25-64.29,6.72-95.48,15-27.86,7.41-55.4,17.86-79.54,33.82-23.92,15.82-41.21,37.26-55.73,61.74-15.74,26.55-29.88,54.38-53.7,74.83-24.8,21.29-56.54,33.81-87.77,42.22a332.13,332.13,0,0,1-94.92,11.66q-11.16-.3-22.25-1.53c-.33,0-.33.48,0,.52Z" fill="#f7fafb"/><path d="M-104.13,420.83c29-.58,57.84-4.92,86-11.57,29.79-7,59.63-16.57,87-30.45A183,183,0,0,0,106.27,354c11.52-10,21.5-21.58,30.79-33.64,17.77-23,33.79-47.59,56.84-65.88,22.77-18.06,49.92-30.09,77.42-39,30.78-10,62.72-16.17,94.75-20.42,34.35-4.55,69.19-7.56,103.85-8a579,579,0,0,1,104.49,8.65c66.13,11.39,131.12,31.08,193.4,55.9q11.61,4.63,23.1,9.55c.3.13.56-.32.26-.45C730,234.64,666.13,214,601,200.36a629.55,629.55,0,0,0-101.58-13.24c-35-1.53-70.11.67-104.94,4.18-60.24,6.06-123.83,16.47-177.13,46.86-24.65,14.05-44,33.3-61.13,55.77-18.69,24.57-36.06,50.14-61.37,68.52C69,381.2,38.2,392.78,7.82,401.81a447,447,0,0,1-92,17.52q-9.94.78-19.91,1a.26.26,0,0,0,0,.51Z" fill="#f7fafb"/><path d="M-104.62,418.81A761.56,761.56,0,0,0-22,399.42c29.75-8.67,59.61-18.63,87.6-32s51.39-32.22,72.9-54.46c20.68-21.37,40.57-43.31,66.21-58.93,24.84-15.13,52.53-25.24,80.44-33.07,30.77-8.63,62.27-14.49,93.85-19.19,67.91-10.1,136.18-17.74,204.83-11.13A783.46,783.46,0,0,1,772.64,233q11.29,4,22.44,8.49c.31.12.44-.38.13-.5A783.18,783.18,0,0,0,608,192.84a621.78,621.78,0,0,0-100.31-5.14c-33.94,1.07-67.72,5.18-101.36,9.69-60.91,8.16-124,17.87-180,44.44-26.12,12.38-48.22,29.5-68.38,50.1-21.41,21.88-41.63,44.77-67.72,61.32C62.69,370.69,31.33,382,.5,392a793,793,0,0,1-86.31,22.78q-9.45,1.92-19,3.58c-.33.06-.19.56.14.5Z" fill="#f7fafb"/><path d="M-105.18,416.8c55.72-20,113.13-36.46,167.26-60.65,28.2-12.6,53.14-29.63,77.07-49,23.2-18.76,46.19-37.47,73.15-50.65,55.33-27,118-37.79,178.17-48.2,65.92-11.4,131.73-24.75,198.94-24,63.3.74,127,10.36,187.35,29.68q11.29,3.63,22.42,7.74c.32.11.45-.39.14-.5-59.19-21.82-122.18-33.49-185.12-36.66a613.92,613.92,0,0,0-98,3c-32.38,3.56-64.43,9.5-96.51,15.1-62.25,10.87-126,20.18-185.15,43.49a291.2,291.2,0,0,0-72.83,42.16c-24.34,19-47.43,39.52-74.53,54.68-28.68,16-60.11,27-91,38.09-27.95,10-56.13,19.34-84.19,29.05q-8.67,3-17.31,6.1c-.31.11-.17.61.14.5Z" fill="#f7fafb"/><path d="M-105.68,414.75c52.27-30.62,111.4-47.61,167-70.9,28.4-11.9,54.76-27.16,80.87-43.37,26-16.12,52.15-31.38,80.84-42.18,57.93-21.79,119.74-31.48,180.11-44,64-13.24,127.1-31.86,192.59-36.68,62-4.57,125.31.35,185.2,17.36q11.28,3.21,22.37,7c.32.11.45-.39.14-.49-59.12-20.2-122.3-27.73-184.6-25.64a606,606,0,0,0-94.18,11c-31.94,6.13-63.45,14.22-95.19,21.28-62,13.78-125.24,23-185.82,42.45a390,390,0,0,0-80.22,36.28C136.75,302.72,111,320.08,83,333.56c-29.76,14.31-61.19,25-91.92,37-27.28,10.66-54.63,21.54-80.74,34.86-5.51,2.81-10.95,5.75-16.29,8.88a.26.26,0,0,0,.26.44Z" fill="#f7fafb"/><path d="M-106.18,412.7c20.83-18.12,45.91-31.15,70.81-42.7,29.43-13.65,59.86-24.6,90.18-36,58.47-22,113.1-53.45,173.13-71.28,60.5-18,123.19-27,184.41-42,62.32-15.31,122.48-39,185.93-49.68,61.4-10.34,125.38-10.27,186,4.74q11.65,2.9,23.11,6.53c.32.1.45-.4.14-.5-59.77-18.89-123.65-22.26-185.65-14.71-63.73,7.76-123.66,29.92-185.24,46.77-62.09,17-125.94,26.28-188.19,42.62a570.7,570.7,0,0,0-86,30.13C132.88,299.65,104,314.05,74,326c-56.64,22.63-117.35,40-167.49,76-4.49,3.22-8.84,6.64-13,10.26-.25.22.12.59.37.37Z" fill="#f7fafb"/><path d="M-106.74,410.68c16.58-20.5,39.15-35.55,62.12-48,27.38-14.89,56.48-26.25,85.95-36.28,61.52-20.94,122.86-43.72,186.32-58.16,62.14-14.14,125.59-22.42,187.07-39.47,62.86-17.44,121.62-46.83,184.6-63.8,61-16.46,126.16-21.63,188.33-8.42,8,1.71,16,3.74,23.86,6a.26.26,0,0,0,.13-.5c-60.92-17.78-125.8-16.84-187.53-3.65C560.3,172,501.54,200.83,439.69,220.7c-62.1,20-126.84,29.09-190.54,42.31a949.31,949.31,0,0,0-94,24.57c-31.35,9.93-62.37,20.89-93.54,31.39-30,10.09-59.84,20.31-88.4,34-24.49,11.74-48.73,25.68-68.49,44.54a136.06,136.06,0,0,0-11.8,12.8c-.21.26.15.62.36.36Z" fill="#f7fafb"/><path d="M-107.26,408.62c13.21-22.83,33.85-40.34,55.94-54.25,25.26-15.89,53.05-27.61,81.37-36.81,64.15-20.87,130.78-34.42,197.37-44.74,64.09-9.95,129.23-17.08,191.4-36.37,63.35-19.66,120.36-54.31,182.3-77.46,60.3-22.52,126.39-33.13,190.26-21.65,8.15,1.47,16.23,3.31,24.23,5.46a.26.26,0,0,0,.14-.5c-63-16.93-129.52-11.2-191.26,8.13-63,19.73-119.85,54.58-181.71,77.34-62.55,23-129,31.62-194.59,41.38-67.92,10.11-135.51,22.93-201.37,42.64-28.9,8.66-57.33,19.07-83.85,33.6C-60,358-82.12,373.69-98.35,394.48a121.23,121.23,0,0,0-9.35,13.88c-.17.28.28.55.44.26Z" fill="#f7fafb"/><path d="M-107.79,406.54c21.87-53,78.49-82.85,130.37-99.18,66.35-20.88,136.77-25.16,205.67-30.81C295.79,271,365,265.31,429.19,242.07c60.53-21.91,113.42-59.22,171-87.35C659.87,125.53,727.32,108.4,793.93,118c8.68,1.25,17.28,3,25.79,5.07.32.08.46-.42.14-.5-65.5-16.19-133.82-5.15-195.36,20.55-59.87,25-112.83,63.67-172.4,89.32-65.21,28.07-136.19,36.12-206.29,42.13-69.8,6-140.78,9.39-208.67,28-52,14.25-108.94,39.95-137.64,88.23a120.31,120.31,0,0,0-7.79,15.62c-.12.31.38.44.5.14Z" fill="#f7fafb"/></g><g opacity="0.35"><path d="M-75,245.94c38.37,4,77.79-7.42,108.81-30.18a143.3,143.3,0,0,0,37.58-40.28,110.36,110.36,0,0,0,11.56-24.91A132.19,132.19,0,0,0,88,121.89c1.66-21.25.14-42.59.17-63.87,0-20,1.28-40.37,9.06-59C111-34.16,139.89-57.81,171.2-73.7c33.85-17.19,71.43-26.79,108.89-32,4.77-.67,9.56-1.24,14.35-1.75.33,0,.33-.56,0-.52-37,3.94-74.07,12-108.39,26.74-31.72,13.59-62.37,33.74-80.86,63.59C95.6-2.12,90.43,15,88.7,33c-2,21.15-.57,42.44-.45,63.64.11,20.28-.57,41.45-8.19,60.52C72.94,175,61.26,190.92,47.28,204c-28.8,26.84-68.21,42.48-107.6,42.29q-7.37,0-14.69-.82c-.33,0-.33.48,0,.51Z" fill="#f7fafb"/><path d="M-75.58,242.13C-37.93,244.18,0,231.5,30.23,209.24a153.78,153.78,0,0,0,37.65-39.3,115,115,0,0,0,12.33-24.33,134.21,134.21,0,0,0,6.25-27.86c2.61-20.54,2.15-41.31,3.17-61.95,1-19.62,3.34-39.34,11.91-57.25,15-31.27,43.68-53.21,74.13-68.27C208.72-86.06,245-95.61,281.28-101.46q6.45-1,12.91-1.91c.33,0,.19-.54-.14-.5-36,4.88-71.86,13.23-105.29,27.56-30.89,13.23-61,32.36-79.84,60.84C99.14-.72,93.51,15.7,91.1,33.19,88.32,53.33,88.73,73.74,87.83,94S85,135.09,76.38,153.63C68.54,170.49,56.9,185.45,43.2,198c-28.43,25.92-66.43,42.27-105,43.78q-6.9.27-13.8-.11c-.33,0-.33.49,0,.51Z" fill="#f7fafb"/><path d="M-76.15,238.32c36.71,0,73.08-13.71,102.48-35.35a166.34,166.34,0,0,0,37.69-38,121.72,121.72,0,0,0,13.17-23.49A135.12,135.12,0,0,0,85,113.67c3.52-19.5,4.18-39.36,6.16-59C93,36,96.15,17.26,104.87.44c15.6-30.11,44.18-51,74-65.57,32.24-15.75,67.36-25.35,102.52-32q6.21-1.17,12.43-2.21c.33,0,.19-.55-.13-.5C259-94,224.29-85.46,191.79-71.57,161.61-58.68,132-40.5,112.67-13.32c-9.91,14-16,29.64-19.11,46.43C90,52.28,89.37,71.84,87.46,91.2c-1.95,19.69-5.07,39.84-14.24,57.61-8.42,16.32-20.27,30.76-33.93,43-28,25.1-64.6,42-102.22,45.42-4.39.4-8.8.59-13.22.6a.26.26,0,0,0,0,.51Z" fill="#f7fafb"/><path d="M-76.72,234.51C-41,232.3-6.17,217.76,22.49,196.67a182.13,182.13,0,0,0,37.82-37,133.17,133.17,0,0,0,23-49.2C88,91.6,89.74,72.19,92.76,53c2.81-17.77,6.78-35.49,15.77-51.27,16.31-28.61,44.54-48.24,73.64-62.28,31.44-15.17,65.38-24.81,99.39-32.21q6-1.31,12-2.51c.33-.06.19-.56-.13-.49-33.56,6.75-67,15.45-98.54,28.89-29.4,12.51-58.44,29.67-78.17,55.38A116,116,0,0,0,96.22,32.45C91.71,51.1,90,70.28,87,89.19s-7.37,38-16.94,54.79c-9,15.84-21.15,29.82-34.83,41.8-27.51,24.1-62.32,41.37-98.61,46.81-4.42.67-8.87,1.13-13.34,1.41-.33,0-.33.53,0,.51Z" fill="#f7fafb"/><path d="M-77.29,230.7C-42.65,226.24-9.38,211,18.6,190.41a201.69,201.69,0,0,0,38.47-36.56,142.59,142.59,0,0,0,24.86-47.31C87.44,88.69,90.4,70.22,94.39,52c3.69-16.82,8.39-33.57,17.51-48.34,16.88-27.3,44.79-45.86,73.22-59.45,30.73-14.67,63.64-24.39,96.6-32.59,3.84-1,7.67-1.89,11.52-2.8.32-.08.18-.58-.14-.5-32.31,7.7-64.54,16.54-95.16,29.56C169-49.8,140.11-33.37,120-8.58c-9.93,12.24-16.75,26.16-21.25,41.23-5.24,17.58-8,35.78-12,53.66-4.17,18.4-9.69,36.75-19.8,52.85C57.31,154.42,45,167.91,31.34,179.63,4.13,203-29.32,220.65-64.53,228q-6.33,1.33-12.76,2.15c-.32,0-.32.56,0,.52Z" fill="#f7fafb"/><path d="M-77.79,226.88C-44.12,220-12.14,204,15.36,183.7a227.55,227.55,0,0,0,38.32-35.45,155.6,155.6,0,0,0,26.83-45.46C87,85.88,91.11,68.24,96.12,50.88c4.62-16,10.09-31.95,19.53-45.83,17.61-25.87,45.24-43.3,73.09-56.4,29.82-14,61.49-23.72,93.14-32.68l11-3.09a.26.26,0,0,0-.14-.5c-31.14,8.68-62.31,17.7-92.1,30.37-28.3,12-56.6,27.61-77,51.11-9.94,11.44-17.09,24.55-22.24,38.77-6.08,16.75-10,34.21-15.09,51.26-5.39,17.94-12.21,35.6-23,51.05a203.47,203.47,0,0,1-36.16,38.8C.1,196.46-32.18,214.39-66.38,223.65q-5.73,1.56-11.54,2.73c-.33.07-.19.57.13.5Z" fill="#f7fafb"/><path d="M-78.35,223.07C-46,213.82-15.47,197.4,11.5,177.45A261.94,261.94,0,0,0,50,143,173.54,173.54,0,0,0,79.28,98.76C86.51,83.06,91.8,66.6,97.71,50.38c5.45-15,11.54-29.95,21-42.9,18.15-24.78,45.58-41.33,73-54.09,29.09-13.54,59.77-23.29,90.29-33l10.59-3.4c.31-.1.18-.6-.14-.49-29.91,9.65-60,18.83-89,31.15C175.66-40.56,147.73-25.7,127-3.27c-10.13,11-17.59,23.61-23.42,37.3C96.94,49.51,92,65.63,86,81.34c-6.61,17.24-14.59,34-25.88,48.76a232.05,232.05,0,0,1-36.83,37.5c-26.84,22.11-57.88,40.21-90.81,51.52q-5.45,1.88-11,3.45a.26.26,0,0,0,.14.5Z" fill="#f7fafb"/><path d="M-78.92,219.26c31-11.75,60.3-28.57,86.9-48.29,27.84-20.64,52.92-45,69.8-75.55C86,80.5,92.57,64.77,99.58,49.26c6.36-14.08,13.18-28.21,23-40.29,18.72-23.14,45.52-38.55,72.18-50.83,28.38-13.08,58.1-22.86,87.46-33.44,3.37-1.21,6.75-2.44,10.11-3.69.31-.12.18-.62-.14-.5-28.64,10.63-57.77,20-85.9,32C179.07-35.95,151.72-21.92,130.65-.81c-22.2,22.26-32,52.51-45.27,80.27-7.89,16.48-17.07,32.35-28.91,46.33a273.25,273.25,0,0,1-36.72,35.42,372.39,372.39,0,0,1-87.82,53.13q-5.45,2.32-11,4.42c-.31.12-.17.62.14.5Z" fill="#f7fafb"/><path d="M-79.43,215.42A523.43,523.43,0,0,0,4.82,164.25C32.54,143.62,58.06,120.14,77,91c9.06-14,16.77-28.68,24.79-43.23,7.15-12.95,14.59-26,24.47-37.1,19.39-21.77,45.92-36.21,72.15-48.11C226.05-50,254.83-59.79,283-71.2Q287.51-73,292-75c.31-.13.05-.57-.26-.44-27.42,11.64-55.69,21.17-83.09,32.89C182-31.09,155-17.73,133.67,2.34,111.66,23,99.83,51.6,84.83,77.26c-9.16,15.67-19.47,30.65-31.86,44a334,334,0,0,1-37.4,34.12,519.26,519.26,0,0,1-85.45,54.74q-4.87,2.5-9.81,4.89c-.3.14,0,.59.26.44Z" fill="#f7fafb"/><path d="M-80,211.61c27.7-16.7,55-34.22,80.93-53.53,27.4-20.36,53.34-42.68,74.24-69.83C85.11,75.33,94,61.68,103,48.12c7.92-11.94,15.92-24.13,25.87-34.51,19.9-20.76,46.25-34.46,72.19-46.13,26.85-12.07,54.63-21.93,81.45-34.07q4.62-2.1,9.18-4.3c.3-.15,0-.59-.26-.45-26.15,12.66-53.61,22.39-80.29,33.84C184.91-26.25,158.33-13.56,136.7,5.42c-10.21,9-18.47,19.56-26.19,30.68C101.59,48.94,93.3,62.2,84.29,75a302,302,0,0,1-34.85,41.68,432.92,432.92,0,0,1-37.85,32.69c-26.32,20.46-54.24,38.84-82.66,56.25q-4.59,2.81-9.19,5.58c-.28.17,0,.62.26.44Z" fill="#f7fafb"/><path d="M-80.57,207.8C-54.68,188.65-28,170.59-2.18,151.36,25.2,131,51.69,109.49,74.53,84c10.7-11.93,20.66-24.47,30.65-37,8.47-10.62,16.88-21.58,26.73-31,20.38-19.45,46.36-32.29,71.85-43.65C230-39.29,257-49.24,282.68-62.23q4.4-2.24,8.71-4.6c.29-.16,0-.61-.26-.45-24.85,13.66-51.54,23.63-77.54,34.82-25.71,11.06-51.8,23-73.68,40.79-10.45,8.48-19.15,18.63-27.62,29-9.62,11.81-18.92,23.88-28.75,35.52a393,393,0,0,1-36.78,38.35c-12.48,11.26-25.61,21.78-39,32-26.18,20-53.37,38.52-80,57.84q-4.32,3.13-8.61,6.31c-.26.19,0,.64.26.44Z" fill="#f7fafb"/><path d="M-81.08,204c23.66-21.27,49.66-39.86,75.16-58.82,26.93-20,53.67-40.26,78-63.38,11.46-10.87,22.46-22.2,33.36-33.62,9.21-9.65,18.2-19.69,28.17-28.56C154.51,1,180.43-11.18,205.75-22.37c25.84-11.41,52.44-21.53,77.06-35.48q4.19-2.37,8.26-4.92c.28-.17,0-.62-.26-.44C267-48.37,240.68-38.06,215-27S163.41-4.44,141.23,12.64c-10.38,8-19.35,17.59-28.38,27C102.4,50.58,92,61.57,81.25,72.19,56.83,96.3,30.17,117.53,2.72,138.05c-25.68,19.2-51.9,37.83-76.31,58.66q-4,3.39-7.86,6.88c-.25.22.12.59.37.36Z" fill="#f7fafb"/><path d="M-81.65,200.14c21.48-23.31,47.06-42.71,72.43-61.55,26.68-19.81,53.8-39,79.6-59.94C82.29,69,94,59,105.54,49c9.72-8.47,19.21-17.25,29.13-25.49C156,5.76,181.84-5.79,207-16.8,232.62-28,259-38.34,282.67-53.3q4.11-2.6,8.08-5.4c.27-.2,0-.64-.26-.45-22.68,16-48.73,26.75-74.09,37.72-25.54,11-51.71,22.06-74.35,38.51-10.08,7.33-19.18,16-28.54,24.2C102.41,51,91.25,60.71,79.89,70.17,54,91.74,26.71,111.52-.46,131.48-26.12,150.34-52,169.49-74.58,192c-2.53,2.52-5,5.11-7.44,7.74-.22.24.14.61.37.36Z" fill="#f7fafb"/><path d="M-82.18,196.28c18.84-24.63,43.35-44.62,68.08-63,26.34-19.62,53.83-37.65,80.79-56.4,23-16,45.93-32.2,68.2-49.24,22.08-16.89,48-27.9,73.35-38.82,25.62-11,52-21.69,74.9-37.92q3.75-2.67,7.34-5.55c.26-.21-.1-.57-.36-.37-21.9,17.57-48.24,28.79-73.82,39.82C190.52-4.13,164,6.5,140.81,22.63c-10.21,7.12-19.94,15-30,22.28Q92.63,58.16,74.16,71C47.18,89.89,19.65,108-7,127.37c-24.82,18-49.44,37.37-69.38,60.87-2.16,2.54-4.24,5.13-6.27,7.78-.2.26.25.52.45.26Z" fill="#f7fafb"/><path d="M-82.75,192.47c16.31-25.71,39.61-46.42,63.78-64.56C6.92,108.49,34.64,91.59,62.38,75c24.5-14.66,49.54-28.56,73.42-44.23a284.39,284.39,0,0,1,34.93-19.55C183.84,5,197.25-.48,210.6-6.1c25-10.53,50.63-21.32,72.11-38.2q3.84-3,7.45-6.32c.25-.22-.11-.59-.36-.36-20.56,18.74-46.56,30.41-71.88,41.22-25.76,11-52.4,20.93-76.17,36C131.26,32.89,120.87,39.65,110.21,46,97,54,83.64,61.74,70.37,69.62c-28,16.65-56,33.48-82.46,52.59-24.09,17.42-47.47,37-65.1,61.17q-3.15,4.31-6,8.83c-.18.28.26.54.44.26Z" fill="#f7fafb"/><path d="M-83.32,188.66c14-26.73,36.06-48.3,59.9-66.36C2,103,29.92,87.23,58.21,72.61,84.3,59.13,111.33,47.37,137.1,33.25c11.54-6.33,23.08-12.34,35.18-17.57C185.53,10,199,4.74,212.37-.73,237.15-10.89,262.55-22,282.85-39.85q3.64-3.21,7-6.71c.23-.24-.14-.6-.37-.36C270.17-26.85,244.26-14.65,218.94-4,193.32,6.75,166.78,15.87,142.53,29.6,118,43.47,92.19,54.81,67.09,67.5,38.17,82.11,9.55,97.78-16.78,116.75c-23.73,17.1-46.15,37.27-61.67,62.32-1.89,3-3.65,6.16-5.31,9.33-.16.29.29.55.44.26Z" fill="#f7fafb"/><path d="M-83.89,184.85c11.67-27.21,32-49.49,55.14-67.48C-3.66,97.91,24.75,83,53.64,70.07c27.68-12.38,56.43-22.14,84.15-34.4,12.08-5.34,23.94-11,36.27-15.76,13.34-5.19,26.81-10,40.11-15.29C238.78-5.14,264-16.51,283-35.4q3.42-3.41,6.52-7.09c.21-.26-.15-.62-.37-.37-17.83,21.2-43.32,34-68.51,44.31C195,12,168.52,20.51,143.45,32.51c-11.64,5.57-23.77,10.14-35.78,14.83C92.54,53.26,77.42,59.19,62.5,65.62,33.12,78.29,4.18,92.74-21.81,111.54c-23.29,16.84-44.47,37.6-57.9,63.29-1.67,3.19-3.2,6.45-4.62,9.76-.13.3.31.56.44.26Z" fill="#f7fafb"/><path d="M-84.43,181C-74.8,153.12-56,129.87-33.1,111.73S16.15,80.39,43.1,69.56C67,60,91.53,52.4,116.09,44.85c24.71-7.61,48.71-17.11,73.18-25.42C222,8.32,257.59-3.47,281.78-29.43a96.46,96.46,0,0,0,7.47-9c.2-.27-.25-.53-.45-.26C267.18-9.17,231,4.48,197.63,16c-17,5.89-34.13,11.48-50.9,18.08-8.5,3.35-17.26,6.06-26,8.77-24.15,7.49-48.37,14.76-72,23.9C22.11,77.11-4,89.62-27.18,106.59-50,123.35-69.75,144.81-81.13,171.05q-2.09,4.81-3.8,9.79c-.11.32.39.45.5.14Z" fill="#f7fafb"/></g><g opacity="0.35"><path d="M792.76,215.86c-31.91-5.08-65.33,2.64-92.41,20.09a122.43,122.43,0,0,0-33.75,31.91,94.66,94.66,0,0,0-11.09,20.19,108.68,108.68,0,0,0-6,24.1c-2.48,17.36-2.37,35-3.38,52.44-1,17-2.86,34.38-10.25,50-13,27.42-38.32,46.21-65.45,58.3-29.6,13.2-62.11,19.69-94.28,22.36q-5.85.48-11.69.79c-.33,0-.34.53,0,.51,31.65-1.68,63.54-6.91,93.34-18,27.12-10.06,53.57-25.62,70.4-49.75,8.8-12.63,14-26.79,16.28-42,2.65-17.29,2.57-34.85,3.51-52.28.92-17.18,2.52-35.08,9.89-50.87,6.74-14.45,17.14-27.15,29.28-37.4,25.38-21.43,59.24-33.06,92.44-31.33a125.53,125.53,0,0,1,13,1.38c.32.05.46-.44.14-.49Z" fill="#f7fafb"/><path d="M793,219.07c-31.06-3.23-63,5.43-89.2,22.06a133.2,133.2,0,0,0-33.95,30.43,101.54,101.54,0,0,0-19.34,41.88c-3.63,17.05-4.4,34.53-6.19,51.82-1.84,17.85-4.8,35.52-13.87,51.28-14.57,25.31-39.81,42.32-66.06,53.77-28.81,12.57-60,19.44-91.06,23.41q-5.54.7-11.09,1.29c-.33,0-.33.55,0,.51,30.63-3.21,61.29-9.06,90.21-19.84,26.41-9.85,52.47-24.3,70.2-46.75a97.32,97.32,0,0,0,19.18-42.25c3.3-17,4-34.44,5.88-51.65s4.94-34.57,13.55-49.73a122.57,122.57,0,0,1,30.67-35.13c25.14-19.9,57.45-31.62,89.59-31.26q5.76.08,11.48.68c.33,0,.33-.49,0-.52Z" fill="#f7fafb"/><path d="M793.26,222.3c-30.43-1.35-61.08,8.23-86.69,24.39a146.18,146.18,0,0,0-34.38,29.75A106.51,106.51,0,0,0,651,317.12c-8.89,32.57-6,69.19-24.75,98.5-15.46,24.13-40.68,40.19-66.46,51.46-28.35,12.39-58.74,19.8-89.12,25.13q-5.42.94-10.83,1.81c-.33.05-.19.55.13.49,30.1-4.77,60.16-11.38,88.67-22.31,26-10,51.84-23.93,70.06-45.5a96.92,96.92,0,0,0,20.4-40.41c3.88-16.35,5.39-33.15,8.23-49.69s7-32.92,16-47.17a133.27,133.27,0,0,1,31.87-34.22c24.79-19,55.75-31.12,87-32.42q5.5-.22,11,0c.33,0,.33-.5,0-.51Z" fill="#f7fafb"/><path d="M793.54,225.52c-29.7.62-59.1,11-84.11,26.69A162.14,162.14,0,0,0,675,280.86,113,113,0,0,0,651.76,320c-5.38,15.64-8.1,32-11.54,48.14a205.05,205.05,0,0,1-6,23.29,89.69,89.69,0,0,1-11.42,22.16c-16.14,23.28-41.4,38.69-66.87,49.94C527.86,476,498,484,468.14,490.7q-5.28,1.19-10.57,2.32c-.32.07-.19.56.14.49,29.54-6.34,59.05-13.69,87.21-24.8,25.62-10.11,51.21-23.57,69.91-44.25a96.56,96.56,0,0,0,21.42-37.81c4.53-15.67,6.93-31.87,10.69-47.73,3.82-16.13,9.14-32,18.77-45.64a146.66,146.66,0,0,1,32.42-32.71c24.53-18.29,54.37-30.89,84.94-33.92q5.22-.51,10.47-.61c.33,0,.33-.53,0-.52Z" fill="#f7fafb"/><path d="M793.82,228.74c-29,2.66-57.36,13.75-81.92,29.22-25.25,15.89-47.69,37.31-59.42,65.17-6.19,14.68-9.93,30.21-14.15,45.54a213.44,213.44,0,0,1-7,22.34A90.89,90.89,0,0,1,619,412.14c-16.84,22.13-41.92,36.75-66.92,47.9-27.7,12.36-56.92,21-86.1,29L455.28,492a.26.26,0,0,0,.14.5c28.94-7.9,57.93-16,85.77-27.3,25.15-10.2,50.39-23.13,69.54-42.77,9.94-10.19,18-22.3,22.7-35.8,5.13-14.89,8.44-30.33,13.09-45.37,4.88-15.77,11.34-31,21.58-44.08a164,164,0,0,1,32.52-31c24.22-17.73,52.87-30.7,82.57-35.62q5.29-.87,10.63-1.36c.33,0,.33-.55,0-.52Z" fill="#f7fafb"/><path d="M794,232c-28.38,4.79-55.73,16.57-80,31.89-25.06,15.86-47.89,36.37-61.28,63.2-6.82,13.68-11.54,28.24-16.52,42.66a220.14,220.14,0,0,1-8,21.1,92.76,92.76,0,0,1-13,19.77c-17.54,21-42.39,34.85-67,45.93-27.47,12.37-56.23,21.6-84.8,31L453,491c-.32.1-.18.6.13.5,28.41-9.48,57.06-18.39,84.71-29.94,24.86-10.38,49.92-22.94,69.5-41.82,10-9.68,18.46-21.16,23.65-34.14,5.58-13.92,9.77-28.36,15.24-42.33,5.93-15.14,13.46-29.52,24.12-41.9a187.41,187.41,0,0,1,33.49-30c24-17.12,51.68-30.31,80.51-36.94q4.89-1.12,9.82-2c.33-.06.19-.56-.13-.5Z" fill="#f7fafb"/><path d="M794.32,235.2c-27.51,7-53.88,19.26-77.81,34.42-25.07,15.87-48.37,35.58-63.52,61.43-7.54,12.87-13.24,26.66-19.08,40.36-2.76,6.46-5.41,13.09-8.8,19.26a96.33,96.33,0,0,1-13.53,18.17C593.38,428.76,568.66,442,544.39,453c-27.28,12.41-55.62,22.26-83.55,33q-5.08,1.95-10.13,4c-.3.12-.17.62.14.5,27.36-10.87,55.23-20.46,82.32-32,24.88-10.6,50.1-22.82,70.4-41,10.08-9.05,19-19.79,24.72-32.09,6.12-13.09,11.21-26.62,17.5-39.63,7-14.4,15.39-27.93,26.35-39.63A215.88,215.88,0,0,1,706,277.25a281.15,281.15,0,0,1,79.13-38.95c3.1-.94,6.21-1.8,9.35-2.6.32-.08.18-.58-.14-.5Z" fill="#f7fafb"/><path d="M794.6,238.43a367.61,367.61,0,0,0-76,37.1c-24.77,15.73-48.27,34.43-65.08,58.75-8.27,12-15,24.88-21.66,37.78-3.14,6.08-6.11,12.36-9.77,18.14a101.14,101.14,0,0,1-14.59,17.35c-18.9,18.68-43.38,31.16-67.3,42.13-27,12.39-54.87,22.85-82,34.91q-4.94,2.19-9.83,4.46c-.3.14,0,.58.26.44,26.85-12.44,54.56-22.89,81.65-34.78,24.41-10.72,49.22-22.5,69.81-39.71,10.18-8.51,19.36-18.54,25.71-30.22,6.68-12.28,12.69-24.91,19.78-37a176,176,0,0,1,28.6-37.22,259.29,259.29,0,0,1,34.37-27.79,372,372,0,0,1,77.38-40.67c2.92-1.11,5.86-2.19,8.82-3.21.31-.11.18-.61-.14-.5Z" fill="#f7fafb"/><path d="M794.83,241.68a593.12,593.12,0,0,0-74,39.73C696,297.2,672,315.17,653.5,338.28c-8.76,10.93-16.34,22.7-23.71,34.59-3.4,5.48-6.62,11.15-10.36,16.41-4.2,5.91-9.66,11.2-15,16.07C584.93,423.1,560.52,435,536.81,446c-26.87,12.45-54.37,23.57-80.83,36.9q-5,2.5-9.9,5.13c-.3.15,0,.6.26.44C472.54,474.54,500,463.22,527,451c24.18-10.89,48.84-22.3,69.87-38.7,10.38-8.1,19.75-17.53,26.78-28.7,7.2-11.42,14.1-23,21.93-34a205.38,205.38,0,0,1,31.14-35,328,328,0,0,1,34.8-26.53,568.24,568.24,0,0,1,74.94-42q4.28-2,8.59-4c.3-.13,0-.58-.26-.44Z" fill="#f7fafb"/><path d="M795.11,244.9c-24.41,13.86-48.92,27.57-72.6,42.65-24.91,15.85-49.2,33.09-69.36,54.83a369.15,369.15,0,0,0-25.59,31.42c-3.83,5.16-7.42,10.63-11.57,15.54a117,117,0,0,1-15.09,14.25c-20.12,16.64-44.36,28-67.86,39-26.79,12.52-54,24.32-79.72,38.93q-4.81,2.71-9.53,5.58c-.28.17,0,.62.26.44,25.42-15.37,52.56-27.55,79.49-40,24.08-11.11,48.77-22.19,70.32-37.84,10.13-7.35,19.56-15.79,27-25.88,7.89-10.72,15.73-21.47,24.33-31.64a250.81,250.81,0,0,1,32.75-32.34,430.91,430.91,0,0,1,35.48-25.76c24-15.81,48.93-30,73.9-44.14l8.07-4.57c.29-.16,0-.61-.26-.45Z" fill="#f7fafb"/><path d="M795.39,248.13c-23.34,16.3-47.94,30.75-71.95,46-25.26,16.08-50.18,32.82-72.06,53.38-9.92,9.33-19.21,19.27-28.17,29.51-4.14,4.73-8,9.86-12.67,14.09a174.05,174.05,0,0,1-15.77,12.63c-20.62,14.74-44.12,25.26-67,36-26.22,12.34-52.55,24.68-77.07,40.2-3.12,2-6.19,4-9.24,6.07-.27.18,0,.63.27.44,24.12-16.41,50.37-29.3,76.69-41.74C542,433.65,566.08,423.13,588,409c10.38-6.69,20.81-14.38,28.86-23.77,8.36-9.76,16.86-19.39,25.9-28.53,21.43-21.65,45.89-39.39,71.37-55.93,24.41-15.84,49.52-30.6,73.69-46.82q4-2.65,7.86-5.38c.27-.19,0-.63-.26-.44Z" fill="#f7fafb"/><path d="M795.62,251.39c-22.12,18.71-47,34-71.44,49.48C698.63,317,673,333.14,649.5,352.23Q633.86,364.92,619.39,379c-4.8,4.66-9.31,9.5-14.72,13.48-4.93,3.64-9.9,7.21-15.07,10.48-21.07,13.3-44.15,23.24-66.6,33.92-25.8,12.27-51.44,25.22-74.88,41.68q-4.51,3.16-8.9,6.51c-.26.2,0,.65.26.45,23.08-17.55,48.72-31.26,74.75-43.86,23.09-11.19,46.85-21.3,69-34.25,4.7-2.75,9.33-5.65,13.78-8.79,5.6-4,11.28-7.85,16.12-12.72q13.32-13.44,27.68-25.77c23.42-20,49-36.91,75-53.37,24.61-15.6,49.67-30.82,72.6-48.86q3.81-3,7.51-6.12c.25-.22-.11-.58-.37-.37Z" fill="#f7fafb"/><path d="M795.91,254.62c-20.34,20.63-45.08,36.69-69.51,52-26.1,16.36-52.78,31.78-78.12,49.32-10.77,7.45-21.34,15.2-31.48,23.48-5.07,4.14-9.87,8.53-15.39,12.09-5.15,3.33-10.33,6.63-15.67,9.66-21.52,12.22-44.51,21.71-66.79,32.43-25.68,12.36-50.9,26-73.48,43.54q-4.37,3.39-8.59,6.95c-.25.22.11.58.37.37C459.59,465.62,485,450.94,511.09,438c22.82-11.3,46.41-21.07,68.87-33.07,10.66-5.7,21.65-11.91,30.83-19.81,9.67-8.33,19.85-16.05,30.23-23.46,24.88-17.77,51.18-33.3,77.19-49.35,24.69-15.24,49.64-30.94,71.09-50.62q3.57-3.27,7-6.72c.24-.23-.13-.6-.36-.36Z" fill="#f7fafb"/><path d="M796.19,257.84c-18.39,22.22-42.72,39.06-67,54.17-26.3,16.34-53.71,30.8-80.44,46.39-11.68,6.81-23.31,13.76-34.48,21.38-5.22,3.56-10.18,7.43-15.69,10.56s-10.82,6.08-16.35,8.9c-21.92,11.13-44.82,20.21-66.92,31-25.58,12.44-50.37,26.82-72.12,45.27-2.92,2.47-5.77,5-8.57,7.62-.24.23.13.59.37.37,21.51-20,46.53-35.67,72.67-48.9,22.58-11.42,46.06-20.87,68.82-31.9,11.17-5.41,22.36-11.22,32.43-18.49,10.31-7.46,21.19-14.13,32.12-20.63,26.49-15.75,53.76-30.14,80.17-46,24.5-14.75,49-30.87,68.76-51.8q3.44-3.63,6.63-7.49c.21-.26-.16-.62-.37-.37Z" fill="#f7fafb"/><path d="M796.43,261.12C779.8,285,755.71,302.78,731.2,317.84c-26.45,16.24-54.53,29.64-82.38,43.26-12.32,6-24.68,12-36.65,18.71-5.64,3.17-11,6.73-16.86,9.59-5.52,2.72-11,5.41-16.66,7.94-22.26,10-45.11,18.7-67,29.47C486,439.4,461.51,454.6,440.52,474.07q-4.2,3.92-8.21,8c-.23.24.13.61.36.37,20.77-21.25,45.5-37.94,71.83-51.5,22.24-11.46,45.53-20.54,68.43-30.53a287.46,287.46,0,0,0,33.65-16.78c11.25-6.76,23.08-12.56,34.85-18.35,27.93-13.75,56.18-27,83-42.81C749,308,773.28,291.22,791.29,268.85q2.93-3.64,5.59-7.47c.19-.27-.26-.53-.45-.26Z" fill="#f7fafb"/><path d="M796.72,264.34c-14.78,25.13-38.2,43.9-62.78,58.88-27,16.45-56.22,28.91-85.45,40.77-12.85,5.21-25.81,10.22-38.44,15.95-5.9,2.68-11.59,5.8-17.55,8.35s-11.85,5-17.83,7.34c-22.43,8.87-45.1,17.09-66.74,27.82-25.59,12.68-49.6,28.64-69.76,49q-4.2,4.23-8.15,8.67c-.22.25.14.62.37.37,19.85-22.24,44-39.91,70.34-53.76,22.19-11.68,45.63-20.49,69-29.56,11.72-4.56,23.3-9.36,34.59-14.91,12.21-6,25-10.91,37.59-16,29-11.7,58-23.69,85.15-39.31,24.41-14,48-31.32,64.48-54.53q3-4.26,5.66-8.78a.26.26,0,0,0-.44-.26Z" fill="#f7fafb"/><path d="M797,267.57c-13,26.25-35.53,46-60.26,61-27.2,16.48-57.2,27.81-87.28,37.82-14,4.65-28.1,8.88-42,13.89-6.12,2.2-12,4.85-18.15,7.07s-12,4.27-18,6.33C548.72,401.45,526,409.24,504.55,420c-25.8,12.86-49.54,29.73-69,51.08-2.68,3-5.28,6-7.8,9.06-.21.26.15.63.36.37,19.09-23.35,42.9-42.12,69.45-56.31,22.05-11.8,45.55-20.26,69.15-28.33,12-4.12,23.94-8.52,35.81-13.14,13-5,26.36-9,39.59-13.33,30.14-9.84,60.24-20.65,87.94-36.28,24.46-13.8,47.53-31.78,62.34-56,1.83-3,3.51-6.07,5.07-9.21.14-.3-.3-.56-.45-.26Z" fill="#f7fafb"/><path d="M797.26,270.85c-11.38,27.45-33.19,48.37-58.36,63.43-24.62,14.73-52,24.37-79.48,32.14-11.88,3.36-23.85,6.34-35.82,9.32-9.18,2.29-18.41,4.49-27.4,7.44-25.56,8.38-51.76,14.7-76.69,25-32.54,13.4-62.15,33-85.17,59.87q-4.65,5.42-8.93,11.14c-.2.26.25.52.44.26,22.53-30,52.56-52.6,86.73-67.75,25.7-11.4,52.88-17.87,79.49-26.56,20.38-6.66,41.39-11,62.06-16.67,27-7.38,53.84-16.37,78.43-29.91,24.91-13.73,47.57-32.7,60.89-58.25q2.35-4.54,4.31-9.28c.12-.3-.38-.44-.5-.14Z" fill="#f7fafb"/></g><g opacity="0.33" style="mix-blend-mode:screen"><path d="M777.6,461.23c4.59-9.47,8.31-19.55,8.41-30s-3.88-21.23-12.46-27.83c-13.39-10.29-33.09-7.67-49.76-3.25s-34.6,10.09-50.77,4.28c-24.71-8.89-31.88-39.2-53.19-53.91-17.58-12.13-43.13-11.23-61.69-.46s-30.41,29.94-34.87,50S521.09,441,526,460.93c9.17,37.3,28.52,73.7,60.94,97s79.31,30.8,115,12.14Z" fill="url(#linear-gradient-4)"/></g></g></g></g></svg>