<svg id="objects" xmlns="http://www.w3.org/2000/svg" xmlns:xlink="http://www.w3.org/1999/xlink" viewBox="0 0 800 468.44"><defs><clipPath id="clip-path"><polyline points="0 586.69 0 -213.31 800 -213.31 800 586.69" fill="none"/></clipPath></defs><title>Artboard 1</title><g clip-path="url(#clip-path)"><polyline points="27.18 102.6 38.02 100.52 41.07 90.53 54.09 79.36 63.19 80.09 62.9 95.39 40.1 89.12 63.19 80.09 81.96 83.44 77.65 102.87 62.9 95.39 81.44 82.03 103.95 81.06 108.79 99.58 81.03 116.55 92.7 128.18 80.87 138.29 96.56 144.79 97.48 145.17 91.2 155.13 92.76 167.65 78.39 172.67 66.75 166.43 75.44 155.4 92.65 155.17 105.96 150.56 118.47 142.34 108.05 121.19 92.7 128.18 109.62 100.25 108.45 119.8 120.52 107.44 128.38 123.46 127.96 101.62 138.24 87.05 147.97 89.12 160.83 77.66 164.84 93.89 171.97 87.36 183.65 88.08 191.36 84 162.85 77.66 147.15 109.41 151.98 126.44 162.01 110.39 169.07 123.19 172.99 134 189.57 136.17 201.58 123.46 210.62 128.18 213.84 114.5 229.77 109.52 211.53 141.75 178.75 154.9 163.12 142.34 134.99 140.23 145.07 156.3 127.63 151.68 129.4 166.76 145.07 166.76 164.57 163.37 149.09 188.81 145.07 166.76 120.59 184.95 112.81 170.16 120.12 143.09 97.48 144.46 130.46 123.19 144.26 108.62 135.6 139.15 114.57 170.16 93.83 190.34 72.22 187.23 87.39 203.37 96.57 212.75 108.05 199.86 95.39 192.02 96.57 212.75 88.04 219.36 109.29 226.31 123.36 225.03 130.84 222.19 132.34 221.63 140.84 239.86 136.12 242.1 122.49 234.88 122.43 227.44" fill="none" stroke="#fff" stroke-linecap="round" stroke-linejoin="round" fill-rule="evenodd"/><polyline points="236.68 128.18 229.77 109.52 215.07 113.96 236.75 131.27 213.39 139.89" fill="none" stroke="#fff" stroke-linecap="round" stroke-linejoin="round" fill-rule="evenodd"/><polyline points="244.56 54.37 266.42 54.4 276.25 57.66 286.72 66.62 298.7 70.67 289.64 85.13 277.58 92.88 286.72 66.62 305.89 53.63 314.72 51.81 331.88 57.2 320.63 73.2 298.7 70.67 314.65 54.64 320.63 73.2" fill="none" stroke="#fff" stroke-linecap="round" stroke-linejoin="round" fill-rule="evenodd"/><polyline points="107.71 120.41 128.31 122.34 135.6 140.23 118.83 142.07 127.63 151.68 105.96 150.56 92.65 167.38 112.81 170.73 128.31 166.76 120.12 184.95 94.84 189.36" fill="none" stroke="#fff" stroke-linecap="round" stroke-linejoin="round" fill-rule="evenodd"/><polyline points="66.75 166.43 72.22 187.23 78.79 172.54 93.83 190.34 87.45 202.54" fill="none" stroke="#fff" stroke-linecap="round" stroke-linejoin="round" fill-rule="evenodd"/><polyline points="189.57 136.17 160.69 142.82 163.74 162.54 178.75 156.3 144.26 155.13 163.8 164.5 149.23 188.29 120.12 184.95 108.05 199.86 92.65 167.38 75.44 156.3 80.87 138.29 80.87 116.28 77.07 103.27 108.78 99.18 81.03 82.79 104.99 80.79 125.36 82.48" fill="none" stroke="#fff" stroke-linecap="round" stroke-linejoin="round" fill-rule="evenodd"/><polyline points="109.29 99.31 128.31 100.53 146.34 108.2 147.96 89.77" fill="none" stroke="#fff" stroke-miterlimit="1" fill-rule="evenodd"/><polyline points="158.42 264.94 156.29 280.32 158.36 303.31 172.94 305.19 172.72 323.2 187.66 312.45 178.48 294.55 187.3 278.93 165.81 257.54 174.35 251.92 197.59 252.07 206.51 260.15 187.66 262.34 196.3 293.42 210.82 291.74 224.49 271.84 243.9 289.61 223.58 294.55 209.41 310.81 187.66 312.45 186.02 339.97 208.78 337.64 226.39 312.45 244.24 315.55 255.04 307.52 227.55 310.68 230.35 327.28 254.34 337.57 232.21 344.36 237.24 361.25 223.5 371.81 213.41 359.4 198.15 371.54 184.18 359.65 189.27 386.51 211.06 397.5 193.36 398.95 204.62 424.32 211.6 396.29 199.04 373.21 223.8 372.49 231.78 344.84 208.91 337.3 186.02 358.85 186.02 341.54 208.31 312.45 196.75 294.82 205.44 259.88 224.49 271.84 223.58 293.42 258.66 307.35 264.91 325.47 255.71 335.72 238.35 360.58 214.78 357.95 213.68 397.5 193.36 398.58 189.27 387.57 197.71 372.44 183.64 359.46 213.68 357.95 208.78 337.64 172.94 325.47 157.21 302.93 178.48 294.55 158.97 264.12 165.43 255.57 187.19 262.1 211.96 293.42 225.78 310.94 209.47 312.72 232.21 344.36 244.24 316.57 265.91 325.47" fill="none" stroke="#fff" stroke-miterlimit="1" fill-rule="evenodd"/><polyline points="149.23 188.29 166.16 215.63 165.81 257.54 140.24 239.86 174.66 250.82 166.16 215.63" fill="none" stroke="#fff" stroke-miterlimit="1" fill-rule="evenodd"/><polyline points="680.2 374.27 678.51 349.48 702.65 356.99 711.68 333.25 731.33 323.59 737.21 335.77 752.95 343.06 759.16 321.52 766.05 343.67 761.92 361.1 761.39 380.37 745.15 385.19 734.44 376.13 725.46 358.16 707.05 375.36 679.99 374.63 702.64 357.89 737.21 335.77 761.92 361.1 725.38 357.89 737.21 335.77 745.22 385.55 761.92 361.1 734.44 376.13 726.47 374.63 703.09 357.26" fill="none" stroke="#fff" stroke-linecap="round" stroke-linejoin="round" fill-rule="evenodd"/><polyline points="679.07 349.71 712.23 333.52 736.16 336.44" fill="none" stroke="#fff" stroke-linecap="round" stroke-linejoin="round" fill-rule="evenodd"/><polyline points="774.42 303.89 756.68 295.92 747.36 288.4 700.76 288.4 679.59 280.48 689.33 271.89 680.96 270.66 679.59 280.48" fill="none" stroke="#fff" stroke-linecap="round" stroke-linejoin="round" fill-rule="evenodd"/><polyline points="658.19 241.32 645.54 262.37 648.45 279.78 652.6 287.96 680.52 280.83" fill="none" stroke="#fff" stroke-linecap="round" stroke-linejoin="round" fill-rule="evenodd"/><polyline points="673.17 194.72 664.35 212.79 651.08 223.99 658.19 241.32" fill="none" stroke="#fff" stroke-linecap="round" stroke-linejoin="round" fill-rule="evenodd"/><polyline points="665.55 178.04 629.03 187.61 641.27 212.32 654.04 193.54 674.27 195.56 688.17 191.89 698.8 171.66 692.83 165.63 691.01 156.57 671.86 162.8 665.24 142.09 698.73 131.89 669.44 118.44 665.18 96.25 685.7 100.24" fill="none" stroke="#fff" stroke-linecap="round" stroke-linejoin="round" fill-rule="evenodd"/><polyline points="723.63 107.32 739.47 92.77 729.48 83.24 715.62 87.08 697.99 81.45" fill="none" stroke="#fff" stroke-linecap="round" stroke-linejoin="round" fill-rule="evenodd"/><polyline points="659.88 240.55 646.36 235.46 641.27 212.32 616.68 204.06 599.9 208.09 587.87 215.55 581.38 229.24 584.83 238.79 584.99 239.23 581.03 250.37 573.99 237.24 585.67 239.23" fill="none" stroke="#fff" stroke-linecap="round" stroke-linejoin="round" fill-rule="evenodd"/><polyline points="569.2 225.94 565.88 213.75 581.45 189.85 562.38 195.56 543.38 196.78 551.64 178.87 571.59 164.87 601.51 187.02 599.9 208.09 581.45 187.88 590.75 217.32 565.52 213.92" fill="none" stroke="#fff" stroke-linecap="round" stroke-linejoin="round" fill-rule="evenodd"/><line x1="680.96" y1="270.66" x2="652.6" y2="287.96" fill="none" stroke="#fff" stroke-linecap="round" stroke-linejoin="round"/><line x1="689.33" y1="271.89" x2="747.23" y2="287.96" fill="none" stroke="#fff" stroke-linecap="round" stroke-linejoin="round"/><polyline points="697.92 83.24 686.04 101.2 669.44 118.44 723.69 108.05 737.31 117.25 739.47 94.18 714.77 87.35 723.69 108.05 697.58 133.41 714.7 136.57 691.37 154.25 666.3 141.92 658.19 161.05 665.55 177.47 671.86 195.07 640.35 210.82 600.47 185.25 617.43 168 596.93 161.88 619.2 150.19 634.52 140.85 643.79 157.64 630.3 187.61 658.46 160.53 639.83 115.24 610.83 116.59 590.82 139.46 618.45 150.38 610.85 117.57 591.79 97.54 602.22 83.51 618.45 81.73 638.3 90.03 657.44 80.24 666 96.47 640.3 115.04 634.52 140.85 617.56 167.98 630.01 187.43 616.68 204.06" fill="none" stroke="#fff" stroke-linecap="round" stroke-linejoin="round" fill-rule="evenodd"/><polyline points="596.48 159.84 570.95 163.21 581.03 189.04 551.64 178.87 561.9 195.07 565.11 213.75 544.58 196.37 530.74 172.99 543.17 165.27 551.64 145.53 543.38 139.41 529.96 140.54 543.78 116.46 570.88 139.41 579.88 122.22 560.04 102.6 591.48 98.45 590.75 140.86 569.27 163.74 553.07 143.78 571.97 139.41 559.15 104.68 556.59 84.48 570.88 72.74 553.76 70.67 529.25 79.72 515.58 102.59 491.88 94.18 498.7 79.99 487.6 67.84 470.38 90.31 482.51 86.45 488.57 118.52 490.15 136.66 458.7 138.03 460.66 113.96 490.22 118.52 516.09 101.52" fill="none" stroke="#fff" stroke-linecap="round" stroke-linejoin="round" fill-rule="evenodd"/><polyline points="448.12 197.58 478.31 201.55 494.17 200.04 507.95 219.03 493.86 232.4 470.31 227.31 450.63 215.28 447.8 197.65" fill="none" stroke="#fff" stroke-linecap="round" stroke-linejoin="round" fill-rule="evenodd"/><polyline points="533.62 113.96 516.09 101.52 527.59 142.24 511.8 161.47 491.08 137.61 477.1 161.88 491.88 181.7 524.48 188.82 530.74 172.99 513.09 163.07 480.24 161.88 458.06 161.88" fill="none" stroke="#fff" stroke-linecap="round" stroke-linejoin="round" fill-rule="evenodd"/><polyline points="427.75 188.02 404.05 189.85 418.28 206.08 400.43 226.12 379.74 211.5 383.34 186.79 358.95 184.8 337.92 199.71 357.14 210.53 367.36 199.28 361.52 232.07 331.63 215.91 330.13 224.42 334.46 236.97 343.97 252.77 365.11 254.46 385 245.85 361.52 232.07 379.74 211.5 385 245.85 410.55 246.03 430 231.03 418.28 206.08 448.12 197.58 493.86 232.4 496.81 257.17 484.43 273.04 465.64 269.12 456.86 256.72 473.22 247.12 484.24 273.09 475.36 286.58 458.7 298.25 435.18 298.89 450.11 272.24 432.58 275.64 426.78 261.99 444.74 245.04 470.31 227.31 473.22 247.12 465.64 269.31 450.16 272.08" fill="none" stroke="#fff" stroke-linecap="round" stroke-linejoin="round" fill-rule="evenodd"/><polyline points="424.84 56.48 418.12 60.37 417.57 83.89 406.6 96.25 392.82 98.5 406.34 115.96 410.92 134.54 395.26 143.21 390.29 128.21 371.23 140.38 367.86 157.36 355.63 159.28 371.23 140.38 395.26 143.21 406.34 115.96 433.23 114.79 439.63 131.04 437.2 148.57 419.84 149.8 433.65 113.68 444.7 85.14 417.57 83.89 431.77 114.53 461.53 113.96 444.7 85.14 470.97 90.31 461.53 113.96 440.65 130.71 458.7 138.03 488.57 118.52 529.96 140.54 490.15 136.66 457.76 161.47 478.02 201.24 492.05 181.97 494.17 200.64 524.48 188.82 506.77 218.94 543.38 196.78 524.48 188.82 511.8 161.47 492.43 181.7" fill="none" stroke="#fff" stroke-linecap="round" stroke-linejoin="round" fill-rule="evenodd"/><polyline points="529.25 140.86 543.71 163.79 551.64 178.87 530.74 172.99 528.43 140.14 533.62 113.96 543.17 116.59 560.04 102.6 530.62 79.99 498.01 79.72 481.85 86.45 492.54 93.63 529.32 78.66 555.2 83.95 592.54 97.67 570.88 72.74 595.94 74.82 601.04 81.73 608.61 74.82 619.2 80.68 610.79 116.59 579.02 122.22 592.54 97.67 638.3 89.28 639.05 115.24 657.44 80.24 670.34 80.24 685.7 100.24 697.58 132.24 715.84 86.17 697.88 81.68 671.44 79.99 665.18 96.25" fill="none" stroke="#fff" stroke-linecap="round" stroke-linejoin="round" fill-rule="evenodd"/><polyline points="641.38 116.46 668.87 119.35 666.3 141.21 634.52 140.85 611.84 118.25 637.62 90.28 665.55 98.19" fill="none" stroke="#fff" stroke-linecap="round" stroke-linejoin="round" fill-rule="evenodd"/><polyline points="383.34 186.79 403.23 189.04 400.36 225.39 409.49 245.31 397.32 268.1 406.05 282.7 426.78 261.99 456.86 256.72 444.74 245.04 429.94 232.19 450.63 215.28 444.74 245.04 449.19 271.76 458.7 298.25 478.1 310.26 477.29 327.74 461.95 318.33 458.7 298.25 434.28 323.07 418.28 307.43 435.6 298.89 432.58 275.64 408.54 298.25 407.01 320.8 408.54 330.13 430.72 340.21 434.28 323.07 455.79 340.69 450.13 361.98 430.6 367.24 418.96 381.12 417.43 347.25 430.72 340.21 455.79 340.69 461.95 318.33 435.6 298.54 406.05 282.7 408.54 298.25 418.28 307.43 408.54 330.13 434.28 323.07" fill="none" stroke="#fff" stroke-linecap="round" stroke-linejoin="round" fill-rule="evenodd"/><polyline points="688.17 191.89 680.2 180.87 665.14 177.47 692.83 165.63 672.14 163.8 657.5 160.91 643.6 158.08 616.69 168.46 618.45 150.38" fill="none" stroke="#fff" stroke-linecap="round" stroke-linejoin="round" fill-rule="evenodd"/><polyline points="654.04 192.97 629.03 187.61 601.51 184.2 596.41 160.91 590.75 140.86 571.97 139.41 570.53 163.74 543.71 163.79 511.8 161.47" fill="none" stroke="#fff" stroke-linecap="round" stroke-linejoin="round" fill-rule="evenodd"/><polyline points="337.36 199.28 331.63 215.28 357.14 210.53 361.52 231.1 334.46 236.97" fill="none" stroke="#fff" stroke-linecap="round" stroke-linejoin="round" fill-rule="evenodd"/><polyline points="138.24 86.78 125.36 82.48 108.78 99.18 120.52 107.44" fill="none" stroke="#fff" stroke-linecap="round" stroke-linejoin="round" fill-rule="evenodd"/><polyline points="718.08 178.04 731.87 171.04 731.33 155.6 718.08 178.04" fill="none" stroke="#fff" stroke-linecap="round" stroke-linejoin="round" fill-rule="evenodd"/><path d="M27.18,107a4.37,4.37,0,1,1,4.37-4.37A4.37,4.37,0,0,1,27.18,107Z" fill="#0069a3" fill-rule="evenodd"/><path d="M27.18,99.23a3.37,3.37,0,1,1-3.37,3.37,3.38,3.38,0,0,1,3.37-3.37m0-2a5.37,5.37,0,1,0,5.37,5.37,5.38,5.38,0,0,0-5.37-5.37Z" fill="#fff"/><path d="M63.19,83.39a3.3,3.3,0,1,1,3.29-3.3A3.29,3.29,0,0,1,63.19,83.39Z" fill="#0069a3" fill-rule="evenodd"/><path d="M63.19,77.8a2.29,2.29,0,1,1-2.29,2.29,2.3,2.3,0,0,1,2.29-2.29m0-2a4.29,4.29,0,1,0,4.29,4.29,4.29,4.29,0,0,0-4.29-4.29Z" fill="#fff"/><path d="M104.76,85.1a3.94,3.94,0,1,1,3.94-3.94A3.94,3.94,0,0,1,104.76,85.1Z" fill="#0069a3" fill-rule="evenodd"/><path d="M104.76,78.23a2.94,2.94,0,1,1-2.93,2.93,2.94,2.94,0,0,1,2.93-2.93m0-2a4.94,4.94,0,1,0,4.94,4.93,4.93,4.93,0,0,0-4.94-4.93Z" fill="#fff"/><path d="M75,158.9a3.44,3.44,0,1,1,3.44-3.44A3.45,3.45,0,0,1,75,158.9Z" fill="#0069a3" fill-rule="evenodd"/><path d="M75,153a2.44,2.44,0,1,1-2.45,2.44A2.44,2.44,0,0,1,75,153m0-2a4.44,4.44,0,1,0,4.44,4.44A4.44,4.44,0,0,0,75,151Z" fill="#fff"/><path d="M107.71,123.85a3.45,3.45,0,1,1,3.44-3.44A3.45,3.45,0,0,1,107.71,123.85Z" fill="#0069a3" fill-rule="evenodd"/><path d="M107.71,118a2.45,2.45,0,1,1-2.44,2.45,2.45,2.45,0,0,1,2.44-2.45m0-2a4.45,4.45,0,1,0,4.44,4.45,4.44,4.44,0,0,0-4.44-4.45Z" fill="#fff"/><path d="M163.74,97.83A3.29,3.29,0,1,1,167,94.54,3.29,3.29,0,0,1,163.74,97.83Z" fill="#0069a3" fill-rule="evenodd"/><path d="M163.74,92.25a2.29,2.29,0,1,1-2.3,2.29,2.29,2.29,0,0,1,2.3-2.29m0-2A4.29,4.29,0,1,0,168,94.54a4.3,4.3,0,0,0-4.29-4.29Z" fill="#fff"/><path d="M298.7,74.6a3.94,3.94,0,1,1,3.94-3.93A3.94,3.94,0,0,1,298.7,74.6Z" fill="#0069a3" fill-rule="evenodd"/><path d="M298.7,67.73a2.94,2.94,0,1,1-2.94,2.94,2.94,2.94,0,0,1,2.94-2.94m0-2a4.94,4.94,0,1,0,4.94,4.94,4.94,4.94,0,0,0-4.94-4.94Z" fill="#fff"/><path d="M161.66,82.22a3.94,3.94,0,1,1,3.94-3.94A3.94,3.94,0,0,1,161.66,82.22Z" fill="#0069a3" fill-rule="evenodd"/><path d="M161.66,75.35a2.94,2.94,0,1,1-2.93,2.93,2.94,2.94,0,0,1,2.93-2.93m0-2a4.94,4.94,0,1,0,4.94,4.93,4.93,4.93,0,0,0-4.94-4.93Z" fill="#fff"/><path d="M187.3,266a3.94,3.94,0,1,1,3.94-3.94A3.94,3.94,0,0,1,187.3,266Z" fill="#0069a3" fill-rule="evenodd"/><path d="M187.3,259.07a2.94,2.94,0,1,1-2.93,2.94,2.94,2.94,0,0,1,2.93-2.94m0-2a4.94,4.94,0,1,0,4.94,4.94,4.94,4.94,0,0,0-4.94-4.94Z" fill="#fff"/><path d="M430.6,371.18a3.94,3.94,0,1,1,3.93-3.94A3.95,3.95,0,0,1,430.6,371.18Z" fill="#0069a3" fill-rule="evenodd"/><path d="M430.6,364.31a2.94,2.94,0,1,1-2.94,2.93,2.93,2.93,0,0,1,2.94-2.93m0-2a4.94,4.94,0,1,0,4.93,4.93,4.94,4.94,0,0,0-4.93-4.93Z" fill="#fff"/><path d="M361.52,235a3.94,3.94,0,1,1,3.94-3.94A3.94,3.94,0,0,1,361.52,235Z" fill="#0069a3" fill-rule="evenodd"/><path d="M361.52,228.17a2.94,2.94,0,1,1-2.93,2.93,2.94,2.94,0,0,1,2.93-2.93m0-2a4.94,4.94,0,1,0,4.94,4.93,4.93,4.93,0,0,0-4.94-4.93Z" fill="#fff"/><path d="M444.74,249.41a4.37,4.37,0,1,1,4.37-4.37A4.37,4.37,0,0,1,444.74,249.41Z" fill="#0069a3" fill-rule="evenodd"/><path d="M444.74,241.67a3.37,3.37,0,1,1-3.37,3.37,3.38,3.38,0,0,1,3.37-3.37m0-2a5.37,5.37,0,1,0,5.37,5.37,5.37,5.37,0,0,0-5.37-5.37Z" fill="#fff"/><path d="M410.55,250a3.94,3.94,0,1,1,3.93-3.93A3.94,3.94,0,0,1,410.55,250Z" fill="#0069a3" fill-rule="evenodd"/><path d="M410.55,243.09a2.94,2.94,0,1,1-2.94,2.94,2.94,2.94,0,0,1,2.94-2.94m0-2a4.94,4.94,0,1,0,4.93,4.94,4.94,4.94,0,0,0-4.93-4.94Z" fill="#fff"/><path d="M334.46,240.9A3.94,3.94,0,1,1,338.4,237,3.93,3.93,0,0,1,334.46,240.9Z" fill="#0069a3" fill-rule="evenodd"/><path d="M334.46,234a2.94,2.94,0,1,1-2.93,2.94,2.94,2.94,0,0,1,2.93-2.94m0-2A4.94,4.94,0,1,0,339.4,237a4.94,4.94,0,0,0-4.94-4.94Z" fill="#fff"/><path d="M385,249.78a3.94,3.94,0,1,1,3.94-3.93A3.93,3.93,0,0,1,385,249.78Z" fill="#0069a3" fill-rule="evenodd"/><path d="M385,242.91a2.94,2.94,0,1,1-2.93,2.94,2.94,2.94,0,0,1,2.93-2.94m0-2a4.94,4.94,0,1,0,4.94,4.94,4.94,4.94,0,0,0-4.94-4.94Z" fill="#fff"/><path d="M680.2,375.73a1.47,1.47,0,1,1,1.47-1.46A1.46,1.46,0,0,1,680.2,375.73Z" fill="#0069a3" fill-rule="evenodd"/><path d="M680.2,373.8a.47.47,0,1,1-.46.47.47.47,0,0,1,.46-.47m0-2a2.47,2.47,0,1,0,2.47,2.47,2.46,2.46,0,0,0-2.47-2.47Z" fill="#fff"/><circle cx="745.15" cy="385.19" r="1.47" fill="#0069a3"/><path d="M745.15,384.73a.47.47,0,1,1-.47.46.47.47,0,0,1,.47-.46m0-2a2.47,2.47,0,1,0,2.47,2.46,2.47,2.47,0,0,0-2.47-2.46Z" fill="#fff"/><path d="M756.68,299.71a3.94,3.94,0,1,1,3.94-3.93A3.93,3.93,0,0,1,756.68,299.71Z" fill="#0069a3" fill-rule="evenodd"/><path d="M756.68,292.84a2.94,2.94,0,1,1-2.93,2.94,2.94,2.94,0,0,1,2.93-2.94m0-2a4.94,4.94,0,1,0,4.94,4.94,4.93,4.93,0,0,0-4.94-4.94Z" fill="#fff"/><path d="M711.68,337.18a3.94,3.94,0,1,1,3.93-3.93A3.94,3.94,0,0,1,711.68,337.18Z" fill="#0069a3" fill-rule="evenodd"/><path d="M711.68,330.31a2.94,2.94,0,1,1-2.94,2.94,2.94,2.94,0,0,1,2.94-2.94m0-2a4.94,4.94,0,1,0,4.93,4.94,4.94,4.94,0,0,0-4.93-4.94Z" fill="#fff"/><path d="M680.2,284.5a3.94,3.94,0,1,1,3.94-3.94A3.94,3.94,0,0,1,680.2,284.5Z" fill="#0069a3" fill-rule="evenodd"/><path d="M680.2,277.63a2.94,2.94,0,1,1-2.93,2.93,2.94,2.94,0,0,1,2.93-2.93m0-2a4.94,4.94,0,1,0,4.94,4.93,4.93,4.93,0,0,0-4.94-4.93Z" fill="#fff"/><path d="M658.19,245.25a3.94,3.94,0,1,1,3.94-3.93A3.93,3.93,0,0,1,658.19,245.25Z" fill="#0069a3" fill-rule="evenodd"/><path d="M658.19,238.38a2.94,2.94,0,1,1-2.93,2.94,2.94,2.94,0,0,1,2.93-2.94m0-2a4.94,4.94,0,1,0,4.94,4.94,4.94,4.94,0,0,0-4.94-4.94Z" fill="#fff"/><path d="M570.88,168.2a3.94,3.94,0,1,1,3.94-3.94A3.94,3.94,0,0,1,570.88,168.2Z" fill="#0069a3" fill-rule="evenodd"/><path d="M570.88,161.32a2.94,2.94,0,1,1-2.93,2.94,2.94,2.94,0,0,1,2.93-2.94m0-2a4.94,4.94,0,1,0,4.94,4.94,4.94,4.94,0,0,0-4.94-4.94Z" fill="#fff"/><path d="M588.89,219.22a3.94,3.94,0,1,1,3.94-3.94A3.94,3.94,0,0,1,588.89,219.22Z" fill="#0069a3" fill-rule="evenodd"/><path d="M588.89,212.35a2.94,2.94,0,1,1-2.93,2.93,2.94,2.94,0,0,1,2.93-2.93m0-2a4.94,4.94,0,1,0,4.94,4.93,4.93,4.93,0,0,0-4.94-4.93Z" fill="#fff"/><path d="M592.54,101.61a3.94,3.94,0,1,1,3.94-3.94A3.94,3.94,0,0,1,592.54,101.61Z" fill="#0069a3" fill-rule="evenodd"/><path d="M592.54,94.73a2.94,2.94,0,1,1-2.93,2.94,2.94,2.94,0,0,1,2.93-2.94m0-2a4.94,4.94,0,1,0,4.94,4.94,4.94,4.94,0,0,0-4.94-4.94Z" fill="#fff"/><path d="M715.62,91a3.94,3.94,0,1,1,3.93-3.93A3.94,3.94,0,0,1,715.62,91Z" fill="#0069a3" fill-rule="evenodd"/><path d="M715.62,84.14a2.94,2.94,0,1,1-2.94,2.94,2.94,2.94,0,0,1,2.94-2.94m0-2a4.94,4.94,0,1,0,4.93,4.94,4.94,4.94,0,0,0-4.93-4.94Z" fill="#fff"/><path d="M637.62,93.21a3.94,3.94,0,1,1,3.93-3.93A3.94,3.94,0,0,1,637.62,93.21Z" fill="#0069a3" fill-rule="evenodd"/><path d="M637.62,86.34a2.94,2.94,0,1,1-2.94,2.94,2.94,2.94,0,0,1,2.94-2.94m0-2a4.94,4.94,0,1,0,4.93,4.94,4.94,4.94,0,0,0-4.93-4.94Z" fill="#fff"/><path d="M738.4,96.25a3.94,3.94,0,1,1,3.94-3.93A3.94,3.94,0,0,1,738.4,96.25Z" fill="#0069a3" fill-rule="evenodd"/><path d="M738.4,89.38a2.94,2.94,0,1,1-2.94,2.94,2.94,2.94,0,0,1,2.94-2.94m0-2a4.94,4.94,0,1,0,4.94,4.94,4.94,4.94,0,0,0-4.94-4.94Z" fill="#fff"/><path d="M417.57,87.18a3.94,3.94,0,1,1,3.94-3.94A3.94,3.94,0,0,1,417.57,87.18Z" fill="#0069a3" fill-rule="evenodd"/><path d="M417.57,80.3a2.94,2.94,0,1,1-2.93,2.94,2.94,2.94,0,0,1,2.93-2.94m0-2a4.94,4.94,0,1,0,4.94,4.94,4.94,4.94,0,0,0-4.94-4.94Z" fill="#fff"/><path d="M691.37,158.18a3.94,3.94,0,1,1,3.94-3.93A3.93,3.93,0,0,1,691.37,158.18Z" fill="#0069a3" fill-rule="evenodd"/><path d="M691.37,151.31a2.94,2.94,0,1,1-2.93,2.94,2.94,2.94,0,0,1,2.93-2.94m0-2a4.94,4.94,0,1,0,4.94,4.94,4.94,4.94,0,0,0-4.94-4.94Z" fill="#fff"/><path d="M494.08,348.33a3.94,3.94,0,1,1,3.93-3.94A3.95,3.95,0,0,1,494.08,348.33Z" fill="#0069a3" fill-rule="evenodd"/><path d="M494.08,341.46a2.94,2.94,0,1,1-2.94,2.93,2.94,2.94,0,0,1,2.94-2.93m0-2a4.94,4.94,0,1,0,4.93,4.93,4.94,4.94,0,0,0-4.93-4.93Z" fill="#fff"/><path d="M278.76,96.43a3.94,3.94,0,1,1,3.94-3.93A3.94,3.94,0,0,1,278.76,96.43Z" fill="#0069a3" fill-rule="evenodd"/><path d="M278.76,89.56a2.94,2.94,0,1,1-2.94,2.94,2.94,2.94,0,0,1,2.94-2.94m0-2a4.94,4.94,0,1,0,4.94,4.94,4.94,4.94,0,0,0-4.94-4.94Z" fill="#fff"/><path d="M355.63,163.22a3.94,3.94,0,1,1,3.93-3.93A3.95,3.95,0,0,1,355.63,163.22Z" fill="#0069a3" fill-rule="evenodd"/><path d="M355.63,156.35a2.94,2.94,0,1,1-2.94,2.94,2.94,2.94,0,0,1,2.94-2.94m0-2a4.94,4.94,0,1,0,4.93,4.94,4.94,4.94,0,0,0-4.93-4.94Z" fill="#fff"/><path d="M392.82,102a3.53,3.53,0,1,1,3.53-3.53A3.53,3.53,0,0,1,392.82,102Z" fill="#0069a3" fill-rule="evenodd"/><path d="M392.82,96a2.53,2.53,0,1,1-2.52,2.53A2.53,2.53,0,0,1,392.82,96m0-2a4.53,4.53,0,1,0,4.53,4.53A4.52,4.52,0,0,0,392.82,94Z" fill="#fff"/><path d="M406.6,100.08a3.83,3.83,0,1,1,3.83-3.83A3.84,3.84,0,0,1,406.6,100.08Z" fill="#0069a3" fill-rule="evenodd"/><path d="M406.6,93.42a2.83,2.83,0,1,1-2.83,2.83,2.83,2.83,0,0,1,2.83-2.83m0-2a4.83,4.83,0,1,0,4.83,4.83,4.83,4.83,0,0,0-4.83-4.83Z" fill="#fff"/><path d="M405.46,120.53a3.94,3.94,0,1,1,3.93-3.94A3.95,3.95,0,0,1,405.46,120.53Z" fill="#0069a3" fill-rule="evenodd"/><path d="M405.46,113.66a2.94,2.94,0,1,1-2.94,2.93,2.94,2.94,0,0,1,2.94-2.93m0-2a4.94,4.94,0,1,0,4.93,4.93,4.94,4.94,0,0,0-4.93-4.93Z" fill="#fff"/><path d="M436.75,152.17a3.94,3.94,0,1,1,3.94-3.94A3.95,3.95,0,0,1,436.75,152.17Z" fill="#0069a3" fill-rule="evenodd"/><path d="M436.75,145.3a2.94,2.94,0,1,1-2.93,2.93,2.94,2.94,0,0,1,2.93-2.93m0-2a4.94,4.94,0,1,0,4.94,4.93,4.93,4.93,0,0,0-4.94-4.93Z" fill="#fff"/><path d="M516,105.13a3.94,3.94,0,1,1,3.93-3.93A3.94,3.94,0,0,1,516,105.13Z" fill="#0069a3" fill-rule="evenodd"/><path d="M516,98.26a2.94,2.94,0,1,1-2.94,2.94A2.94,2.94,0,0,1,516,98.26m0-2a4.94,4.94,0,1,0,4.93,4.94A4.94,4.94,0,0,0,516,96.26Z" fill="#fff"/><path d="M596.86,165a3.94,3.94,0,1,1,3.94-3.94A3.94,3.94,0,0,1,596.86,165Z" fill="#0069a3" fill-rule="evenodd"/><path d="M596.86,158.12a2.94,2.94,0,1,1-2.93,2.93,2.94,2.94,0,0,1,2.93-2.93m0-2a4.94,4.94,0,1,0,4.94,4.93,4.93,4.93,0,0,0-4.94-4.93Z" fill="#fff"/><path d="M669.44,122.38a3.94,3.94,0,1,1,3.94-3.94A3.95,3.95,0,0,1,669.44,122.38Z" fill="#0069a3" fill-rule="evenodd"/><path d="M669.44,115.5a2.94,2.94,0,1,1-2.94,2.94,2.94,2.94,0,0,1,2.94-2.94m0-2a4.94,4.94,0,1,0,4.94,4.94,4.94,4.94,0,0,0-4.94-4.94Z" fill="#fff"/><path d="M444.71,89.07a3.94,3.94,0,1,1,3.93-3.93A3.94,3.94,0,0,1,444.71,89.07Z" fill="#0069a3" fill-rule="evenodd"/><path d="M444.71,82.2a2.94,2.94,0,1,1-2.94,2.94,2.94,2.94,0,0,1,2.94-2.94m0-2a4.94,4.94,0,1,0,4.93,4.94,4.94,4.94,0,0,0-4.93-4.94Z" fill="#fff"/><path d="M498.14,333.17a1.47,1.47,0,1,1,1.46-1.47A1.47,1.47,0,0,1,498.14,333.17Z" fill="#0069a3" fill-rule="evenodd"/><path d="M498.14,331.23a.47.47,0,1,1-.47.47.47.47,0,0,1,.47-.47m0-2a2.47,2.47,0,1,0,2.46,2.47,2.46,2.46,0,0,0-2.46-2.47Z" fill="#fff"/><path d="M700.76,289.87a1.47,1.47,0,1,1,1.47-1.47A1.47,1.47,0,0,1,700.76,289.87Z" fill="#0069a3" fill-rule="evenodd"/><path d="M700.76,287.93a.47.47,0,1,1-.47.47.47.47,0,0,1,.47-.47m0-2a2.47,2.47,0,1,0,2.47,2.47,2.48,2.48,0,0,0-2.47-2.47Z" fill="#fff"/><path d="M652.6,289.43a1.47,1.47,0,1,1,1.47-1.47A1.47,1.47,0,0,1,652.6,289.43Z" fill="#0069a3" fill-rule="evenodd"/><path d="M652.6,287.49a.47.47,0,1,1-.47.47.47.47,0,0,1,.47-.47m0-2a2.47,2.47,0,1,0,2.47,2.47,2.47,2.47,0,0,0-2.47-2.47Z" fill="#fff"/><path d="M679.07,351.18a1.47,1.47,0,1,1,1.47-1.47A1.47,1.47,0,0,1,679.07,351.18Z" fill="#0069a3" fill-rule="evenodd"/><path d="M679.07,349.24a.47.47,0,1,1-.47.47.47.47,0,0,1,.47-.47m0-2a2.47,2.47,0,1,0,2.47,2.47,2.48,2.48,0,0,0-2.47-2.47Z" fill="#fff"/><path d="M753,344.53a1.47,1.47,0,1,1,1.47-1.47A1.47,1.47,0,0,1,753,344.53Z" fill="#0069a3" fill-rule="evenodd"/><path d="M753,342.59a.47.47,0,1,1-.47.47.47.47,0,0,1,.47-.47m0-2a2.47,2.47,0,1,0,2.47,2.47,2.48,2.48,0,0,0-2.47-2.47Z" fill="#fff"/><path d="M702.65,360.93a3.94,3.94,0,1,1,3.93-3.94A3.95,3.95,0,0,1,702.65,360.93Z" fill="#0069a3" fill-rule="evenodd"/><path d="M702.65,354.06a2.94,2.94,0,1,1-2.94,2.93,2.93,2.93,0,0,1,2.94-2.93m0-2a4.94,4.94,0,1,0,4.93,4.93,4.94,4.94,0,0,0-4.93-4.93Z" fill="#fff"/><path d="M640.35,214.75a3.94,3.94,0,1,1,3.94-3.93A3.93,3.93,0,0,1,640.35,214.75Z" fill="#0069a3" fill-rule="evenodd"/><path d="M640.35,207.88a2.94,2.94,0,1,1-2.93,2.94,2.94,2.94,0,0,1,2.93-2.94m0-2a4.94,4.94,0,1,0,4.94,4.94,4.94,4.94,0,0,0-4.94-4.94Z" fill="#fff"/><circle cx="664.34" cy="212.79" r="3.53" fill="#0069a3"/><path d="M664.34,210.26a2.53,2.53,0,1,1-2.52,2.53,2.53,2.53,0,0,1,2.52-2.53m0-2a4.53,4.53,0,1,0,4.53,4.53,4.52,4.52,0,0,0-4.53-4.53Z" fill="#fff"/><path d="M581,251.84a1.47,1.47,0,1,1,1.47-1.47A1.47,1.47,0,0,1,581,251.84Z" fill="#0069a3" fill-rule="evenodd"/><path d="M581,249.9a.47.47,0,1,1-.47.47.47.47,0,0,1,.47-.47m0-2a2.47,2.47,0,1,0,2.47,2.47A2.47,2.47,0,0,0,581,247.9Z" fill="#fff"/><path d="M367.86,160.32a3,3,0,1,1,3-3A3,3,0,0,1,367.86,160.32Z" fill="#0069a3" fill-rule="evenodd"/><path d="M367.86,155.39a2,2,0,1,1-2,2,2,2,0,0,1,2-2m0-2a4,4,0,1,0,4,4,4,4,0,0,0-4-4Z" fill="#fff"/><path d="M400.52,229.87a3.94,3.94,0,1,1,3.94-3.93A3.93,3.93,0,0,1,400.52,229.87Z" fill="#0069a3" fill-rule="evenodd"/><path d="M400.52,223a2.94,2.94,0,1,1-2.93,2.94,2.94,2.94,0,0,1,2.93-2.94m0-2a4.94,4.94,0,1,0,4.94,4.94,4.93,4.93,0,0,0-4.94-4.94Z" fill="#fff"/><path d="M491.88,183.53a1.83,1.83,0,1,1,1.83-1.83A1.83,1.83,0,0,1,491.88,183.53Z" fill="#0069a3" fill-rule="evenodd"/><path d="M491.88,180.87a.83.83,0,1,1-.83.83.83.83,0,0,1,.83-.83m0-2a2.83,2.83,0,1,0,2.83,2.83,2.82,2.82,0,0,0-2.83-2.83Z" fill="#fff"/><path d="M477.29,329.2a1.47,1.47,0,1,1,1.47-1.47A1.47,1.47,0,0,1,477.29,329.2Z" fill="#0069a3" fill-rule="evenodd"/><path d="M477.29,327.27a.47.47,0,1,1-.47.46.47.47,0,0,1,.47-.46m0-2a2.47,2.47,0,1,0,2.47,2.46,2.47,2.47,0,0,0-2.47-2.46Z" fill="#fff"/><path d="M430.4,342.16a1.47,1.47,0,1,1,1.46-1.47A1.47,1.47,0,0,1,430.4,342.16Z" fill="#0069a3" fill-rule="evenodd"/><path d="M430.4,340.22a.47.47,0,1,1-.47.47.47.47,0,0,1,.47-.47m0-2a2.47,2.47,0,1,0,2.46,2.47,2.47,2.47,0,0,0-2.46-2.47Z" fill="#fff"/><circle cx="397.25" cy="267.56" r="1.47" fill="#0069a3"/><path d="M397.25,267.09a.47.47,0,1,1-.46.47.47.47,0,0,1,.46-.47m0-2a2.47,2.47,0,1,0,2.47,2.47,2.46,2.46,0,0,0-2.47-2.47Z" fill="#fff"/><path d="M450.63,217.11a1.83,1.83,0,1,1,1.83-1.83A1.83,1.83,0,0,1,450.63,217.11Z" fill="#0069a3" fill-rule="evenodd"/><path d="M450.63,214.45a.83.83,0,1,1-.83.83.83.83,0,0,1,.83-.83m0-2a2.83,2.83,0,1,0,2.83,2.83,2.83,2.83,0,0,0-2.83-2.83Z" fill="#fff"/><path d="M473.22,248.59a1.47,1.47,0,1,1,1.47-1.47A1.47,1.47,0,0,1,473.22,248.59Z" fill="#0069a3" fill-rule="evenodd"/><path d="M473.22,246.65a.47.47,0,1,1-.47.47.47.47,0,0,1,.47-.47m0-2a2.47,2.47,0,1,0,2.47,2.47,2.48,2.48,0,0,0-2.47-2.47Z" fill="#fff"/><path d="M465.64,270.38a1.27,1.27,0,1,1,1.27-1.26A1.27,1.27,0,0,1,465.64,270.38Z" fill="#0069a3" fill-rule="evenodd"/><path d="M465.64,268.85a.27.27,0,1,1,0,.53.27.27,0,0,1,0-.53m0-2a2.27,2.27,0,1,0,2.27,2.27,2.27,2.27,0,0,0-2.27-2.27Z" fill="#fff"/><path d="M357.14,211.79a1.27,1.27,0,1,1,1.26-1.26A1.27,1.27,0,0,1,357.14,211.79Z" fill="#0069a3" fill-rule="evenodd"/><path d="M357.14,210.26a.27.27,0,1,1-.27.27.27.27,0,0,1,.27-.27m0-2a2.27,2.27,0,1,0,2.26,2.27,2.27,2.27,0,0,0-2.26-2.27Z" fill="#fff"/><path d="M330.13,225.69a1.27,1.27,0,1,1,1.27-1.27A1.26,1.26,0,0,1,330.13,225.69Z" fill="#0069a3" fill-rule="evenodd"/><path d="M330.13,224.16a.27.27,0,1,1-.26.26.27.27,0,0,1,.26-.26m0-2a2.27,2.27,0,1,0,2.27,2.26,2.26,2.26,0,0,0-2.27-2.26Z" fill="#fff"/><circle cx="367.36" cy="199.28" r="1.47" fill="#0069a3"/><path d="M367.36,198.81a.47.47,0,1,1-.47.47.47.47,0,0,1,.47-.47m0-2a2.47,2.47,0,1,0,2.47,2.47,2.47,2.47,0,0,0-2.47-2.47Z" fill="#fff"/><path d="M331.63,218.88a3,3,0,1,1,3-3A3,3,0,0,1,331.63,218.88Z" fill="#0069a3" fill-rule="evenodd"/><path d="M331.63,214a2,2,0,1,1-2,2,2,2,0,0,1,2-2m0-2a4,4,0,1,0,4,4,4,4,0,0,0-4-4Z" fill="#fff"/><path d="M379.74,215.44a3.94,3.94,0,1,1,3.94-3.94A3.94,3.94,0,0,1,379.74,215.44Z" fill="#0069a3" fill-rule="evenodd"/><path d="M379.74,208.57a2.94,2.94,0,1,1-2.93,2.93,2.94,2.94,0,0,1,2.93-2.93m0-2a4.94,4.94,0,1,0,4.94,4.93,4.93,4.93,0,0,0-4.94-4.93Z" fill="#fff"/><path d="M456.86,258a1.27,1.27,0,1,1,1.27-1.27A1.26,1.26,0,0,1,456.86,258Z" fill="#0069a3" fill-rule="evenodd"/><path d="M456.86,256.46a.27.27,0,1,1-.26.26.27.27,0,0,1,.26-.26m0-2a2.27,2.27,0,1,0,2.27,2.26,2.26,2.26,0,0,0-2.27-2.26Z" fill="#fff"/><path d="M470.31,229.14a1.84,1.84,0,1,1,1.83-1.83A1.83,1.83,0,0,1,470.31,229.14Z" fill="#0069a3" fill-rule="evenodd"/><path d="M470.31,226.48a.83.83,0,1,1-.83.83.83.83,0,0,1,.83-.83m0-2a2.83,2.83,0,1,0,2.83,2.83,2.82,2.82,0,0,0-2.83-2.83Z" fill="#fff"/><path d="M478.1,311.73a1.47,1.47,0,1,1,1.47-1.47A1.47,1.47,0,0,1,478.1,311.73Z" fill="#0069a3" fill-rule="evenodd"/><path d="M478.1,309.79a.47.47,0,1,1-.47.47.47.47,0,0,1,.47-.47m0-2a2.47,2.47,0,1,0,2.47,2.47,2.48,2.48,0,0,0-2.47-2.47Z" fill="#fff"/><circle cx="475.27" cy="286.31" r="1.47" fill="#0069a3"/><path d="M475.27,285.85a.47.47,0,1,1-.47.46.47.47,0,0,1,.47-.46m0-2a2.47,2.47,0,1,0,2.47,2.46,2.46,2.46,0,0,0-2.47-2.46Z" fill="#fff"/><path d="M409.08,300.66a2.4,2.4,0,1,1,2.4-2.39A2.39,2.39,0,0,1,409.08,300.66Z" fill="#0069a3" fill-rule="evenodd"/><path d="M409.08,296.87a1.4,1.4,0,1,1,0,2.79,1.4,1.4,0,0,1,0-2.79m0-2a3.4,3.4,0,1,0,3.4,3.4,3.4,3.4,0,0,0-3.4-3.4Z" fill="#fff"/><path d="M434.28,327.44a4.37,4.37,0,1,1,4.36-4.37A4.37,4.37,0,0,1,434.28,327.44Z" fill="#0069a3" fill-rule="evenodd"/><path d="M434.28,319.7a3.37,3.37,0,1,1-3.37,3.37,3.37,3.37,0,0,1,3.37-3.37m0-2a5.37,5.37,0,1,0,5.36,5.37,5.36,5.36,0,0,0-5.36-5.37Z" fill="#fff"/><path d="M478.31,205.64a4.1,4.1,0,1,1,4.1-4.09A4.1,4.1,0,0,1,478.31,205.64Z" fill="#0069a3" fill-rule="evenodd"/><path d="M478.31,198.45a3.1,3.1,0,1,1-3.09,3.1,3.1,3.1,0,0,1,3.09-3.1m0-2a5.1,5.1,0,1,0,5.1,5.1,5.09,5.09,0,0,0-5.1-5.1Z" fill="#fff"/><path d="M418.28,210a3.94,3.94,0,1,1,3.94-3.93A3.93,3.93,0,0,1,418.28,210Z" fill="#0069a3" fill-rule="evenodd"/><path d="M418.28,203.14a2.94,2.94,0,1,1-2.93,2.94,2.94,2.94,0,0,1,2.93-2.94m0-2a4.94,4.94,0,1,0,4.94,4.94,4.94,4.94,0,0,0-4.94-4.94Z" fill="#fff"/><path d="M449.19,275.69a3.94,3.94,0,1,1,3.93-3.93A3.94,3.94,0,0,1,449.19,275.69Z" fill="#0069a3" fill-rule="evenodd"/><path d="M449.19,268.82a2.94,2.94,0,1,1-2.94,2.94,2.94,2.94,0,0,1,2.94-2.94m0-2a4.94,4.94,0,1,0,4.93,4.94,4.94,4.94,0,0,0-4.93-4.94Z" fill="#fff"/><path d="M493.86,236.34a3.94,3.94,0,1,1,3.94-3.94A3.94,3.94,0,0,1,493.86,236.34Z" fill="#0069a3" fill-rule="evenodd"/><path d="M493.86,229.47a2.94,2.94,0,1,1-2.93,2.93,2.94,2.94,0,0,1,2.93-2.93m0-2a4.94,4.94,0,1,0,4.94,4.93,4.93,4.93,0,0,0-4.94-4.93Z" fill="#fff"/><path d="M511.8,165.41a3.94,3.94,0,1,1,3.93-3.94A3.95,3.95,0,0,1,511.8,165.41Z" fill="#0069a3" fill-rule="evenodd"/><path d="M511.8,158.54a2.94,2.94,0,1,1-2.94,2.93,2.94,2.94,0,0,1,2.94-2.93m0-2a4.94,4.94,0,1,0,4.93,4.93,4.94,4.94,0,0,0-4.93-4.93Z" fill="#fff"/><path d="M553.76,72.14a1.47,1.47,0,1,1,1.47-1.47A1.47,1.47,0,0,1,553.76,72.14Z" fill="#0069a3" fill-rule="evenodd"/><path d="M553.76,70.2a.47.47,0,1,1-.47.47.47.47,0,0,1,.47-.47m0-2a2.47,2.47,0,1,0,2.47,2.47,2.47,2.47,0,0,0-2.47-2.47Z" fill="#fff"/><path d="M548.81,56.2a1.83,1.83,0,1,1,1.83-1.83A1.83,1.83,0,0,1,548.81,56.2Z" fill="#0069a3" fill-rule="evenodd"/><path d="M548.81,53.54a.83.83,0,1,1-.83.83.83.83,0,0,1,.83-.83m0-2a2.83,2.83,0,1,0,2.83,2.83,2.83,2.83,0,0,0-2.83-2.83Z" fill="#fff"/><path d="M486.66,69.93a1.47,1.47,0,1,1,1.47-1.47A1.47,1.47,0,0,1,486.66,69.93Z" fill="#0069a3" fill-rule="evenodd"/><path d="M486.66,68a.47.47,0,1,1-.47.47.47.47,0,0,1,.47-.47m0-2a2.47,2.47,0,1,0,2.47,2.47A2.47,2.47,0,0,0,486.66,66Z" fill="#fff"/><path d="M424.84,59.44a3,3,0,1,1,3-3A3,3,0,0,1,424.84,59.44Z" fill="#0069a3" fill-rule="evenodd"/><path d="M424.84,54.52a2,2,0,1,1-2,2,2,2,0,0,1,2-2m0-2a4,4,0,1,0,4,4,4,4,0,0,0-4-4Z" fill="#fff"/><path d="M488.57,120a1.47,1.47,0,1,1,1.47-1.47A1.46,1.46,0,0,1,488.57,120Z" fill="#0069a3" fill-rule="evenodd"/><path d="M488.57,118.05a.47.47,0,1,1-.46.47.47.47,0,0,1,.46-.47m0-2a2.47,2.47,0,1,0,2.47,2.47,2.47,2.47,0,0,0-2.47-2.47Z" fill="#fff"/><path d="M490.15,140.6a3.94,3.94,0,1,1,3.94-3.94A3.94,3.94,0,0,1,490.15,140.6Z" fill="#0069a3" fill-rule="evenodd"/><path d="M490.15,133.73a2.94,2.94,0,1,1-2.93,2.93,2.94,2.94,0,0,1,2.93-2.93m0-2a4.94,4.94,0,1,0,4.94,4.93,4.93,4.93,0,0,0-4.94-4.93Z" fill="#fff"/><path d="M418.12,62.2A1.83,1.83,0,1,1,420,60.37,1.83,1.83,0,0,1,418.12,62.2Z" fill="#0069a3" fill-rule="evenodd"/><path d="M418.12,59.54a.83.83,0,1,1-.83.83.83.83,0,0,1,.83-.83m0-2A2.83,2.83,0,1,0,421,60.37a2.83,2.83,0,0,0-2.83-2.83Z" fill="#fff"/><path d="M481.85,88.28a1.83,1.83,0,1,1,1.83-1.83A1.84,1.84,0,0,1,481.85,88.28Z" fill="#0069a3" fill-rule="evenodd"/><path d="M481.85,85.62a.83.83,0,0,1,0,1.66.83.83,0,1,1,0-1.66m0-2a2.83,2.83,0,1,0,2.83,2.83,2.83,2.83,0,0,0-2.83-2.83Z" fill="#fff"/><path d="M645.54,263.83a1.47,1.47,0,1,1,1.47-1.46A1.47,1.47,0,0,1,645.54,263.83Z" fill="#0069a3" fill-rule="evenodd"/><path d="M645.54,261.9a.47.47,0,1,1-.47.46.47.47,0,0,1,.47-.46m0-2a2.47,2.47,0,1,0,2.47,2.46,2.47,2.47,0,0,0-2.47-2.46Z" fill="#fff"/><path d="M569.2,227.41a1.47,1.47,0,1,1,1.47-1.47A1.47,1.47,0,0,1,569.2,227.41Z" fill="#0069a3" fill-rule="evenodd"/><path d="M569.2,225.47a.47.47,0,1,1-.47.47.47.47,0,0,1,.47-.47m0-2a2.47,2.47,0,1,0,2.47,2.47,2.48,2.48,0,0,0-2.47-2.47Z" fill="#fff"/><path d="M543.38,200.71a3.94,3.94,0,1,1,3.93-3.93A3.94,3.94,0,0,1,543.38,200.71Z" fill="#0069a3" fill-rule="evenodd"/><path d="M543.38,193.84a2.94,2.94,0,1,1-2.94,2.94,2.94,2.94,0,0,1,2.94-2.94m0-2a4.94,4.94,0,1,0,4.93,4.94,4.94,4.94,0,0,0-4.93-4.94Z" fill="#fff"/><path d="M533.62,115.79a1.83,1.83,0,1,1,1.84-1.83A1.83,1.83,0,0,1,533.62,115.79Z" fill="#0069a3" fill-rule="evenodd"/><path d="M533.62,113.13a.83.83,0,1,1,0,1.66.83.83,0,0,1,0-1.66m0-2a2.83,2.83,0,1,0,2.84,2.83,2.83,2.83,0,0,0-2.84-2.83Z" fill="#fff"/><path d="M543.38,140.87a1.47,1.47,0,1,1,1.47-1.46A1.47,1.47,0,0,1,543.38,140.87Z" fill="#0069a3" fill-rule="evenodd"/><path d="M543.38,138.94a.47.47,0,1,1-.47.47.47.47,0,0,1,.47-.47m0-2a2.47,2.47,0,1,0,2.47,2.47,2.47,2.47,0,0,0-2.47-2.47Z" fill="#fff"/><path d="M530.73,174.46A1.47,1.47,0,1,1,532.2,173,1.47,1.47,0,0,1,530.73,174.46Z" fill="#0069a3" fill-rule="evenodd"/><path d="M530.73,172.52a.47.47,0,1,1-.46.47.47.47,0,0,1,.46-.47m0-2A2.47,2.47,0,1,0,533.2,173a2.47,2.47,0,0,0-2.47-2.47Z" fill="#fff"/><circle cx="680.2" cy="180.87" r="1.47" fill="#0069a3"/><path d="M680.2,180.4a.47.47,0,1,1-.46.47.47.47,0,0,1,.46-.47m0-2a2.47,2.47,0,1,0,2.47,2.47,2.46,2.46,0,0,0-2.47-2.47Z" fill="#fff"/><path d="M731.23,157.06a1.47,1.47,0,1,1,1.46-1.46A1.46,1.46,0,0,1,731.23,157.06Z" fill="#0069a3" fill-rule="evenodd"/><path d="M731.23,155.13a.47.47,0,1,1-.47.47.47.47,0,0,1,.47-.47m0-2a2.47,2.47,0,1,0,2.46,2.47,2.46,2.46,0,0,0-2.46-2.47Z" fill="#fff"/><path d="M585,240.7a1.47,1.47,0,1,1,1.47-1.47A1.47,1.47,0,0,1,585,240.7Z" fill="#0069a3" fill-rule="evenodd"/><path d="M585,238.76a.47.47,0,1,1-.47.47.47.47,0,0,1,.47-.47m0-2a2.47,2.47,0,1,0,2.47,2.47,2.48,2.48,0,0,0-2.47-2.47Z" fill="#fff"/><path d="M407,322.07a1.27,1.27,0,1,1,1.26-1.27A1.27,1.27,0,0,1,407,322.07Z" fill="#0069a3" fill-rule="evenodd"/><path d="M407,320.54a.27.27,0,0,1,0,.53.27.27,0,1,1,0-.53m0-2a2.27,2.27,0,1,0,2.26,2.26,2.27,2.27,0,0,0-2.26-2.26Z" fill="#fff"/><path d="M432.58,277.11a1.47,1.47,0,1,1,1.47-1.47A1.47,1.47,0,0,1,432.58,277.11Z" fill="#0069a3" fill-rule="evenodd"/><path d="M432.58,275.17a.47.47,0,1,1-.47.47.47.47,0,0,1,.47-.47m0-2a2.47,2.47,0,1,0,2.47,2.47,2.48,2.48,0,0,0-2.47-2.47Z" fill="#fff"/><path d="M458.7,299.72a1.47,1.47,0,1,1,1.47-1.47A1.46,1.46,0,0,1,458.7,299.72Z" fill="#0069a3" fill-rule="evenodd"/><path d="M458.7,297.78a.47.47,0,1,1-.46.47.47.47,0,0,1,.46-.47m0-2a2.47,2.47,0,1,0,2.47,2.47,2.47,2.47,0,0,0-2.47-2.47Z" fill="#fff"/><path d="M426.78,263.46a1.47,1.47,0,1,1,1.47-1.47A1.47,1.47,0,0,1,426.78,263.46Z" fill="#0069a3" fill-rule="evenodd"/><path d="M426.78,261.52a.47.47,0,1,1-.47.47.47.47,0,0,1,.47-.47m0-2a2.47,2.47,0,1,0,2.47,2.47,2.47,2.47,0,0,0-2.47-2.47Z" fill="#fff"/><path d="M365.11,258.39a3.94,3.94,0,1,1,3.93-3.93A3.94,3.94,0,0,1,365.11,258.39Z" fill="#0069a3" fill-rule="evenodd"/><path d="M365.11,251.52a2.94,2.94,0,1,1-2.94,2.94,2.94,2.94,0,0,1,2.94-2.94m0-2a4.94,4.94,0,1,0,4.93,4.94,4.94,4.94,0,0,0-4.93-4.94Z" fill="#fff"/><path d="M599.9,209.56a1.47,1.47,0,1,1,1.47-1.47A1.47,1.47,0,0,1,599.9,209.56Z" fill="#0069a3" fill-rule="evenodd"/><path d="M599.9,207.62a.47.47,0,1,1-.47.47.47.47,0,0,1,.47-.47m0-2a2.47,2.47,0,1,0,2.47,2.47,2.48,2.48,0,0,0-2.47-2.47Z" fill="#fff"/><path d="M643.79,159.11a1.47,1.47,0,1,1,1.47-1.47A1.47,1.47,0,0,1,643.79,159.11Z" fill="#0069a3" fill-rule="evenodd"/><path d="M643.79,157.18a.47.47,0,1,1-.47.46.47.47,0,0,1,.47-.46m0-2a2.47,2.47,0,1,0,2.47,2.46,2.47,2.47,0,0,0-2.47-2.46Z" fill="#fff"/><path d="M618.57,153.86a3.94,3.94,0,1,1,3.93-3.94A3.95,3.95,0,0,1,618.57,153.86Z" fill="#0069a3" fill-rule="evenodd"/><path d="M618.57,147a2.94,2.94,0,1,1-2.94,2.93,2.93,2.93,0,0,1,2.94-2.93m0-2a4.94,4.94,0,1,0,4.93,4.93,4.93,4.93,0,0,0-4.93-4.93Z" fill="#fff"/><path d="M601,188.92A3.94,3.94,0,1,1,605,185,3.95,3.95,0,0,1,601,188.92Z" fill="#0069a3" fill-rule="evenodd"/><path d="M601,182.05A2.94,2.94,0,1,1,598.1,185a2.94,2.94,0,0,1,2.94-2.93m0-2A4.94,4.94,0,1,0,606,185a4.94,4.94,0,0,0-4.94-4.93Z" fill="#fff"/><path d="M639.83,116.71a1.47,1.47,0,1,1,0-2.93,1.47,1.47,0,0,1,0,2.93Z" fill="#0069a3" fill-rule="evenodd"/><path d="M639.83,114.78a.47.47,0,0,1,0,.93.47.47,0,1,1,0-.93m0-2a2.47,2.47,0,1,0,2.46,2.46,2.46,2.46,0,0,0-2.46-2.46Z" fill="#fff"/><path d="M634.52,144.79a3.94,3.94,0,1,1,3.93-3.94A3.95,3.95,0,0,1,634.52,144.79Z" fill="#0069a3" fill-rule="evenodd"/><path d="M634.52,137.91a2.94,2.94,0,1,1-2.94,2.94,2.94,2.94,0,0,1,2.94-2.94m0-2a4.94,4.94,0,1,0,4.93,4.94,4.94,4.94,0,0,0-4.93-4.94Z" fill="#fff"/><path d="M579.88,123.68a1.47,1.47,0,1,1,1.47-1.46A1.47,1.47,0,0,1,579.88,123.68Z" fill="#0069a3" fill-rule="evenodd"/><path d="M579.88,121.75a.47.47,0,1,1-.47.47.47.47,0,0,1,.47-.47m0-2a2.47,2.47,0,1,0,2.47,2.47,2.47,2.47,0,0,0-2.47-2.47Z" fill="#fff"/><path d="M590.75,141.57a1.47,1.47,0,1,1,1.47-1.46A1.46,1.46,0,0,1,590.75,141.57Z" fill="#0069a3" fill-rule="evenodd"/><path d="M590.75,139.64a.47.47,0,1,1-.47.47.47.47,0,0,1,.47-.47m0-2a2.47,2.47,0,1,0,2.47,2.47,2.47,2.47,0,0,0-2.47-2.47Z" fill="#fff"/><path d="M551.64,180.7a1.84,1.84,0,1,1,1.83-1.83A1.84,1.84,0,0,1,551.64,180.7Z" fill="#0069a3" fill-rule="evenodd"/><path d="M551.64,178a.84.84,0,1,1-.83.84.84.84,0,0,1,.83-.84m0-2a2.84,2.84,0,1,0,2.83,2.84,2.84,2.84,0,0,0-2.83-2.84Z" fill="#fff"/><circle cx="581.38" cy="229.24" r="1.47" fill="#0069a3"/><path d="M581.38,228.77a.47.47,0,1,1-.47.47.47.47,0,0,1,.47-.47m0-2a2.47,2.47,0,1,0,2.47,2.47,2.48,2.48,0,0,0-2.47-2.47Z" fill="#fff"/><circle cx="574.72" cy="237.5" r="1.47" fill="#0069a3"/><path d="M574.72,237a.47.47,0,1,1-.47.47.47.47,0,0,1,.47-.47m0-2a2.47,2.47,0,1,0,2.47,2.47,2.47,2.47,0,0,0-2.47-2.47Z" fill="#fff"/><path d="M551.64,148a3.94,3.94,0,1,1,3.94-3.94A3.95,3.95,0,0,1,551.64,148Z" fill="#0069a3" fill-rule="evenodd"/><path d="M551.64,141.13a2.94,2.94,0,1,1-2.94,2.94,2.94,2.94,0,0,1,2.94-2.94m0-2a4.94,4.94,0,1,0,4.94,4.94,4.94,4.94,0,0,0-4.94-4.94Z" fill="#fff"/><path d="M581,193.7a4.67,4.67,0,1,1,4.66-4.66A4.66,4.66,0,0,1,581,193.7Z" fill="#0069a3" fill-rule="evenodd"/><path d="M581,185.37a3.67,3.67,0,1,1-3.66,3.67,3.67,3.67,0,0,1,3.66-3.67m0-2a5.67,5.67,0,1,0,5.66,5.67,5.66,5.66,0,0,0-5.66-5.67Z" fill="#fff"/><path d="M498,81.55a1.83,1.83,0,1,1,1.83-1.83A1.83,1.83,0,0,1,498,81.55Z" fill="#0069a3" fill-rule="evenodd"/><path d="M498,78.89a.83.83,0,1,1-.83.83.83.83,0,0,1,.83-.83m0-2a2.83,2.83,0,1,0,2.83,2.83A2.83,2.83,0,0,0,498,76.89Z" fill="#fff"/><path d="M419.84,151.63a1.83,1.83,0,1,1,1.83-1.83A1.83,1.83,0,0,1,419.84,151.63Z" fill="#0069a3" fill-rule="evenodd"/><path d="M419.84,149a.83.83,0,1,1-.83.83.83.83,0,0,1,.83-.83m0-2a2.83,2.83,0,1,0,2.83,2.83,2.83,2.83,0,0,0-2.83-2.83Z" fill="#fff"/><path d="M418.89,382.68a1.83,1.83,0,1,1,1.84-1.83A1.84,1.84,0,0,1,418.89,382.68Z" fill="#0069a3" fill-rule="evenodd"/><path d="M418.89,380a.83.83,0,1,1-.83.83.84.84,0,0,1,.83-.83m0-2a2.83,2.83,0,1,0,2.84,2.83,2.83,2.83,0,0,0-2.84-2.83Z" fill="#fff"/><path d="M450.13,365.92a3.94,3.94,0,1,1,3.93-3.94A3.95,3.95,0,0,1,450.13,365.92Z" fill="#0069a3" fill-rule="evenodd"/><path d="M450.13,359.05a2.94,2.94,0,1,1-2.94,2.93,2.93,2.93,0,0,1,2.94-2.93m0-2a4.94,4.94,0,1,0,4.93,4.93,4.94,4.94,0,0,0-4.93-4.93Z" fill="#fff"/><path d="M418.28,311.8a4.37,4.37,0,1,1,4.37-4.37A4.37,4.37,0,0,1,418.28,311.8Z" fill="#0069a3" fill-rule="evenodd"/><path d="M418.28,304.06a3.37,3.37,0,1,1-3.36,3.37,3.37,3.37,0,0,1,3.36-3.37m0-2a5.37,5.37,0,1,0,5.37,5.37,5.37,5.37,0,0,0-5.37-5.37Z" fill="#fff"/><path d="M409.15,333.62a3.94,3.94,0,1,1,3.93-3.94A3.95,3.95,0,0,1,409.15,333.62Z" fill="#0069a3" fill-rule="evenodd"/><path d="M409.15,326.75a2.94,2.94,0,1,1-2.94,2.93,2.93,2.93,0,0,1,2.94-2.93m0-2a4.94,4.94,0,1,0,4.93,4.93,4.94,4.94,0,0,0-4.93-4.93Z" fill="#fff"/><path d="M484.43,277.14a4.1,4.1,0,1,1,4.1-4.1A4.1,4.1,0,0,1,484.43,277.14Z" fill="#0069a3" fill-rule="evenodd"/><path d="M484.43,270a3.1,3.1,0,1,1-3.09,3.09,3.1,3.1,0,0,1,3.09-3.09m0-2a5.1,5.1,0,1,0,5.1,5.09,5.09,5.09,0,0,0-5.1-5.09Z" fill="#fff"/><path d="M435.6,303a4.1,4.1,0,1,1,4.09-4.1A4.11,4.11,0,0,1,435.6,303Z" fill="#0069a3" fill-rule="evenodd"/><path d="M435.6,295.8a3.1,3.1,0,1,1-3.1,3.09,3.1,3.1,0,0,1,3.1-3.09m0-2a5.1,5.1,0,1,0,5.09,5.09,5.09,5.09,0,0,0-5.09-5.09Z" fill="#fff"/><path d="M454.5,343.87a3.94,3.94,0,1,1,3.94-3.93A3.93,3.93,0,0,1,454.5,343.87Z" fill="#0069a3" fill-rule="evenodd"/><path d="M454.5,337a2.94,2.94,0,1,1-2.93,2.94A2.94,2.94,0,0,1,454.5,337m0-2a4.94,4.94,0,1,0,4.94,4.94A4.94,4.94,0,0,0,454.5,335Z" fill="#fff"/><path d="M417.36,352a3.94,3.94,0,1,1,3.94-3.94A3.95,3.95,0,0,1,417.36,352Z" fill="#0069a3" fill-rule="evenodd"/><path d="M417.36,345.12a2.94,2.94,0,1,1-2.94,2.93,2.94,2.94,0,0,1,2.94-2.93m0-2a4.94,4.94,0,1,0,4.94,4.93,4.94,4.94,0,0,0-4.94-4.93Z" fill="#fff"/><path d="M562.39,197.39a1.83,1.83,0,1,1,1.83-1.83A1.84,1.84,0,0,1,562.39,197.39Z" fill="#0069a3" fill-rule="evenodd"/><path d="M562.39,194.73a.83.83,0,1,1-.84.83.83.83,0,0,1,.84-.83m0-2a2.83,2.83,0,1,0,2.83,2.83,2.84,2.84,0,0,0-2.83-2.83Z" fill="#fff"/><path d="M654,194.44a1.47,1.47,0,1,1,1.47-1.47A1.47,1.47,0,0,1,654,194.44Z" fill="#0069a3" fill-rule="evenodd"/><path d="M654,192.51a.47.47,0,1,1-.47.47.47.47,0,0,1,.47-.47m0-2a2.47,2.47,0,1,0,2.47,2.47,2.47,2.47,0,0,0-2.47-2.47Z" fill="#fff"/><circle cx="745.15" cy="102.6" r="1.47" fill="#0069a3"/><path d="M745.15,102.13a.47.47,0,1,1-.47.47.47.47,0,0,1,.47-.47m0-2a2.47,2.47,0,1,0,2.47,2.47,2.48,2.48,0,0,0-2.47-2.47Z" fill="#fff"/><path d="M729.48,84.71A1.47,1.47,0,1,1,731,83.24,1.46,1.46,0,0,1,729.48,84.71Z" fill="#0069a3" fill-rule="evenodd"/><path d="M729.48,82.77a.47.47,0,1,1-.46.47.47.47,0,0,1,.46-.47m0-2A2.47,2.47,0,1,0,732,83.24a2.47,2.47,0,0,0-2.47-2.47Z" fill="#fff"/><path d="M670.34,81.71a1.47,1.47,0,1,1,1.46-1.47A1.47,1.47,0,0,1,670.34,81.71Z" fill="#0069a3" fill-rule="evenodd"/><path d="M670.34,79.77a.47.47,0,0,1,0,.94.47.47,0,1,1,0-.94m0-2a2.47,2.47,0,1,0,2.46,2.47,2.46,2.46,0,0,0-2.46-2.47Z" fill="#fff"/><path d="M686,105.13A3.94,3.94,0,1,1,690,101.2,3.94,3.94,0,0,1,686,105.13Z" fill="#0069a3" fill-rule="evenodd"/><path d="M686,98.26a2.94,2.94,0,1,1-2.94,2.94A2.94,2.94,0,0,1,686,98.26m0-2A4.94,4.94,0,1,0,691,101.2,4.94,4.94,0,0,0,686,96.26Z" fill="#fff"/><path d="M697.92,87.18a3.94,3.94,0,1,1,3.94-3.94A3.94,3.94,0,0,1,697.92,87.18Z" fill="#0069a3" fill-rule="evenodd"/><path d="M697.92,80.3A2.94,2.94,0,1,1,695,83.24a2.94,2.94,0,0,1,2.93-2.94m0-2a4.94,4.94,0,1,0,4.94,4.94,4.94,4.94,0,0,0-4.94-4.94Z" fill="#fff"/><path d="M619.14,85.82a4.37,4.37,0,1,1,4.36-4.37A4.37,4.37,0,0,1,619.14,85.82Z" fill="#0069a3" fill-rule="evenodd"/><path d="M619.14,78.09a3.37,3.37,0,1,1-3.37,3.36,3.37,3.37,0,0,1,3.37-3.36m0-2a5.37,5.37,0,1,0,5.36,5.36,5.36,5.36,0,0,0-5.36-5.36Z" fill="#fff"/><path d="M666.23,101.14a3.94,3.94,0,1,1,3.94-3.94A3.94,3.94,0,0,1,666.23,101.14Z" fill="#0069a3" fill-rule="evenodd"/><path d="M666.23,94.27a2.94,2.94,0,1,1-2.93,2.93,2.94,2.94,0,0,1,2.93-2.93m0-2a4.94,4.94,0,1,0,4.94,4.93,4.93,4.93,0,0,0-4.94-4.93Z" fill="#fff"/><path d="M692.83,167.1a1.47,1.47,0,1,1,1.47-1.47A1.47,1.47,0,0,1,692.83,167.1Z" fill="#0069a3" fill-rule="evenodd"/><path d="M692.83,165.16a.47.47,0,1,1-.47.47.47.47,0,0,1,.47-.47m0-2a2.47,2.47,0,1,0,2.47,2.47,2.47,2.47,0,0,0-2.47-2.47Z" fill="#fff"/><path d="M702.65,240.16a1.47,1.47,0,1,1,1.46-1.47A1.47,1.47,0,0,1,702.65,240.16Z" fill="#0069a3" fill-rule="evenodd"/><path d="M702.65,238.22a.47.47,0,1,1-.47.47.47.47,0,0,1,.47-.47m0-2a2.47,2.47,0,1,0,2.46,2.47,2.47,2.47,0,0,0-2.46-2.47Z" fill="#fff"/><path d="M602.59,87.18a3.94,3.94,0,1,1,3.93-3.94A3.95,3.95,0,0,1,602.59,87.18Z" fill="#0069a3" fill-rule="evenodd"/><path d="M602.59,80.3a2.94,2.94,0,1,1-2.94,2.94,2.94,2.94,0,0,1,2.94-2.94m0-2a4.94,4.94,0,1,0,4.93,4.94,4.94,4.94,0,0,0-4.93-4.94Z" fill="#fff"/><path d="M688.18,193.35a1.47,1.47,0,1,1,1.46-1.46A1.46,1.46,0,0,1,688.18,193.35Z" fill="#0069a3" fill-rule="evenodd"/><path d="M688.18,191.42a.47.47,0,1,1-.47.47.47.47,0,0,1,.47-.47m0-2a2.47,2.47,0,1,0,2.46,2.47,2.46,2.46,0,0,0-2.46-2.47Z" fill="#fff"/><circle cx="658.19" cy="161.05" r="1.47" fill="#0069a3"/><path d="M658.19,160.58a.47.47,0,1,1-.47.47.47.47,0,0,1,.47-.47m0-2a2.47,2.47,0,1,0,2.47,2.47,2.48,2.48,0,0,0-2.47-2.47Z" fill="#fff"/><path d="M608.61,76.29a1.47,1.47,0,1,1,1.47-1.47A1.47,1.47,0,0,1,608.61,76.29Z" fill="#0069a3" fill-rule="evenodd"/><path d="M608.61,74.35a.47.47,0,1,1-.47.47.47.47,0,0,1,.47-.47m0-2a2.47,2.47,0,1,0,2.47,2.47,2.48,2.48,0,0,0-2.47-2.47Z" fill="#fff"/><path d="M595.94,76.29a1.47,1.47,0,1,1,1.47-1.47A1.47,1.47,0,0,1,595.94,76.29Z" fill="#0069a3" fill-rule="evenodd"/><path d="M595.94,74.35a.47.47,0,1,1-.47.47.47.47,0,0,1,.47-.47m0-2a2.47,2.47,0,1,0,2.47,2.47,2.48,2.48,0,0,0-2.47-2.47Z" fill="#fff"/><path d="M698.73,172.57a1.47,1.47,0,1,1,1.47-1.47A1.47,1.47,0,0,1,698.73,172.57Z" fill="#0069a3" fill-rule="evenodd"/><path d="M698.73,170.63a.47.47,0,1,1-.47.47.47.47,0,0,1,.47-.47m0-2a2.47,2.47,0,1,0,2.47,2.47,2.48,2.48,0,0,0-2.47-2.47Z" fill="#fff"/><path d="M707.75,245.05a1.47,1.47,0,1,1,1.46-1.47A1.47,1.47,0,0,1,707.75,245.05Z" fill="#0069a3" fill-rule="evenodd"/><path d="M707.75,243.11a.47.47,0,1,1-.47.47.47.47,0,0,1,.47-.47m0-2a2.47,2.47,0,1,0,2.46,2.47,2.47,2.47,0,0,0-2.46-2.47Z" fill="#fff"/><path d="M718.28,182a3.94,3.94,0,1,1,3.93-3.93A3.94,3.94,0,0,1,718.28,182Z" fill="#0069a3" fill-rule="evenodd"/><path d="M718.28,175.1a2.94,2.94,0,1,1-2.94,2.94,2.94,2.94,0,0,1,2.94-2.94m0-2a4.94,4.94,0,1,0,4.93,4.94,4.94,4.94,0,0,0-4.93-4.94Z" fill="#fff"/><path d="M657.44,84.17a3.94,3.94,0,1,1,3.93-3.93A3.94,3.94,0,0,1,657.44,84.17Z" fill="#0069a3" fill-rule="evenodd"/><path d="M657.44,77.3a2.94,2.94,0,1,1-2.94,2.94,2.94,2.94,0,0,1,2.94-2.94m0-2a4.94,4.94,0,1,0,4.93,4.94,4.94,4.94,0,0,0-4.93-4.94Z" fill="#fff"/><path d="M617.44,169.46A1.47,1.47,0,1,1,618.9,168,1.46,1.46,0,0,1,617.44,169.46Z" fill="#0069a3" fill-rule="evenodd"/><path d="M617.44,167.53a.47.47,0,1,1-.47.47.47.47,0,0,1,.47-.47m0-2A2.47,2.47,0,1,0,619.9,168a2.46,2.46,0,0,0-2.46-2.47Z" fill="#fff"/><circle cx="616.68" cy="204.06" r="4.1" transform="translate(317.24 780.49) rotate(-80.86)" fill="#0069a3"/><path d="M616.68,201a3.1,3.1,0,1,1-3.09,3.09,3.09,3.09,0,0,1,3.09-3.09m0-2a5.1,5.1,0,1,0,5.1,5.09,5.09,5.09,0,0,0-5.1-5.09Z" fill="#fff"/><path d="M565.88,217.68a3.94,3.94,0,1,1,3.94-3.93A3.93,3.93,0,0,1,565.88,217.68Z" fill="#0069a3" fill-rule="evenodd"/><path d="M565.88,210.81a2.94,2.94,0,1,1-2.93,2.94,2.94,2.94,0,0,1,2.93-2.94m0-2a4.94,4.94,0,1,0,4.94,4.94,4.94,4.94,0,0,0-4.94-4.94Z" fill="#fff"/><path d="M681,272.13a1.47,1.47,0,1,1,1.47-1.47A1.47,1.47,0,0,1,681,272.13Z" fill="#0069a3" fill-rule="evenodd"/><path d="M681,270.2a.47.47,0,1,1-.47.46.47.47,0,0,1,.47-.46m0-2a2.47,2.47,0,1,0,2.47,2.46A2.47,2.47,0,0,0,681,268.2Z" fill="#fff"/><path d="M630.3,191.55a3.94,3.94,0,1,1,3.94-3.94A3.94,3.94,0,0,1,630.3,191.55Z" fill="#0069a3" fill-rule="evenodd"/><path d="M630.3,184.68a2.94,2.94,0,1,1-2.93,2.93,2.94,2.94,0,0,1,2.93-2.93m0-2a4.94,4.94,0,1,0,4.94,4.93,4.93,4.93,0,0,0-4.94-4.93Z" fill="#fff"/><path d="M666.3,145.86a3.94,3.94,0,1,1,3.94-3.94A3.94,3.94,0,0,1,666.3,145.86Z" fill="#0069a3" fill-rule="evenodd"/><path d="M666.3,139a2.94,2.94,0,1,1-2.93,2.94A2.94,2.94,0,0,1,666.3,139m0-2a4.94,4.94,0,1,0,4.94,4.94A4.94,4.94,0,0,0,666.3,137Z" fill="#fff"/><path d="M672.14,167.73a3.94,3.94,0,1,1,3.93-3.93A3.94,3.94,0,0,1,672.14,167.73Z" fill="#0069a3" fill-rule="evenodd"/><path d="M672.14,160.86a2.94,2.94,0,1,1-2.94,2.94,2.94,2.94,0,0,1,2.94-2.94m0-2a4.94,4.94,0,1,0,4.93,4.94,4.94,4.94,0,0,0-4.93-4.94Z" fill="#fff"/><path d="M651.08,225.45a1.47,1.47,0,1,1,1.46-1.46A1.46,1.46,0,0,1,651.08,225.45Z" fill="#0069a3" fill-rule="evenodd"/><path d="M651.08,223.52a.47.47,0,0,1,0,.93.47.47,0,1,1,0-.93m0-2a2.47,2.47,0,1,0,2.46,2.47,2.46,2.46,0,0,0-2.46-2.47Z" fill="#fff"/><path d="M731.87,172.6a1.47,1.47,0,1,1,1.47-1.47A1.47,1.47,0,0,1,731.87,172.6Z" fill="#0069a3" fill-rule="evenodd"/><path d="M731.87,170.66a.47.47,0,1,1-.47.47.47.47,0,0,1,.47-.47m0-2a2.47,2.47,0,1,0,2.47,2.47,2.48,2.48,0,0,0-2.47-2.47Z" fill="#fff"/><path d="M648.45,281.24a1.47,1.47,0,1,1,1.46-1.46A1.47,1.47,0,0,1,648.45,281.24Z" fill="#0069a3" fill-rule="evenodd"/><path d="M648.45,279.31a.47.47,0,1,1-.47.47.47.47,0,0,1,.47-.47m0-2a2.47,2.47,0,1,0,2.46,2.47,2.46,2.46,0,0,0-2.46-2.47Z" fill="#fff"/><path d="M714.7,138a1.47,1.47,0,1,1,1.47-1.47A1.47,1.47,0,0,1,714.7,138Z" fill="#0069a3" fill-rule="evenodd"/><path d="M714.7,136.11a.47.47,0,1,1-.47.46.47.47,0,0,1,.47-.46m0-2a2.47,2.47,0,1,0,2.47,2.46,2.47,2.47,0,0,0-2.47-2.46Z" fill="#fff"/><path d="M737.31,121.18a3.94,3.94,0,1,1,3.94-3.94A3.94,3.94,0,0,1,737.31,121.18Z" fill="#0069a3" fill-rule="evenodd"/><path d="M737.31,114.31a2.94,2.94,0,1,1-2.94,2.93,2.94,2.94,0,0,1,2.94-2.93m0-2a4.94,4.94,0,1,0,4.94,4.93,4.94,4.94,0,0,0-4.94-4.93Z" fill="#fff"/><path d="M723.63,111.25a3.94,3.94,0,1,1,3.93-3.93A3.94,3.94,0,0,1,723.63,111.25Z" fill="#0069a3" fill-rule="evenodd"/><path d="M723.63,104.38a2.94,2.94,0,1,1-2.94,2.94,2.94,2.94,0,0,1,2.94-2.94m0-2a4.94,4.94,0,1,0,4.93,4.94,4.94,4.94,0,0,0-4.93-4.94Z" fill="#fff"/><path d="M665.55,181a3,3,0,1,1,3-3A3,3,0,0,1,665.55,181Z" fill="#0069a3" fill-rule="evenodd"/><path d="M665.55,176.07a2,2,0,1,1-2,2,2,2,0,0,1,2-2m0-2a4,4,0,1,0,4,4,4,4,0,0,0-4-4Z" fill="#fff"/><path d="M458.7,139.5a1.47,1.47,0,1,1,1.47-1.47A1.46,1.46,0,0,1,458.7,139.5Z" fill="#0069a3" fill-rule="evenodd"/><path d="M458.7,137.56a.47.47,0,1,1-.46.47.47.47,0,0,1,.46-.47m0-2a2.47,2.47,0,1,0,2.47,2.47,2.47,2.47,0,0,0-2.47-2.47Z" fill="#fff"/><path d="M543.17,120.69a4.1,4.1,0,1,1,4.09-4.1A4.11,4.11,0,0,1,543.17,120.69Z" fill="#0069a3" fill-rule="evenodd"/><path d="M543.17,113.5a3.1,3.1,0,1,1-3.1,3.09,3.1,3.1,0,0,1,3.1-3.09m0-2a5.1,5.1,0,1,0,5.09,5.09,5.09,5.09,0,0,0-5.09-5.09Z" fill="#fff"/><path d="M556.08,87.18a3,3,0,1,1,3-3A3,3,0,0,1,556.08,87.18Z" fill="#0069a3" fill-rule="evenodd"/><path d="M556.08,82.25a2,2,0,1,1-2,2,2,2,0,0,1,2-2m0-2a4,4,0,1,0,4,4,4,4,0,0,0-4-4Z" fill="#fff"/><path d="M460.66,117.9A3.94,3.94,0,1,1,464.6,114,3.94,3.94,0,0,1,460.66,117.9Z" fill="#0069a3" fill-rule="evenodd"/><path d="M460.66,111a2.94,2.94,0,1,1-2.93,2.93,2.94,2.94,0,0,1,2.93-2.93m0-2A4.94,4.94,0,1,0,465.6,114a4.93,4.93,0,0,0-4.94-4.93Z" fill="#fff"/><path d="M439.63,133.44a2.4,2.4,0,1,1,2.4-2.39A2.4,2.4,0,0,1,439.63,133.44Z" fill="#0069a3" fill-rule="evenodd"/><path d="M439.63,129.65a1.4,1.4,0,1,1-1.4,1.4,1.4,1.4,0,0,1,1.4-1.4m0-2a3.4,3.4,0,1,0,3.4,3.4,3.4,3.4,0,0,0-3.4-3.4Z" fill="#fff"/><path d="M560,106.54A3.94,3.94,0,1,1,564,102.6,3.94,3.94,0,0,1,560,106.54Z" fill="#0069a3" fill-rule="evenodd"/><path d="M560,99.67a2.94,2.94,0,1,1-2.93,2.93A2.94,2.94,0,0,1,560,99.67m0-2A4.94,4.94,0,1,0,565,102.6,4.93,4.93,0,0,0,560,97.67Z" fill="#fff"/><path d="M478.1,166.17a3.94,3.94,0,1,1,3.93-3.94A3.95,3.95,0,0,1,478.1,166.17Z" fill="#0069a3" fill-rule="evenodd"/><path d="M478.1,159.3a2.94,2.94,0,1,1-2.94,2.93,2.93,2.93,0,0,1,2.94-2.93m0-2a4.94,4.94,0,1,0,4.93,4.93,4.94,4.94,0,0,0-4.93-4.93Z" fill="#fff"/><path d="M410.92,138.48a3.94,3.94,0,1,1,3.94-3.94A3.94,3.94,0,0,1,410.92,138.48Z" fill="#0069a3" fill-rule="evenodd"/><path d="M410.92,131.61a2.94,2.94,0,1,1-2.93,2.93,2.94,2.94,0,0,1,2.93-2.93m0-2a4.94,4.94,0,1,0,4.94,4.93,4.93,4.93,0,0,0-4.94-4.93Z" fill="#fff"/><path d="M429.94,236.12a3.94,3.94,0,1,1,3.93-3.93A3.94,3.94,0,0,1,429.94,236.12Z" fill="#0069a3" fill-rule="evenodd"/><path d="M429.94,229.25a2.94,2.94,0,1,1-2.94,2.94,2.94,2.94,0,0,1,2.94-2.94m0-2a4.94,4.94,0,1,0,4.93,4.94,4.94,4.94,0,0,0-4.93-4.94Z" fill="#fff"/><path d="M427.91,192.65a4.1,4.1,0,1,1,4.09-4.1A4.11,4.11,0,0,1,427.91,192.65Z" fill="#0069a3" fill-rule="evenodd"/><path d="M427.91,185.46a3.1,3.1,0,1,1-3.1,3.09,3.1,3.1,0,0,1,3.1-3.09m0-2a5.1,5.1,0,1,0,5.09,5.09,5.09,5.09,0,0,0-5.09-5.09Z" fill="#fff"/><path d="M337.92,203.81a4.1,4.1,0,1,1,4.1-4.1A4.1,4.1,0,0,1,337.92,203.81Z" fill="#0069a3" fill-rule="evenodd"/><path d="M337.92,196.62a3.1,3.1,0,1,1-3.09,3.09,3.09,3.09,0,0,1,3.09-3.09m0-2a5.1,5.1,0,1,0,5.1,5.09,5.09,5.09,0,0,0-5.1-5.09Z" fill="#fff"/><path d="M403.23,193.13a4.1,4.1,0,1,1,4.09-4.09A4.1,4.1,0,0,1,403.23,193.13Z" fill="#0069a3" fill-rule="evenodd"/><path d="M403.23,185.94a3.1,3.1,0,1,1-3.1,3.1,3.1,3.1,0,0,1,3.1-3.1m0-2a5.1,5.1,0,1,0,5.09,5.1,5.1,5.1,0,0,0-5.09-5.1Z" fill="#fff"/><path d="M524.48,192.92a4.1,4.1,0,1,1,4.09-4.09A4.1,4.1,0,0,1,524.48,192.92Z" fill="#0069a3" fill-rule="evenodd"/><path d="M524.48,185.73a3.1,3.1,0,1,1-3.1,3.1,3.1,3.1,0,0,1,3.1-3.1m0-2a5.1,5.1,0,1,0,5.09,5.1,5.1,5.1,0,0,0-5.09-5.1Z" fill="#fff"/><path d="M543.71,167.89a4.1,4.1,0,1,1,4.1-4.1A4.1,4.1,0,0,1,543.71,167.89Z" fill="#0069a3" fill-rule="evenodd"/><path d="M543.71,160.7a3.1,3.1,0,1,1-3.09,3.09,3.1,3.1,0,0,1,3.09-3.09m0-2a5.1,5.1,0,1,0,5.1,5.09,5.09,5.09,0,0,0-5.1-5.09Z" fill="#fff"/><path d="M506.77,222.88a3.94,3.94,0,1,1,3.93-3.94A3.95,3.95,0,0,1,506.77,222.88Z" fill="#0069a3" fill-rule="evenodd"/><path d="M506.77,216a2.94,2.94,0,1,1-2.94,2.93,2.93,2.93,0,0,1,2.94-2.93m0-2a4.94,4.94,0,1,0,4.93,4.93,4.94,4.94,0,0,0-4.93-4.93Z" fill="#fff"/><path d="M448.12,201.52a3.94,3.94,0,1,1,3.94-3.94A3.94,3.94,0,0,1,448.12,201.52Z" fill="#0069a3" fill-rule="evenodd"/><path d="M448.12,194.65a2.94,2.94,0,1,1-2.93,2.93,2.94,2.94,0,0,1,2.93-2.93m0-2a4.94,4.94,0,1,0,4.94,4.93,4.93,4.93,0,0,0-4.94-4.93Z" fill="#fff"/><path d="M496.38,260.83a3.94,3.94,0,1,1,3.94-3.93A3.93,3.93,0,0,1,496.38,260.83Z" fill="#0069a3" fill-rule="evenodd"/><path d="M496.38,254a2.94,2.94,0,1,1-2.93,2.94,2.94,2.94,0,0,1,2.93-2.94m0-2a4.94,4.94,0,1,0,4.94,4.94,4.94,4.94,0,0,0-4.94-4.94Z" fill="#fff"/><path d="M529.25,144.8a3.94,3.94,0,1,1,3.94-3.94A3.94,3.94,0,0,1,529.25,144.8Z" fill="#0069a3" fill-rule="evenodd"/><path d="M529.25,137.93a2.94,2.94,0,1,1-2.93,2.93,2.94,2.94,0,0,1,2.93-2.93m0-2a4.94,4.94,0,1,0,4.94,4.93,4.93,4.93,0,0,0-4.94-4.93Z" fill="#fff"/><path d="M494.17,204a3.94,3.94,0,1,1,3.94-3.93A3.93,3.93,0,0,1,494.17,204Z" fill="#0069a3" fill-rule="evenodd"/><path d="M494.17,197.1a2.94,2.94,0,1,1-2.93,2.94,2.94,2.94,0,0,1,2.93-2.94m0-2a4.94,4.94,0,1,0,4.94,4.94,4.94,4.94,0,0,0-4.94-4.94Z" fill="#fff"/><path d="M493.68,97.91A3.94,3.94,0,1,1,497.62,94,3.94,3.94,0,0,1,493.68,97.91Z" fill="#0069a3" fill-rule="evenodd"/><path d="M493.68,91A2.94,2.94,0,1,1,490.75,94,2.94,2.94,0,0,1,493.68,91m0-2A4.94,4.94,0,1,0,498.62,94,4.93,4.93,0,0,0,493.68,89Z" fill="#fff"/><path d="M432.91,119.18a3.94,3.94,0,1,1,3.94-3.94A3.94,3.94,0,0,1,432.91,119.18Z" fill="#0069a3" fill-rule="evenodd"/><path d="M432.91,112.31a2.94,2.94,0,1,1-2.93,2.93,2.94,2.94,0,0,1,2.93-2.93m0-2a4.94,4.94,0,1,0,4.94,4.93,4.93,4.93,0,0,0-4.94-4.93Z" fill="#fff"/><path d="M457.76,165.41a3.94,3.94,0,1,1,3.94-3.94A3.94,3.94,0,0,1,457.76,165.41Z" fill="#0069a3" fill-rule="evenodd"/><path d="M457.76,158.54a2.94,2.94,0,1,1-2.93,2.93,2.94,2.94,0,0,1,2.93-2.93m0-2a4.94,4.94,0,1,0,4.94,4.93,4.93,4.93,0,0,0-4.94-4.93Z" fill="#fff"/><path d="M470.38,94.25a3.94,3.94,0,1,1,3.94-3.94A3.94,3.94,0,0,1,470.38,94.25Z" fill="#0069a3" fill-rule="evenodd"/><path d="M470.39,87.37a2.94,2.94,0,1,1-2.94,2.94,2.94,2.94,0,0,1,2.94-2.94m0-2a4.94,4.94,0,1,0,4.93,4.94,4.94,4.94,0,0,0-4.93-4.94Z" fill="#fff"/><path d="M529.25,83.65a3.94,3.94,0,1,1,3.94-3.93A3.93,3.93,0,0,1,529.25,83.65Z" fill="#0069a3" fill-rule="evenodd"/><path d="M529.25,76.78a2.94,2.94,0,1,1-2.93,2.94,2.94,2.94,0,0,1,2.93-2.94m0-2a4.94,4.94,0,1,0,4.94,4.94,4.94,4.94,0,0,0-4.94-4.94Z" fill="#fff"/><path d="M390.29,131.18a3,3,0,1,1,3-3A3,3,0,0,1,390.29,131.18Z" fill="#0069a3" fill-rule="evenodd"/><path d="M390.29,126.25a2,2,0,1,1-2,2,2,2,0,0,1,2-2m0-2a4,4,0,1,0,4,4,4,4,0,0,0-4-4Z" fill="#fff"/><path d="M395.27,147.14a3.94,3.94,0,1,1,3.93-3.94A3.95,3.95,0,0,1,395.27,147.14Z" fill="#0069a3" fill-rule="evenodd"/><path d="M395.27,140.27a2.94,2.94,0,1,1-2.94,2.93,2.94,2.94,0,0,1,2.94-2.93m0-2a4.94,4.94,0,1,0,4.93,4.93,4.94,4.94,0,0,0-4.93-4.93Z" fill="#fff"/><path d="M367.86,127.66a3.94,3.94,0,1,1,3.93-3.94A3.95,3.95,0,0,1,367.86,127.66Z" fill="#0069a3" fill-rule="evenodd"/><path d="M367.86,120.79a2.94,2.94,0,1,1-2.94,2.93,2.93,2.93,0,0,1,2.94-2.93m0-2a4.94,4.94,0,1,0,4.93,4.93,4.94,4.94,0,0,0-4.93-4.93Z" fill="#fff"/><path d="M371.22,143.07a3,3,0,1,1,3-3A3,3,0,0,1,371.22,143.07Z" fill="#0069a3" fill-rule="evenodd"/><path d="M371.22,138.14a2,2,0,1,1-2,2,2,2,0,0,1,2-2m0-2a4,4,0,1,0,4,4,4,4,0,0,0-4-4Z" fill="#fff"/><path d="M359.52,189.6a3.94,3.94,0,1,1,3.94-3.94A3.94,3.94,0,0,1,359.52,189.6Z" fill="#0069a3" fill-rule="evenodd"/><path d="M359.52,182.73a2.94,2.94,0,1,1-2.93,2.93,2.94,2.94,0,0,1,2.93-2.93m0-2a4.94,4.94,0,1,0,4.94,4.93,4.93,4.93,0,0,0-4.94-4.93Z" fill="#fff"/><path d="M344,256.7a3.94,3.94,0,1,1,3.94-3.93A3.94,3.94,0,0,1,344,256.7Z" fill="#0069a3" fill-rule="evenodd"/><path d="M344,249.83a2.94,2.94,0,1,1-2.94,2.94,2.94,2.94,0,0,1,2.94-2.94m0-2a4.94,4.94,0,1,0,4.94,4.94,4.94,4.94,0,0,0-4.94-4.94Z" fill="#fff"/><path d="M406.6,287.61a3.94,3.94,0,1,1,3.94-3.94A3.94,3.94,0,0,1,406.6,287.61Z" fill="#0069a3" fill-rule="evenodd"/><path d="M406.6,280.74a2.94,2.94,0,1,1-2.93,2.93,2.94,2.94,0,0,1,2.93-2.93m0-2a4.94,4.94,0,1,0,4.94,4.93,4.93,4.93,0,0,0-4.94-4.93Z" fill="#fff"/><circle cx="688.68" cy="272.5" r="1.47" fill="#0069a3"/><path d="M688.68,272a.47.47,0,1,1-.47.47.47.47,0,0,1,.47-.47m0-2a2.47,2.47,0,1,0,2.47,2.47,2.47,2.47,0,0,0-2.47-2.47Z" fill="#fff"/><path d="M725.38,360.85a3,3,0,1,1,3-3A3,3,0,0,1,725.38,360.85Z" fill="#0069a3" fill-rule="evenodd"/><path d="M725.38,355.92a2,2,0,1,1-2,2,2,2,0,0,1,2-2m0-2a4,4,0,1,0,4,4,4,4,0,0,0-4-4Z" fill="#fff"/><path d="M734.44,377.6a1.47,1.47,0,1,1,1.47-1.47A1.47,1.47,0,0,1,734.44,377.6Z" fill="#0069a3" fill-rule="evenodd"/><path d="M734.44,375.67a.47.47,0,1,1-.47.46.47.47,0,0,1,.47-.46m0-2a2.47,2.47,0,1,0,2.47,2.46,2.46,2.46,0,0,0-2.47-2.46Z" fill="#fff"/><path d="M726.47,376.46a1.84,1.84,0,1,1,1.83-1.83A1.84,1.84,0,0,1,726.47,376.46Z" fill="#0069a3" fill-rule="evenodd"/><path d="M726.47,373.79a.84.84,0,0,1,0,1.67.84.84,0,0,1,0-1.67m0-2a2.84,2.84,0,1,0,2.83,2.84,2.83,2.83,0,0,0-2.83-2.84Z" fill="#fff"/><path d="M707.05,376.83a1.47,1.47,0,1,1,1.47-1.47A1.47,1.47,0,0,1,707.05,376.83Z" fill="#0069a3" fill-rule="evenodd"/><path d="M707.05,374.89a.47.47,0,1,1-.47.47.47.47,0,0,1,.47-.47m0-2a2.47,2.47,0,1,0,2.47,2.47,2.47,2.47,0,0,0-2.47-2.47Z" fill="#fff"/><path d="M774.42,305.72a1.83,1.83,0,1,1,1.83-1.83A1.83,1.83,0,0,1,774.42,305.72Z" fill="#0069a3" fill-rule="evenodd"/><path d="M774.42,303.06a.83.83,0,1,1,0,1.66.83.83,0,0,1,0-1.66m0-2a2.83,2.83,0,1,0,2.83,2.83,2.83,2.83,0,0,0-2.83-2.83Z" fill="#fff"/><path d="M737.21,339.71a3.94,3.94,0,1,1,3.93-3.94A3.95,3.95,0,0,1,737.21,339.71Z" fill="#0069a3" fill-rule="evenodd"/><path d="M737.21,332.83a2.94,2.94,0,1,1-2.94,2.94,2.94,2.94,0,0,1,2.94-2.94m0-2a4.94,4.94,0,1,0,4.93,4.94,4.94,4.94,0,0,0-4.93-4.94Z" fill="#fff"/><path d="M747.23,289.43A1.47,1.47,0,1,1,748.7,288,1.47,1.47,0,0,1,747.23,289.43Z" fill="#0069a3" fill-rule="evenodd"/><path d="M747.23,287.49a.47.47,0,1,1-.47.47.47.47,0,0,1,.47-.47m0-2A2.47,2.47,0,1,0,749.7,288a2.48,2.48,0,0,0-2.47-2.47Z" fill="#fff"/><path d="M759.16,323a1.47,1.47,0,1,1,1.47-1.46A1.46,1.46,0,0,1,759.16,323Z" fill="#0069a3" fill-rule="evenodd"/><path d="M759.16,321.05a.47.47,0,1,1-.47.47.47.47,0,0,1,.47-.47m0-2a2.47,2.47,0,1,0,2.47,2.47,2.47,2.47,0,0,0-2.47-2.47Z" fill="#fff"/><path d="M731.32,325.06a1.47,1.47,0,1,1,1.47-1.47A1.47,1.47,0,0,1,731.32,325.06Z" fill="#0069a3" fill-rule="evenodd"/><path d="M731.32,323.12a.47.47,0,1,1-.46.47.47.47,0,0,1,.46-.47m0-2a2.47,2.47,0,1,0,2.47,2.47,2.47,2.47,0,0,0-2.47-2.47Z" fill="#fff"/><path d="M766.06,346.63a3,3,0,1,1,3-3A3,3,0,0,1,766.06,346.63Z" fill="#0069a3" fill-rule="evenodd"/><path d="M766.06,341.71a2,2,0,1,1-2,2,2,2,0,0,1,2-2m0-2a4,4,0,1,0,4,4,4,4,0,0,0-4-4Z" fill="#fff"/><path d="M761,384.39a3.94,3.94,0,1,1,3.94-3.94A3.95,3.95,0,0,1,761,384.39Z" fill="#0069a3" fill-rule="evenodd"/><path d="M761,377.52a2.94,2.94,0,1,1-2.94,2.93,2.94,2.94,0,0,1,2.94-2.93m0-2a4.94,4.94,0,1,0,4.94,4.93,4.94,4.94,0,0,0-4.94-4.93Z" fill="#fff"/><path d="M610.79,120.53a3.94,3.94,0,1,1,3.93-3.94A3.95,3.95,0,0,1,610.79,120.53Z" fill="#0069a3" fill-rule="evenodd"/><path d="M610.79,113.66a2.94,2.94,0,1,1-2.94,2.93,2.94,2.94,0,0,1,2.94-2.93m0-2a4.94,4.94,0,1,0,4.93,4.93,4.94,4.94,0,0,0-4.93-4.93Z" fill="#fff"/><path d="M671.86,199a3.94,3.94,0,1,1,3.93-3.93A3.94,3.94,0,0,1,671.86,199Z" fill="#0069a3" fill-rule="evenodd"/><path d="M671.86,192.13a2.94,2.94,0,1,1-2.94,2.94,2.94,2.94,0,0,1,2.94-2.94m0-2a4.94,4.94,0,1,0,4.93,4.94,4.94,4.94,0,0,0-4.93-4.94Z" fill="#fff"/><path d="M761.39,365.18a3.94,3.94,0,1,1,3.94-3.94A3.94,3.94,0,0,1,761.39,365.18Z" fill="#0069a3" fill-rule="evenodd"/><path d="M761.39,358.31a2.94,2.94,0,1,1-2.93,2.93,2.94,2.94,0,0,1,2.93-2.93m0-2a4.94,4.94,0,1,0,4.94,4.93,4.93,4.93,0,0,0-4.94-4.93Z" fill="#fff"/><path d="M697.58,137.34a3.94,3.94,0,1,1,3.94-3.93A3.93,3.93,0,0,1,697.58,137.34Z" fill="#0069a3" fill-rule="evenodd"/><path d="M697.58,130.47a2.94,2.94,0,1,1-2.93,2.94,2.94,2.94,0,0,1,2.93-2.94m0-2a4.94,4.94,0,1,0,4.94,4.94,4.94,4.94,0,0,0-4.94-4.94Z" fill="#fff"/><path d="M570.88,76.68a3.94,3.94,0,1,1,3.94-3.94A3.94,3.94,0,0,1,570.88,76.68Z" fill="#0069a3" fill-rule="evenodd"/><path d="M570.88,69.81A2.94,2.94,0,1,1,568,72.74a2.94,2.94,0,0,1,2.93-2.93m0-2a4.94,4.94,0,1,0,4.94,4.93,4.93,4.93,0,0,0-4.94-4.93Z" fill="#fff"/><path d="M199,375.47a3.94,3.94,0,1,1,3.94-3.93A3.93,3.93,0,0,1,199,375.47Z" fill="#0069a3" fill-rule="evenodd"/><path d="M199,368.6a2.94,2.94,0,1,1-2.93,2.94A2.94,2.94,0,0,1,199,368.6m0-2a4.94,4.94,0,1,0,4.94,4.94A4.94,4.94,0,0,0,199,366.6Z" fill="#fff"/><path d="M256.85,311.18a3.94,3.94,0,1,1,3.94-3.93A3.94,3.94,0,0,1,256.85,311.18Z" fill="#0069a3" fill-rule="evenodd"/><path d="M256.85,304.31a2.94,2.94,0,1,1-2.93,2.94,2.94,2.94,0,0,1,2.93-2.94m0-2a4.94,4.94,0,1,0,4.94,4.94,4.94,4.94,0,0,0-4.94-4.94Z" fill="#fff"/><path d="M224.49,275.77a3.94,3.94,0,1,1,3.94-3.93A3.94,3.94,0,0,1,224.49,275.77Z" fill="#0069a3" fill-rule="evenodd"/><path d="M224.49,268.9a2.94,2.94,0,1,1-2.94,2.94,2.94,2.94,0,0,1,2.94-2.94m0-2a4.94,4.94,0,1,0,4.94,4.94,4.94,4.94,0,0,0-4.94-4.94Z" fill="#fff"/><path d="M168.57,126.28a3.94,3.94,0,1,1,3.94-3.94A3.94,3.94,0,0,1,168.57,126.28Z" fill="#0069a3" fill-rule="evenodd"/><path d="M168.57,119.41a2.94,2.94,0,1,1-2.93,2.93,2.94,2.94,0,0,1,2.93-2.93m0-2a4.94,4.94,0,1,0,4.94,4.93,4.93,4.93,0,0,0-4.94-4.93Z" fill="#fff"/><path d="M163.74,167.3a3.94,3.94,0,1,1,3.93-3.93A3.94,3.94,0,0,1,163.74,167.3Z" fill="#0069a3" fill-rule="evenodd"/><path d="M163.74,160.43a2.94,2.94,0,1,1-2.94,2.94,2.94,2.94,0,0,1,2.94-2.94m0-2a4.94,4.94,0,1,0,4.93,4.94,4.94,4.94,0,0,0-4.93-4.94Z" fill="#fff"/><path d="M96.57,216.69a3.94,3.94,0,1,1,3.93-3.94A3.95,3.95,0,0,1,96.57,216.69Z" fill="#0069a3" fill-rule="evenodd"/><path d="M96.57,209.82a2.94,2.94,0,1,1-2.94,2.93,2.94,2.94,0,0,1,2.94-2.93m0-2a4.94,4.94,0,1,0,4.93,4.93,4.94,4.94,0,0,0-4.93-4.93Z" fill="#fff"/><circle cx="151.98" cy="126.44" r="1.47" fill="#0069a3"/><path d="M152,126a.47.47,0,1,1-.47.47A.47.47,0,0,1,152,126m0-2a2.47,2.47,0,1,0,2.47,2.47A2.48,2.48,0,0,0,152,124Z" fill="#fff"/><path d="M72.21,191.16a3.94,3.94,0,1,1,3.94-3.93A3.93,3.93,0,0,1,72.21,191.16Z" fill="#0069a3" fill-rule="evenodd"/><path d="M72.21,184.29a2.94,2.94,0,1,1-2.93,2.94,2.94,2.94,0,0,1,2.93-2.94m0-2a4.94,4.94,0,1,0,4.94,4.94,4.94,4.94,0,0,0-4.94-4.94Z" fill="#fff"/><path d="M191.36,85.46A1.47,1.47,0,1,1,192.83,84,1.46,1.46,0,0,1,191.36,85.46Z" fill="#0069a3" fill-rule="evenodd"/><path d="M191.36,83.53a.47.47,0,1,1-.46.47.47.47,0,0,1,.46-.47m0-2A2.47,2.47,0,1,0,193.83,84a2.46,2.46,0,0,0-2.47-2.47Z" fill="#fff"/><path d="M106,152a1.47,1.47,0,1,1,1.47-1.47A1.46,1.46,0,0,1,106,152Z" fill="#0069a3" fill-rule="evenodd"/><path d="M106,150.09a.47.47,0,1,1-.46.47.47.47,0,0,1,.46-.47m0-2a2.47,2.47,0,1,0,2.47,2.47,2.47,2.47,0,0,0-2.47-2.47Z" fill="#fff"/><circle cx="289.64" cy="85.13" r="1.47" fill="#0069a3"/><path d="M289.64,84.66a.47.47,0,1,1-.47.47.47.47,0,0,1,.47-.47m0-2a2.47,2.47,0,1,0,2.47,2.47,2.47,2.47,0,0,0-2.47-2.47Z" fill="#fff"/><path d="M286.72,68.09a1.47,1.47,0,1,1,1.47-1.47A1.47,1.47,0,0,1,286.72,68.09Z" fill="#0069a3" fill-rule="evenodd"/><path d="M286.72,66.15a.47.47,0,1,1-.47.47.47.47,0,0,1,.47-.47m0-2a2.47,2.47,0,1,0,2.47,2.47,2.48,2.48,0,0,0-2.47-2.47Z" fill="#fff"/><path d="M266.42,55.87a1.47,1.47,0,1,1,1.47-1.47A1.47,1.47,0,0,1,266.42,55.87Z" fill="#0069a3" fill-rule="evenodd"/><path d="M266.42,53.94a.47.47,0,1,1-.47.46.47.47,0,0,1,.47-.46m0-2a2.47,2.47,0,1,0,2.47,2.46,2.47,2.47,0,0,0-2.47-2.46Z" fill="#fff"/><path d="M314.65,56.23a3.94,3.94,0,1,1,3.94-3.93A3.93,3.93,0,0,1,314.65,56.23Z" fill="#0069a3" fill-rule="evenodd"/><path d="M314.65,49.36a2.94,2.94,0,1,1-2.93,2.94,2.94,2.94,0,0,1,2.93-2.94m0-2a4.94,4.94,0,1,0,4.94,4.94,4.94,4.94,0,0,0-4.94-4.94Z" fill="#fff"/><path d="M320.56,76.86a3.94,3.94,0,1,1,3.93-3.93A3.94,3.94,0,0,1,320.56,76.86Z" fill="#0069a3" fill-rule="evenodd"/><path d="M320.56,70a2.94,2.94,0,1,1-2.94,2.94A2.94,2.94,0,0,1,320.56,70m0-2a4.94,4.94,0,1,0,4.93,4.94A4.94,4.94,0,0,0,320.56,68Z" fill="#fff"/><path d="M135.6,141.7a1.47,1.47,0,1,1,1.47-1.47A1.47,1.47,0,0,1,135.6,141.7Z" fill="#0069a3" fill-rule="evenodd"/><path d="M135.6,139.76a.47.47,0,1,1-.47.47.47.47,0,0,1,.47-.47m0-2a2.47,2.47,0,1,0,2.47,2.47,2.47,2.47,0,0,0-2.47-2.47Z" fill="#fff"/><path d="M171.9,88.56a1.47,1.47,0,1,1,1.47-1.47A1.47,1.47,0,0,1,171.9,88.56Z" fill="#0069a3" fill-rule="evenodd"/><path d="M171.9,86.62a.47.47,0,1,1-.47.47.47.47,0,0,1,.47-.47m0-2a2.47,2.47,0,1,0,2.47,2.47,2.47,2.47,0,0,0-2.47-2.47Z" fill="#fff"/><path d="M66.75,169.4a3,3,0,1,1,3-3A3,3,0,0,1,66.75,169.4Z" fill="#0069a3" fill-rule="evenodd"/><path d="M66.75,164.47a2,2,0,1,1-2,2,2,2,0,0,1,2-2m0-2a4,4,0,1,0,4,4,4,4,0,0,0-4-4Z" fill="#fff"/><path d="M112.81,172.2a1.47,1.47,0,1,1,1.46-1.47A1.47,1.47,0,0,1,112.81,172.2Z" fill="#0069a3" fill-rule="evenodd"/><path d="M112.81,170.26a.47.47,0,1,1-.47.47.47.47,0,0,1,.47-.47m0-2a2.47,2.47,0,1,0,2.46,2.47,2.46,2.46,0,0,0-2.46-2.47Z" fill="#fff"/><circle cx="91.37" cy="154.9" r="1.47" fill="#0069a3"/><path d="M91.37,154.43a.47.47,0,1,1-.46.47.47.47,0,0,1,.46-.47m0-2a2.47,2.47,0,1,0,2.47,2.47,2.47,2.47,0,0,0-2.47-2.47Z" fill="#fff"/><path d="M80.87,141.82a3.53,3.53,0,1,1,3.53-3.53A3.53,3.53,0,0,1,80.87,141.82Z" fill="#0069a3" fill-rule="evenodd"/><path d="M80.87,135.76a2.53,2.53,0,1,1-2.53,2.53,2.53,2.53,0,0,1,2.53-2.53m0-2a4.53,4.53,0,1,0,4.53,4.53,4.53,4.53,0,0,0-4.53-4.53Z" fill="#fff"/><path d="M80.87,117.75a1.47,1.47,0,1,1,1.47-1.47A1.47,1.47,0,0,1,80.87,117.75Z" fill="#0069a3" fill-rule="evenodd"/><path d="M80.87,115.81a.47.47,0,1,1-.47.47.47.47,0,0,1,.47-.47m0-2a2.47,2.47,0,1,0,2.47,2.47,2.48,2.48,0,0,0-2.47-2.47Z" fill="#fff"/><path d="M38,102.08a1.83,1.83,0,1,1,1.83-1.83A1.83,1.83,0,0,1,38,102.08Z" fill="#0069a3" fill-rule="evenodd"/><path d="M38,99.42a.83.83,0,1,1-.83.83.83.83,0,0,1,.83-.83m0-2a2.83,2.83,0,1,0,2.83,2.83A2.83,2.83,0,0,0,38,97.42Z" fill="#fff"/><path d="M41.07,93.78a3.53,3.53,0,1,1,3.53-3.53A3.53,3.53,0,0,1,41.07,93.78Z" fill="#0069a3" fill-rule="evenodd"/><path d="M41.07,87.72a2.53,2.53,0,1,1-2.53,2.53,2.53,2.53,0,0,1,2.53-2.53m0-2a4.53,4.53,0,1,0,4.53,4.53,4.53,4.53,0,0,0-4.53-4.53Z" fill="#fff"/><circle cx="120.52" cy="107.44" r="1.47" fill="#0069a3"/><path d="M120.52,107a.47.47,0,1,1-.46.47.47.47,0,0,1,.46-.47m0-2a2.47,2.47,0,1,0,2.47,2.47,2.47,2.47,0,0,0-2.47-2.47Z" fill="#fff"/><path d="M54,80.77a1.69,1.69,0,1,1,1.68-1.68A1.69,1.69,0,0,1,54,80.77Z" fill="#0069a3" fill-rule="evenodd"/><path d="M54,78.4a.69.69,0,0,1,.68.69.69.69,0,0,1-1.37,0A.69.69,0,0,1,54,78.4m0-2a2.69,2.69,0,1,0,2.68,2.69A2.7,2.7,0,0,0,54,76.4Z" fill="#fff"/><path d="M138.24,89a2.22,2.22,0,1,1,2.22-2.22A2.23,2.23,0,0,1,138.24,89Z" fill="#0069a3" fill-rule="evenodd"/><path d="M138.24,85.56A1.22,1.22,0,1,1,137,86.78a1.22,1.22,0,0,1,1.22-1.22m0-2a3.22,3.22,0,1,0,3.23,3.22,3.22,3.22,0,0,0-3.23-3.22Z" fill="#fff"/><path d="M138.24,88.46a1.69,1.69,0,1,1,1.69-1.68A1.69,1.69,0,0,1,138.24,88.46Z" fill="#0069a3" fill-rule="evenodd"/><path d="M138.24,86.09a.69.69,0,1,1-.68.69.69.69,0,0,1,.68-.69m0-2a2.69,2.69,0,1,0,2.69,2.69,2.68,2.68,0,0,0-2.69-2.69Z" fill="#fff"/><path d="M125.36,84a1.47,1.47,0,1,1,1.47-1.47A1.47,1.47,0,0,1,125.36,84Z" fill="#0069a3" fill-rule="evenodd"/><path d="M125.36,82a.47.47,0,1,1-.47.47.47.47,0,0,1,.47-.47m0-2a2.47,2.47,0,1,0,2.47,2.47A2.48,2.48,0,0,0,125.36,80Z" fill="#fff"/><path d="M77.07,104.74a1.47,1.47,0,1,1,1.47-1.47A1.47,1.47,0,0,1,77.07,104.74Z" fill="#0069a3" fill-rule="evenodd"/><path d="M77.07,102.8a.47.47,0,1,1-.47.47.47.47,0,0,1,.47-.47m0-2a2.47,2.47,0,1,0,2.47,2.47,2.48,2.48,0,0,0-2.47-2.47Z" fill="#fff"/><path d="M62.9,96.86a1.47,1.47,0,1,1,1.47-1.47A1.47,1.47,0,0,1,62.9,96.86Z" fill="#0069a3" fill-rule="evenodd"/><path d="M62.9,94.92a.47.47,0,1,1-.47.47.47.47,0,0,1,.47-.47m0-2a2.47,2.47,0,1,0,2.47,2.47,2.48,2.48,0,0,0-2.47-2.47Z" fill="#fff"/><path d="M81,86.72A3.94,3.94,0,1,1,85,82.79,3.93,3.93,0,0,1,81,86.72Z" fill="#0069a3" fill-rule="evenodd"/><path d="M81,79.85a2.94,2.94,0,1,1-2.93,2.94A2.94,2.94,0,0,1,81,79.85m0-2A4.94,4.94,0,1,0,86,82.79,4.94,4.94,0,0,0,81,77.85Z" fill="#fff"/><path d="M173,135.26a1.27,1.27,0,1,1,1.27-1.26A1.27,1.27,0,0,1,173,135.26Z" fill="#0069a3" fill-rule="evenodd"/><path d="M173,133.73a.27.27,0,1,1,0,.53.27.27,0,0,1,0-.53m0-2a2.27,2.27,0,1,0,2.27,2.27,2.26,2.26,0,0,0-2.27-2.27Z" fill="#fff"/><path d="M127.63,153.15a1.47,1.47,0,1,1,1.47-1.47A1.47,1.47,0,0,1,127.63,153.15Z" fill="#0069a3" fill-rule="evenodd"/><path d="M127.63,151.21a.47.47,0,1,1-.47.47.47.47,0,0,1,.47-.47m0-2a2.47,2.47,0,1,0,2.47,2.47,2.48,2.48,0,0,0-2.47-2.47Z" fill="#fff"/><path d="M205.44,261.35a1.47,1.47,0,1,1,1.47-1.47A1.47,1.47,0,0,1,205.44,261.35Z" fill="#0069a3" fill-rule="evenodd"/><path d="M205.44,259.42a.47.47,0,1,1-.47.46.47.47,0,0,1,.47-.46m0-2a2.47,2.47,0,1,0,2.47,2.46,2.47,2.47,0,0,0-2.47-2.46Z" fill="#fff"/><path d="M223.58,296a1.47,1.47,0,1,1,1.47-1.47A1.47,1.47,0,0,1,223.58,296Z" fill="#0069a3" fill-rule="evenodd"/><path d="M223.58,294.08a.47.47,0,1,1-.47.47.47.47,0,0,1,.47-.47m0-2a2.47,2.47,0,1,0,2.47,2.47,2.48,2.48,0,0,0-2.47-2.47Z" fill="#fff"/><circle cx="230.35" cy="327.28" r="1.47" fill="#0069a3"/><path d="M230.35,326.81a.47.47,0,1,1-.46.47.47.47,0,0,1,.46-.47m0-2a2.47,2.47,0,1,0,2.47,2.47,2.47,2.47,0,0,0-2.47-2.47Z" fill="#fff"/><path d="M185.88,344.63a3.94,3.94,0,1,1,3.93-3.94A3.95,3.95,0,0,1,185.88,344.63Z" fill="#0069a3" fill-rule="evenodd"/><path d="M185.88,337.76a2.94,2.94,0,1,1-2.94,2.93,2.93,2.93,0,0,1,2.94-2.93m0-2a4.94,4.94,0,1,0,4.93,4.93,4.94,4.94,0,0,0-4.93-4.93Z" fill="#fff"/><path d="M211.06,401.44A3.94,3.94,0,1,1,215,397.5,3.94,3.94,0,0,1,211.06,401.44Z" fill="#0069a3" fill-rule="evenodd"/><path d="M211.06,394.57a2.94,2.94,0,1,1-2.93,2.93,2.94,2.94,0,0,1,2.93-2.93m0-2A4.94,4.94,0,1,0,216,397.5a4.93,4.93,0,0,0-4.94-4.93Z" fill="#fff"/><path d="M213.41,363.49a4.1,4.1,0,1,1,4.09-4.09A4.1,4.1,0,0,1,213.41,363.49Z" fill="#0069a3" fill-rule="evenodd"/><path d="M213.41,356.3a3.1,3.1,0,1,1-3.1,3.1,3.09,3.09,0,0,1,3.1-3.1m0-2a5.1,5.1,0,1,0,5.09,5.1,5.1,5.1,0,0,0-5.09-5.1Z" fill="#fff"/><path d="M237.24,365.18a3.94,3.94,0,1,1,3.93-3.94A3.95,3.95,0,0,1,237.24,365.18Z" fill="#0069a3" fill-rule="evenodd"/><path d="M237.24,358.31a2.94,2.94,0,1,1-2.94,2.93,2.93,2.93,0,0,1,2.94-2.93m0-2a4.94,4.94,0,1,0,4.93,4.93,4.94,4.94,0,0,0-4.93-4.93Z" fill="#fff"/><path d="M210.82,293.21a1.47,1.47,0,1,1,1.47-1.47A1.47,1.47,0,0,1,210.82,293.21Z" fill="#0069a3" fill-rule="evenodd"/><path d="M210.82,291.27a.47.47,0,1,1-.47.47.47.47,0,0,1,.47-.47m0-2a2.47,2.47,0,1,0,2.47,2.47,2.48,2.48,0,0,0-2.47-2.47Z" fill="#fff"/><path d="M174.89,252a1.47,1.47,0,1,1,1.47-1.47A1.47,1.47,0,0,1,174.89,252Z" fill="#0069a3" fill-rule="evenodd"/><path d="M174.89,250.1a.47.47,0,1,1-.47.47.47.47,0,0,1,.47-.47m0-2a2.47,2.47,0,1,0,2.47,2.47,2.48,2.48,0,0,0-2.47-2.47Z" fill="#fff"/><path d="M243.83,316.75a1.47,1.47,0,1,1,1.47-1.47A1.47,1.47,0,0,1,243.83,316.75Z" fill="#0069a3" fill-rule="evenodd"/><path d="M243.83,314.81a.47.47,0,1,1-.47.47.47.47,0,0,1,.47-.47m0-2a2.47,2.47,0,1,0,2.47,2.47,2.48,2.48,0,0,0-2.47-2.47Z" fill="#fff"/><path d="M189.27,388a1.47,1.47,0,1,1,1.47-1.47A1.46,1.46,0,0,1,189.27,388Z" fill="#0069a3" fill-rule="evenodd"/><path d="M189.27,386.05a.47.47,0,1,1-.46.46.47.47,0,0,1,.46-.46m0-2a2.47,2.47,0,1,0,2.47,2.46,2.46,2.46,0,0,0-2.47-2.46Z" fill="#fff"/><circle cx="206.32" cy="434.89" r="1.47" fill="#0069a3"/><path d="M206.32,434.43a.47.47,0,1,1-.47.46.47.47,0,0,1,.47-.46m0-2a2.47,2.47,0,1,0,2.47,2.46,2.47,2.47,0,0,0-2.47-2.46Z" fill="#fff"/><path d="M193.36,400.42a1.47,1.47,0,1,1,1.46-1.47A1.47,1.47,0,0,1,193.36,400.42Z" fill="#0069a3" fill-rule="evenodd"/><path d="M193.36,398.48a.47.47,0,1,1-.47.47.47.47,0,0,1,.47-.47m0-2a2.47,2.47,0,1,0,2.46,2.47,2.47,2.47,0,0,0-2.46-2.47Z" fill="#fff"/><path d="M184.18,363.74a4.1,4.1,0,1,1,4.09-4.09A4.1,4.1,0,0,1,184.18,363.74Z" fill="#0069a3" fill-rule="evenodd"/><path d="M184.18,356.55a3.1,3.1,0,1,1-3.1,3.1,3.09,3.09,0,0,1,3.1-3.1m0-2a5.1,5.1,0,1,0,5.09,5.1,5.1,5.1,0,0,0-5.09-5.1Z" fill="#fff"/><circle cx="158.36" cy="303.04" r="1.47" fill="#0069a3"/><path d="M158.36,302.57a.47.47,0,1,1-.47.47.47.47,0,0,1,.47-.47m0-2a2.47,2.47,0,1,0,2.47,2.47,2.47,2.47,0,0,0-2.47-2.47Z" fill="#fff"/><path d="M172.94,306.45a1.27,1.27,0,1,1,1.26-1.26A1.26,1.26,0,0,1,172.94,306.45Z" fill="#0069a3" fill-rule="evenodd"/><path d="M172.93,304.92a.27.27,0,0,1,.27.27.27.27,0,0,1-.53,0,.27.27,0,0,1,.26-.27m0-2a2.27,2.27,0,1,0,2.27,2.27,2.27,2.27,0,0,0-2.27-2.27Z" fill="#fff"/><path d="M187.3,280.2a1.27,1.27,0,1,1,1.27-1.27A1.27,1.27,0,0,1,187.3,280.2Z" fill="#0069a3" fill-rule="evenodd"/><path d="M187.3,278.67a.27.27,0,1,1-.26.26.27.27,0,0,1,.26-.26m0-2a2.27,2.27,0,1,0,2.27,2.26,2.26,2.26,0,0,0-2.27-2.26Z" fill="#fff"/><path d="M264.91,326.94a1.47,1.47,0,1,1,1.46-1.47A1.47,1.47,0,0,1,264.91,326.94Z" fill="#0069a3" fill-rule="evenodd"/><path d="M264.91,325a.47.47,0,1,1-.47.47.47.47,0,0,1,.47-.47m0-2a2.47,2.47,0,1,0,2.46,2.47,2.47,2.47,0,0,0-2.46-2.47Z" fill="#fff"/><path d="M196.75,253.19a1.27,1.27,0,1,1,1.27-1.27A1.27,1.27,0,0,1,196.75,253.19Z" fill="#0069a3" fill-rule="evenodd"/><path d="M196.75,251.66a.27.27,0,1,1-.26.26.27.27,0,0,1,.26-.26m0-2a2.27,2.27,0,1,0,2.27,2.26,2.26,2.26,0,0,0-2.27-2.26Z" fill="#fff"/><path d="M158.36,265.93a1.27,1.27,0,1,1,1.26-1.26A1.26,1.26,0,0,1,158.36,265.93Z" fill="#0069a3" fill-rule="evenodd"/><path d="M158.36,264.4a.27.27,0,1,1-.27.27.27.27,0,0,1,.27-.27m0-2a2.27,2.27,0,1,0,2.26,2.27,2.27,2.27,0,0,0-2.26-2.27Z" fill="#fff"/><path d="M135.52,244.29a1.26,1.26,0,1,1,1.27-1.26A1.26,1.26,0,0,1,135.52,244.29Z" fill="#0069a3" fill-rule="evenodd"/><path d="M135.52,242.76a.27.27,0,0,1,.27.27.27.27,0,0,1-.53,0,.27.27,0,0,1,.26-.27m0-2a2.27,2.27,0,1,0,2.27,2.27,2.27,2.27,0,0,0-2.27-2.27Z" fill="#fff"/><circle cx="122.43" cy="234.61" r="1.47" fill="#0069a3"/><path d="M122.43,234.14a.47.47,0,1,1-.47.47.47.47,0,0,1,.47-.47m0-2a2.47,2.47,0,1,0,2.46,2.47,2.46,2.46,0,0,0-2.46-2.47Z" fill="#fff"/><path d="M88.88,220.63a1.27,1.27,0,1,1,1.26-1.27A1.27,1.27,0,0,1,88.88,220.63Z" fill="#0069a3" fill-rule="evenodd"/><path d="M88.88,219.1a.27.27,0,0,1,0,.53.27.27,0,1,1,0-.53m0-2a2.27,2.27,0,1,0,2.26,2.26,2.27,2.27,0,0,0-2.26-2.26Z" fill="#fff"/><circle cx="108.05" cy="199.86" r="1.47" fill="#0069a3"/><path d="M108.05,199.39a.47.47,0,1,1-.46.47.47.47,0,0,1,.46-.47m0-2a2.47,2.47,0,1,0,2.47,2.47,2.47,2.47,0,0,0-2.47-2.47Z" fill="#fff"/><path d="M87.39,204.64a1.27,1.27,0,1,1,1.26-1.27A1.27,1.27,0,0,1,87.39,204.64Z" fill="#0069a3" fill-rule="evenodd"/><path d="M87.39,203.11a.27.27,0,0,1,0,.53.27.27,0,1,1,0-.53m0-2a2.27,2.27,0,1,0,2.26,2.26,2.27,2.27,0,0,0-2.26-2.26Z" fill="#fff"/><path d="M208.33,315.71a3.94,3.94,0,1,1,3.93-3.94A3.95,3.95,0,0,1,208.33,315.71Z" fill="#0069a3" fill-rule="evenodd"/><path d="M208.33,308.84a2.94,2.94,0,1,1-2.94,2.93,2.93,2.93,0,0,1,2.94-2.93m0-2a4.94,4.94,0,1,0,4.93,4.93,4.94,4.94,0,0,0-4.93-4.93Z" fill="#fff"/><path d="M178.48,298.49a3.94,3.94,0,1,1,3.93-3.94A3.95,3.95,0,0,1,178.48,298.49Z" fill="#0069a3" fill-rule="evenodd"/><path d="M178.48,291.61a2.94,2.94,0,1,1-2.94,2.94,2.94,2.94,0,0,1,2.94-2.94m0-2a4.94,4.94,0,1,0,4.93,4.94,4.94,4.94,0,0,0-4.93-4.94Z" fill="#fff"/><path d="M196.3,294.89a1.47,1.47,0,1,1,1.47-1.47A1.47,1.47,0,0,1,196.3,294.89Z" fill="#0069a3" fill-rule="evenodd"/><path d="M196.3,293a.47.47,0,1,1-.47.47.47.47,0,0,1,.47-.47m0-2a2.47,2.47,0,1,0,2.47,2.47A2.47,2.47,0,0,0,196.3,291Z" fill="#fff"/><path d="M231.78,348.94a4.1,4.1,0,1,1,4.1-4.1A4.1,4.1,0,0,1,231.78,348.94Z" fill="#0069a3" fill-rule="evenodd"/><path d="M231.78,341.74a3.1,3.1,0,1,1-3.09,3.1,3.1,3.1,0,0,1,3.09-3.1m0-2a5.1,5.1,0,1,0,5.1,5.1,5.1,5.1,0,0,0-5.1-5.1Z" fill="#fff"/><path d="M172.72,327.3a4.1,4.1,0,1,1,4.09-4.09A4.1,4.1,0,0,1,172.72,327.3Z" fill="#0069a3" fill-rule="evenodd"/><path d="M172.72,320.11a3.1,3.1,0,1,1-3.1,3.1,3.09,3.09,0,0,1,3.1-3.1m0-2a5.1,5.1,0,1,0,5.09,5.1,5.1,5.1,0,0,0-5.09-5.1Z" fill="#fff"/><path d="M187.66,316.38a3.94,3.94,0,1,1,3.94-3.93A3.94,3.94,0,0,1,187.66,316.38Z" fill="#0069a3" fill-rule="evenodd"/><path d="M187.66,309.51a2.94,2.94,0,1,1-2.94,2.94,2.94,2.94,0,0,1,2.94-2.94m0-2a4.94,4.94,0,1,0,4.94,4.94,4.94,4.94,0,0,0-4.94-4.94Z" fill="#fff"/><path d="M243.83,293.27a3.94,3.94,0,1,1,3.94-3.93A3.93,3.93,0,0,1,243.83,293.27Z" fill="#0069a3" fill-rule="evenodd"/><path d="M243.83,286.4a2.94,2.94,0,1,1-2.93,2.94,2.94,2.94,0,0,1,2.93-2.94m0-2a4.94,4.94,0,1,0,4.94,4.94,4.94,4.94,0,0,0-4.94-4.94Z" fill="#fff"/><path d="M148,93a3.83,3.83,0,1,1,3.84-3.83A3.84,3.84,0,0,1,148,93Z" fill="#0069a3" fill-rule="evenodd"/><path d="M148,86.29a2.83,2.83,0,1,1-2.83,2.83A2.84,2.84,0,0,1,148,86.29m0-2a4.83,4.83,0,1,0,4.84,4.83A4.83,4.83,0,0,0,148,84.29Z" fill="#fff"/><path d="M78.79,174a1.47,1.47,0,1,1,1.47-1.47A1.46,1.46,0,0,1,78.79,174Z" fill="#0069a3" fill-rule="evenodd"/><path d="M78.79,172.08a.47.47,0,1,1-.46.46.47.47,0,0,1,.46-.46m0-2a2.47,2.47,0,1,0,2.47,2.46,2.46,2.46,0,0,0-2.47-2.46Z" fill="#fff"/><circle cx="145.07" cy="166.76" r="1.47" fill="#0069a3"/><path d="M145.07,166.3a.47.47,0,1,1-.47.46.47.47,0,0,1,.47-.46m0-2a2.47,2.47,0,1,0,2.46,2.46,2.46,2.46,0,0,0-2.46-2.46Z" fill="#fff"/><path d="M120.12,189.32a4.37,4.37,0,1,1,4.36-4.37A4.37,4.37,0,0,1,120.12,189.32Z" fill="#0069a3" fill-rule="evenodd"/><path d="M120.12,181.59a3.37,3.37,0,1,1-3.37,3.36,3.37,3.37,0,0,1,3.37-3.36m0-2a5.37,5.37,0,1,0,5.36,5.36,5.36,5.36,0,0,0-5.36-5.36Z" fill="#fff"/><path d="M92.65,171.21a3.84,3.84,0,1,1,3.83-3.83A3.84,3.84,0,0,1,92.65,171.21Z" fill="#0069a3" fill-rule="evenodd"/><path d="M92.65,164.54a2.84,2.84,0,1,1-2.83,2.84,2.84,2.84,0,0,1,2.83-2.84m0-2a4.84,4.84,0,1,0,4.83,4.84,4.84,4.84,0,0,0-4.83-4.84Z" fill="#fff"/><circle cx="162.01" cy="110.39" r="1.47" fill="#0069a3"/><path d="M162,109.93a.47.47,0,1,1,0,.93.47.47,0,0,1,0-.93m0-2a2.47,2.47,0,1,0,2.47,2.46,2.46,2.46,0,0,0-2.47-2.46Z" fill="#fff"/><path d="M229.77,111a1.47,1.47,0,1,1,1.47-1.47A1.47,1.47,0,0,1,229.77,111Z" fill="#0069a3" fill-rule="evenodd"/><path d="M229.77,109.05a.47.47,0,1,1-.47.46.47.47,0,0,1,.47-.46m0-2a2.47,2.47,0,1,0,2.47,2.46,2.47,2.47,0,0,0-2.47-2.46Z" fill="#fff"/><path d="M235,91.51a3,3,0,1,1,3-3A3,3,0,0,1,235,91.51Z" fill="#0069a3" fill-rule="evenodd"/><path d="M235,86.59a2,2,0,1,1-2,2,2,2,0,0,1,2-2m0-2a4,4,0,1,0,4,4,4,4,0,0,0-4-4Z" fill="#fff"/><path d="M211.7,129.65a1.47,1.47,0,1,1,1.47-1.47A1.47,1.47,0,0,1,211.7,129.65Z" fill="#0069a3" fill-rule="evenodd"/><path d="M211.7,127.71a.47.47,0,1,1-.47.47.47.47,0,0,1,.47-.47m0-2a2.47,2.47,0,1,0,2.47,2.47,2.48,2.48,0,0,0-2.47-2.47Z" fill="#fff"/><path d="M184.78,91a3,3,0,0,1-.18-5.92h.19a3,3,0,0,1,3,2.78A2.92,2.92,0,0,1,187,90a2.89,2.89,0,0,1-2,1Z" fill="#0069a3" fill-rule="evenodd"/><path d="M184.79,86.11a2,2,0,0,1,1.47,3.27,2,2,0,0,1-1.35.66h-.13a2,2,0,0,1-1.95-1.84,1.95,1.95,0,0,1,1.83-2.08h.13m0-2h-.25a4,4,0,0,0,.24,7.92H185a4,4,0,0,0-.24-7.92Z" fill="#fff"/><path d="M354.3,123.24a1.47,1.47,0,1,1,1.47-1.47A1.47,1.47,0,0,1,354.3,123.24Z" fill="#0069a3" fill-rule="evenodd"/><path d="M354.3,121.31a.47.47,0,1,1-.46.46.47.47,0,0,1,.46-.46m0-2a2.47,2.47,0,1,0,2.47,2.46,2.46,2.46,0,0,0-2.47-2.46Z" fill="#fff"/><path d="M110.35,227.51a1.47,1.47,0,1,1,1.47-1.47A1.47,1.47,0,0,1,110.35,227.51Z" fill="#0069a3" fill-rule="evenodd"/><path d="M110.35,225.57a.47.47,0,1,1-.47.47.47.47,0,0,1,.47-.47m0-2a2.47,2.47,0,1,0,2.47,2.47,2.47,2.47,0,0,0-2.47-2.47Z" fill="#fff"/><path d="M140.24,241.33a1.47,1.47,0,1,1,1.47-1.47A1.47,1.47,0,0,1,140.24,241.33Z" fill="#0069a3" fill-rule="evenodd"/><path d="M140.24,239.39a.47.47,0,1,1-.47.47.47.47,0,0,1,.47-.47m0-2a2.47,2.47,0,1,0,2.47,2.47,2.48,2.48,0,0,0-2.47-2.47Z" fill="#fff"/><path d="M123,227.12a1.47,1.47,0,1,1,1.47-1.47A1.47,1.47,0,0,1,123,227.12Z" fill="#0069a3" fill-rule="evenodd"/><path d="M123,225.18a.47.47,0,1,1-.47.47.47.47,0,0,1,.47-.47m0-2a2.47,2.47,0,1,0,2.47,2.47,2.47,2.47,0,0,0-2.47-2.47Z" fill="#fff"/><path d="M305.48,55.1A1.47,1.47,0,1,1,307,53.63,1.47,1.47,0,0,1,305.48,55.1Z" fill="#0069a3" fill-rule="evenodd"/><path d="M305.48,53.17a.47.47,0,1,1-.47.46.47.47,0,0,1,.47-.46m0-2A2.47,2.47,0,1,0,308,53.63a2.47,2.47,0,0,0-2.47-2.46Z" fill="#fff"/><circle cx="238.92" cy="81.16" r="1.47" fill="#0069a3"/><path d="M238.92,80.7a.47.47,0,1,1-.47.46.47.47,0,0,1,.47-.46m0-2a2.47,2.47,0,1,0,2.46,2.46,2.46,2.46,0,0,0-2.46-2.46Z" fill="#fff"/><path d="M244.56,55.84A1.47,1.47,0,1,1,246,54.37,1.47,1.47,0,0,1,244.56,55.84Z" fill="#0069a3" fill-rule="evenodd"/><path d="M244.56,53.91a.47.47,0,1,1-.47.46.47.47,0,0,1,.47-.46m0-2A2.47,2.47,0,1,0,247,54.37a2.47,2.47,0,0,0-2.47-2.46Z" fill="#fff"/><path d="M201.51,124.66a1.47,1.47,0,1,1,1.47-1.47A1.47,1.47,0,0,1,201.51,124.66Z" fill="#0069a3" fill-rule="evenodd"/><path d="M201.51,122.72a.47.47,0,1,1-.47.47.47.47,0,0,1,.47-.47m0-2a2.47,2.47,0,1,0,2.47,2.47,2.48,2.48,0,0,0-2.47-2.47Z" fill="#fff"/><path d="M131.37,223.66a1.47,1.47,0,1,1,1.47-1.47A1.47,1.47,0,0,1,131.37,223.66Z" fill="#0069a3" fill-rule="evenodd"/><path d="M131.37,221.73a.47.47,0,1,1-.47.46.47.47,0,0,1,.47-.46m0-2a2.47,2.47,0,1,0,2.47,2.46,2.47,2.47,0,0,0-2.47-2.46Z" fill="#fff"/><circle cx="128.31" cy="122.34" r="3.44" fill="#0069a3"/><path d="M128.31,119.9a2.45,2.45,0,1,1-2.44,2.44,2.45,2.45,0,0,1,2.44-2.44m0-2a4.45,4.45,0,1,0,4.45,4.44,4.44,4.44,0,0,0-4.45-4.44Z" fill="#fff"/><circle cx="92.7" cy="128.18" r="1.47" fill="#0069a3"/><path d="M92.7,127.71a.47.47,0,1,1-.47.47.47.47,0,0,1,.47-.47m0-2a2.47,2.47,0,1,0,2.46,2.47,2.47,2.47,0,0,0-2.46-2.47Z" fill="#fff"/><circle cx="128.31" cy="100.53" r="1.47" fill="#0069a3"/><path d="M128.31,100.06a.47.47,0,1,1-.46.47.47.47,0,0,1,.46-.47m0-2a2.47,2.47,0,1,0,2.47,2.47,2.46,2.46,0,0,0-2.47-2.47Z" fill="#fff"/><path d="M215.07,117.9A3.94,3.94,0,1,1,219,114,3.95,3.95,0,0,1,215.07,117.9Z" fill="#0069a3" fill-rule="evenodd"/><path d="M215.07,111a2.94,2.94,0,1,1-2.94,2.93,2.93,2.93,0,0,1,2.94-2.93m0-2A4.94,4.94,0,1,0,220,114a4.94,4.94,0,0,0-4.93-4.93Z" fill="#fff"/><path d="M189.57,137.64a1.47,1.47,0,1,1,1.47-1.47A1.47,1.47,0,0,1,189.57,137.64Z" fill="#0069a3" fill-rule="evenodd"/><path d="M189.57,135.7a.47.47,0,1,1-.47.47.47.47,0,0,1,.47-.47m0-2a2.47,2.47,0,1,0,2.47,2.47,2.48,2.48,0,0,0-2.47-2.47Z" fill="#fff"/><path d="M156.29,284.25a3.94,3.94,0,1,1,3.93-3.93A3.94,3.94,0,0,1,156.29,284.25Z" fill="#0069a3" fill-rule="evenodd"/><path d="M156.29,277.38a2.94,2.94,0,1,1-2.94,2.94,2.94,2.94,0,0,1,2.94-2.94m0-2a4.94,4.94,0,1,0,4.93,4.94,4.94,4.94,0,0,0-4.93-4.94Z" fill="#fff"/><path d="M227.19,316.14a4.37,4.37,0,1,1,4.37-4.37A4.37,4.37,0,0,1,227.19,316.14Z" fill="#0069a3" fill-rule="evenodd"/><path d="M227.19,308.41a3.37,3.37,0,1,1-3.37,3.36,3.37,3.37,0,0,1,3.37-3.36m0-2a5.37,5.37,0,1,0,5.37,5.36,5.37,5.37,0,0,0-5.37-5.36Z" fill="#fff"/><path d="M208.33,341.13a3.83,3.83,0,1,1,3.83-3.83A3.84,3.84,0,0,1,208.33,341.13Z" fill="#0069a3" fill-rule="evenodd"/><path d="M208.33,334.47a2.83,2.83,0,1,1-2.83,2.83,2.83,2.83,0,0,1,2.83-2.83m0-2a4.83,4.83,0,1,0,4.83,4.83,4.83,4.83,0,0,0-4.83-4.83Z" fill="#fff"/><path d="M462,322.27a3.94,3.94,0,1,1,3.93-3.93A3.94,3.94,0,0,1,462,322.27Z" fill="#0069a3" fill-rule="evenodd"/><path d="M462,315.4a2.94,2.94,0,1,1-2.94,2.94A2.94,2.94,0,0,1,462,315.4m0-2a4.94,4.94,0,1,0,4.93,4.94A4.94,4.94,0,0,0,462,313.4Z" fill="#fff"/><path d="M572,143.34a3.94,3.94,0,1,1,3.93-3.93A3.94,3.94,0,0,1,572,143.34Z" fill="#0069a3" fill-rule="evenodd"/><path d="M572,136.47a2.94,2.94,0,1,1-2.94,2.94,2.94,2.94,0,0,1,2.94-2.94m0-2a4.94,4.94,0,1,0,4.93,4.94,4.94,4.94,0,0,0-4.93-4.94Z" fill="#fff"/><path d="M254.34,340.91a3.94,3.94,0,1,1,3.93-3.94A3.95,3.95,0,0,1,254.34,340.91Z" fill="#0069a3" fill-rule="evenodd"/><path d="M254.34,334A2.94,2.94,0,1,1,251.4,337a2.93,2.93,0,0,1,2.94-2.93m0-2a4.94,4.94,0,1,0,4.93,4.93,4.94,4.94,0,0,0-4.93-4.93Z" fill="#fff"/><path d="M383.34,191.16a4.37,4.37,0,1,1,4.36-4.37A4.37,4.37,0,0,1,383.34,191.16Z" fill="#0069a3" fill-rule="evenodd"/><path d="M383.34,183.42a3.37,3.37,0,1,1-3.37,3.37,3.37,3.37,0,0,1,3.37-3.37m0-2a5.37,5.37,0,1,0,5.36,5.37,5.37,5.37,0,0,0-5.36-5.37Z" fill="#fff"/><path d="M161.66,146.53a3,3,0,1,1,3-2.95A3,3,0,0,1,161.66,146.53Z" fill="#0069a3" fill-rule="evenodd"/><path d="M161.66,141.63a1.95,1.95,0,1,1-1.95,2,1.95,1.95,0,0,1,1.95-2m0-2a3.95,3.95,0,1,0,4,4,4,4,0,0,0-4-4Z" fill="#fff"/><path d="M331.88,61.14a3.94,3.94,0,1,1,3.94-3.94A3.94,3.94,0,0,1,331.88,61.14Z" fill="#0069a3" fill-rule="evenodd"/><path d="M331.88,54.27A2.94,2.94,0,1,1,329,57.2a2.94,2.94,0,0,1,2.93-2.93m0-2a4.94,4.94,0,1,0,4.94,4.93,4.93,4.93,0,0,0-4.94-4.93Z" fill="#fff"/><circle cx="128.31" cy="166.76" r="1.47" fill="#0069a3"/><path d="M128.31,166.3a.47.47,0,1,1-.46.46.47.47,0,0,1,.46-.46m0-2a2.47,2.47,0,1,0,2.47,2.46,2.46,2.46,0,0,0-2.47-2.46Z" fill="#fff"/><circle cx="108.78" cy="99.18" r="3.44" fill="#0069a3"/><path d="M108.78,96.74a2.44,2.44,0,1,1-2.44,2.44,2.45,2.45,0,0,1,2.44-2.44m0-2a4.44,4.44,0,1,0,4.45,4.44,4.44,4.44,0,0,0-4.45-4.44Z" fill="#fff"/><circle cx="93.83" cy="190.34" r="4.37" fill="#0069a3"/><path d="M93.83,187a3.37,3.37,0,1,1-3.37,3.37A3.37,3.37,0,0,1,93.83,187m0-2a5.37,5.37,0,1,0,5.37,5.37A5.36,5.36,0,0,0,93.83,185Z" fill="#fff"/><circle cx="146.34" cy="108.2" r="3.44" fill="#0069a3"/><path d="M146.34,105.76a2.45,2.45,0,1,1-2.45,2.45,2.45,2.45,0,0,1,2.45-2.45m0-2a4.45,4.45,0,1,0,4.44,4.45,4.45,4.45,0,0,0-4.44-4.45Z" fill="#fff"/><path d="M236.68,133.19a3.94,3.94,0,1,1,3.94-3.93A3.93,3.93,0,0,1,236.68,133.19Z" fill="#0069a3" fill-rule="evenodd"/><path d="M236.68,126.32a2.94,2.94,0,1,1-2.93,2.94,2.94,2.94,0,0,1,2.93-2.94m0-2a4.94,4.94,0,1,0,4.94,4.94,4.94,4.94,0,0,0-4.94-4.94Z" fill="#fff"/><path d="M144.26,159a3.83,3.83,0,1,1,3.83-3.83A3.84,3.84,0,0,1,144.26,159Z" fill="#0069a3" fill-rule="evenodd"/><path d="M144.26,152.3a2.83,2.83,0,1,1-2.83,2.83,2.83,2.83,0,0,1,2.83-2.83m0-2a4.83,4.83,0,1,0,4.83,4.83,4.83,4.83,0,0,0-4.83-4.83Z" fill="#fff"/><path d="M166.16,219.22a3.94,3.94,0,1,1,3.94-3.94A3.95,3.95,0,0,1,166.16,219.22Z" fill="#0069a3" fill-rule="evenodd"/><path d="M166.16,212.35a2.94,2.94,0,1,1-2.93,2.93,2.94,2.94,0,0,1,2.93-2.93m0-2a4.94,4.94,0,1,0,4.94,4.93,4.93,4.93,0,0,0-4.94-4.93Z" fill="#fff"/><path d="M148.41,192.22a3.94,3.94,0,1,1,3.94-3.93A3.93,3.93,0,0,1,148.41,192.22Z" fill="#0069a3" fill-rule="evenodd"/><path d="M148.41,185.35a2.94,2.94,0,1,1-2.93,2.94,2.94,2.94,0,0,1,2.93-2.94m0-2a4.94,4.94,0,1,0,4.94,4.94,4.94,4.94,0,0,0-4.94-4.94Z" fill="#fff"/><path d="M179.69,159.38a4.1,4.1,0,1,1,4.09-4.1A4.11,4.11,0,0,1,179.69,159.38Z" fill="#0069a3" fill-rule="evenodd"/><path d="M179.69,152.18a3.1,3.1,0,1,1-3.1,3.1,3.09,3.09,0,0,1,3.1-3.1m0-2a5.1,5.1,0,1,0,5.09,5.1,5.11,5.11,0,0,0-5.09-5.1Z" fill="#fff"/><path d="M118.83,145.6a3.53,3.53,0,1,1,3.52-3.53A3.53,3.53,0,0,1,118.83,145.6Z" fill="#0069a3" fill-rule="evenodd"/><path d="M118.83,139.54a2.53,2.53,0,1,1-2.53,2.53,2.54,2.54,0,0,1,2.53-2.53m0-2a4.53,4.53,0,1,0,4.53,4.53,4.53,4.53,0,0,0-4.53-4.53Z" fill="#fff"/><path d="M96.57,148a3.44,3.44,0,1,1,3.44-3.44A3.45,3.45,0,0,1,96.57,148Z" fill="#0069a3" fill-rule="evenodd"/><path d="M96.57,142.08a2.44,2.44,0,1,1-2.45,2.44,2.45,2.45,0,0,1,2.45-2.44m0-2a4.44,4.44,0,1,0,4.44,4.44,4.44,4.44,0,0,0-4.44-4.44Z" fill="#fff"/><path d="M211.53,145.24a3.94,3.94,0,1,1,3.94-3.94A3.94,3.94,0,0,1,211.53,145.24Z" fill="#0069a3" fill-rule="evenodd"/><path d="M211.53,138.37a2.94,2.94,0,1,1-2.93,2.93,2.94,2.94,0,0,1,2.93-2.93m0-2a4.94,4.94,0,1,0,4.94,4.93,4.93,4.93,0,0,0-4.94-4.93Z" fill="#fff"/><path d="M276.18,59.76a1.47,1.47,0,1,1,1.47-1.47A1.46,1.46,0,0,1,276.18,59.76Z" fill="#0069a3" fill-rule="evenodd"/><path d="M276.18,57.83a.47.47,0,1,1-.46.46.47.47,0,0,1,.46-.46m0-2a2.47,2.47,0,1,0,2.47,2.46,2.46,2.46,0,0,0-2.47-2.46Z" fill="#fff"/><circle cx="223.8" cy="372.17" r="1.47" fill="#0069a3"/><path d="M223.8,371.7a.47.47,0,1,1-.47.47.47.47,0,0,1,.47-.47m0-2a2.47,2.47,0,1,0,2.47,2.47,2.48,2.48,0,0,0-2.47-2.47Z" fill="#fff"/><path d="M165.81,257.91a1.47,1.47,0,1,1,1.47-1.47A1.46,1.46,0,0,1,165.81,257.91Z" fill="#0069a3" fill-rule="evenodd"/><path d="M165.81,256a.47.47,0,1,1-.46.47.47.47,0,0,1,.46-.47m0-2a2.47,2.47,0,1,0,2.47,2.47,2.46,2.46,0,0,0-2.47-2.47Z" fill="#fff"/><path d="M204.62,425.79a1.47,1.47,0,1,1,1.47-1.46A1.47,1.47,0,0,1,204.62,425.79Z" fill="#0069a3" fill-rule="evenodd"/><path d="M204.62,423.86a.47.47,0,1,1-.47.47.47.47,0,0,1,.47-.47m0-2a2.47,2.47,0,1,0,2.47,2.47,2.47,2.47,0,0,0-2.47-2.47Z" fill="#fff"/></g></svg>