<svg xmlns="http://www.w3.org/2000/svg" xmlns:xlink="http://www.w3.org/1999/xlink" viewBox="0 0 353.74 374.12"><defs><style>.cls-1{fill:none;}.cls-2{clip-path:url(#clip-path);}.cls-3{fill:#93f5e5;}.cls-4{fill:#5dc2ae;}.cls-5{fill:#164377;}.cls-6{fill:#105697;}.cls-7{fill:#fff;}.cls-8{fill:#d2d3d3;}.cls-9{opacity:0.21;isolation:isolate;}.cls-10{fill:#182b3a;}</style><clipPath id="clip-path" transform="translate(-127.28 -82.81)"><rect class="cls-1" width="893.21" height="558.26"/></clipPath></defs><title>Asset 1</title><g id="Layer_2" data-name="Layer 2"><g id="Layer_1-2" data-name="Layer 1"><g class="cls-2"><path class="cls-3" d="M218.35,361.57a145.45,145.45,0,0,0-8.39-16c-3.24-5.35-6.93-11.11-7.59-17.1l-13.11,10.84a1.74,1.74,0,0,0-.42.34c-3.47,3.82,8.15,20.07,26,36.28,1.63,1.5,3.27,2.94,4.89,4.33a17.66,17.66,0,0,0,1.73-6.24C221.72,369.68,220.11,365.5,218.35,361.57Z" transform="translate(-127.28 -82.81)"/><path class="cls-4" d="M253.29,398.36a2.06,2.06,0,0,0,.31-.46l37.33-55.19-50.34-45.87-38.22,31.58c.65,6,4.34,11.75,7.58,17.1a145.52,145.52,0,0,1,8.4,16c1.75,3.93,3.36,8.11,3.06,12.41a17.53,17.53,0,0,1-1.72,6.24C235.65,393.86,250.15,401.82,253.29,398.36Z" transform="translate(-127.28 -82.81)"/><path class="cls-5" d="M288.8,189.76c-22.67,27.89-46.55,54.93-75.69,75.75-11.65,8.33-24.21,15.66-37.93,19.8a75.65,75.65,0,0,1-29.61,3.09l-18.29,21.43h0c15.25,13.9,36.91,16.34,52.42,5.8l141.61-96.24Z" transform="translate(-127.28 -82.81)"/><path class="cls-6" d="M175.18,285.31c13.71-4.13,26.27-11.47,37.93-19.79,29.14-20.82,53-47.86,75.69-75.76l-2.39-2.17c-17-15.52-42.26-14.7-56.22,1.65L145.56,288.4A75.53,75.53,0,0,0,175.18,285.31Z" transform="translate(-127.28 -82.81)"/><path class="cls-6" d="M364.56,352.16l43.95-41.56a42.12,42.12,0,0,0-13.3-23.86l-34.89-31.81L280.83,400.05c12.52-.58,25.08-4.54,36.23-10.45C334.93,380.13,349.86,366.05,364.56,352.16Z" transform="translate(-127.28 -82.81)"/><path class="cls-5" d="M408.51,310.6l-43.95,41.56c-14.7,13.89-29.63,28-47.5,37.43-11.15,5.91-23.71,9.87-36.23,10.45L278,405.21c-9,16.45-4.56,37.82,10.69,51.71L398.86,343A36.91,36.91,0,0,0,408.51,310.6Z" transform="translate(-127.28 -82.81)"/><path class="cls-1" d="M280.42,365.85a53.41,53.41,0,0,0,7.68,2.9A52.25,52.25,0,0,1,280.42,365.85Z" transform="translate(-127.28 -82.81)"/><path class="cls-1" d="M265.47,357.29q3.18,2.13,6.23,3.95Q268.66,359.42,265.47,357.29Z" transform="translate(-127.28 -82.81)"/><path class="cls-1" d="M271.7,361.24c2,1.2,4,2.29,5.91,3.26C275.71,363.54,273.73,362.44,271.7,361.24Z" transform="translate(-127.28 -82.81)"/><path class="cls-3" d="M233.74,329.66c-11-12.12-18.37-23.82-20.07-31.83l-8.31,11.06c-3.13,4,.09,12.94,7.59,23.5A42.63,42.63,0,0,1,223.18,330,97.79,97.79,0,0,1,233.74,329.66Z" transform="translate(-127.28 -82.81)"/><path class="cls-4" d="M280.42,365.85c-.92-.41-1.86-.87-2.81-1.35-1.9-1-3.88-2.06-5.91-3.26s-4.11-2.53-6.23-3.95a174.57,174.57,0,0,1-19.65-15.56c-4.38-4-8.43-8.06-12.08-12.07a97.79,97.79,0,0,0-10.56.29A42.52,42.52,0,0,0,213,332.39a146.59,146.59,0,0,0,20.61,22.83c20.78,18.94,42.53,29.64,48.72,23.76l10.21-9.34a27.89,27.89,0,0,1-4.39-.9A51,51,0,0,1,280.42,365.85Z" transform="translate(-127.28 -82.81)"/><path class="cls-7" d="M248.06,328.66c9.64-2.16,17.7-8.58,25.29-14.9A1078.76,1078.76,0,0,0,408.09,179.68q-4.27-3.42-8.48-7.24c-15.29-13.94-26.69-29.37-32.94-42.35-34.13,21.5-62.84,47.75-84.39,76.44l-68.61,91.3c1.7,8,9.05,19.72,20.07,31.83C238.56,329.69,243.37,329.71,248.06,328.66Z" transform="translate(-127.28 -82.81)"/><path class="cls-8" d="M444.81,201.29c-11-4.09-24-11.46-36.72-21.61A1078.08,1078.08,0,0,1,273.35,313.76c-7.59,6.33-15.65,12.74-25.29,14.9-4.69,1-9.5,1-14.33,1,3.65,4,7.71,8.08,12.08,12.07a175.47,175.47,0,0,0,19.65,15.56q3.18,2.13,6.23,3.95t5.91,3.26c1,.48,1.89.94,2.81,1.35a53.41,53.41,0,0,0,7.68,2.9,29.07,29.07,0,0,0,4.39.9l84.31-77C403.26,268.45,426.64,237.34,444.81,201.29Z" transform="translate(-127.28 -82.81)"/><path class="cls-3" d="M408.09,179.68a1079.3,1079.3,0,0,0,72.66-96.8,369.86,369.86,0,0,0-114.08,47.21c6.25,13,17.64,28.41,32.94,42.35Q403.81,176.27,408.09,179.68Z" transform="translate(-127.28 -82.81)"/><path class="cls-4" d="M444.81,201.29A371.55,371.55,0,0,0,481,82.81h0l-.27.07a1079.3,1079.3,0,0,1-72.66,96.8C420.81,189.83,433.78,197.19,444.81,201.29Z" transform="translate(-127.28 -82.81)"/><path class="cls-9" d="M392.23,236.39A45.92,45.92,0,1,0,380.52,272,45.88,45.88,0,0,0,392.23,236.39Z" transform="translate(-127.28 -82.81)"/><path class="cls-3" d="M353.43,248c15.77-2.45,29.94-11.69,40.5-23.71a45.91,45.91,0,0,0-91.11-1.9,59.51,59.51,0,0,0,6,9.6C319.12,244.93,337.08,250.51,353.43,248Z" transform="translate(-127.28 -82.81)"/><path class="cls-4" d="M393.93,224.25c-10.56,12-24.73,21.26-40.5,23.71-16.35,2.55-34.31-3-44.59-16a59.16,59.16,0,0,1-6-9.59,45.92,45.92,0,1,0,91.11,1.89Z" transform="translate(-127.28 -82.81)"/><path class="cls-7" d="M378.23,209.33l-59.82-.18a36.22,36.22,0,0,0-3.4,6.49l66.57.19A34.79,34.79,0,0,0,378.23,209.33Z" transform="translate(-127.28 -82.81)"/><path class="cls-10" d="M381.58,215.84l-66.57-.2a36,36,0,0,0-2.34,9.46l71.2.21A35.42,35.42,0,0,0,381.58,215.84Z" transform="translate(-127.28 -82.81)"/><path class="cls-10" d="M372.36,202.43a35.76,35.76,0,0,0-50.58,2.39,36.26,36.26,0,0,0-3.37,4.33l59.82.17A36.24,36.24,0,0,0,372.36,202.43Z" transform="translate(-127.28 -82.81)"/><path class="cls-7" d="M368.26,258.7l-40.17-.11A35.78,35.78,0,0,0,368.26,258.7Z" transform="translate(-127.28 -82.81)"/><path class="cls-10" d="M374.75,253.09a35.55,35.55,0,0,0,6.32-9.79l-65.71-.19a35.68,35.68,0,0,0,12.73,15.47l40.17.12A35.66,35.66,0,0,0,374.75,253.09Z" transform="translate(-127.28 -82.81)"/><path class="cls-7" d="M383.87,225.31l-71.2-.21a36,36,0,0,0,2.69,18l65.71.19A35.85,35.85,0,0,0,383.87,225.31Z" transform="translate(-127.28 -82.81)"/></g></g></g></svg>