<svg xmlns="http://www.w3.org/2000/svg" xmlns:xlink="http://www.w3.org/1999/xlink" viewBox="0 0 716.89 490.72"><defs><style>.cls-1{fill:none;}.cls-2{clip-path:url(#clip-path);}.cls-3{fill:#456cb0;}</style><clipPath id="clip-path" transform="translate(0 -201.32)"><rect class="cls-1" x="101.69" width="893.21" height="558.26"/></clipPath></defs><title>Asset 3</title><g id="Layer_2" data-name="Layer 2"><g id="Layer_1-2" data-name="Layer 1"><g class="cls-2"><path class="cls-3" d="M716.3,604.63a75.11,75.11,0,0,0-80.53-84.32,36,36,0,0,0-63.43-15,54.68,54.68,0,0,0-38,13.64,20.76,20.76,0,0,0-36,9.36,29,29,0,0,0-36.85-4.27,35.94,35.94,0,0,0-62.7,1.87,46.51,46.51,0,0,0-56.95-4,20.78,20.78,0,0,0-38.93-.61,36,36,0,0,0-40.81-10.53,36,36,0,0,0-28.94-22.4,35.61,35.61,0,0,0-13.23.8,75.24,75.24,0,0,0-38.53-35.39,23.53,23.53,0,0,0-10-32.47,36.06,36.06,0,0,0-.44-56.61,20.85,20.85,0,0,0,11-37.77,20.84,20.84,0,0,0-10.47-36.89,20.51,20.51,0,0,0-7,.32,36.64,36.64,0,0,0-19.09-52.23,30.07,30.07,0,0,0,.81-4.06A29.11,29.11,0,1,0,89,236.71L0,260,31,621.42l615.29,70.63-2.09-21.64A75.15,75.15,0,0,0,716.3,604.63Z" transform="translate(0 -201.32)"/></g></g></g></svg>