<svg xmlns="http://www.w3.org/2000/svg" xmlns:xlink="http://www.w3.org/1999/xlink" viewBox="0 0 839.12 555.95"><defs><style>.cls-1{fill:none;}.cls-2{clip-path:url(#clip-path);}.cls-3{fill:#73a6e6;}</style><clipPath id="clip-path" transform="translate(0 -114.61)"><rect class="cls-1" x="103.78" width="893.21" height="558.26"/></clipPath></defs><title>Asset 6</title><g id="Layer_2" data-name="Layer 2"><g id="Layer_1-2" data-name="Layer 1"><g class="cls-2"><path class="cls-3" d="M838.65,567.56a87.07,87.07,0,0,0-95.39-95.78A41.7,41.7,0,0,0,669.37,456,63.33,63.33,0,0,0,625.7,472.7a24.08,24.08,0,0,0-41.47,11.72,33.72,33.72,0,0,0-42.82-4.06,41.68,41.68,0,0,0-72.64,3.7,53.92,53.92,0,0,0-66.11-3.22,24.09,24.09,0,0,0-45.14.24A41.68,41.68,0,0,0,310,469.86a41.67,41.67,0,0,0-49.39-24A87.23,87.23,0,0,0,215,405.76a27.29,27.29,0,0,0-12.35-37.41,41.79,41.79,0,0,0-1.87-65.6,24.17,24.17,0,0,0,11.86-44.05,24.17,24.17,0,0,0-13-42.51,23.82,23.82,0,0,0-8.07.54,42.45,42.45,0,0,0-23.4-60.07,36.37,36.37,0,0,0,.85-4.72,33.75,33.75,0,1,0-66.38,4.39L0,185.46l44.72,418.2,714.9,66.91-3-25A87.1,87.1,0,0,0,838.65,567.56Z" transform="translate(0 -114.61)"/></g></g></g></svg>