<svg xmlns="http://www.w3.org/2000/svg" xmlns:xlink="http://www.w3.org/1999/xlink" viewBox="0 0 710.82 542.13"><defs><style>.cls-1{fill:none;}.cls-2{clip-path:url(#clip-path);}.cls-3{fill:#27528c;}</style><clipPath id="clip-path" transform="translate(0 -152.59)"><rect class="cls-1" x="120.81" width="893.21" height="558.26"/></clipPath></defs><title>Asset 2</title><g id="Layer_2" data-name="Layer 2"><g id="Layer_1-2" data-name="Layer 1"><g class="cls-2"><path class="cls-3" d="M710.54,607.51A31.2,31.2,0,0,0,664.4,576a60.79,60.79,0,0,0-88.93-1.33,60.54,60.54,0,0,0-33.33-15.83,62.44,62.44,0,0,0-6.36-.53,17.92,17.92,0,0,0-31.54-11.09,31.16,31.16,0,0,0-40.71-7.5,31.18,31.18,0,0,0-53.19,15c-.64-.41-1.28-.8-2-1.16A31,31,0,0,0,386,550.78a21.59,21.59,0,0,0-34.69-17.16,31.19,31.19,0,0,0-49.25,6.9,35.15,35.15,0,0,0-26.35-4.87,51,51,0,0,0-66.09-37.89,17.13,17.13,0,0,0-14.8-17.28,18,18,0,0,0-2.73-.13,23.11,23.11,0,0,0-18.57-14.89,23.38,23.38,0,0,0-5.54-.06,31.3,31.3,0,0,0-14.7-26.24,31.31,31.31,0,0,0-.26-27.63,12.51,12.51,0,0,0-2.83-21.5,21.62,21.62,0,0,0-.9-33.44,31.27,31.27,0,0,0-4-48.59,18,18,0,0,0-9.77-31c-.39-.05-.78-.07-1.17-.1a35.24,35.24,0,0,0-15.59-44.38,59.7,59.7,0,0,0,2.45-10.72,60.9,60.9,0,1,0-58.94,52.78l-39,217.25L159.51,655.61l503.2,39.11,17.61-60.15A31.25,31.25,0,0,0,710.54,607.51Z" transform="translate(0 -152.59)"/></g></g></g></svg>