<svg xmlns="http://www.w3.org/2000/svg" xmlns:xlink="http://www.w3.org/1999/xlink" viewBox="0 0 893.81 588.45"><defs><style>.cls-1{fill:none;}.cls-2{clip-path:url(#clip-path);}.cls-3{fill:#5d8dcf;}</style><clipPath id="clip-path" transform="translate(0 -80.3)"><rect class="cls-1" x="106.84" width="893.21" height="558.26"/></clipPath></defs><title>Asset 4</title><g id="Layer_2" data-name="Layer 2"><g id="Layer_1-2" data-name="Layer 1"><g class="cls-2"><path class="cls-3" d="M893.78,546.41a37.39,37.39,0,0,0-58.72-32.11,72.83,72.83,0,0,0-106.18,8.9,72.62,72.62,0,0,0-41.6-15c-2.58-.09-5.12,0-7.64.12a21.45,21.45,0,0,0-38.9-9.51,37.31,37.31,0,0,0-49.41-4.14,37.37,37.37,0,0,0-61.65,24.22c-.8-.41-1.62-.8-2.46-1.15a37.21,37.21,0,0,0-27-.76,25.87,25.87,0,0,0-43.38-16.36,37.36,37.36,0,0,0-57.91,14,42.1,42.1,0,0,0-32-2.7,61.09,61.09,0,0,0-83.24-37.38A20.51,20.51,0,0,0,264,455.76a21.9,21.9,0,0,0-3.26.17,27.53,27.53,0,0,0-30.5-15,37.46,37.46,0,0,0-20.62-29.54,37.45,37.45,0,0,0-3.56-32.92,15,15,0,0,0-5.9-25.3,25.91,25.91,0,0,0-5-39.75A37.48,37.48,0,0,0,184.66,256a21.53,21.53,0,0,0-15.28-35.83c-.48,0-.94,0-1.41,0a42.19,42.19,0,0,0-23.79-51.08A73.81,73.81,0,0,0,145.84,156a72.94,72.94,0,1,0-64.06,69.88l-21,263.62L242.51,668.75,847.05,656,861,582.22A37.4,37.4,0,0,0,893.78,546.41Z" transform="translate(0 -80.3)"/></g></g></g></svg>