<?xml version="1.0" encoding="utf-8"?>
<!-- Generator: Adobe Illustrator 23.0.2, SVG Export Plug-In . SVG Version: 6.00 Build 0)  -->
<svg version="1.1" id="Layer_2" xmlns="http://www.w3.org/2000/svg" xmlns:xlink="http://www.w3.org/1999/xlink" x="0px" y="0px"
	 viewBox="0 0 1200 750" style="enable-background:new 0 0 1200 750;" xml:space="preserve">
<style type="text/css">
	.st0{clip-path:url(#SVGID_2_);fill:url(#SVGID_3_);}
	.st1{clip-path:url(#SVGID_2_);}
	.st2{clip-path:url(#SVGID_5_);fill:url(#SVGID_6_);}
	.st3{clip-path:url(#SVGID_2_);fill:#73A6E6;}
	.st4{fill:#5D8DCF;}
	.st5{clip-path:url(#SVGID_2_);fill:#5D8DCF;}
	.st6{clip-path:url(#SVGID_2_);fill:#456CB0;}
	.st7{clip-path:url(#SVGID_2_);fill:#27528C;}
	.st8{fill:#93F5E5;}
	.st9{fill:#5DC2AE;}
	.st10{fill:#164377;}
	.st11{fill:#105697;}
	.st12{fill:none;}
	.st13{fill:#FFFFFF;}
	.st14{fill:#D2D3D3;}
	.st15{opacity:0.21;}
	.st16{fill:#182B3A;}
</style>
<g>
	<defs>
		<rect id="SVGID_1_" width="1200" height="750"/>
	</defs>
	<clipPath id="SVGID_2_">
		<use xlink:href="#SVGID_1_"  style="overflow:visible;"/>
	</clipPath>
	<linearGradient id="SVGID_3_" gradientUnits="userSpaceOnUse" x1="434.636" y1="651.2441" x2="597.0325" y2="-57.4981">
		<stop  offset="0" style="stop-color:#0D2136"/>
		<stop  offset="0.9987" style="stop-color:#406EAE"/>
	</linearGradient>
	<path class="st0" d="M901.42,537.86c-53.39-21.99-123.04-7.84-163.07-49.5c-24.76-25.76-29.08-64.93-48.15-95.17
		c-28.96-45.93-86.85-64.1-140.78-69.93c-48.87-5.28-102.71-4.9-140.34-36.58c-34.23-28.82-46.33-77.83-80.72-106.45
		c-39.51-32.88-96.78-30.2-147.71-23.5c-44.32,5.83-88.42,13.4-132.15,22.67c-15.1,3.2-35.1,5.66-54.98,9.36v600.26H892.3
		c5.14-3.97,10.23-8.02,15.2-12.21c27.58-23.24,53.18-50.9,64.49-85.18C991.42,632.71,958.74,561.46,901.42,537.86z"/>
	<g class="st1">
		<defs>
			<path id="SVGID_4_" d="M141.26,146.29c50.93-6.7,108.2-9.37,147.71,23.5c34.39,28.62,46.49,77.63,80.72,106.45
				c37.63,31.68,91.47,31.3,140.34,36.58c53.93,5.83,111.81,24,140.78,69.93c19.07,30.23,23.39,69.4,48.15,95.17
				c40.04,41.66,109.68,27.51,163.07,49.5c57.32,23.61,90.01,94.85,70.57,153.79c-11.31,34.28-36.91,61.94-64.49,85.18
				c-54.75,46.15-120.25,79.41-189.77,96.36c-87.64,21.37-179.16,16.85-269.35,15.44c-109.44-1.71-219.8,1.29-327.34-19.12
				C26.62,848.62-28.41,831.51-73.48,798.2c-60.22-44.5-97.08-113.42-127.78-181.77c-12.26-27.3-24.07-55.9-23.72-85.83
				c0.64-54.06,39.68-98.64,65.31-146.22c18.78-34.85,30.79-73.31,35.42-112.63c2.66-22.62-4.05-55.97,16.37-71.53
				c27.33-20.83,83.93-24.24,116.99-31.25C52.85,159.69,96.94,152.12,141.26,146.29z"/>
		</defs>
		<clipPath id="SVGID_5_">
			<use xlink:href="#SVGID_4_"  style="overflow:visible;"/>
		</clipPath>
		<linearGradient id="SVGID_6_" gradientUnits="userSpaceOnUse" x1="559.91" y1="596.5652" x2="773.8562" y2="-260.9586">
			<stop  offset="0" style="stop-color:#0D2136"/>
			<stop  offset="0.9987" style="stop-color:#406EAE"/>
		</linearGradient>
		<rect x="-45.87" y="-7.99" class="st2" width="1316.98" height="786.58"/>
	</g>
	<ellipse class="st3" cx="-16.43" cy="107.51" rx="24.96" ry="25"/>
	<ellipse class="st3" cx="1009.4" cy="690" rx="34.58" ry="34.63"/>
	<path class="st3" d="M987.27,762.49c6.71-64.32-39.91-121.91-104.12-128.63c-8.15-0.85-16.19-0.84-24.03-0.04
		c-5.25-22.69-24.34-40.61-48.77-43.17c-20.21-2.12-39.03,6.81-50.49,21.91c-22.34-0.28-43.11,8.2-58.68,22.49
		c-5.17-5.66-12.31-9.54-20.53-10.4c-16.87-1.77-32.04,9.77-35.18,26.15c-7.09-7.11-16.58-11.93-27.34-13.05
		c-11.08-1.16-21.63,1.79-30.18,7.6c-8.85-14.04-23.8-24.03-41.56-25.89c-23.93-2.51-45.91,10.47-56.03,30.86
		c-10.8-9.28-24.43-15.49-39.66-17.09c-18.1-1.89-35.33,3.06-49.16,12.76c-4.23-11.06-14.33-19.41-26.9-20.72
		c-15.05-1.58-28.74,7.45-33.75,21.04c-8.99-10.4-21.78-17.54-36.52-19.08c-9.66-1.01-19.01,0.5-27.38,4.01
		c-7.71-18.19-24.78-31.75-45.78-33.95c-7.12-0.75-14.07-0.11-20.58,1.68c-13.12-24.34-34.66-43.71-61.15-53.85
		c2.13-4.04,3.57-8.53,4.07-13.35c1.66-15.87-7.07-30.39-20.66-36.9c10.8-9.03,18.24-22.11,19.82-37.23
		c2.13-20.45-6.98-39.47-22.34-50.91c15.38-1.11,28.24-13.09,29.89-28.99c1.28-12.28-4.45-23.67-13.95-30.19
		c6.19-5.22,10.46-12.74,11.37-21.44c1.86-17.84-11.07-33.81-28.88-35.67c-3.74-0.39-7.38-0.1-10.84,0.73
		c3.38-6.32,5.63-13.39,6.42-20.96c2.8-26.83-13.47-51.24-37.85-59.74c0.51-2.06,0.9-4.18,1.13-6.35
		c2.6-24.95-15.48-47.28-40.38-49.89c-24.91-2.61-47.21,15.5-49.81,40.45c-0.55,5.29-0.17,10.45,1.01,15.34l-137.9,39.14
		l60.08,561.83l960.44,89.89l-3.96-33.63C933.65,864.34,981.2,820.62,987.27,762.49z"/>
	<g class="st1">
		<polygon class="st4" points="-52.1,903.84 -75.77,882.27 308.03,459.76 331.69,481.33 		"/>
		<polygon class="st4" points="-32.75,921.47 -43.34,911.82 340.45,489.31 351.04,498.96 		"/>
		<polygon class="st4" points="-84.53,874.29 -95.11,864.64 288.68,442.13 299.27,451.78 		"/>
	</g>
	<path class="st5" d="M1057.23,734.08c1-27.77-20.66-51.1-48.39-52.11c-11.31-0.41-21.88,2.96-30.5,8.97
		c-16.51-14.98-38.18-24.44-62.19-25.32c-32.44-1.18-61.76,13.59-80.46,37.28c-15.57-11.92-34.82-19.31-55.89-20.08
		c-3.46-0.13-6.88-0.06-10.26,0.16c-1.8-13.76-13.26-24.62-27.56-25.14c-10.17-0.37-19.28,4.59-24.71,12.36
		c-8.73-9.15-20.88-15.05-34.5-15.54c-11.92-0.43-23.02,3.34-31.88,9.98c-8.36-7.26-19.15-11.83-31.08-12.26
		c-26.5-0.96-48.92,18.81-51.74,44.8c-1.08-0.55-2.18-1.08-3.31-1.55c-12.02-5.06-24.9-5.08-36.29-1.02
		c-1.73-17.05-15.75-30.65-33.33-31.29c-9.6-0.35-18.44,3.23-24.96,9.31c-8.19-6.7-18.55-10.88-29.93-11.3
		c-21.22-0.77-39.84,11.77-47.86,30.15c-7.17-3.7-15.23-5.92-23.82-6.24c-6.68-0.24-13.14,0.7-19.16,2.61
		c-10.19-32.19-39.68-56.04-75.31-57.34c-13-0.47-25.4,2.12-36.52,7.12c-1.11-13.76-12.34-24.82-26.45-25.33
		c-1.49-0.05-2.96,0.05-4.39,0.22c-5.84-11.96-17.88-20.39-32.09-20.91c-3.05-0.11-6.02,0.19-8.88,0.78
		c-1.86-17.37-12.59-32.21-27.7-39.69c5.54-15.16,3.31-31.41-4.79-44.22c3.76-3.51,6.19-8.45,6.39-14
		c0.34-9.35-5.76-17.42-14.31-19.99c5.62-5.94,9.21-13.86,9.53-22.68c0.47-12.86-6.11-24.32-16.25-30.73
		c7.25-8.37,11.81-19.18,12.24-31.12c0.71-19.77-10.06-37.28-26.33-46.09c4.32-4.85,7.03-11.18,7.29-18.18
		c0.58-15.97-11.88-29.38-27.82-29.96c-0.64-0.02-1.26,0.01-1.89,0.03c1.4-4.59,2.23-9.44,2.42-14.46
		c0.87-24.12-13.46-45.25-34.39-54.16c1.24-5.68,2.02-11.54,2.24-17.55c1.96-54.17-40.3-99.68-94.39-101.64
		c-54.09-1.96-99.52,40.36-101.48,94.54c-1.96,54.17,40.3,99.68,94.39,101.64c5.23,0.19,10.37-0.04,15.41-0.65l-28.19,354.16
		l244.13,240.8l812.18-17.12l18.69-99.13C1037.23,779.3,1056.33,759.17,1057.23,734.08z"/>
	<path class="st6" d="M825.71,812.3c6.95-55.34-32.21-105.85-87.47-112.81c-7.01-0.88-13.94-1.02-20.72-0.47
		c-4.11-19.66-20.26-35.46-41.28-38.11c-17.39-2.19-33.78,5.16-43.93,17.98c-19.26-0.64-37.32,6.29-51.01,18.33
		c-4.35-4.97-10.45-8.45-17.51-9.34c-14.51-1.83-27.81,7.84-30.81,21.91c-5.99-6.26-14.08-10.58-23.34-11.75
		c-9.53-1.2-18.69,1.15-26.16,6.01c-7.38-12.26-20.09-21.15-35.37-23.08c-20.59-2.59-39.78,8.2-48.87,25.6
		c-9.15-8.2-20.79-13.8-33.89-15.45c-15.58-1.96-30.53,2-42.62,10.12c-3.44-9.61-12.01-17-22.82-18.36
		c-12.95-1.63-24.92,5.9-29.48,17.54c-7.57-9.13-18.47-15.52-31.15-17.11c-8.31-1.05-16.4,0.09-23.68,2.96
		c-6.32-15.82-20.79-27.83-38.87-30.1c-6.13-0.77-12.13-0.35-17.78,1.08c-10.87-21.23-29.1-38.32-51.76-47.54
		c1.91-3.44,3.23-7.29,3.75-11.44c1.71-13.65-5.55-26.34-17.15-32.19c9.47-7.59,16.13-18.74,17.76-31.75
		c2.21-17.59-5.31-34.16-18.35-44.3c13.28-0.67,24.58-10.78,26.3-24.46c1.33-10.57-3.41-20.49-11.49-26.29
		c5.43-4.39,9.25-10.8,10.19-18.28c1.93-15.35-8.93-29.36-24.26-31.28c-3.22-0.4-6.36-0.22-9.36,0.43
		c3.03-5.39,5.09-11.44,5.91-17.96c2.9-23.09-10.69-44.43-31.56-52.21c0.48-1.77,0.85-3.58,1.09-5.45
		c2.69-21.46-12.49-41.05-33.92-43.75c-21.43-2.7-40.99,12.51-43.68,33.98c-0.57,4.55-0.33,9.01,0.59,13.25l-119.62,31.26
		l41.68,485.58l826.61,94.89l-2.81-29.07C777.63,899.16,819.43,862.32,825.71,812.3z"/>
	<path class="st7" d="M792.28,816.17c3.11-22.99-12.97-44.14-35.92-47.26c-9.36-1.27-18.41,0.66-26.07,4.95
		c-12.49-13.8-29.71-23.44-49.58-26.14c-26.85-3.64-52.41,6.21-69.89,24.36c-11.95-11.18-27.34-18.91-44.78-21.27
		c-2.86-0.39-5.71-0.62-8.54-0.71c-0.37-11.58-9-21.54-20.84-23.14c-8.42-1.14-16.39,2.22-21.54,8.23
		c-6.5-8.32-16.11-14.21-27.39-15.74c-9.87-1.34-19.39,0.88-27.3,5.67c-6.35-6.72-14.94-11.4-24.81-12.74
		c-21.93-2.98-42.18,11.61-46.65,32.96c-0.85-0.55-1.72-1.07-2.63-1.56c-9.57-5.19-20.27-6.27-30.06-3.83
		c-0.04-14.3-10.57-26.75-25.12-28.73c-7.95-1.08-15.58,1.17-21.49,5.68c-6.25-6.24-14.52-10.57-23.94-11.84
		c-17.57-2.38-34.05,6.5-42.22,21.11c-5.65-3.66-12.17-6.17-19.28-7.14c-5.53-0.75-10.97-0.5-16.13,0.6
		c-5.83-27.58-28.37-49.81-57.86-53.82c-10.76-1.46-21.27-0.32-30.92,2.91c0.21-11.52-8.22-21.63-19.89-23.21
		c-1.24-0.17-2.46-0.21-3.67-0.18c-3.87-10.41-13.19-18.41-24.94-20c-2.53-0.34-5.01-0.34-7.44-0.08
		c-0.12-14.58-7.82-27.79-19.76-35.25c5.84-12.13,5.33-25.82-0.35-37.12c3.41-2.6,5.83-6.51,6.46-11.11
		c1.05-7.74-3.36-14.95-10.25-17.78c5.16-4.47,8.79-10.75,9.77-18.06c1.44-10.65-3.08-20.71-10.98-26.86
		c6.71-6.36,11.38-14.96,12.72-24.84c2.21-16.36-5.3-31.79-18.09-40.45c3.98-3.68,6.76-8.71,7.54-14.51
		c1.79-13.22-7.46-25.38-20.66-27.17c-0.53-0.07-1.05-0.1-1.58-0.13c1.54-3.7,2.63-7.66,3.19-11.82
		c2.7-19.96-7.48-38.69-24.13-47.81c1.5-4.61,2.63-9.42,3.3-14.4c6.07-44.84-25.31-86.11-70.07-92.19s-85.97,25.35-92.04,70.19
		c-6.07,44.84,25.31,86.11,70.07,92.19c4.33,0.59,8.62,0.82,12.85,0.72l-52.43,291.87L52,880.79l676.03,52.54l23.65-80.81
		C771.96,852.08,789.47,836.93,792.28,816.17z"/>
	<g class="st1">
		<g>
			<path class="st8" d="M293.35,485.75c-3.31-7.41-7.08-14.61-11.28-21.55c-4.35-7.18-9.31-14.92-10.19-22.97l-17.62,14.56
				c-0.21,0.13-0.4,0.29-0.56,0.47c-4.66,5.13,10.95,26.95,34.87,48.74c2.2,2.01,4.4,3.95,6.58,5.81c1.24-2.66,2.11-5.44,2.32-8.38
				C297.87,496.65,295.71,491.03,293.35,485.75z"/>
			<path class="st9" d="M340.29,535.18c0.16-0.18,0.3-0.39,0.41-0.61l50.15-74.15l-67.63-61.63l-51.35,42.43
				c0.88,8.05,5.84,15.79,10.19,22.97c4.2,6.94,7.97,14.14,11.28,21.55c2.36,5.28,4.52,10.9,4.12,16.68
				c-0.21,2.95-1.08,5.73-2.32,8.38C316.59,529.13,336.07,539.83,340.29,535.18z"/>
		</g>
		<g>
			<path class="st10" d="M387.99,254.93c-30.45,37.48-62.54,73.8-101.68,101.77c-15.66,11.19-32.53,21.04-50.96,26.6
				c-12.83,3.87-26.5,5.56-39.78,4.15L171,416.25l0,0c20.49,18.67,49.58,21.95,70.42,7.79l190.25-129.3L387.99,254.93z"/>
			<path class="st11" d="M235.35,383.31c18.42-5.56,35.29-15.41,50.96-26.6c39.15-27.97,71.23-64.29,101.68-101.77l-3.21-2.92
				c-22.88-20.85-56.78-19.75-75.53,2.22L195.56,387.46C208.84,388.86,222.51,387.18,235.35,383.31z"/>
		</g>
		<g>
			<path class="st11" d="M489.77,473.11c19.68-18.61,39.37-37.22,59.05-55.83c-2.04-11.71-8.03-23.1-17.87-32.06l-46.88-42.73
				L377.28,537.45c16.83-0.78,33.7-6.1,48.68-14.04C449.96,510.69,470.03,491.78,489.77,473.11z"/>
			<path class="st10" d="M548.82,417.28c-19.68,18.61-39.37,37.22-59.05,55.83c-19.75,18.67-39.81,37.57-63.81,50.29
				c-14.98,7.94-31.85,13.26-48.68,14.04l-3.8,6.94c-12.11,22.11-6.12,50.81,14.37,69.48l148.01-153.12
				C547.31,448.91,551.53,432.81,548.82,417.28z"/>
		</g>
		<path class="st12" d="M376.73,491.51c3.7,1.69,7.16,3,10.32,3.89C383.89,494.52,380.43,493.21,376.73,491.51z"/>
		<path class="st12" d="M356.65,480c2.85,1.92,5.64,3.69,8.37,5.31C362.29,483.69,359.5,481.92,356.65,480z"/>
		<path class="st12" d="M365.02,485.31c2.73,1.62,5.38,3.08,7.94,4.38C370.4,488.4,367.74,486.93,365.02,485.31z"/>
		<path class="st8" d="M314.02,442.88c-14.8-16.28-24.68-31.99-26.96-42.76l-11.17,14.86c-4.2,5.37,0.13,17.38,10.2,31.58
			c4.43-1.63,9.02-2.79,13.75-3.28C304.53,442.8,309.28,442.85,314.02,442.88z"/>
		<path class="st9" d="M376.73,491.51c-1.23-0.56-2.49-1.17-3.77-1.82c-2.56-1.3-5.22-2.76-7.94-4.38
			c-2.73-1.62-5.52-3.39-8.37-5.31c-8.54-5.76-17.53-12.82-26.4-20.9c-5.89-5.36-11.33-10.83-16.23-16.22
			c-4.74-0.03-9.48-0.08-14.18,0.4c-4.73,0.49-9.33,1.65-13.75,3.28c6.86,9.67,16.38,20.37,27.69,30.67
			c27.92,25.44,57.14,39.81,65.45,31.91l13.72-12.54c-1.82-0.21-3.79-0.62-5.9-1.21C383.89,494.52,380.43,493.21,376.73,491.51z"/>
		<path class="st13" d="M333.26,441.54c12.95-2.9,23.78-11.52,33.98-20.01c65.49-54.55,126.11-114.93,181.02-180.14
			c-3.83-3.06-7.64-6.3-11.4-9.73c-20.54-18.72-35.85-39.45-44.25-56.89c-45.86,28.89-84.43,64.15-113.38,102.69l-92.17,122.67
			c2.28,10.77,12.16,26.48,26.96,42.76C320.5,442.93,326.96,442.95,333.26,441.54z"/>
		<path class="st14" d="M597.58,270.42c-14.81-5.49-32.23-15.39-49.32-29.03c-54.91,65.21-115.53,125.6-181.02,180.14
			c-10.2,8.5-21.03,17.11-33.98,20.01c-6.3,1.41-12.77,1.39-19.25,1.34c4.9,5.4,10.35,10.86,16.23,16.22
			c8.87,8.08,17.86,15.14,26.4,20.9c2.85,1.92,5.64,3.69,8.37,5.31c2.73,1.62,5.38,3.08,7.94,4.38c1.28,0.65,2.54,1.26,3.77,1.82
			c3.7,1.69,7.16,3,10.32,3.89c2.11,0.59,4.08,1,5.9,1.21L506.2,393.15C541.77,360.65,573.18,318.86,597.58,270.42z"/>
		<path class="st8" d="M548.26,241.39c34.93-41.48,67.54-84.91,97.61-130.05c-56.51,12.98-108.37,35.15-153.26,63.43
			c8.39,17.44,23.7,38.17,44.25,56.89C540.62,235.09,544.43,238.33,548.26,241.39z"/>
		<path class="st9" d="M597.58,270.42c23.93-47.53,41.1-101.46,48.66-159.17v0h0c-0.12,0.03-0.24,0.06-0.36,0.09
			c-30.07,45.14-62.68,88.57-97.61,130.05C565.34,255.03,582.77,264.92,597.58,270.42z"/>
		<path class="st15" d="M526.94,317.58c-1.5-14.6-8.15-28.72-19.84-39.38c-25.2-22.96-64.21-21.12-87.14,4.12
			c-8.61,9.48-13.73,20.91-15.42,32.71c-2.82,19.61,3.8,40.23,19.54,54.57c25.2,22.96,64.21,21.12,87.14-4.12
			C523.51,351.96,528.67,334.45,526.94,317.58z"/>
		<g>
			<path class="st8" d="M474.82,333.13c21.19-3.3,40.22-15.71,54.41-31.86c-1.5-14.6-8.15-28.72-19.84-39.38
				c-25.2-22.96-64.21-21.12-87.14,4.12c-8.61,9.48-13.73,20.91-15.42,32.71c2.36,4.52,4.92,8.9,8.08,12.89
				C428.73,329.06,452.85,336.55,474.82,333.13z"/>
			<path class="st9" d="M529.23,301.27c-14.19,16.15-33.22,28.56-54.41,31.86c-21.97,3.42-46.09-4.07-59.91-21.51
				c-3.16-3.99-5.73-8.37-8.08-12.89c-2.82,19.61,3.8,40.23,19.54,54.57c25.2,22.96,64.21,21.12,87.14-4.12
				C525.79,335.65,530.96,318.14,529.23,301.27z"/>
		</g>
		<g>
			<path class="st13" d="M508.14,281.23l-80.37-0.24c-1.84,2.78-3.36,5.7-4.56,8.71l89.43,0.26
				C511.45,286.94,509.96,284,508.14,281.23z"/>
			<path class="st16" d="M512.64,289.97l-89.43-0.26c-1.64,4.1-2.68,8.38-3.15,12.7l95.66,0.28
				C515.28,298.35,514.25,294.07,512.64,289.97z"/>
			<path class="st16" d="M500.25,271.96c-19.65-17.91-50.07-16.47-67.95,3.21c-1.68,1.85-3.19,3.79-4.53,5.81l80.37,0.24
				C505.96,277.89,503.33,274.77,500.25,271.96z"/>
			<path class="st13" d="M494.75,347.56l-53.97-0.16C457.12,358.59,478.59,358.48,494.75,347.56z"/>
			<path class="st16" d="M503.46,340.02c3.63-4,6.46-8.45,8.5-13.15l-88.28-0.26c2.63,6.14,6.57,11.83,11.82,16.62
				c1.68,1.53,3.45,2.91,5.27,4.16l53.97,0.16C497.87,345.45,500.8,342.94,503.46,340.02z"/>
			<path class="st13" d="M515.72,302.69l-95.66-0.28c-0.88,8.2,0.34,16.55,3.62,24.21l88.28,0.26
				C515.31,319.19,516.55,310.85,515.72,302.69z"/>
		</g>
	</g>
	<ellipse class="st3" cx="951.94" cy="578.69" rx="20.5" ry="20.54"/>
	<path class="st3" d="M735.76,566.02c0,3.7-3,6.69-6.69,6.69c-3.69,0-6.68-3-6.68-6.7c0-3.7,3-6.69,6.69-6.69
		C732.77,559.32,735.76,562.32,735.76,566.02z"/>
	<path class="st3" d="M171.23,248.57c0,5.92-4.8,10.71-10.71,10.71c-5.91,0-10.69-4.81-10.69-10.72c0-5.92,4.8-10.71,10.71-10.71
		C166.45,237.86,171.23,242.66,171.23,248.57z"/>
	<path class="st3" d="M75.66,106.48c-0.01,9.34-7.57,16.91-16.9,16.9s-16.88-7.59-16.87-16.93c0.01-9.34,7.57-16.91,16.9-16.9
		C68.11,89.56,75.67,97.14,75.66,106.48z"/>
	<ellipse class="st5" cx="593.46" cy="597.24" rx="24.92" ry="24.96"/>
	<ellipse class="st5" cx="1062.31" cy="741.49" rx="22.37" ry="22.41"/>
	<path class="st5" d="M222.09,522.29c0.16,6.47-4.95,11.84-11.4,12c-6.46,0.16-11.82-4.95-11.98-11.42
		c-0.16-6.47,4.95-11.84,11.4-12C216.57,510.71,221.93,515.83,222.09,522.29z"/>
	
		<ellipse transform="matrix(1.452299e-03 -1 1 1.452299e-03 -206.2366 963.8896)" class="st5" cx="379.53" cy="585.21" rx="6.62" ry="6.61"/>
	<path class="st5" d="M208.27,462.7c0.09,3.66-2.8,6.69-6.45,6.78c-3.65,0.09-6.68-2.8-6.77-6.46c-0.09-3.66,2.8-6.69,6.45-6.78
		C205.15,456.16,208.18,459.05,208.27,462.7z"/>
	<ellipse class="st7" cx="48.09" cy="222.51" rx="18.31" ry="18.34"/>
	<path class="st7" d="M87.48,396.8c0.1,4.22-3.23,7.72-7.44,7.83c-4.21,0.1-7.71-3.23-7.81-7.45c-0.1-4.22,3.23-7.72,7.44-7.83
		C83.88,389.25,87.38,392.58,87.48,396.8z"/>
	<path class="st7" d="M721.13,700.05c0.25,10.12-7.74,18.53-17.85,18.78s-18.5-7.75-18.75-17.88c-0.25-10.12,7.74-18.53,17.85-18.78
		S720.88,689.93,721.13,700.05z"/>
	
		<ellipse transform="matrix(1.578159e-03 -1 1 1.578159e-03 181.7638 1466.943)" class="st7" cx="825.51" cy="642.45" rx="6.62" ry="6.61"/>
	
		<ellipse transform="matrix(1.993762e-03 -1 1 1.993762e-03 201.8001 1601.448)" class="st7" cx="903.22" cy="699.62" rx="9.17" ry="9.15"/>
	<ellipse class="st7" cx="137.12" cy="573.89" rx="25.43" ry="25.47"/>
	<path class="st7" d="M250.38,669.93c0.15,6.19-4.73,11.33-10.91,11.48c-6.18,0.15-11.31-4.74-11.46-10.92
		c-0.15-6.19,4.73-11.33,10.91-11.48C245.1,658.85,250.23,663.74,250.38,669.93z"/>
	<path class="st7" d="M314.67,657.13c-0.12-4.78-4.08-8.56-8.86-8.44c-4.77,0.12-8.55,4.09-8.43,8.87c0.12,4.78,4.08,8.56,8.86,8.44
		C311.01,665.88,314.78,661.91,314.67,657.13z"/>
</g>
</svg>
