<?xml version="1.0"?>
<svg xmlns="http://www.w3.org/2000/svg" height="512px" viewBox="0 0 512 512" width="512px" class=""><g><path d="m64 368h288v120h-288z" fill="#ff421d" data-original="#FF421D" class="" data-old_color="#ff421d" style="fill:#BF6B16"/><path d="m220.094 488h131.906v-120h-4.567a402.019 402.019 0 0 1 -127.339 120z" fill="#bf3216" data-original="#BF3216" class="" data-old_color="#bf3216" style="fill:#C27526"/><circle cx="256" cy="464" fill="#fdb62f" r="8" data-original="#FDB62F" class=""/><circle cx="328" cy="392" fill="#fdb62f" r="8" data-original="#FDB62F" class=""/><circle cx="304" cy="416" fill="#fdb62f" r="8" data-original="#FDB62F" class=""/><circle cx="280" cy="440" fill="#fdb62f" r="8" data-original="#FDB62F" class=""/><circle cx="328" cy="440" fill="#f29706" r="8" data-original="#F29706" class=""/><g fill="#fdb62f"><circle cx="88" cy="440" r="8" data-original="#000000" class=""/><circle cx="112" cy="440" r="8" data-original="#000000" class=""/><circle cx="136" cy="440" r="8" data-original="#000000" class=""/><circle cx="88" cy="464" r="8" data-original="#000000" class=""/><circle cx="112" cy="464" r="8" data-original="#000000" class=""/><circle cx="136" cy="464" r="8" data-original="#000000" class=""/><circle cx="160" cy="440" r="8" data-original="#000000" class=""/><circle cx="184" cy="440" r="8" data-original="#000000" class=""/><circle cx="208" cy="440" r="8" data-original="#000000" class=""/><circle cx="232" cy="440" r="8" data-original="#000000" class=""/><circle cx="256" cy="440" r="8" data-original="#000000" class=""/></g><path d="m256 472a7.991 7.991 0 0 0 6.315-12.9q-6.292 4.92-12.784 9.593a7.985 7.985 0 0 0 6.469 3.307z" fill="#f29706" data-original="#F29706" class=""/><path d="m280 448a8 8 0 0 0 7.621-10.432q-5.362 4.959-10.9 9.722a7.968 7.968 0 0 0 3.279.71z" fill="#f29706" data-original="#F29706" class=""/><circle cx="304" cy="440" fill="#f29706" r="8" data-original="#F29706" class=""/><circle cx="328" cy="464" fill="#f29706" r="8" data-original="#F29706" class=""/><circle cx="304" cy="464" fill="#f29706" r="8" data-original="#F29706" class=""/><circle cx="280" cy="464" fill="#f29706" r="8" data-original="#F29706" class=""/><circle cx="328" cy="416" fill="#f29706" r="8" data-original="#F29706" class=""/><circle cx="88" cy="416" fill="#fdb62f" r="8" data-original="#FDB62F" class=""/><circle cx="112" cy="416" fill="#fdb62f" r="8" data-original="#FDB62F" class=""/><circle cx="136" cy="416" fill="#fdb62f" r="8" data-original="#FDB62F" class=""/><circle cx="160" cy="416" fill="#fdb62f" r="8" data-original="#FDB62F" class=""/><circle cx="184" cy="416" fill="#fdb62f" r="8" data-original="#FDB62F" class=""/><circle cx="208" cy="416" fill="#fdb62f" r="8" data-original="#FDB62F" class=""/><circle cx="232" cy="416" fill="#fdb62f" r="8" data-original="#FDB62F" class=""/><circle cx="256" cy="416" fill="#fdb62f" r="8" data-original="#FDB62F" class=""/><circle cx="280" cy="416" fill="#fdb62f" r="8" data-original="#FDB62F" class=""/><path d="m304 424a7.988 7.988 0 0 0 7.58-10.544q-4.757 5.209-9.688 10.254a7.965 7.965 0 0 0 2.108.29z" fill="#f29706" data-original="#F29706" class=""/><path d="m328 400a7.991 7.991 0 0 0 5.97-13.313q-4.79 6.263-9.814 12.329a7.969 7.969 0 0 0 3.844.984z" fill="#f29706" data-original="#F29706" class=""/><rect fill="#e6e6e6" height="256" rx="16" width="400" x="56" y="24" data-original="#E6E6E6" class=""/><path d="m167.906 280h272.094a16 16 0 0 0 16-16v-219.05c-50.913 119.22-158.042 208.681-288.094 235.05z" fill="#ccc" data-original="#CCC" class=""/><path d="m296 280v-24h-80v24l-24 56h128z" fill="#666" data-original="#666" class=""/><path d="m299.429 288-3.429-8v-8h-80v8l-3.429 8z" fill="#4d4d4d" data-original="#4D4D4D"/><rect fill="#6cbbc7" height="96" rx="32" width="64" x="384" y="392" data-original="#6CBBC7" class="active-path" data-old_color="#6cbbc7" style="fill:#93BFC6"/><path d="m408 440h16v-46.869a28.859 28.859 0 0 0 -16 0z" fill="#0071bc" data-original="#0071BC" class="" data-old_color="#0071bc" style="fill:#4D4BB0"/><path d="m152 456h88v16h-88z" fill="#fdb62f" data-original="#FDB62F" class=""/><path d="m186.344 205.656-64-64a8 8 0 0 1 0-11.312l64-64 11.312 11.312-58.344 58.344 58.344 58.344z" fill="#0071bc" data-original="#0071BC" class="" data-old_color="#0071bc" style="fill:#4D4BB0"/><path d="m325.656 205.656-11.312-11.312 58.344-58.344-58.344-58.344 11.312-11.312 64 64a8 8 0 0 1 0 11.312z" fill="#0071bc" data-original="#0071BC" class="" data-old_color="#0071bc" style="fill:#4D4BB0"/><path d="m169.837 127.998h172.325v16.005h-172.325z" fill="#0071bc" transform="matrix(.371 -.928 .928 .371 34.634 323.161)" data-original="#0071BC" class="" data-old_color="#0071bc" style="fill:#4D4BB0"/><path d="m56 264v-16h400v16a16 16 0 0 1 -16 16h-368a16 16 0 0 1 -16-16z" fill="#999" data-original="#999"/><path d="m395.316 480.231a31.842 31.842 0 0 0 52.684-24.231v-32a31.489 31.489 0 0 0 -.411-4.076 120.278 120.278 0 0 1 -52.273 60.307z" fill="#56959f" data-original="#56959F" class="" data-old_color="#56959f" style="fill:#659BA4"/><path d="m167.906 280h272.094a16 16 0 0 0 16-16v-16h-193.5a397.017 397.017 0 0 1 -94.594 32z" fill="#808080" data-original="#808080" class=""/><circle cx="88" cy="392" fill="#fdb62f" r="8" data-original="#FDB62F" class=""/><circle cx="112" cy="392" fill="#fdb62f" r="8" data-original="#FDB62F" class=""/><circle cx="136" cy="392" fill="#fdb62f" r="8" data-original="#FDB62F" class=""/><circle cx="160" cy="392" fill="#fdb62f" r="8" data-original="#FDB62F" class=""/><circle cx="184" cy="392" fill="#fdb62f" r="8" data-original="#FDB62F" class=""/><circle cx="208" cy="392" fill="#fdb62f" r="8" data-original="#FDB62F" class=""/><circle cx="232" cy="392" fill="#fdb62f" r="8" data-original="#FDB62F" class=""/><circle cx="256" cy="392" fill="#fdb62f" r="8" data-original="#FDB62F" class=""/><circle cx="280" cy="392" fill="#fdb62f" r="8" data-original="#FDB62F" class=""/><circle cx="304" cy="392" fill="#fdb62f" r="8" data-original="#FDB62F" class=""/></g> </svg>
