<?xml version="1.0" encoding="utf-8"?>
<!-- Generator: Adobe Illustrator 23.0.2, SVG Export Plug-In . SVG Version: 6.00 Build 0)  -->
<svg version="1.1" id="OBJECTS" xmlns="http://www.w3.org/2000/svg" xmlns:xlink="http://www.w3.org/1999/xlink" x="0px" y="0px"
	 viewBox="0 0 750 500" style="enable-background:new 0 0 750 500;" xml:space="preserve">
<style type="text/css">
	.st0{fill:#91A8F6;}
	.st1{fill:#93C7EA;}
	.st2{fill:#FF8383;}
	.st3{fill:#D15E79;}
	.st4{fill:#1B2A67;}
	.st5{fill:#86294E;}
	.st6{fill:#FFD2D4;}
	.st7{fill:#201028;}
	.st8{fill:#445EEA;}
	.st9{fill:#E0EEF7;}
	.st10{fill:#6EACCE;}
	.st11{fill:#FFFFFF;}
	.st12{fill:none;stroke:#1B2A67;stroke-width:0.8269;stroke-linecap:round;stroke-miterlimit:10;}
	.st13{fill:#445EEA;stroke:#445EEA;stroke-width:2.7611;stroke-linecap:round;stroke-linejoin:round;stroke-miterlimit:10;}
	.st14{fill:none;stroke:#445EEA;stroke-width:0.6576;stroke-linecap:round;stroke-linejoin:round;stroke-miterlimit:10;}
</style>
<g>
	<path class="st0" d="M528.61,246.38c0,2.13-1.73,3.86-3.86,3.86c-2.13,0-3.86-1.73-3.86-3.86c0-2.13,1.73-3.86,3.86-3.86
		C526.88,242.52,528.61,244.25,528.61,246.38z M526.7,246.38c0-1.07-0.87-1.95-1.94-1.95c-1.07,0-1.95,0.87-1.95,1.95
		c0,1.07,0.87,1.95,1.95,1.95C525.83,248.33,526.7,247.45,526.7,246.38z"/>
	<g>
		<path class="st0" d="M593.45,105.15h-21.85c-0.53,0-0.96,0.43-0.96,0.96c0,0.53,0.43,0.96,0.96,0.96h21.85
			c0.53,0,0.96-0.43,0.96-0.96C594.41,105.58,593.98,105.15,593.45,105.15z"/>
		<path class="st0" d="M564.65,105.14h-4.27c-0.53,0-0.96,0.43-0.96,0.96c0,0.53,0.43,0.96,0.96,0.96h4.27
			c0.53,0,0.96-0.43,0.96-0.96C565.61,105.57,565.18,105.14,564.65,105.14z"/>
		<path class="st0" d="M583.19,112.76c0,0.53-0.43,0.96-0.96,0.96h-2.73c-0.53,0-0.96-0.43-0.96-0.96c0-0.53,0.43-0.96,0.96-0.96
			h2.73C582.76,111.8,583.19,112.23,583.19,112.76z M575.68,112.76c0,0.53-0.43,0.96-0.96,0.96h-4.78c-0.53,0-0.96-0.43-0.96-0.96
			c0-0.53,0.43-0.96,0.96-0.96h4.78C575.25,111.8,575.68,112.23,575.68,112.76z M566.12,112.76c0,0.53-0.43,0.96-0.96,0.96h-4.78
			c-0.53,0-0.96-0.43-0.96-0.96c0-0.53,0.43-0.96,0.96-0.96h4.78C565.69,111.8,566.12,112.23,566.12,112.76z"/>
	</g>
	<g>
		<path class="st0" d="M239,169.04c-0.53,0-0.96,0.43-0.96,0.96v2.22c0,0.53,0.43,0.96,0.96,0.96c0.53,0,0.96-0.43,0.96-0.96V170
			C239.96,169.47,239.53,169.04,239,169.04z"/>
		<path class="st0" d="M236.5,166.82h-2.22c-0.53,0-0.96,0.43-0.96,0.96c0,0.53,0.43,0.96,0.96,0.96h2.22
			c0.53,0,0.96-0.43,0.96-0.96C237.46,167.24,237.03,166.82,236.5,166.82z"/>
		<path class="st0" d="M239,162.22c-0.53,0-0.96,0.43-0.96,0.96v2.22c0,0.53,0.43,0.96,0.96,0.96c0.53,0,0.96-0.43,0.96-0.96v-2.22
			C239.96,162.65,239.53,162.22,239,162.22z"/>
		<path class="st0" d="M243.72,166.66h-2.22c-0.53,0-0.96,0.43-0.96,0.96c0,0.53,0.43,0.96,0.96,0.96h2.22
			c0.53,0,0.96-0.43,0.96-0.96C244.68,167.09,244.25,166.66,243.72,166.66z"/>
	</g>
	<g>
		<path class="st0" d="M479.4,107.08c-0.53,0-0.96,0.43-0.96,0.96v2.22c0,0.53,0.43,0.96,0.96,0.96c0.53,0,0.96-0.43,0.96-0.96
			v-2.22C480.36,107.5,479.93,107.08,479.4,107.08z"/>
		<path class="st0" d="M476.9,104.85h-2.22c-0.53,0-0.96,0.43-0.96,0.96c0,0.53,0.43,0.96,0.96,0.96h2.22
			c0.53,0,0.96-0.43,0.96-0.96C477.86,105.28,477.43,104.85,476.9,104.85z"/>
		<path class="st0" d="M479.4,100.26c-0.53,0-0.96,0.43-0.96,0.96v2.22c0,0.53,0.43,0.96,0.96,0.96c0.53,0,0.96-0.43,0.96-0.96
			v-2.22C480.36,100.69,479.93,100.26,479.4,100.26z"/>
		<path class="st0" d="M484.12,104.7h-2.22c-0.53,0-0.96,0.43-0.96,0.96c0,0.53,0.43,0.96,0.96,0.96h2.22
			c0.53,0,0.96-0.43,0.96-0.96C485.08,105.13,484.65,104.7,484.12,104.7z"/>
	</g>
	<g>
		<path class="st0" d="M390.3,59.6h-21.85c-0.53,0-0.96,0.43-0.96,0.96c0,0.53,0.43,0.96,0.96,0.96h21.85
			c0.53,0,0.96-0.43,0.96-0.96C391.25,60.03,390.82,59.6,390.3,59.6z"/>
		<path class="st0" d="M361.5,59.6h-4.27c-0.53,0-0.96,0.43-0.96,0.96c0,0.53,0.43,0.96,0.96,0.96h4.27c0.53,0,0.96-0.43,0.96-0.96
			C362.45,60.03,362.02,59.6,361.5,59.6z"/>
		<path class="st0" d="M380.03,67.22c0,0.53-0.43,0.96-0.96,0.96h-2.73c-0.53,0-0.96-0.43-0.96-0.96c0-0.53,0.43-0.96,0.96-0.96
			h2.73C379.6,66.26,380.03,66.69,380.03,67.22z M372.52,67.22c0,0.53-0.43,0.96-0.96,0.96h-4.78c-0.53,0-0.96-0.43-0.96-0.96
			c0-0.53,0.43-0.96,0.96-0.96h4.78C372.09,66.26,372.52,66.69,372.52,67.22z M362.96,67.22c0,0.53-0.43,0.96-0.96,0.96h-4.78
			c-0.53,0-0.96-0.43-0.96-0.96c0-0.53,0.43-0.96,0.96-0.96h4.78C362.54,66.26,362.96,66.69,362.96,67.22z"/>
	</g>
	<path class="st0" d="M625.13,159.73c0,1.86,1.51,3.38,3.38,3.38c1.86,0,3.38-1.51,3.38-3.38c0-1.86-1.51-3.38-3.38-3.38
		C626.64,156.36,625.13,157.87,625.13,159.73z"/>
	<g>
		<path class="st0" d="M182.7,325.09h21.85c0.53,0,0.96-0.43,0.96-0.96c0-0.53-0.43-0.96-0.96-0.96H182.7
			c-0.53,0-0.96,0.43-0.96,0.96C181.75,324.67,182.17,325.09,182.7,325.09z"/>
		<path class="st0" d="M171.48,325.1h4.27c0.53,0,0.96-0.43,0.96-0.96c0-0.53-0.43-0.96-0.96-0.96h-4.27
			c-0.53,0-0.96,0.43-0.96,0.96C170.52,324.67,170.95,325.1,171.48,325.1z"/>
	</g>
	<path class="st0" d="M595.51,340.64c0,0,1.3,9.31-9.57,9.09c0,0,9.34,0.1,9.1,8.83c0,0,0.84-6.87,9.41-8.41
		C604.45,350.15,597.2,351.82,595.51,340.64z"/>
	<path class="st0" d="M647.43,209.32c0,0,1.3,9.31-9.57,9.09c0,0,9.34,0.1,9.1,8.83c0,0,0.84-6.87,9.41-8.41
		C656.36,218.84,649.12,220.5,647.43,209.32z"/>
	<path class="st0" d="M302.52,83.28c0,0,1.3,9.31-9.57,9.09c0,0,9.34,0.1,9.1,8.83c0,0,0.84-6.87,9.41-8.41
		C311.46,92.8,304.22,94.46,302.52,83.28z"/>
	<path class="st0" d="M208.91,108.99c0,0,1.3,9.31-9.57,9.09c0,0,9.34,0.1,9.1,8.83c0,0,0.84-6.87,9.41-8.41
		C217.85,118.51,210.6,120.17,208.91,108.99z"/>
	<path class="st0" d="M265.65,69.2c0,0,0.45,3.24-3.34,3.17c0,0,3.26,0.03,3.17,3.08c0,0,0.29-2.4,3.28-2.93
		C268.76,72.52,266.24,73.1,265.65,69.2z"/>
	<path class="st0" d="M435.94,181.07c0,0,0.45,3.24-3.34,3.17c0,0,3.26,0.03,3.17,3.08c0,0,0.29-2.4,3.28-2.93
		C439.06,184.39,436.53,184.97,435.94,181.07z"/>
	<path class="st0" d="M120.42,236.53c0,0,0.45,3.24-3.34,3.17c0,0,3.26,0.03,3.17,3.08c0,0,0.29-2.4,3.28-2.93
		C123.53,239.85,121.01,240.43,120.42,236.53z"/>
	<path class="st0" d="M403.56,324.01c0,0,0.45,3.24-3.34,3.17c0,0,3.26,0.03,3.17,3.08c0,0,0.29-2.4,3.28-2.93
		C406.68,327.33,404.15,327.91,403.56,324.01z"/>
	<g>
		<path class="st0" d="M274.72,271.71h-21.21c-2.71,0-4.92-2.21-4.92-4.92c0-2.66,2.12-4.84,4.76-4.92
			c0.07-4.14,3.46-7.49,7.62-7.49c2.58,0,4.98,1.31,6.38,3.46c2.86-0.41,5.41,1.39,6.13,4.03h1.24c2.71,0,4.92,2.21,4.92,4.92
			S277.43,271.71,274.72,271.71z M253.51,263.33c-1.91,0-3.47,1.55-3.47,3.47c0,1.91,1.55,3.46,3.47,3.46h21.21
			c1.91,0,3.47-1.55,3.47-3.46c0-1.91-1.55-3.47-3.47-3.47h-2.45l-0.1-0.61c-0.37-2.32-2.57-3.94-5.02-3.35l-0.54,0.13l-0.27-0.48
			c-1.09-1.95-3.15-3.17-5.38-3.17c-3.4,0-6.16,2.76-6.16,6.16c0,0.18,0.01,0.36,0.03,0.53l0.07,0.79H253.51z"/>
	</g>
	<g>
		<path class="st0" d="M653.16,92.19h-21.21c-2.71,0-4.92-2.21-4.92-4.92c0-2.66,2.12-4.84,4.76-4.92c0.07-4.14,3.46-7.49,7.62-7.49
			c2.58,0,4.98,1.31,6.38,3.46c2.86-0.41,5.41,1.39,6.13,4.03h1.24c2.71,0,4.92,2.21,4.92,4.92S655.87,92.19,653.16,92.19z
			 M631.95,83.8c-1.91,0-3.46,1.55-3.46,3.47s1.55,3.46,3.46,3.46h21.21c1.91,0,3.47-1.55,3.47-3.46s-1.55-3.47-3.47-3.47h-2.45
			l-0.1-0.61c-0.37-2.32-2.57-3.94-5.02-3.35l-0.54,0.13l-0.27-0.48c-1.09-1.95-3.15-3.17-5.38-3.17c-3.4,0-6.16,2.76-6.16,6.16
			c0,0.18,0.01,0.36,0.03,0.53l0.07,0.79H631.95z"/>
	</g>
	<g>
		<path class="st0" d="M324.69,146.35h-21.21c-2.71,0-4.92-2.21-4.92-4.92c0-2.66,2.12-4.84,4.76-4.92
			c0.07-4.14,3.46-7.49,7.62-7.49c2.58,0,4.98,1.31,6.38,3.46c2.86-0.41,5.41,1.39,6.13,4.03h1.24c2.71,0,4.92,2.21,4.92,4.92
			S327.41,146.35,324.69,146.35z M303.48,137.96c-1.91,0-3.46,1.55-3.46,3.47s1.55,3.46,3.46,3.46h21.21c1.91,0,3.47-1.55,3.47-3.46
			s-1.55-3.47-3.47-3.47h-2.45l-0.1-0.61c-0.37-2.32-2.57-3.94-5.02-3.35l-0.54,0.13l-0.27-0.48c-1.09-1.95-3.15-3.17-5.38-3.17
			c-3.4,0-6.16,2.76-6.16,6.16c0,0.18,0.01,0.36,0.03,0.53l0.07,0.79H303.48z"/>
	</g>
</g>
<g>
	<g>
		<path class="st1" d="M391.13,418.29L391.13,418.29c-9.11,2.58-18.59-2.72-21.16-11.83l-13.6-48.08
			c-2.58-9.11,2.72-18.59,11.83-21.16v0c9.11-2.58,18.59,2.72,21.16,11.83l13.6,48.08C405.54,406.24,400.24,415.71,391.13,418.29z"
			/>
		<path class="st1" d="M371.72,417.89L371.72,417.89c-6.76-6.63-6.87-17.48-0.24-24.24l34.99-35.67c6.63-6.76,17.48-6.87,24.24-0.24
			l0,0c6.76,6.63,6.87,17.48,0.24,24.24l-34.99,35.67C389.33,424.41,378.48,424.52,371.72,417.89z"/>
		<g>
			<path class="st2" d="M441.34,349.38c4.6,6.91,2.73,16.23-4.18,20.83c-6.91,4.6-16.23,2.73-20.83-4.18
				c-4.6-6.91-2.73-16.23,4.18-20.83C427.41,340.61,436.74,342.48,441.34,349.38z"/>
			<path class="st2" d="M418.77,355.54L418.77,355.54c-2.09,0.54-4.23-0.72-4.77-2.81l-1.33-5.17c-0.54-2.09,0.72-4.23,2.81-4.77
				l0,0c2.09-0.54,4.23,0.72,4.77,2.81l1.33,5.17C422.12,352.87,420.86,355,418.77,355.54z"/>
			<path class="st2" d="M433.84,337.74l-5.32,13.47c-0.82,2.09-3.19,3.11-5.27,2.29l0,0c-2.09-0.82-3.11-3.19-2.29-5.27l5.32-13.47
				c0.82-2.09,3.19-3.11,5.27-2.29l0,0C433.64,333.29,434.66,335.65,433.84,337.74z"/>
			<path class="st2" d="M443.22,340.57l-6.43,12.98c-1,2.01-3.43,2.83-5.44,1.84l0,0c-2.01-1-2.83-3.43-1.84-5.44l6.43-12.98
				c1-2.01,3.43-2.83,5.44-1.84l0,0C443.39,336.12,444.21,338.55,443.22,340.57z"/>
			<path class="st2" d="M450.2,347.8l-8.98,11.37c-1.39,1.76-3.95,2.06-5.71,0.67l0,0c-1.76-1.39-2.06-3.95-0.67-5.71l8.98-11.37
				c1.39-1.76,3.95-2.06,5.71-0.67l0,0C451.29,343.48,451.59,346.03,450.2,347.8z"/>
		</g>
	</g>
	<g>
		<g>
			<path class="st2" d="M354.02,320.37l-5.83-0.23c-3.92-0.15-6.97-3.45-6.81-7.37l1.22-30.98l20.01,0.79l-1.22,30.98
				C361.23,317.47,357.93,320.52,354.02,320.37z"/>
			<path class="st3" d="M362.61,281.49l-20.01-0.79l-0.31,7.86c-0.3,7.7,5.97,14.46,13.66,13.9c0.48-0.03,0.96-0.09,1.44-0.18
				c1.61-0.29,3.1-0.86,4.48-1.64L362.61,281.49z"/>
		</g>
		<g>
			
				<ellipse transform="matrix(0.9622 -0.2723 0.2723 0.9622 -57.7746 105.1202)" class="st4" cx="349.93" cy="260.76" rx="24.96" ry="19.22"/>
			
				<ellipse transform="matrix(0.9859 -0.1675 0.1675 0.9859 -38.3517 64.871)" class="st4" cx="365.43" cy="259.81" rx="22.17" ry="14.43"/>
			
				<ellipse transform="matrix(0.7343 -0.6788 0.6788 0.7343 -77.1952 306.6007)" class="st4" cx="353.1" cy="251.92" rx="22.17" ry="14.43"/>
			<path class="st2" d="M374.2,276.52c1.97,11.04-3.81,21.31-12.9,22.93l0,0c-9.09,1.62-18.07-6.01-20.04-17.05l-1.55-8.69
				c-1.97-11.04,3.81-21.31,12.9-22.93l0,0c9.1-1.62,18.07,6.01,20.04,17.05L374.2,276.52z"/>
			<path class="st4" d="M354.77,249.47c-5.03-4.55-13.79-2.35-19.56,4.92s-6.37,16.86-1.34,21.41c5.03,4.55,13.79,2.35,19.56-4.92
				C359.2,263.61,359.8,254.03,354.77,249.47z"/>
			<g>
				<g>
					<g>
						<g>
							<path class="st5" d="M358.09,274.07c-0.29,0-0.58-0.14-0.75-0.39c-0.28-0.42-0.18-0.98,0.23-1.27
								c0.12-0.08,3.02-2.05,6.1-0.26c0.44,0.26,0.58,0.82,0.33,1.25c-0.25,0.44-0.81,0.58-1.25,0.33c-2.06-1.2-4.05,0.13-4.14,0.18
								C358.45,274.02,358.27,274.07,358.09,274.07z"/>
						</g>
						<g>
							<path class="st5" d="M373.87,274.07c-0.18,0-0.36-0.05-0.52-0.16l0,0c-0.09-0.06-2.08-1.38-4.14-0.18
								c-0.44,0.26-0.99,0.11-1.25-0.33c-0.26-0.44-0.11-1,0.33-1.25c3.08-1.8,5.98,0.18,6.1,0.26c0.41,0.29,0.52,0.86,0.23,1.27
								C374.44,273.94,374.16,274.07,373.87,274.07z"/>
						</g>
						<g>
							<path class="st5" d="M362.22,276.53c-0.02,0.53-0.46,0.94-0.99,0.92c-0.53-0.02-0.94-0.46-0.92-0.99
								c0.02-0.53,0.46-0.94,0.99-0.92C361.83,275.56,362.24,276.01,362.22,276.53z"/>
						</g>
						<path class="st5" d="M371.37,276.89c-0.02,0.53-0.46,0.94-0.99,0.92c-0.53-0.02-0.94-0.46-0.92-0.99
							c0.02-0.53,0.46-0.94,0.99-0.92C370.98,275.92,371.39,276.37,371.37,276.89z"/>
					</g>
					<g>
						<g>
							<path class="st6" d="M373.59,283.53c-0.1,0-0.2,0-0.3-0.01c-2-0.08-3.85-0.93-5.22-2.4c-1.36-1.47-2.07-3.39-1.99-5.39
								c0.08-2,0.93-3.86,2.4-5.21c1.47-1.36,3.37-2.08,5.39-1.99c2,0.08,3.85,0.93,5.22,2.4c1.36,1.47,2.07,3.39,1.99,5.39
								c-0.08,2-0.93,3.85-2.41,5.21C377.28,282.83,375.48,283.53,373.59,283.53z M373.58,269.79c-1.57,0-3.06,0.58-4.22,1.66
								c-1.22,1.13-1.93,2.67-2,4.33c-0.07,1.66,0.52,3.26,1.65,4.48c1.13,1.22,2.67,1.93,4.33,2c1.68,0.03,3.26-0.52,4.48-1.65
								c1.22-1.13,1.93-2.67,2-4.33c0.07-1.67-0.52-3.26-1.65-4.48c-1.13-1.22-2.67-1.93-4.33-2
								C373.74,269.79,373.66,269.79,373.58,269.79z"/>
						</g>
						<g>
							<path class="st6" d="M357.47,283.82c-0.11,0-0.23,0-0.34-0.01c-4.64-0.18-8.27-4.11-8.09-8.75c0.09-2.25,1.05-4.33,2.7-5.86
								c1.65-1.53,3.8-2.34,6.05-2.23c2.25,0.09,4.33,1.05,5.86,2.7s2.32,3.8,2.23,6.05c-0.09,2.25-1.05,4.33-2.7,5.86
								C361.61,283.03,359.59,283.82,357.47,283.82z M357.45,268.39c-1.77,0-3.44,0.65-4.75,1.86c-1.37,1.27-2.17,3-2.24,4.87l0,0
								c-0.15,3.86,2.86,7.12,6.72,7.27c1.85,0.09,3.65-0.58,5.03-1.85c1.37-1.27,2.17-3,2.25-4.87c0.07-1.87-0.59-3.66-1.85-5.03
								c-1.27-1.37-3-2.17-4.87-2.24C357.64,268.39,357.55,268.39,357.45,268.39z"/>
						</g>
						<g>
							<path class="st6" d="M364.43,276.71l3.1,0.12c0.36,0.01,0.66-0.27,0.68-0.63l0,0c0.01-0.36-0.27-0.66-0.63-0.68l-3.1-0.12
								c-0.36-0.01-0.66,0.27-0.68,0.63l0,0C363.79,276.39,364.07,276.69,364.43,276.71z"/>
						</g>
					</g>
					<g>
						<path class="st5" d="M370.64,281.1c-0.09,1.09-1.35,2.08-2.82,2.22c-1.47,0.14-2.59-0.64-2.5-1.73
							c0.09-1.09,1.35-2.08,2.82-2.22C369.61,279.24,370.73,280.01,370.64,281.1z"/>
					</g>
					<g>
						<path class="st5" d="M370.02,286.96c-0.1,2.53-2.4,4.49-5.14,4.38s-4.32-2.82-4.22-5.35C363.87,285.71,367,286,370.02,286.96z
							"/>
						<path class="st6" d="M365.28,288.54c-2.16-0.25-3.5-0.99-3.63-2.62c2.7-0.14,5.33,0.13,7.9,0.88
							C369.18,288.27,367.4,288.79,365.28,288.54z"/>
					</g>
				</g>
				<g>
					<g>
						<g>
							<path class="st7" d="M358.88,292.35L358.88,292.35l-5.38-0.01c-2.17,0-4.25-0.8-5.87-2.26l-3.37-3.04
								c-0.27-0.24-0.29-0.66-0.05-0.92c0.24-0.27,0.65-0.29,0.92-0.05l3.37,3.04c1.37,1.24,3.14,1.92,4.99,1.92l5.38,0.01
								c0.36,0,0.65,0.29,0.65,0.65C359.53,292.06,359.24,292.35,358.88,292.35z"/>
						</g>
						<g>
							<path class="st6" d="M358.88,293L358.88,293l-2.18,0c-0.72,0-1.31-0.59-1.3-1.31c0-0.72,0.59-1.3,1.31-1.3h0l2.18,0
								c0.72,0,1.31,0.59,1.3,1.31C360.18,292.42,359.6,293,358.88,293z"/>
						</g>
					</g>
					<g>
						
							<ellipse transform="matrix(0.3405 -0.9402 0.9402 0.3405 -38.4117 505.7923)" class="st8" cx="341.35" cy="280.28" rx="10.94" ry="10.94"/>
						
							<ellipse transform="matrix(0.0393 -0.9992 0.9992 0.0393 46.4041 608.6954)" class="st0" cx="339.75" cy="280.22" rx="9.34" ry="8.54"/>
						<path class="st9" d="M341.09,280.27c-0.08,2.09-1.46,3.73-3.08,3.67c-1.62-0.06-2.87-1.81-2.78-3.9
							c0.08-2.09,1.46-3.73,3.08-3.67C339.92,276.44,341.17,278.18,341.09,280.27z"/>
					</g>
				</g>
			</g>
		</g>
	</g>
	<g>
		<path class="st1" d="M367.78,433.01l-52.33,1.47c-8.72-0.34-15.52-7.69-15.17-16.42l3.31-87.57c0.18-4.58,3.21-8.55,7.57-9.94
			l39.01-12.42l31.18,14.95c3.92,1.88,6.34,5.9,6.17,10.24l-3.32,84.52C383.86,426.56,376.51,433.35,367.78,433.01z"/>
		<path class="st10" d="M387.52,333.31c0.18,9.13,0.07,18.25-0.08,27.37c-0.12,9.12-0.44,18.23-0.77,27.34
			c-0.39,9.11-0.78,18.22-1.38,27.32c-0.13,2.21-0.25,4.7-1.08,6.97c-0.79,2.26-2.06,4.35-3.73,6.04
			c-3.36,3.34-8.14,5.15-12.71,4.65c4.57-0.1,8.95-2.15,11.77-5.52c1.45-1.64,2.5-3.6,3.1-5.68c0.64-2.08,0.62-4.21,0.64-6.54
			c0.12-9.12,0.45-18.23,0.77-27.34c0.39-9.11,0.78-18.22,1.38-27.32C386.02,351.5,386.63,342.4,387.52,333.31z"/>
		<path class="st1" d="M364.49,324.69l-28.24-1.82l1.08-16.79c0.13-2.09,1.94-3.67,4.02-3.53l20.69,1.33
			c2.09,0.13,3.67,1.94,3.53,4.02L364.49,324.69z"/>
	</g>
	<g>
		<g>
			<path class="st1" d="M280.35,407.34L280.35,407.34c-8.74-3.63-12.89-13.66-9.26-22.41l19.16-46.14
				c3.63-8.74,13.66-12.89,22.41-9.26h0c8.74,3.63,12.89,13.66,9.26,22.41l-19.16,46.14C299.13,406.82,289.09,410.97,280.35,407.34z
				"/>
			<path class="st10" d="M312.67,329.53c3.06,0.99,5.85,2.96,7.92,5.56c2.03,2.63,3.32,5.88,3.6,9.26c0.45,3.36-0.63,6.93-1.86,9.82
				l-3.62,8.9c-2.48,5.91-4.97,11.81-7.65,17.64l-4.02,8.74c-1.43,2.88-2.78,5.78-4.28,8.63c0.96-3.07,2.07-6.08,3.09-9.12
				l3.35-9.02c2.24-6.01,4.66-11.94,7.09-17.87l3.75-8.85c0.64-1.51,1.3-2.85,1.62-4.31c0.35-1.45,0.56-2.95,0.52-4.46
				C322.11,338.41,318.41,332.46,312.67,329.53z"/>
		</g>
		<g>
			<g>
				<g>
					<path class="st5" d="M360.14,383.15l-8.73-0.56c-3.27-0.21-5.76-3.05-5.55-6.32l0.25-3.94c0.21-3.27,3.04-5.76,6.32-5.55
						l8.73,0.56L360.14,383.15z M352.18,370.7c-1.12-0.07-2.08,0.78-2.15,1.89l-0.25,3.94c-0.07,1.12,0.78,2.08,1.89,2.15l4.82,0.31
						l0.51-7.98L352.18,370.7z"/>
				</g>
				<g>
					<path class="st3" d="M368.63,395.71l-7.55-0.49c-4.59-0.3-8.06-4.25-7.77-8.84l1.57-24.27c0.17-2.71,24.33-1.15,24.16,1.56
						l-1.57,24.27C377.18,392.53,373.22,396.01,368.63,395.71z"/>
					<path class="st5" d="M376.63,364.33c-0.06,0.98-4.55,1.48-10.02,1.13c-5.47-0.35-9.85-1.43-9.79-2.4s4.55-1.48,10.02-1.13
						C372.31,362.27,376.69,363.35,376.63,364.33z"/>
				</g>
			</g>
			<path class="st1" d="M270.85,391.92L270.85,391.92c0.15-9.47,7.95-17.02,17.41-16.87l49.96,0.79
				c9.47,0.15,17.02,7.95,16.87,17.41l0,0c-0.15,9.47-7.95,17.02-17.41,16.87l-49.96-0.79C278.25,409.18,270.7,401.39,270.85,391.92
				z"/>
			<path class="st10" d="M288.26,375.05c6.42-0.44,12.83-0.59,19.24-0.7c6.41-0.14,12.82-0.07,19.22,0l9.61,0.22
				c3.14,0.02,6.85,0.45,9.75,2.2c2.99,1.61,5.46,4.09,7.06,6.99c1.57,2.94,2.26,6.28,1.95,9.48c-0.4-6.43-4.39-12.2-9.91-14.68
				c-1.37-0.64-2.82-1.05-4.29-1.3c-1.47-0.29-2.95-0.21-4.6-0.22l-9.61-0.08c-6.41-0.13-12.81-0.27-19.21-0.61
				C301.06,376.04,294.66,375.69,288.26,375.05z"/>
			<g>
				
					<ellipse transform="matrix(0.6386 -0.7696 0.7696 0.6386 -170.5808 415.8108)" class="st2" cx="357.38" cy="389.5" rx="15.02" ry="15.02"/>
				<path class="st2" d="M349.61,382.3L349.61,382.3c-1.87-0.65-2.87-2.69-2.22-4.57l1.6-4.63c0.65-1.87,2.69-2.87,4.57-2.22l0,0
					c1.87,0.65,2.87,2.69,2.22,4.57l-1.6,4.63C353.53,381.96,351.48,382.95,349.61,382.3z"/>
				<path class="st2" d="M378.37,384.27l-13.33,1.24c-2.07,0.19-3.89-1.33-4.09-3.39l0,0c-0.19-2.07,1.33-3.9,3.39-4.09l13.33-1.24
					c2.07-0.19,3.9,1.33,4.09,3.39l0,0C381.96,382.25,380.44,384.08,378.37,384.27z"/>
				<path class="st2" d="M375.55,396.53l-13.36-0.86c-2.07-0.13-3.64-1.92-3.51-3.99l0,0c0.13-2.07,1.92-3.64,3.99-3.51l13.36,0.86
					c2.07,0.13,3.64,1.92,3.51,3.99l0,0C379.4,395.09,377.62,396.66,375.55,396.53z"/>
			</g>
		</g>
	</g>
</g>
<g>
	<g>
		<g>
			<path class="st8" d="M511.42,350.98c-0.4,0-0.8-0.15-1.11-0.46c-0.61-0.61-0.61-1.6,0-2.21l14.96-14.96
				c0.61-0.61,1.6-0.61,2.21,0c0.61,0.61,0.61,1.6,0,2.21l-14.96,14.96C512.22,350.82,511.82,350.98,511.42,350.98z"/>
		</g>
		<g>
			<g>
				<path class="st8" d="M500.77,341.8c-0.86,0-1.57-0.7-1.57-1.57v-21.15c0-0.86,0.7-1.57,1.57-1.57s1.57,0.7,1.57,1.57v21.15
					C502.33,341.1,501.63,341.8,500.77,341.8z"/>
			</g>
			<g>
				<path class="st8" d="M541.75,361.63h-21.16c-0.86,0-1.57-0.7-1.57-1.57c0-0.86,0.7-1.57,1.57-1.57h21.16
					c0.86,0,1.57,0.7,1.57,1.57C543.32,360.93,542.62,361.63,541.75,361.63z"/>
			</g>
		</g>
	</g>
	<g>
		<g>
			<path class="st10" d="M353.85,427.43h129.44c3.61,0,4.72-2.92,4.72-6.54l0,0h-140.7l0,0
				C347.31,424.51,350.24,427.43,353.85,427.43z"/>
			<path class="st10" d="M346.34,420.89h45.88c0,3.61-3.32,6.54-7.43,6.54h-30.07c-0.04,0-8.54,0-8.58,0
				C341.92,427.37,342.11,420.89,346.34,420.89z"/>
			<g>
				<path class="st9" d="M395.09,422.8h92.92c2.76,0,5.13-1.96,5.64-4.67l12.53-53.74c0.67-3.54-2.04-6.82-5.64-6.82h-92.92
					c-2.76,0-5.13,1.96-5.65,4.68l-12.52,53.74C388.77,419.52,391.48,422.8,395.09,422.8z"/>
				<path class="st10" d="M401.97,362.24c0.28-1.49,1.13-2.75,2.29-3.59c1.74,1.25,2.73,3.43,2.29,5.73l-12.52,53.74
					c-0.28,1.49-1.13,2.75-2.29,3.59c-1.74-1.25-2.73-3.43-2.3-5.73L401.97,362.24z"/>
				<g>
					<path class="st11" d="M460.41,397.03h-15.24c-3.13,0-5.66-2.53-5.66-5.66l0,0c0-3.13,2.53-5.66,5.66-5.66h15.24
						c3.13,0,5.66,2.53,5.66,5.66l0,0C466.07,394.5,463.54,397.03,460.41,397.03z"/>
				</g>
			</g>
		</g>
		<g>
			<path class="st10" d="M360.2,422.7h-4.57c-0.9,0-1.63-0.73-1.63-1.63l0,0c0-0.9,0.73-1.63,1.63-1.63h4.57
				c0.9,0,1.63,0.73,1.63,1.63l0,0C361.83,421.97,361.1,422.7,360.2,422.7z"/>
			<path class="st10" d="M369.12,422.7h-4.57c-0.9,0-1.63-0.73-1.63-1.63l0,0c0-0.9,0.73-1.63,1.63-1.63h4.57
				c0.9,0,1.63,0.73,1.63,1.63l0,0C370.75,421.97,370.02,422.7,369.12,422.7z"/>
			<path class="st10" d="M378.05,422.7h-4.57c-0.9,0-1.63-0.73-1.63-1.63l0,0c0-0.9,0.73-1.63,1.63-1.63h4.57
				c0.9,0,1.63,0.73,1.63,1.63l0,0C379.68,421.97,378.95,422.7,378.05,422.7z"/>
			<path class="st10" d="M386.97,422.7h-4.57c-0.9,0-1.63-0.73-1.63-1.63l0,0c0-0.9,0.73-1.63,1.63-1.63h4.57
				c0.9,0,1.63,0.73,1.63,1.63l0,0C388.61,421.97,387.87,422.7,386.97,422.7z"/>
		</g>
	</g>
</g>
<path class="st4" d="M557.29,434.92h-391c-2.16,0-3.92-1.75-3.92-3.92l0,0c0-2.16,1.75-3.92,3.92-3.92h391
	c2.16,0,3.92,1.75,3.92,3.92l0,0C561.21,433.16,559.45,434.92,557.29,434.92z"/>
<g>
	<g>
		<path class="st12" d="M224.82,402.98c0,0-2.88-21.62-8.09-26.94"/>
		<g>
			<path class="st6" d="M217.57,363.18c1.39,4.61,1.11,8.77-0.64,9.3c-1.74,0.53-4.28-2.78-5.68-7.39
				c-0.01-0.05-0.03-0.09-0.04-0.14c-1.18-4.1,5.02-5.98,6.31-1.91C217.54,363.09,217.56,363.14,217.57,363.18z"/>
			<g>
				<path class="st6" d="M225.84,373.48c-4.61,1.39-8.77,1.11-9.3-0.64c-0.53-1.74,2.78-4.28,7.39-5.68
					c0.05-0.01,0.09-0.03,0.14-0.04c4.1-1.18,5.98,5.02,1.91,6.31C225.93,373.45,225.88,373.47,225.84,373.48z"/>
				<path class="st6" d="M210.07,378.24c4.61-1.39,7.92-3.93,7.39-5.68s-4.69-2.03-9.3-0.64c-0.05,0.01-0.09,0.03-0.14,0.04
					c-4.07,1.29-2.2,7.49,1.91,6.31C209.98,378.27,210.03,378.26,210.07,378.24z"/>
			</g>
			<g>
				<path class="st6" d="M217.83,383.48c1.3-4.64,0.92-8.79-0.83-9.28c-1.75-0.49-4.23,2.87-5.52,7.51
					c-0.01,0.05-0.03,0.09-0.04,0.14c-1.09,4.13,5.14,5.87,6.35,1.77C217.8,383.57,217.82,383.53,217.83,383.48z"/>
				<path class="st6" d="M222.28,382.14c-3.65-3.14-5.64-6.81-4.45-8.19c1.19-1.38,5.11,0.05,8.75,3.19
					c0.04,0.03,0.07,0.06,0.11,0.09c3.2,2.83-1.03,7.74-4.3,4.99C222.35,382.2,222.32,382.17,222.28,382.14z"/>
			</g>
			<path class="st3" d="M219.11,373.08c0.36,1.19-0.31,2.45-1.51,2.81c-1.19,0.36-2.45-0.31-2.81-1.51
				c-0.36-1.19,0.31-2.45,1.51-2.81C217.49,371.22,218.75,371.89,219.11,373.08z"/>
		</g>
		<g>
			<path class="st8" d="M216.32,389.09c5.99,4.72,9.39,10.38,7.61,12.64c-1.78,2.26-8.08,0.28-14.07-4.44
				c-5.99-4.72-7.61-12.64-7.61-12.64S210.33,384.37,216.32,389.09z"/>
			<path class="st8" d="M237.34,396.23c-6.32,5.93-13.26,8.81-15.51,6.42s1.06-9.14,7.38-15.07c6.32-5.93,15.51-6.42,15.51-6.42
				S243.66,390.29,237.34,396.23z"/>
		</g>
	</g>
	<g>
		<polygon class="st4" points="232.7,428.38 212.02,428.38 208.4,402.37 236.32,402.37 		"/>
		<path class="st4" d="M237.4,409.04h-30.08c-0.81,0-1.47-0.66-1.47-1.47v-6.73c0-0.81,0.66-1.47,1.47-1.47h30.08
			c0.81,0,1.47,0.66,1.47,1.47v6.73C238.87,408.39,238.21,409.04,237.4,409.04z"/>
	</g>
</g>
<g>
	<g>
		<g>
			<polygon class="st8" points="285.44,207.94 295.69,218.93 373.85,186.34 			"/>
			<polygon class="st0" points="289.09,171.65 281.37,183.3 286.59,194.71 274.88,196.7 264.53,219.42 376.35,185.58 			"/>
			<polygon class="st8" points="286.59,194.71 281.37,183.3 341.93,186.13 			"/>
		</g>
		<g>
			<path class="st8" d="M280.7,307.57c-0.86,0-1.72-0.01-2.58-0.02c-0.87-0.01-1.56-0.72-1.55-1.58c0.01-0.86,0.76-1.65,1.58-1.55
				c4.06,0.05,8.09-0.02,12.51-0.2c0.02,0,0.05,0,0.07,0c0.84,0,1.53,0.66,1.57,1.5c0.04,0.86-0.64,1.6-1.5,1.63
				C287.25,307.5,283.95,307.57,280.7,307.57z M265.56,306.95c-0.05,0-0.09,0-0.14-0.01c-4.32-0.37-8.56-0.92-12.62-1.65
				c-0.85-0.15-1.42-0.96-1.27-1.82c0.15-0.85,0.97-1.39,1.82-1.27c3.96,0.71,8.12,1.25,12.34,1.61c0.86,0.07,1.5,0.83,1.43,1.7
				C267.05,306.34,266.36,306.95,265.56,306.95z M240.82,302.43c-0.15,0-0.31-0.02-0.46-0.07c-4.12-1.26-8.14-2.81-11.95-4.59
				c-0.78-0.37-1.12-1.3-0.75-2.08c0.37-0.79,1.31-1.12,2.08-0.75c3.67,1.72,7.55,3.21,11.53,4.43c0.83,0.25,1.29,1.13,1.04,1.96
				C242.11,301.99,241.49,302.43,240.82,302.43z M218.12,291.74c-0.3,0-0.6-0.08-0.87-0.26c-3.55-2.37-6.94-5.03-10.09-7.92
				c-0.64-0.58-0.68-1.58-0.09-2.21c0.59-0.64,1.58-0.68,2.21-0.09c3.02,2.78,6.29,5.34,9.7,7.62c0.72,0.48,0.91,1.45,0.43,2.17
				C219.13,291.49,218.63,291.74,218.12,291.74z M199.65,274.76c-0.46,0-0.92-0.2-1.23-0.59c-2.66-3.35-5.08-6.92-7.19-10.62
				c-0.43-0.75-0.17-1.71,0.59-2.14c0.75-0.42,1.71-0.16,2.14,0.59c2.03,3.56,4.36,7,6.92,10.22c0.54,0.68,0.43,1.66-0.25,2.2
				C200.34,274.65,200,274.76,199.65,274.76z M187.24,252.96c-0.63,0-1.23-0.39-1.47-1.02c-1.53-4.06-2.72-8.22-3.52-12.35
				c-0.17-0.85,0.39-1.67,1.24-1.84c0.86-0.18,1.67,0.39,1.84,1.24c0.77,3.96,1.91,7.95,3.38,11.85c0.31,0.81-0.1,1.71-0.91,2.02
				C187.61,252.93,187.42,252.96,187.24,252.96z M182.24,228.37c-0.82,0-1.51-0.64-1.56-1.47c-0.16-2.56-0.24-5.26-0.24-8.01v-0.64
				c0.01-1.36,0.03-2.73,0.07-4.09c0.03-0.85,0.72-1.52,1.57-1.52c0.02,0,0.03,0,0.05,0c0.86,0.03,1.54,0.75,1.52,1.62
				c-0.04,1.34-0.07,2.67-0.07,4v0.63c0,2.69,0.08,5.32,0.24,7.81c0.06,0.86-0.6,1.61-1.46,1.66
				C182.31,228.37,182.27,228.37,182.24,228.37z"/>
		</g>
		<g>
			<path class="st8" d="M195.42,203.51c-2.39,0-4.75-0.03-7.06-0.09c-0.86-0.02-1.55-0.74-1.53-1.61c0.02-0.85,0.72-1.53,1.57-1.53
				c0.01,0,0.03,0,0.04,0c4.05,0.1,8.22,0.11,12.52,0.03c0.97-0.05,1.58,0.67,1.6,1.54c0.02,0.87-0.67,1.58-1.54,1.6
				C199.13,203.49,197.26,203.51,195.42,203.51z M213.57,202.99c-0.82,0-1.52-0.65-1.56-1.48c-0.05-0.86,0.61-1.6,1.48-1.65
				c4.05-0.23,8.26-0.53,12.51-0.91c0.84-0.09,1.63,0.56,1.7,1.42c0.08,0.86-0.56,1.62-1.42,1.7c-4.28,0.38-8.53,0.69-12.62,0.91
				C213.63,202.99,213.6,202.99,213.57,202.99z M175.82,202.79c-0.04,0-0.08,0-0.13,0c-4.36-0.34-8.61-0.8-12.62-1.38
				c-0.86-0.12-1.45-0.92-1.33-1.77c0.12-0.85,0.93-1.43,1.77-1.33c3.94,0.56,8.12,1.02,12.42,1.35c0.86,0.07,1.51,0.82,1.44,1.69
				C177.32,202.16,176.63,202.79,175.82,202.79z M238.66,200.78c-0.78,0-1.46-0.59-1.55-1.39c-0.1-0.86,0.52-1.64,1.38-1.74
				c4.07-0.48,8.22-1.02,12.45-1.62c0.86-0.14,1.65,0.47,1.77,1.33c0.12,0.86-0.47,1.65-1.33,1.77c-4.26,0.61-8.43,1.15-12.53,1.63
				C238.78,200.78,238.72,200.78,238.66,200.78z M150.9,199.18c-0.11,0-0.23-0.01-0.34-0.04c-3.03-0.68-5.99-1.45-8.78-2.28
				c-1.19-0.35-2.36-0.72-3.51-1.1c-0.82-0.27-1.27-1.16-0.99-1.98c0.27-0.82,1.16-1.28,1.98-1c1.12,0.37,2.26,0.73,3.42,1.07
				c2.73,0.81,5.61,1.56,8.57,2.22c0.85,0.19,1.38,1.03,1.19,1.87C152.27,198.68,151.62,199.18,150.9,199.18z M127.1,191.13
				c-0.23,0-0.46-0.05-0.68-0.16c-4.01-1.95-7.74-4.14-11.06-6.52c-0.7-0.51-0.87-1.48-0.36-2.19c0.5-0.7,1.48-0.87,2.19-0.36
				c3.19,2.28,6.76,4.38,10.61,6.25c0.78,0.38,1.1,1.32,0.73,2.09C128.24,190.8,127.68,191.13,127.1,191.13z M181.06,189.72
				c-0.86,0-1.57-0.7-1.57-1.57v-0.56c0-3.95-0.16-7.97-0.47-11.94c-0.07-0.86,0.58-1.62,1.44-1.69c0.83-0.08,1.61,0.58,1.69,1.44
				c0.32,4.05,0.48,8.15,0.48,12.18v0.56C182.62,189.02,181.92,189.72,181.06,189.72z M106.83,176.43c-0.42,0-0.85-0.17-1.16-0.51
				c-2.94-3.22-5.47-6.75-7.53-10.51c-0.42-0.76-0.14-1.71,0.62-2.13c0.77-0.41,1.71-0.13,2.13,0.62c1.94,3.54,4.33,6.87,7.1,9.91
				c0.58,0.64,0.54,1.63-0.1,2.21C107.59,176.3,107.21,176.43,106.83,176.43z M179.04,164.59c-0.75,0-1.41-0.54-1.54-1.3
				c-0.73-4.26-1.66-8.34-2.77-12.11c-0.24-0.83,0.23-1.7,1.06-1.94c0.83-0.26,1.7,0.23,1.94,1.06c1.15,3.89,2.1,8.08,2.85,12.47
				c0.15,0.85-0.43,1.66-1.28,1.81C179.21,164.58,179.13,164.59,179.04,164.59z M94.81,154.58c-0.69,0-1.32-0.46-1.51-1.15
				c-0.19-0.7-0.38-1.41-0.55-2.13c-0.56-2.36-0.84-4.69-0.84-6.95c0-1.35,0.1-2.7,0.3-4.02c0.13-0.86,0.94-1.45,1.78-1.31
				c0.86,0.13,1.44,0.93,1.31,1.78c-0.18,1.16-0.27,2.35-0.27,3.55c0,2.01,0.26,4.1,0.76,6.23c0.16,0.68,0.33,1.35,0.52,2.02
				c0.23,0.84-0.26,1.7-1.09,1.93C95.09,154.56,94.95,154.58,94.81,154.58z M171.77,140.52c-0.58,0-1.14-0.33-1.41-0.89
				c-1.87-3.91-4.04-7.4-6.43-10.37c-0.54-0.67-0.44-1.66,0.24-2.2c0.67-0.54,1.65-0.44,2.2,0.24c2.54,3.16,4.84,6.86,6.81,10.98
				c0.38,0.78,0.05,1.72-0.73,2.09C172.23,140.47,172,140.52,171.77,140.52z M98.7,130.69c-0.33,0-0.67-0.1-0.95-0.32
				c-0.69-0.53-0.82-1.51-0.3-2.2c2.52-3.3,5.82-6.22,9.81-8.67c0.74-0.45,1.71-0.22,2.16,0.52c0.45,0.74,0.22,1.7-0.52,2.16
				c-3.67,2.25-6.68,4.9-8.96,7.9C99.64,130.48,99.18,130.69,98.7,130.69z M155.92,121.37c-0.29,0-0.59-0.08-0.86-0.26
				c-3.32-2.18-7.02-3.78-10.99-4.76c-0.84-0.21-1.35-1.06-1.15-1.9c0.21-0.84,1.06-1.35,1.9-1.15c4.31,1.06,8.33,2.81,11.96,5.18
				c0.72,0.47,0.93,1.45,0.45,2.17C156.93,121.13,156.43,121.37,155.92,121.37z M119.6,117.38c-0.68,0-1.3-0.44-1.5-1.13
				c-0.24-0.83,0.23-1.7,1.06-1.95c3.95-1.17,8.1-1.91,12.32-2.23l0.47-0.02c0.77,0.04,1.58,0.67,1.6,1.54
				c0.02,0.86-0.67,1.58-1.54,1.6l-0.34,0.01c-3.96,0.29-7.89,1-11.63,2.1C119.9,117.36,119.75,117.38,119.6,117.38z"/>
		</g>
	</g>
	<g>
		<g>
			<path class="st8" d="M496.75,128.05h83.78c10.47,0,18.96,8.49,18.96,18.96v43.21c0,10.47-8.49,18.96-18.96,18.96h-54.79
				l-19.71,17.39v-17.39h-9.29c-10.47,0-18.96-8.49-18.96-18.96v-43.21C477.79,136.54,486.28,128.05,496.75,128.05z"/>
			<g>
				<g>
					<path class="st0" d="M508.94,154.8h59.41c1.31,0,2.38-1.06,2.38-2.38c0-1.31-1.06-2.38-2.38-2.38h-59.41
						c-1.31,0-2.38,1.06-2.38,2.38C506.56,153.73,507.63,154.8,508.94,154.8z"/>
				</g>
				<g>
					<path class="st0" d="M508.94,170.64h59.41c1.31,0,2.38-1.06,2.38-2.38c0-1.31-1.06-2.38-2.38-2.38h-59.41
						c-1.31,0-2.38,1.06-2.38,2.38C506.56,169.57,507.63,170.64,508.94,170.64z"/>
				</g>
				<g>
					<path class="st0" d="M559.63,186.48h8.71c1.31,0,2.38-1.06,2.38-2.38c0-1.31-1.06-2.38-2.38-2.38h-8.71
						c-1.31,0-2.38,1.06-2.38,2.38C557.26,185.41,558.32,186.48,559.63,186.48z"/>
				</g>
				<g>
					<path class="st0" d="M539.83,186.48h8.71c1.31,0,2.38-1.06,2.38-2.38c0-1.31-1.06-2.38-2.38-2.38h-8.71
						c-1.31,0-2.38,1.06-2.38,2.38C537.46,185.41,538.52,186.48,539.83,186.48z"/>
				</g>
				<g>
					<path class="st0" d="M508.94,186.48h19.8c1.31,0,2.38-1.06,2.38-2.38c0-1.31-1.06-2.38-2.38-2.38h-19.8
						c-1.31,0-2.38,1.06-2.38,2.38C506.56,185.41,507.63,186.48,508.94,186.48z"/>
				</g>
			</g>
		</g>
		<g>
			<path class="st0" d="M486.15,214.35h-64.13c-6.31,0-11.42,5.11-11.42,11.42v36.98c0,6.03,4.67,10.95,10.58,11.38l-13.22,21.67
				l34.85-21.63h43.34c6.31,0,11.42-5.11,11.42-11.42v-36.98C497.57,219.46,492.46,214.35,486.15,214.35z"/>
			<g>
				
					<ellipse transform="matrix(0.7071 -0.7071 0.7071 0.7071 -33.3748 390.0021)" class="st13" cx="454.09" cy="235.29" rx="7.59" ry="7.59"/>
				<path class="st13" d="M472.03,260.83h-35.89l0,0c0-6.35,5.15-11.5,11.5-11.5h12.89C466.88,249.32,472.03,254.47,472.03,260.83
					L472.03,260.83z"/>
			</g>
		</g>
	</g>
	<g>
		<g>
			<g>
				<path class="st8" d="M408.74,154.2c-2.12,0-4.25-0.22-6.32-0.64c-0.85-0.18-1.39-1.01-1.22-1.85c0.18-0.85,1.02-1.37,1.85-1.22
					c3.22,0.67,6.62,0.76,9.84,0.27c0.86-0.12,1.65,0.46,1.78,1.32c0.13,0.86-0.46,1.65-1.32,1.78
					C411.84,154.09,410.29,154.2,408.74,154.2z M422.97,150.54c-0.55,0-1.09-0.29-1.38-0.81c-0.42-0.76-0.14-1.71,0.61-2.13
					c2.9-1.6,5.46-3.69,7.64-6.21c0.56-0.66,1.56-0.73,2.21-0.16c0.66,0.56,0.73,1.55,0.16,2.21c-2.41,2.8-5.27,5.12-8.49,6.91
					C423.48,150.48,423.22,150.54,422.97,150.54z M393.09,149.7c-0.28,0-0.57-0.08-0.83-0.24c-3.12-1.96-5.84-4.44-8.09-7.37
					c-0.53-0.69-0.4-1.67,0.29-2.2c0.69-0.53,1.67-0.4,2.2,0.29c2.03,2.63,4.47,4.86,7.28,6.63c0.73,0.46,0.95,1.43,0.49,2.16
					C394.12,149.44,393.61,149.7,393.09,149.7z M436.31,135.03c-0.18,0-0.36-0.03-0.55-0.1c-0.81-0.3-1.22-1.2-0.92-2.02
					c1.15-3.09,1.73-6.35,1.73-9.68c0-0.86,0.7-1.57,1.57-1.57c0.86,0,1.57,0.7,1.57,1.57c0,3.71-0.65,7.33-1.93,10.78
					C437.55,134.64,436.95,135.03,436.31,135.03z M380.64,133.48c-0.67,0-1.29-0.43-1.5-1.11c-0.91-2.95-1.37-6.02-1.37-9.13
					c0-0.58,0.02-1.16,0.05-1.73c0.05-0.86,0.83-1.51,1.65-1.47c0.86,0.05,1.53,0.79,1.47,1.65c-0.03,0.51-0.04,1.03-0.04,1.55
					c0,2.8,0.42,5.57,1.23,8.21c0.26,0.83-0.21,1.7-1.04,1.96C380.95,133.45,380.79,133.48,380.64,133.48z M437.28,117.71
					c-0.7,0-1.34-0.48-1.52-1.19c-0.8-3.22-2.15-6.24-4.03-8.98c-0.49-0.71-0.31-1.69,0.41-2.18c0.71-0.5,1.69-0.31,2.18,0.41
					c2.09,3.05,3.59,6.41,4.48,9.99c0.21,0.84-0.3,1.69-1.14,1.9C437.53,117.7,437.4,117.71,437.28,117.71z M381.78,113.05
					c-0.21,0-0.42-0.04-0.63-0.13c-0.79-0.35-1.16-1.27-0.81-2.06c1.47-3.38,3.52-6.44,6.09-9.1c0.6-0.63,1.59-0.64,2.21-0.04
					c0.63,0.6,0.64,1.59,0.04,2.21c-2.31,2.39-4.15,5.14-5.47,8.18C382.96,112.7,382.38,113.05,381.78,113.05z M425.74,100.81
					c-0.31,0-0.63-0.09-0.91-0.29c-2.7-1.92-5.7-3.33-8.9-4.18c-0.84-0.22-1.33-1.08-1.11-1.92c0.23-0.83,1.08-1.33,1.92-1.11
					c3.57,0.95,6.9,2.52,9.91,4.66c0.71,0.5,0.87,1.48,0.37,2.19C426.71,100.58,426.23,100.81,425.74,100.81z M395.97,98.31
					c-0.58,0-1.14-0.33-1.41-0.89c-0.38-0.78-0.05-1.72,0.73-2.09c3.32-1.6,6.87-2.59,10.55-2.93c0.83-0.08,1.63,0.55,1.71,1.42
					c0.08,0.86-0.55,1.63-1.42,1.71c-3.31,0.31-6.5,1.19-9.48,2.63C396.43,98.26,396.2,98.31,395.97,98.31z"/>
			</g>
			<g>
				<path class="st8" d="M408.74,108.35c-11.35,0-20.55,6.08-20.55,13.58c0,0.01,0,0.03,0,0.04c0.01,1.96,1.55,3.3,3,2.68l5.39-2.3
					c1.3-0.55,1.93-2.44,1.34-4.04l-0.66-1.81c0,0,9.91,1.77,22.87,0l-0.67,2.32c-0.42,1.47,0.13,3.11,1.25,3.72l5.33,2.91
					c1.3,0.71,2.81-0.24,3.11-2.01c0.08-0.5,0.13-1,0.13-1.52C429.29,114.43,420.09,108.35,408.74,108.35z"/>
				<path class="st0" d="M422.97,138.12h-28.48l4.22-13.22c0.79-2.48,3.09-4.16,5.7-4.16h8.65c2.6,0,4.91,1.68,5.7,4.16
					L422.97,138.12z"/>
			</g>
		</g>
		<g>
			<g>
				<path class="st8" d="M592.28,315.25c-2.13,0-4.26-0.22-6.33-0.65c-0.85-0.18-1.39-1.01-1.22-1.85c0.18-0.85,1.02-1.38,1.85-1.22
					c3.21,0.67,6.63,0.76,9.84,0.27c0.86-0.12,1.65,0.46,1.78,1.32c0.13,0.86-0.46,1.65-1.32,1.78
					C595.39,315.13,593.84,315.25,592.28,315.25z M606.51,311.59c-0.55,0-1.09-0.29-1.37-0.81c-0.42-0.76-0.15-1.71,0.61-2.13
					c2.9-1.61,5.47-3.7,7.64-6.21c0.56-0.66,1.55-0.73,2.21-0.16c0.66,0.56,0.73,1.55,0.16,2.21c-2.41,2.8-5.27,5.12-8.49,6.91
					C607.02,311.53,606.76,311.59,606.51,311.59z M576.64,310.75c-0.28,0-0.57-0.08-0.83-0.24c-3.12-1.96-5.84-4.44-8.09-7.37
					c-0.53-0.69-0.4-1.67,0.29-2.2c0.69-0.53,1.67-0.4,2.2,0.29c2.02,2.63,4.47,4.86,7.27,6.63c0.73,0.46,0.95,1.43,0.49,2.16
					C577.67,310.49,577.16,310.75,576.64,310.75z M619.85,296.08c-0.18,0-0.36-0.03-0.55-0.1c-0.81-0.3-1.22-1.2-0.92-2.02
					c1.15-3.09,1.73-6.35,1.73-9.68c0-0.86,0.7-1.57,1.57-1.57c0.86,0,1.57,0.7,1.57,1.57c0,3.71-0.65,7.33-1.93,10.78
					C621.09,295.69,620.49,296.08,619.85,296.08z M564.18,294.52c-0.67,0-1.29-0.43-1.5-1.11c-0.91-2.95-1.37-6.02-1.37-9.13
					c0-0.58,0.02-1.16,0.05-1.73c0.05-0.86,0.9-1.52,1.65-1.48c0.86,0.05,1.53,0.79,1.48,1.65c-0.03,0.52-0.04,1.04-0.04,1.56
					c0,2.8,0.41,5.56,1.23,8.21c0.26,0.83-0.21,1.7-1.04,1.96C564.49,294.5,564.33,294.52,564.18,294.52z M620.83,278.76
					c-0.7,0-1.34-0.48-1.52-1.19c-0.8-3.21-2.15-6.23-4.03-8.97c-0.49-0.71-0.31-1.69,0.41-2.18c0.71-0.49,1.69-0.31,2.18,0.41
					c2.09,3.05,3.59,6.41,4.48,9.99c0.21,0.84-0.3,1.69-1.14,1.9C621.08,278.74,620.95,278.76,620.83,278.76z M565.32,274.09
					c-0.21,0-0.42-0.04-0.63-0.13c-0.79-0.35-1.16-1.27-0.81-2.06c1.48-3.38,3.53-6.44,6.09-9.1c0.6-0.63,1.59-0.64,2.21-0.04
					c0.63,0.6,0.64,1.59,0.04,2.21c-2.3,2.39-4.15,5.14-5.47,8.18C566.5,273.74,565.93,274.09,565.32,274.09z M609.29,261.86
					c-0.31,0-0.63-0.09-0.91-0.29c-2.71-1.93-5.7-3.33-8.9-4.19c-0.84-0.22-1.33-1.08-1.11-1.92c0.22-0.83,1.08-1.32,1.92-1.11
					c3.56,0.95,6.9,2.52,9.91,4.66c0.71,0.5,0.87,1.48,0.37,2.19C610.26,261.63,609.78,261.86,609.29,261.86z M579.52,259.35
					c-0.58,0-1.14-0.33-1.41-0.89c-0.38-0.78-0.05-1.72,0.73-2.09c3.32-1.6,6.87-2.59,10.55-2.93c0.88-0.08,1.63,0.56,1.71,1.42
					c0.08,0.86-0.56,1.63-1.42,1.71c-3.31,0.31-6.5,1.19-9.48,2.63C579.98,259.3,579.75,259.35,579.52,259.35z"/>
			</g>
			<g>
				<rect x="573.81" y="278.7" class="st0" width="36.45" height="20.67"/>
				<g>
					<g>
						<path class="st8" d="M605.26,277.07v-2.53c0-1.86,1.51-3.37,3.37-3.37l0,0c1.86,0,3.37,1.51,3.37,3.37v4.19h-6.74"/>
						<path class="st9" d="M605.33,274.49v21.48h-24.85v-21.48c0-1.86,1.51-3.37,3.37-3.37h24.57l-0.68,0.14
							C606.35,271.67,605.33,272.96,605.33,274.49z"/>
					</g>
					<g>
						<rect x="582.02" y="274.61" class="st8" width="5.51" height="5.66"/>
						<g>
							<g>
								<line class="st14" x1="589.22" y1="274.58" x2="603.23" y2="274.58"/>
								<line class="st14" x1="589.22" y1="276.49" x2="603.23" y2="276.49"/>
								<line class="st14" x1="589.22" y1="278.39" x2="603.23" y2="278.39"/>
								<line class="st14" x1="589.35" y1="280.3" x2="603.36" y2="280.3"/>
							</g>
							<line class="st14" x1="582.02" y1="282.18" x2="603.23" y2="282.18"/>
							<line class="st14" x1="582.02" y1="284.08" x2="603.23" y2="284.08"/>
							<line class="st14" x1="582.02" y1="285.94" x2="603.23" y2="285.94"/>
							<line class="st14" x1="582.02" y1="287.85" x2="592.33" y2="287.85"/>
						</g>
					</g>
				</g>
				<polygon class="st8" points="601.31,299.37 573.81,299.37 573.81,278.7 				"/>
				<polygon class="st8" points="582.77,299.37 610.26,299.37 610.26,278.7 				"/>
				<path class="st8" d="M610.26,299.37h-18.23h-18.23l16.37-8.74c1.12-0.77,2.59-0.77,3.71,0L610.26,299.37z"/>
			</g>
		</g>
	</g>
</g>
</svg>
