<?xml version="1.0" encoding="utf-8"?>
<!-- Generator: Adobe Illustrator 23.0.2, SVG Export Plug-In . SVG Version: 6.00 Build 0)  -->
<svg version="1.1" id="Layer_1" xmlns="http://www.w3.org/2000/svg" xmlns:xlink="http://www.w3.org/1999/xlink" x="0px" y="0px"
	 viewBox="0 0 1151 576" style="enable-background:new 0 0 1151 576;" fill="#000" opacity="0.4"  xml:space="preserve">
<path d="M1151,17v-2c-7.18,0-13,5.82-13,13c0.13,2.8,1.23,5.46,3.11,7.53l2.36,2.36c1.25,1.24,1.65,3.65,0.85,5.24l-0.43,0.84
	c-1.02,1.76-2.84,2.89-4.87,3.03H1104V11.98c-0.14-2.78-1.7-5.3-4.13-6.66l-0.84-0.43c-2.54-1.15-5.51-0.67-7.56,1.22l-2.36,2.36
	c-1.36,1.37-4.17,2.53-6.11,2.53c-6.08,0-11-4.92-11-11h-2c0,7.18,5.82,13,13,13c2.8-0.13,5.46-1.23,7.53-3.11l2.36-2.36
	c1.24-1.25,3.65-1.65,5.24-0.85l0.84,0.43c1.76,1.02,2.89,2.84,3.03,4.87V47h-35.02c-2.78,0.14-5.3,1.7-6.66,4.13l-0.43,0.84
	c-1.15,2.54-0.67,5.51,1.22,7.56l2.36,2.36c1.37,1.36,2.53,4.17,2.53,6.11c0,6.08-4.92,11-11,11s-11-4.92-11-11
	c0.13-2.26,1.02-4.42,2.53-6.11l2.36-2.36c1.89-2.04,2.37-5.02,1.22-7.56l-0.43-0.84c-1.36-2.43-3.88-3.99-6.66-4.13H1008V11.98
	c0.14-2.03,1.27-3.85,3.03-4.87l0.84-0.43c1.76-0.76,3.81-0.43,5.24,0.85l2.36,2.36c2.07,1.88,4.73,2.98,7.53,3.11
	c7.18,0,13-5.82,13-13h-2c0,6.08-4.92,11-11,11c-2.26-0.13-4.42-1.02-6.11-2.53l-2.36-2.36c-2.04-1.89-5.02-2.37-7.56-1.22
	l-0.84,0.43c-2.43,1.36-3.99,3.88-4.13,6.66V47h-35.02c-2.03-0.14-3.85-1.27-4.87-3.03l-0.43-0.84c-0.76-1.76-0.43-3.81,0.85-5.24
	l2.36-2.36c1.74-1.74,3.11-5.06,3.11-7.53c0-7.18-5.82-13-13-13s-13,5.82-13,13c0.13,2.8,1.23,5.46,3.11,7.53l2.36,2.36
	c1.25,1.24,1.65,3.65,0.85,5.24l-0.43,0.84c-1.02,1.76-2.84,2.89-4.87,3.03H912V11.98c-0.14-2.78-1.7-5.3-4.13-6.66l-0.84-0.43
	c-2.54-1.15-5.51-0.67-7.56,1.22l-2.36,2.36C895.75,9.84,892.94,11,891,11c-6.08,0-11-4.92-11-11h-2c0,7.18,5.82,13,13,13
	c2.8-0.13,5.46-1.23,7.53-3.11l2.36-2.36c1.24-1.25,3.65-1.65,5.24-0.85l0.84,0.43c1.76,1.02,2.89,2.84,3.03,4.87V47h-35.02
	c-2.78,0.14-5.3,1.7-6.66,4.13l-0.43,0.84c-1.15,2.54-0.67,5.51,1.22,7.56l2.36,2.36c1.37,1.36,2.53,4.17,2.53,6.11
	c0,6.08-4.92,11-11,11s-11-4.92-11-11c0.13-2.26,1.02-4.42,2.53-6.11l2.36-2.36c1.89-2.04,2.37-5.02,1.22-7.56l-0.43-0.84
	c-1.36-2.43-3.88-3.99-6.66-4.13H816V11.98c0.14-2.03,1.27-3.85,3.03-4.87l0.84-0.43c1.76-0.76,3.81-0.43,5.24,0.85l2.36,2.36
	c2.07,1.88,4.73,2.98,7.53,3.11c7.18,0,13-5.82,13-13h-2c0,6.08-4.92,11-11,11c-2.26-0.13-4.42-1.02-6.11-2.53l-2.36-2.36
	c-2.04-1.89-5.02-2.37-7.56-1.22l-0.84,0.43c-2.43,1.36-3.99,3.88-4.13,6.66V47h-35.02c-2.03-0.14-3.85-1.27-4.87-3.03l-0.43-0.84
	c-0.76-1.76-0.43-3.81,0.85-5.24l2.36-2.36c1.74-1.74,3.11-5.06,3.11-7.53c0-7.18-5.82-13-13-13s-13,5.82-13,13
	c0.13,2.8,1.23,5.46,3.11,7.53l2.36,2.36c1.25,1.24,1.65,3.65,0.85,5.24l-0.43,0.84c-1.02,1.76-2.84,2.89-4.87,3.03H720V11.98
	c-0.14-2.78-1.7-5.3-4.13-6.66l-0.84-0.43c-2.54-1.15-5.51-0.67-7.56,1.22l-2.36,2.36C703.75,9.84,700.94,11,699,11
	c-6.08,0-11-4.92-11-11h-2c0,7.18,5.82,13,13,13c2.8-0.13,5.46-1.23,7.53-3.11l2.36-2.36c1.24-1.25,3.65-1.65,5.24-0.85l0.84,0.43
	c1.76,1.02,2.89,2.84,3.03,4.87V47h-35.02c-2.78,0.14-5.3,1.7-6.66,4.13l-0.43,0.84c-1.15,2.54-0.67,5.51,1.22,7.56l2.36,2.36
	c1.37,1.36,2.53,4.17,2.53,6.11c0,6.08-4.92,11-11,11s-11-4.92-11-11c0.13-2.26,1.02-4.42,2.53-6.11l2.36-2.36
	c1.89-2.04,2.37-5.02,1.22-7.56l-0.43-0.84c-1.36-2.43-3.88-3.99-6.66-4.13H624V11.98c0.14-2.03,1.27-3.85,3.03-4.87l0.84-0.43
	c1.76-0.76,3.81-0.43,5.24,0.85l2.36,2.36c2.07,1.88,4.73,2.98,7.53,3.11c7.18,0,13-5.82,13-13h-2c0,6.08-4.92,11-11,11
	c-2.26-0.13-4.42-1.02-6.11-2.53l-2.36-2.36c-2.04-1.89-5.02-2.37-7.56-1.22l-0.84,0.43c-2.43,1.36-3.99,3.88-4.13,6.66V47h-35.02
	c-2.03-0.14-3.85-1.27-4.87-3.03l-0.43-0.84c-0.76-1.76-0.43-3.81,0.85-5.24l2.36-2.36c1.74-1.74,3.11-5.06,3.11-7.53
	c0-6.84-5.29-12.44-12-12.95V15c-0.17,0-0.33,0.02-0.5,0.03c-0.17-0.01-0.33-0.03-0.5-0.03v0.05c-6.71,0.51-12,6.11-12,12.95
	c0.13,2.8,1.23,5.46,3.11,7.53l2.36,2.36c1.25,1.24,1.65,3.65,0.85,5.24l-0.43,0.84c-1.02,1.76-2.84,2.89-4.87,3.03H529V11.98
	c-0.14-2.78-1.7-5.3-4.13-6.66l-0.84-0.43c-2.54-1.15-5.51-0.67-7.56,1.22l-2.36,2.36C512.75,9.84,509.94,11,508,11
	c-6.08,0-11-4.92-11-11h-2c0,7.18,5.82,13,13,13c2.8-0.13,5.46-1.23,7.53-3.11l2.36-2.36c1.24-1.25,3.65-1.65,5.24-0.85l0.84,0.43
	c1.76,1.02,2.89,2.84,3.03,4.87V47h-35.02c-2.78,0.14-5.3,1.7-6.66,4.13l-0.43,0.84c-1.15,2.54-0.67,5.51,1.22,7.56l2.36,2.36
	c1.37,1.36,2.53,4.17,2.53,6.11c0,6.08-4.92,11-11,11s-11-4.92-11-11c0.13-2.26,1.02-4.42,2.53-6.11l2.36-2.36
	c1.89-2.04,2.37-5.02,1.22-7.56l-0.43-0.84c-1.36-2.43-3.88-3.99-6.66-4.13H433V11.98c0.14-2.03,1.27-3.85,3.03-4.87l0.84-0.43
	c1.76-0.76,3.81-0.43,5.24,0.85l2.36,2.36c2.07,1.88,4.73,2.98,7.53,3.11c7.18,0,13-5.82,13-13h-2c0,6.08-4.92,11-11,11
	c-2.26-0.13-4.42-1.02-6.11-2.53l-2.36-2.36c-2.04-1.89-5.02-2.37-7.56-1.22l-0.84,0.43c-2.43,1.36-3.99,3.88-4.13,6.66V47h-35.02
	c-2.03-0.14-3.85-1.27-4.87-3.03l-0.43-0.84c-0.76-1.76-0.43-3.81,0.85-5.24l2.36-2.36c1.74-1.74,3.11-5.06,3.11-7.53
	c0-7.18-5.82-13-13-13s-13,5.82-13,13c0.13,2.8,1.23,5.46,3.11,7.53l2.36,2.36c1.25,1.24,1.65,3.65,0.85,5.24l-0.43,0.84
	c-1.02,1.76-2.84,2.89-4.87,3.03H337V11.98c-0.14-2.78-1.7-5.3-4.13-6.66l-0.84-0.43c-2.54-1.15-5.51-0.67-7.56,1.22l-2.36,2.36
	C320.75,9.84,317.94,11,316,11c-6.08,0-11-4.92-11-11h-2c0,7.18,5.82,13,13,13c2.8-0.13,5.46-1.23,7.53-3.11l2.36-2.36
	c1.24-1.25,3.65-1.65,5.24-0.85l0.84,0.43c1.76,1.02,2.89,2.84,3.03,4.87V47h-35.02c-2.78,0.14-5.3,1.7-6.66,4.13l-0.43,0.84
	c-1.15,2.54-0.67,5.51,1.22,7.56l2.36,2.36c1.37,1.36,2.53,4.17,2.53,6.11c0,6.08-4.92,11-11,11s-11-4.92-11-11
	c0.13-2.26,1.02-4.42,2.53-6.11l2.36-2.36c1.89-2.04,2.37-5.02,1.22-7.56l-0.43-0.84c-1.36-2.43-3.88-3.99-6.66-4.13H241V11.98
	c0.14-2.03,1.27-3.85,3.03-4.87l0.84-0.43c1.76-0.76,3.81-0.43,5.24,0.85l2.36,2.36c2.07,1.88,4.73,2.98,7.53,3.11
	c7.18,0,13-5.82,13-13h-2c0,6.08-4.92,11-11,11c-2.26-0.13-4.42-1.02-6.11-2.53l-2.36-2.36c-2.04-1.89-5.02-2.37-7.56-1.22
	l-0.84,0.43c-2.43,1.36-3.99,3.88-4.13,6.66V47h-35.02c-2.03-0.14-3.85-1.27-4.87-3.03l-0.43-0.84c-0.76-1.76-0.43-3.81,0.85-5.24
	l2.36-2.36c1.74-1.74,3.11-5.06,3.11-7.53c0-7.18-5.82-13-13-13s-13,5.82-13,13c0.13,2.8,1.23,5.46,3.11,7.53l2.36,2.36
	c1.25,1.24,1.65,3.65,0.85,5.24l-0.43,0.84c-1.02,1.76-2.84,2.89-4.87,3.03H145V11.98c-0.14-2.78-1.7-5.3-4.13-6.66l-0.84-0.43
	c-2.54-1.15-5.51-0.67-7.56,1.22l-2.36,2.36C128.75,9.84,125.94,11,124,11c-6.08,0-11-4.92-11-11h-2c0,7.18,5.82,13,13,13
	c2.8-0.13,5.46-1.23,7.53-3.11l2.36-2.36c1.24-1.25,3.65-1.65,5.24-0.85l0.84,0.43c1.76,1.02,2.89,2.84,3.03,4.87V47h-35.02
	c-2.78,0.14-5.3,1.7-6.66,4.13l-0.43,0.84c-1.15,2.54-0.67,5.51,1.22,7.56l2.36,2.36c1.37,1.36,2.53,4.17,2.53,6.11
	c0,6.08-4.92,11-11,11s-11-4.92-11-11c0.13-2.26,1.02-4.42,2.53-6.11l2.36-2.36c1.89-2.04,2.37-5.02,1.22-7.56l-0.43-0.84
	c-1.36-2.43-3.88-3.99-6.66-4.13H49V11.98c0.14-2.03,1.27-3.85,3.03-4.87l0.84-0.43c1.76-0.76,3.81-0.43,5.24,0.85l2.36,2.36
	C62.54,11.77,65.2,12.87,68,13c7.18,0,13-5.82,13-13h-2c0,6.08-4.92,11-11,11c-2.26-0.13-4.42-1.02-6.11-2.53l-2.36-2.36
	c-2.04-1.89-5.02-2.37-7.56-1.22l-0.84,0.43C48.7,6.68,47.14,9.2,47,11.98V47H11.98c-2.03-0.14-3.85-1.27-4.87-3.03l-0.43-0.84
	c-0.76-1.76-0.43-3.81,0.85-5.24l2.36-2.36C11.63,33.79,13,30.47,13,28c0-7.18-5.82-13-13-13v2c6.08,0,11,4.92,11,11
	c-0.13,2.26-1.02,4.42-2.53,6.11l-2.36,2.36c-1.89,2.04-2.37,5.02-1.22,7.56l0.43,0.84C6.68,47.3,9.2,48.86,11.98,49H47v35.02
	c-0.14,2.03-1.27,3.85-3.03,4.87l-0.84,0.43c-1.76,0.76-3.81,0.43-5.24-0.85l-2.36-2.36C33.79,84.37,30.47,83,28,83
	c-7.18,0-13,5.82-13,13s5.82,13,13,13c2.8-0.13,5.46-1.23,7.53-3.11l2.36-2.36c1.24-1.25,3.65-1.65,5.24-0.85l0.84,0.43
	c1.76,1.02,2.89,2.84,3.03,4.87V143H11.98c-2.78,0.14-5.3,1.7-6.66,4.13l-0.43,0.84c-1.15,2.54-0.67,5.51,1.22,7.56l2.36,2.36
	C9.84,159.25,11,162.06,11,164c0,6.08-4.92,11-11,11v2c0.01,0,0.01,0,0.02,0c7.18-0.01,12.99-5.84,12.98-13.02
	c-0.13-2.79-1.23-5.44-3.11-7.51l-2.36-2.36c-1.25-1.24-1.64-3.66-0.85-5.24l0.43-0.84c1.02-1.76,2.84-2.89,4.87-3.03H47v35.02
	c0.14,2.78,1.7,5.3,4.13,6.66l0.84,0.43c2.54,1.15,5.51,0.67,7.56-1.22l2.36-2.36c1.36-1.37,4.17-2.53,6.11-2.53
	c6.08,0,11,4.92,11,11s-4.92,11-11,11c-2.26-0.13-4.42-1.02-6.11-2.53l-2.36-2.36c-2.04-1.89-5.02-2.37-7.56-1.22l-0.84,0.43
	c-2.43,1.36-3.99,3.88-4.13,6.66V239H11.98c-2.03-0.14-3.85-1.27-4.87-3.03l-0.43-0.84c-0.76-1.76-0.43-3.81,0.85-5.24l2.36-2.36
	c1.74-1.74,3.11-5.06,3.11-7.53c0-7.18-5.82-13-13-13v2c6.08,0,11,4.92,11,11c-0.13,2.26-1.02,4.42-2.53,6.11l-2.36,2.36
	c-1.89,2.04-2.37,5.02-1.22,7.56l0.43,0.84c1.36,2.43,3.88,3.99,6.66,4.13H47v35.02c-0.14,2.03-1.27,3.85-3.03,4.87l-0.84,0.43
	c-1.76,0.76-3.81,0.43-5.24-0.85l-2.36-2.36C33.79,276.37,30.47,275,28,275c-7.18,0-13,5.82-13,13s5.82,13,13,13
	c2.8-0.13,5.46-1.23,7.53-3.11l2.36-2.36c1.24-1.25,3.65-1.65,5.24-0.85l0.84,0.43c1.76,1.02,2.89,2.84,3.03,4.87V335H11.98
	c-2.78,0.14-5.3,1.7-6.66,4.13l-0.43,0.84c-1.15,2.54-0.67,5.51,1.22,7.56l2.36,2.36C9.84,351.25,11,354.06,11,356
	c0,6.08-4.92,11-11,11v2c0.01,0,0.01,0,0.02,0c7.18-0.01,12.99-5.84,12.98-13.02c-0.13-2.79-1.23-5.44-3.11-7.51l-2.36-2.36
	c-1.25-1.24-1.64-3.66-0.85-5.24l0.43-0.84c1.02-1.76,2.84-2.89,4.87-3.03H47v35.02c0.14,2.78,1.7,5.3,4.13,6.66l0.84,0.43
	c2.54,1.15,5.51,0.67,7.56-1.22l2.36-2.36c1.36-1.37,4.17-2.53,6.11-2.53c6.08,0,11,4.92,11,11s-4.92,11-11,11
	c-2.26-0.13-4.42-1.02-6.11-2.53l-2.36-2.36c-2.04-1.89-5.02-2.37-7.56-1.22l-0.84,0.43c-2.43,1.36-3.99,3.88-4.13,6.66V431H11.98
	c-2.03-0.14-3.85-1.27-4.87-3.03l-0.43-0.84c-0.76-1.76-0.43-3.81,0.85-5.24l2.36-2.36c1.74-1.74,3.11-5.06,3.11-7.53
	c0-7.18-5.82-13-13-13v2c6.08,0,11,4.92,11,11c-0.13,2.26-1.02,4.42-2.53,6.11l-2.36,2.36c-1.89,2.04-2.37,5.02-1.22,7.56l0.43,0.84
	c1.36,2.43,3.88,3.99,6.66,4.13H47v35.02c-0.14,2.03-1.27,3.85-3.03,4.87l-0.84,0.43c-1.76,0.76-3.81,0.43-5.24-0.85l-2.36-2.36
	C33.79,468.37,30.47,467,28,467c-7.18,0-13,5.82-13,13s5.82,13,13,13c2.8-0.13,5.46-1.23,7.53-3.11l2.36-2.36
	c1.24-1.25,3.65-1.65,5.24-0.85l0.84,0.43c1.76,1.02,2.89,2.84,3.03,4.87V527H11.98c-2.78,0.14-5.3,1.7-6.66,4.13l-0.43,0.84
	c-1.15,2.54-0.67,5.51,1.22,7.56l2.36,2.36C9.84,543.25,11,546.06,11,548c0,6.08-4.92,11-11,11v2c0.01,0,0.01,0,0.02,0
	c7.18-0.01,12.99-5.84,12.98-13.02c-0.13-2.79-1.23-5.44-3.11-7.51l-2.36-2.36c-1.25-1.24-1.64-3.66-0.85-5.24l0.43-0.84
	c1.02-1.76,2.84-2.89,4.87-3.03H47v35.02c0.14,2.78,1.7,5.3,4.13,6.66l0.84,0.43c2.54,1.15,5.51,0.67,7.56-1.22l2.36-2.36
	c1.36-1.37,4.17-2.53,6.11-2.53c6.08,0,11,4.92,11,11h2c0-0.01,0-0.01,0-0.02c-0.01-7.18-5.84-12.99-13.02-12.98
	c-2.79,0.13-5.44,1.23-7.51,3.11l-2.36,2.36c-1.24,1.25-3.66,1.64-5.24,0.85l-0.84-0.43c-1.76-1.02-2.89-2.84-3.03-4.87V529h35.02
	c2.78-0.14,5.3-1.7,6.66-4.13l0.43-0.84c1.15-2.54,0.67-5.51-1.22-7.56l-2.36-2.36C86.16,512.75,85,509.94,85,508
	c0-6.08,4.92-11,11-11s11,4.92,11,11c-0.13,2.26-1.02,4.42-2.53,6.11l-2.36,2.36c-1.89,2.04-2.37,5.02-1.22,7.56l0.43,0.84
	c1.36,2.43,3.88,3.99,6.66,4.13H143v35.02c-0.14,2.03-1.27,3.85-3.03,4.87l-0.84,0.43c-1.76,0.76-3.81,0.43-5.24-0.85l-2.36-2.36
	c-1.74-1.74-5.06-3.11-7.53-3.11c-7.18,0-13,5.82-13,13h2c0-6.08,4.92-11,11-11c2.26,0.13,4.42,1.02,6.11,2.53l2.36,2.36
	c2.04,1.89,5.02,2.37,7.56,1.22l0.84-0.43c2.43-1.36,3.99-3.88,4.13-6.66V529h35.02c2.03,0.14,3.85,1.27,4.87,3.03l0.43,0.84
	c0.76,1.76,0.43,3.81-0.85,5.24l-2.36,2.36c-1.88,2.07-2.98,4.73-3.11,7.53c0,7.18,5.82,13,13,13c0.01,0,0.01,0,0.02,0
	c7.18-0.01,12.99-5.84,12.98-13.02c-0.13-2.79-1.23-5.44-3.11-7.51l-2.36-2.36c-1.25-1.24-1.64-3.66-0.85-5.24l0.43-0.84
	c1.02-1.76,2.84-2.89,4.87-3.03H239v35.02c0.14,2.78,1.7,5.3,4.13,6.66l0.84,0.43c2.54,1.15,5.51,0.67,7.56-1.22l2.36-2.36
	c1.36-1.37,4.17-2.53,6.11-2.53c6.08,0,11,4.92,11,11h2c0-0.01,0-0.01,0-0.02c-0.01-7.18-5.84-12.99-13.02-12.98
	c-2.79,0.13-5.44,1.23-7.51,3.11l-2.36,2.36c-1.24,1.25-3.66,1.64-5.24,0.85l-0.84-0.43c-1.76-1.02-2.89-2.84-3.03-4.87V529h35.02
	c2.78-0.14,5.3-1.7,6.66-4.13l0.43-0.84c1.15-2.54,0.67-5.51-1.22-7.56l-2.36-2.36c-1.37-1.36-2.53-4.17-2.53-6.11
	c0-6.08,4.92-11,11-11s11,4.92,11,11c-0.13,2.26-1.02,4.42-2.53,6.11l-2.36,2.36c-1.89,2.04-2.37,5.02-1.22,7.56l0.43,0.84
	c1.36,2.43,3.88,3.99,6.66,4.13H335v35.02c-0.14,2.03-1.27,3.85-3.03,4.87l-0.84,0.43c-1.76,0.76-3.81,0.43-5.24-0.85l-2.36-2.36
	c-1.74-1.74-5.06-3.11-7.53-3.11c-7.18,0-13,5.82-13,13h2c0-6.08,4.92-11,11-11c2.26,0.13,4.42,1.02,6.11,2.53l2.36,2.36
	c2.04,1.89,5.02,2.37,7.56,1.22l0.84-0.43c2.43-1.36,3.99-3.88,4.13-6.66V529h35.02c2.03,0.14,3.85,1.27,4.87,3.03l0.43,0.84
	c0.76,1.76,0.43,3.81-0.85,5.24l-2.36,2.36c-1.88,2.07-2.98,4.73-3.11,7.53c0,7.18,5.82,13,13,13c0.01,0,0.01,0,0.02,0
	c7.18-0.01,12.99-5.84,12.98-13.02c-0.13-2.79-1.23-5.44-3.11-7.51l-2.36-2.36c-1.25-1.24-1.64-3.66-0.85-5.24l0.43-0.84
	c1.02-1.76,2.84-2.89,4.87-3.03H431v35.02c0.14,2.78,1.7,5.3,4.13,6.66l0.84,0.43c2.54,1.15,5.51,0.67,7.56-1.22l2.36-2.36
	c1.36-1.37,4.17-2.53,6.11-2.53c6.08,0,11,4.92,11,11h2c0-0.01,0-0.01,0-0.02c-0.01-7.18-5.84-12.99-13.02-12.98
	c-2.79,0.13-5.44,1.23-7.51,3.11l-2.36,2.36c-1.24,1.25-3.66,1.64-5.24,0.85l-0.84-0.43c-1.76-1.02-2.89-2.84-3.03-4.87V529h35.02
	c2.78-0.14,5.3-1.7,6.66-4.13l0.43-0.84c1.15-2.54,0.67-5.51-1.22-7.56l-2.36-2.36c-1.37-1.36-2.53-4.17-2.53-6.11
	c0-6.08,4.92-11,11-11s11,4.92,11,11c-0.13,2.26-1.02,4.42-2.53,6.11l-2.36,2.36c-1.89,2.04-2.37,5.02-1.22,7.56l0.43,0.84
	c1.36,2.43,3.88,3.99,6.66,4.13H527v35.02c-0.14,2.03-1.27,3.85-3.03,4.87l-0.84,0.43c-1.76,0.76-3.81,0.43-5.24-0.85l-2.36-2.36
	c-1.74-1.74-5.06-3.11-7.53-3.11c-7.18,0-13,5.82-13,13h2c0-6.08,4.92-11,11-11c2.26,0.13,4.42,1.02,6.11,2.53l2.36,2.36
	c2.04,1.89,5.02,2.37,7.56,1.22l0.84-0.43c2.43-1.36,3.99-3.88,4.13-6.66V529h35.02c2.03,0.14,3.85,1.27,4.87,3.03l0.43,0.84
	c0.76,1.76,0.43,3.81-0.85,5.24l-2.36,2.36c-1.88,2.07-2.98,4.73-3.11,7.53c0,6.84,5.29,12.44,12,12.95V561c0.01,0,0.01,0,0.02,0
	c0.16,0,0.32-0.02,0.48-0.03c0.17,0.01,0.33,0.03,0.5,0.03v-0.05c6.72-0.51,12.01-6.12,12-12.97c-0.13-2.79-1.23-5.44-3.11-7.51
	l-2.36-2.36c-1.25-1.24-1.64-3.66-0.85-5.24l0.43-0.84c1.02-1.76,2.84-2.89,4.87-3.03H622v35.02c0.14,2.78,1.7,5.3,4.13,6.66
	l0.84,0.43c2.54,1.15,5.51,0.67,7.56-1.22l2.36-2.36c1.36-1.37,4.17-2.53,6.11-2.53c6.08,0,11,4.92,11,11h2c0-0.01,0-0.01,0-0.02
	c-0.01-7.18-5.84-12.99-13.02-12.98c-2.79,0.13-5.44,1.23-7.51,3.11l-2.36,2.36c-1.24,1.25-3.66,1.64-5.24,0.85l-0.84-0.43
	c-1.76-1.02-2.89-2.84-3.03-4.87V529h35.02c2.78-0.14,5.3-1.7,6.66-4.13l0.43-0.84c1.15-2.54,0.67-5.51-1.22-7.56l-2.36-2.36
	c-1.37-1.36-2.53-4.17-2.53-6.11c0-6.08,4.92-11,11-11s11,4.92,11,11c-0.13,2.26-1.02,4.42-2.53,6.11l-2.36,2.36
	c-1.89,2.04-2.37,5.02-1.22,7.56l0.43,0.84c1.36,2.43,3.88,3.99,6.66,4.13H718v35.02c-0.14,2.03-1.27,3.85-3.03,4.87l-0.84,0.43
	c-1.76,0.76-3.81,0.43-5.24-0.85l-2.36-2.36c-1.74-1.74-5.06-3.11-7.53-3.11c-7.18,0-13,5.82-13,13h2c0-6.08,4.92-11,11-11
	c2.26,0.13,4.42,1.02,6.11,2.53l2.36,2.36c2.04,1.89,5.02,2.37,7.56,1.22l0.84-0.43c2.43-1.36,3.99-3.88,4.13-6.66V529h35.02
	c2.03,0.14,3.85,1.27,4.87,3.03l0.43,0.84c0.76,1.76,0.43,3.81-0.85,5.24l-2.36,2.36c-1.88,2.07-2.98,4.73-3.11,7.53
	c0,7.18,5.82,13,13,13c0.01,0,0.01,0,0.02,0c7.18-0.01,12.99-5.84,12.98-13.02c-0.13-2.79-1.23-5.44-3.11-7.51l-2.36-2.36
	c-1.25-1.24-1.64-3.66-0.85-5.24l0.43-0.84c1.02-1.76,2.84-2.89,4.87-3.03H814v35.02c0.14,2.78,1.7,5.3,4.13,6.66l0.84,0.43
	c2.54,1.15,5.51,0.67,7.56-1.22l2.36-2.36c1.36-1.37,4.17-2.53,6.11-2.53c6.08,0,11,4.92,11,11h2c0-0.01,0-0.01,0-0.02
	c-0.01-7.18-5.84-12.99-13.02-12.98c-2.79,0.13-5.44,1.23-7.51,3.11l-2.36,2.36c-1.24,1.25-3.66,1.64-5.24,0.85l-0.84-0.43
	c-1.76-1.02-2.89-2.84-3.03-4.87V529h35.02c2.78-0.14,5.3-1.7,6.66-4.13l0.43-0.84c1.15-2.54,0.67-5.51-1.22-7.56l-2.36-2.36
	c-1.37-1.36-2.53-4.17-2.53-6.11c0-6.08,4.92-11,11-11s11,4.92,11,11c-0.13,2.26-1.02,4.42-2.53,6.11l-2.36,2.36
	c-1.89,2.04-2.37,5.02-1.22,7.56l0.43,0.84c1.36,2.43,3.88,3.99,6.66,4.13H910v35.02c-0.14,2.03-1.27,3.85-3.03,4.87l-0.84,0.43
	c-1.76,0.76-3.81,0.43-5.24-0.85l-2.36-2.36c-1.74-1.74-5.06-3.11-7.53-3.11c-7.18,0-13,5.82-13,13h2c0-6.08,4.92-11,11-11
	c2.26,0.13,4.42,1.02,6.11,2.53l2.36,2.36c2.04,1.89,5.02,2.37,7.56,1.22l0.84-0.43c2.43-1.36,3.99-3.88,4.13-6.66V529h35.02
	c2.03,0.14,3.85,1.27,4.87,3.03l0.43,0.84c0.76,1.76,0.43,3.81-0.85,5.24l-2.36,2.36c-1.88,2.07-2.98,4.73-3.11,7.53
	c0,7.18,5.82,13,13,13c0.01,0,0.01,0,0.02,0c7.18-0.01,12.99-5.84,12.98-13.02c-0.13-2.79-1.23-5.44-3.11-7.51l-2.36-2.36
	c-1.25-1.24-1.64-3.66-0.85-5.24l0.43-0.84c1.02-1.76,2.84-2.89,4.87-3.03H1006v35.02c0.14,2.78,1.7,5.3,4.13,6.66l0.84,0.43
	c2.54,1.15,5.51,0.67,7.56-1.22l2.36-2.36c1.36-1.37,4.17-2.53,6.11-2.53c6.08,0,11,4.92,11,11h2c0-0.01,0-0.01,0-0.02
	c-0.01-7.18-5.84-12.99-13.02-12.98c-2.79,0.13-5.44,1.23-7.51,3.11l-2.36,2.36c-1.24,1.25-3.66,1.64-5.24,0.85l-0.84-0.43
	c-1.76-1.02-2.89-2.84-3.03-4.87V529h35.02c2.78-0.14,5.3-1.7,6.66-4.13l0.43-0.84c1.15-2.54,0.67-5.51-1.22-7.56l-2.36-2.36
	c-1.37-1.36-2.53-4.17-2.53-6.11c0-6.08,4.92-11,11-11s11,4.92,11,11c-0.13,2.26-1.02,4.42-2.53,6.11l-2.36,2.36
	c-1.89,2.04-2.37,5.02-1.22,7.56l0.43,0.84c1.36,2.43,3.88,3.99,6.66,4.13H1102v35.02c-0.14,2.03-1.27,3.85-3.03,4.87l-0.84,0.43
	c-1.76,0.76-3.81,0.43-5.24-0.85l-2.36-2.36c-1.74-1.74-5.06-3.11-7.53-3.11c-7.18,0-13,5.82-13,13h2c0-6.08,4.92-11,11-11
	c2.26,0.13,4.42,1.02,6.11,2.53l2.36,2.36c2.04,1.89,5.02,2.37,7.56,1.22l0.84-0.43c2.43-1.36,3.99-3.88,4.13-6.66V529h35.02
	c2.03,0.14,3.85,1.27,4.87,3.03l0.43,0.84c0.76,1.76,0.43,3.81-0.85,5.24l-2.36,2.36c-1.88,2.07-2.98,4.73-3.11,7.53
	c0,7.18,5.82,13,13,13v-2c-6.08,0-11-4.92-11-11c0.13-2.26,1.02-4.42,2.53-6.11l2.36-2.36c1.89-2.04,2.37-5.02,1.22-7.56l-0.43-0.84
	c-1.36-2.43-3.88-3.99-6.66-4.13H1104v-35.02c0.14-2.03,1.27-3.85,3.03-4.87l0.84-0.43c1.76-0.76,3.81-0.43,5.24,0.85l2.36,2.36
	c2.07,1.88,4.73,2.98,7.53,3.11c7.18-0.01,13-5.83,12.99-13.01c-0.01-7.18-5.83-13-13.01-12.99c-2.79,0.13-5.44,1.23-7.51,3.11
	l-2.36,2.36c-1.24,1.25-3.66,1.64-5.24,0.85l-0.84-0.43c-1.76-1.02-2.89-2.84-3.03-4.87V433h35.02c2.78-0.14,5.3-1.7,6.66-4.13
	l0.43-0.84c1.15-2.54,0.67-5.51-1.22-7.56l-2.36-2.36c-1.37-1.36-2.53-4.17-2.53-6.11c0-6.08,4.92-11,11-11v-2
	c-7.18,0-13,5.82-13,13c0.13,2.8,1.23,5.46,3.11,7.53l2.36,2.36c1.25,1.24,1.65,3.65,0.85,5.24l-0.43,0.84
	c-1.02,1.76-2.84,2.89-4.87,3.03H1104v-35.02c-0.14-2.78-1.7-5.3-4.13-6.66l-0.84-0.43c-2.54-1.15-5.51-0.67-7.56,1.22l-2.36,2.36
	c-1.36,1.37-4.17,2.53-6.11,2.53c-6.08,0-11-4.92-11-11s4.92-11,11-11c2.26,0.13,4.42,1.02,6.11,2.53l2.36,2.36
	c2.04,1.89,5.02,2.37,7.56,1.22l0.84-0.43c2.43-1.36,3.99-3.88,4.13-6.66V337h35.02c2.03,0.14,3.85,1.27,4.87,3.03l0.43,0.84
	c0.76,1.76,0.43,3.81-0.85,5.24l-2.36,2.36c-1.88,2.07-2.98,4.73-3.11,7.53c0,7.18,5.82,13,13,13v-2c-6.08,0-11-4.92-11-11
	c0.13-2.26,1.02-4.42,2.53-6.11l2.36-2.36c1.89-2.04,2.37-5.02,1.22-7.56l-0.43-0.84c-1.36-2.43-3.88-3.99-6.66-4.13H1104v-35.02
	c0.14-2.03,1.27-3.85,3.03-4.87l0.84-0.43c1.76-0.76,3.81-0.43,5.24,0.85l2.36,2.36c2.07,1.88,4.73,2.98,7.53,3.11
	c7.18-0.01,13-5.83,12.99-13.01c-0.01-7.18-5.83-13-13.01-12.99c-2.79,0.13-5.44,1.23-7.51,3.11l-2.36,2.36
	c-1.24,1.25-3.66,1.64-5.24,0.85l-0.84-0.43c-1.76-1.02-2.89-2.84-3.03-4.87V241h35.02c2.78-0.14,5.3-1.7,6.66-4.13l0.43-0.84
	c1.15-2.54,0.67-5.51-1.22-7.56l-2.36-2.36c-1.37-1.36-2.53-4.17-2.53-6.11c0-6.08,4.92-11,11-11v-2c-7.18,0-13,5.82-13,13
	c0.13,2.8,1.23,5.46,3.11,7.53l2.36,2.36c1.25,1.24,1.65,3.65,0.85,5.24l-0.43,0.84c-1.02,1.76-2.84,2.89-4.87,3.03H1104v-35.02
	c-0.14-2.78-1.7-5.3-4.13-6.66l-0.84-0.43c-2.54-1.15-5.51-0.67-7.56,1.22l-2.36,2.36c-1.36,1.37-4.17,2.53-6.11,2.53
	c-6.08,0-11-4.92-11-11s4.92-11,11-11c2.26,0.13,4.42,1.02,6.11,2.53l2.36,2.36c2.04,1.89,5.02,2.37,7.56,1.22l0.84-0.43
	c2.43-1.36,3.99-3.88,4.13-6.66V145h35.02c2.03,0.14,3.85,1.27,4.87,3.03l0.43,0.84c0.76,1.76,0.43,3.81-0.85,5.24l-2.36,2.36
	c-1.88,2.07-2.98,4.73-3.11,7.53c0,7.18,5.82,13,13,13v-2c-6.08,0-11-4.92-11-11c0.13-2.26,1.02-4.42,2.53-6.11l2.36-2.36
	c1.89-2.04,2.37-5.02,1.22-7.56l-0.43-0.84c-1.36-2.43-3.88-3.99-6.66-4.13H1104v-35.02c0.14-2.03,1.27-3.85,3.03-4.87l0.84-0.43
	c1.76-0.76,3.81-0.43,5.24,0.85l2.36,2.36c2.07,1.88,4.73,2.98,7.53,3.11c7.18-0.01,13-5.83,12.99-13.01
	c-0.01-7.18-5.83-13-13.01-12.99c-2.79,0.13-5.44,1.23-7.51,3.11l-2.36,2.36c-1.24,1.25-3.66,1.64-5.24,0.85l-0.84-0.43
	c-1.76-1.02-2.89-2.84-3.03-4.87V49h35.02c2.78-0.14,5.3-1.7,6.66-4.13l0.43-0.84c1.15-2.54,0.67-5.51-1.22-7.56l-2.36-2.36
	c-1.37-1.36-2.53-4.17-2.53-6.11C1140,21.92,1144.92,17,1151,17z M912,49h35.02c2.78-0.14,5.3-1.7,6.66-4.13l0.43-0.84
	c1.15-2.54,0.67-5.51-1.22-7.56l-2.36-2.36C949.16,32.75,948,29.94,948,28c0-6.08,4.92-11,11-11s11,4.92,11,11
	c-0.13,2.26-1.02,4.42-2.53,6.11l-2.36,2.36c-1.89,2.04-2.37,5.02-1.22,7.56l0.43,0.84c1.36,2.43,3.88,3.99,6.66,4.13H1006v35.02
	c-0.14,2.03-1.27,3.85-3.03,4.87l-0.84,0.43c-1.76,0.76-3.81,0.43-5.24-0.85l-2.36-2.36C992.79,84.37,989.47,83,987,83
	c-7.18,0-13,5.82-13,13s5.82,13,13,13c2.8-0.13,5.46-1.23,7.53-3.11l2.36-2.36c1.24-1.25,3.65-1.65,5.24-0.85l0.84,0.43
	c1.76,1.02,2.89,2.84,3.03,4.87V143h-35.02c-2.78,0.14-5.3,1.7-6.66,4.13l-0.43,0.84c-1.15,2.54-0.67,5.51,1.22,7.56l2.36,2.36
	c1.37,1.36,2.53,4.17,2.53,6.11c0,6.08-4.92,11-11,11s-11-4.92-11-11c0.13-2.26,1.02-4.42,2.53-6.11l2.36-2.36
	c1.89-2.04,2.37-5.02,1.22-7.56l-0.43-0.84c-1.36-2.43-3.88-3.99-6.66-4.13H912v-35.02c0.14-2.03,1.27-3.85,3.03-4.87l0.84-0.43
	c1.76-0.76,3.81-0.43,5.24,0.85l2.36,2.36c2.07,1.88,4.73,2.98,7.53,3.11c7.18-0.01,13-5.83,12.99-13.01
	c-0.01-7.18-5.83-13-13.01-12.99c-2.79,0.13-5.44,1.23-7.51,3.11l-2.36,2.36c-1.24,1.25-3.66,1.64-5.24,0.85l-0.84-0.43
	c-1.76-1.02-2.89-2.84-3.03-4.87V49z M907.87,389.32l-0.84-0.43c-2.54-1.15-5.51-0.67-7.56,1.22l-2.36,2.36
	c-1.36,1.37-4.17,2.53-6.11,2.53c-6.08,0-11-4.92-11-11s4.92-11,11-11c2.26,0.13,4.42,1.02,6.11,2.53l2.36,2.36
	c2.04,1.89,5.02,2.37,7.56,1.22l0.84-0.43c2.43-1.36,3.99-3.88,4.13-6.66V337h35.02c2.03,0.14,3.85,1.27,4.87,3.03l0.43,0.84
	c0.76,1.76,0.43,3.81-0.85,5.24l-2.36,2.36c-1.88,2.07-2.98,4.73-3.11,7.53c0,7.18,5.82,13,13,13c0.01,0,0.01,0,0.02,0
	c7.18-0.01,12.99-5.84,12.98-13.02c-0.13-2.79-1.23-5.44-3.11-7.51l-2.36-2.36c-1.25-1.24-1.64-3.66-0.85-5.24l0.43-0.84
	c1.02-1.76,2.84-2.89,4.87-3.03H1006v35.02c0.14,2.78,1.7,5.3,4.13,6.66l0.84,0.43c2.54,1.15,5.51,0.67,7.56-1.22l2.36-2.36
	c1.36-1.37,4.17-2.53,6.11-2.53c6.08,0,11,4.92,11,11s-4.92,11-11,11c-2.26-0.13-4.42-1.02-6.11-2.53l-2.36-2.36
	c-2.04-1.89-5.02-2.37-7.56-1.22l-0.84,0.43c-2.43,1.36-3.99,3.88-4.13,6.66V431h-35.02c-2.03-0.14-3.85-1.27-4.87-3.03l-0.43-0.84
	c-0.76-1.76-0.43-3.81,0.85-5.24l2.36-2.36c1.74-1.74,3.11-5.06,3.11-7.53c0-7.18-5.82-13-13-13s-13,5.82-13,13
	c0.13,2.8,1.23,5.46,3.11,7.53l2.36,2.36c1.25,1.24,1.65,3.65,0.85,5.24l-0.43,0.84c-1.02,1.76-2.84,2.89-4.87,3.03H912v-35.02
	C911.86,393.2,910.3,390.68,907.87,389.32z M869.11,443.53l2.36,2.36c1.37,1.36,2.53,4.17,2.53,6.11c0,6.08-4.92,11-11,11
	s-11-4.92-11-11c0.13-2.26,1.02-4.42,2.53-6.11l2.36-2.36c1.89-2.04,2.37-5.02,1.22-7.56l-0.43-0.84c-1.36-2.43-3.88-3.99-6.66-4.13
	H816v-35.02c0.14-2.03,1.27-3.85,3.03-4.87l0.84-0.43c1.76-0.76,3.81-0.43,5.24,0.85l2.36,2.36c2.07,1.88,4.73,2.98,7.53,3.11
	c7.18,0,13-5.82,13-13c0-0.01,0-0.01,0-0.02c-0.01-7.18-5.84-12.99-13.02-12.98c-2.79,0.13-5.44,1.23-7.51,3.11l-2.36,2.36
	c-1.24,1.25-3.66,1.64-5.24,0.85l-0.84-0.43c-1.76-1.02-2.89-2.84-3.03-4.87V337h35.02c2.78-0.14,5.3-1.7,6.66-4.13l0.43-0.84
	c1.15-2.54,0.67-5.51-1.22-7.56l-2.36-2.36c-1.37-1.36-2.53-4.17-2.53-6.11c0-6.08,4.92-11,11-11s11,4.92,11,11
	c-0.13,2.26-1.02,4.42-2.53,6.11l-2.36,2.36c-1.89,2.04-2.37,5.02-1.22,7.56l0.43,0.84c1.36,2.43,3.88,3.99,6.66,4.13H910v35.02
	c-0.14,2.03-1.27,3.85-3.03,4.87l-0.84,0.43c-1.76,0.76-3.81,0.43-5.24-0.85l-2.36-2.36c-1.74-1.74-5.06-3.11-7.53-3.11
	c-7.18,0-13,5.82-13,13s5.82,13,13,13c2.8-0.13,5.46-1.23,7.53-3.11l2.36-2.36c1.24-1.25,3.65-1.65,5.24-0.85l0.84,0.43
	c1.76,1.02,2.89,2.84,3.03,4.87V431h-35.02c-2.78,0.14-5.3,1.7-6.66,4.13l-0.43,0.84C866.74,438.51,867.22,441.48,869.11,443.53z
	 M715.87,389.32l-0.84-0.43c-2.54-1.15-5.51-0.67-7.56,1.22l-2.36,2.36c-1.36,1.37-4.17,2.53-6.11,2.53c-6.08,0-11-4.92-11-11
	s4.92-11,11-11c2.26,0.13,4.42,1.02,6.11,2.53l2.36,2.36c2.04,1.89,5.02,2.37,7.56,1.22l0.84-0.43c2.43-1.36,3.99-3.88,4.13-6.66
	V337h35.02c2.03,0.14,3.85,1.27,4.87,3.03l0.43,0.84c0.76,1.76,0.43,3.81-0.85,5.24l-2.36,2.36c-1.88,2.07-2.98,4.73-3.11,7.53
	c0,7.18,5.82,13,13,13c0.01,0,0.01,0,0.02,0c7.18-0.01,12.99-5.84,12.98-13.02c-0.13-2.79-1.23-5.44-3.11-7.51l-2.36-2.36
	c-1.25-1.24-1.64-3.66-0.85-5.24l0.43-0.84c1.02-1.76,2.84-2.89,4.87-3.03H814v35.02c0.14,2.78,1.7,5.3,4.13,6.66l0.84,0.43
	c2.54,1.15,5.51,0.67,7.56-1.22l2.36-2.36c1.36-1.37,4.17-2.53,6.11-2.53c6.08,0,11,4.92,11,11s-4.92,11-11,11
	c-2.26-0.13-4.42-1.02-6.11-2.53l-2.36-2.36c-2.04-1.89-5.02-2.37-7.56-1.22l-0.84,0.43c-2.43,1.36-3.99,3.88-4.13,6.66V431h-35.02
	c-2.03-0.14-3.85-1.27-4.87-3.03l-0.43-0.84c-0.76-1.76-0.43-3.81,0.85-5.24l2.36-2.36c1.74-1.74,3.11-5.06,3.11-7.53
	c0-7.18-5.82-13-13-13s-13,5.82-13,13c0.13,2.8,1.23,5.46,3.11,7.53l2.36,2.36c1.25,1.24,1.65,3.65,0.85,5.24l-0.43,0.84
	c-1.02,1.76-2.84,2.89-4.87,3.03H720v-35.02C719.86,393.2,718.3,390.68,715.87,389.32z M677.11,443.53l2.36,2.36
	c1.37,1.36,2.53,4.17,2.53,6.11c0,6.08-4.92,11-11,11s-11-4.92-11-11c0.13-2.26,1.02-4.42,2.53-6.11l2.36-2.36
	c1.89-2.04,2.37-5.02,1.22-7.56l-0.43-0.84c-1.36-2.43-3.88-3.99-6.66-4.13H624v-35.02c0.14-2.03,1.27-3.85,3.03-4.87l0.84-0.43
	c1.76-0.76,3.81-0.43,5.24,0.85l2.36,2.36c2.07,1.88,4.73,2.98,7.53,3.11c7.18,0,13-5.82,13-13c0-0.01,0-0.01,0-0.02
	c-0.01-7.18-5.84-12.99-13.02-12.98c-2.79,0.13-5.44,1.23-7.51,3.11l-2.36,2.36c-1.24,1.25-3.66,1.64-5.24,0.85l-0.84-0.43
	c-1.76-1.02-2.89-2.84-3.03-4.87V337h35.02c2.78-0.14,5.3-1.7,6.66-4.13l0.43-0.84c1.15-2.54,0.67-5.51-1.22-7.56l-2.36-2.36
	c-1.37-1.36-2.53-4.17-2.53-6.11c0-6.08,4.92-11,11-11s11,4.92,11,11c-0.13,2.26-1.02,4.42-2.53,6.11l-2.36,2.36
	c-1.89,2.04-2.37,5.02-1.22,7.56l0.43,0.84c1.36,2.43,3.88,3.99,6.66,4.13H718v35.02c-0.14,2.03-1.27,3.85-3.03,4.87l-0.84,0.43
	c-1.76,0.76-3.81,0.43-5.24-0.85l-2.36-2.36c-1.74-1.74-5.06-3.11-7.53-3.11c-7.18,0-13,5.82-13,13s5.82,13,13,13
	c2.8-0.13,5.46-1.23,7.53-3.11l2.36-2.36c1.24-1.25,3.65-1.65,5.24-0.85l0.84,0.43c1.76,1.02,2.89,2.84,3.03,4.87V431h-35.02
	c-2.78,0.14-5.3,1.7-6.66,4.13l-0.43,0.84C674.74,438.51,675.22,441.48,677.11,443.53z M575.5,399.03c-0.17-0.01-0.33-0.03-0.5-0.03
	v0.05c-6.71,0.51-12,6.11-12,12.95c0.13,2.8,1.23,5.46,3.11,7.53l2.36,2.36c1.25,1.24,1.65,3.65,0.85,5.24l-0.43,0.84
	c-1.02,1.76-2.84,2.89-4.87,3.03H529v-35.02c-0.14-2.78-1.7-5.3-4.13-6.66l-0.84-0.43c-2.54-1.15-5.51-0.67-7.56,1.22l-2.36,2.36
	c-1.36,1.37-4.17,2.53-6.11,2.53c-6.08,0-11-4.92-11-11s4.92-11,11-11c2.26,0.13,4.42,1.02,6.11,2.53l2.36,2.36
	c2.04,1.89,5.02,2.37,7.56,1.22l0.84-0.43c2.43-1.36,3.99-3.88,4.13-6.66V337h35.02c2.03,0.14,3.85,1.27,4.87,3.03l0.43,0.84
	c0.76,1.76,0.43,3.81-0.85,5.24l-2.36,2.36c-1.88,2.07-2.98,4.73-3.11,7.53c0,6.84,5.29,12.44,12,12.95V369c0.01,0,0.01,0,0.02,0
	c0.16,0,0.32-0.02,0.48-0.03c0.17,0.01,0.33,0.03,0.5,0.03v-0.05c6.72-0.51,12.01-6.12,12-12.97c-0.13-2.79-1.23-5.44-3.11-7.51
	l-2.36-2.36c-1.25-1.24-1.64-3.66-0.85-5.24l0.43-0.84c1.02-1.76,2.84-2.89,4.87-3.03H622v35.02c0.14,2.78,1.7,5.3,4.13,6.66
	l0.84,0.43c2.54,1.15,5.51,0.67,7.56-1.22l2.36-2.36c1.36-1.37,4.17-2.53,6.11-2.53c6.08,0,11,4.92,11,11s-4.92,11-11,11
	c-2.26-0.13-4.42-1.02-6.11-2.53l-2.36-2.36c-2.04-1.89-5.02-2.37-7.56-1.22l-0.84,0.43c-2.43,1.36-3.99,3.88-4.13,6.66V431h-35.02
	c-2.03-0.14-3.85-1.27-4.87-3.03l-0.43-0.84c-0.76-1.76-0.43-3.81,0.85-5.24l2.36-2.36c1.74-1.74,3.11-5.06,3.11-7.53
	c0-6.84-5.29-12.44-12-12.95V399C575.83,399,575.67,399.02,575.5,399.03z M486.11,443.53l2.36,2.36c1.37,1.36,2.53,4.17,2.53,6.11
	c0,6.08-4.92,11-11,11s-11-4.92-11-11c0.13-2.26,1.02-4.42,2.53-6.11l2.36-2.36c1.89-2.04,2.37-5.02,1.22-7.56l-0.43-0.84
	c-1.36-2.43-3.88-3.99-6.66-4.13H433v-35.02c0.14-2.03,1.27-3.85,3.03-4.87l0.84-0.43c1.76-0.76,3.81-0.43,5.24,0.85l2.36,2.36
	c2.07,1.88,4.73,2.98,7.53,3.11c7.18,0,13-5.82,13-13c0-0.01,0-0.01,0-0.02c-0.01-7.18-5.84-12.99-13.02-12.98
	c-2.79,0.13-5.44,1.23-7.51,3.11l-2.36,2.36c-1.24,1.25-3.66,1.64-5.24,0.85l-0.84-0.43c-1.76-1.02-2.89-2.84-3.03-4.87V337h35.02
	c2.78-0.14,5.3-1.7,6.66-4.13l0.43-0.84c1.15-2.54,0.67-5.51-1.22-7.56l-2.36-2.36c-1.37-1.36-2.53-4.17-2.53-6.11
	c0-6.08,4.92-11,11-11s11,4.92,11,11c-0.13,2.26-1.02,4.42-2.53,6.11l-2.36,2.36c-1.89,2.04-2.37,5.02-1.22,7.56l0.43,0.84
	c1.36,2.43,3.88,3.99,6.66,4.13H527v35.02c-0.14,2.03-1.27,3.85-3.03,4.87l-0.84,0.43c-1.76,0.76-3.81,0.43-5.24-0.85l-2.36-2.36
	c-1.74-1.74-5.06-3.11-7.53-3.11c-7.18,0-13,5.82-13,13s5.82,13,13,13c2.8-0.13,5.46-1.23,7.53-3.11l2.36-2.36
	c1.24-1.25,3.65-1.65,5.24-0.85l0.84,0.43c1.76,1.02,2.89,2.84,3.03,4.87V431h-35.02c-2.78,0.14-5.3,1.7-6.66,4.13l-0.43,0.84
	C483.74,438.51,484.22,441.48,486.11,443.53z M332.87,389.32l-0.84-0.43c-2.54-1.15-5.51-0.67-7.56,1.22l-2.36,2.36
	c-1.36,1.37-4.17,2.53-6.11,2.53c-6.08,0-11-4.92-11-11s4.92-11,11-11c2.26,0.13,4.42,1.02,6.11,2.53l2.36,2.36
	c2.04,1.89,5.02,2.37,7.56,1.22l0.84-0.43c2.43-1.36,3.99-3.88,4.13-6.66V337h35.02c2.03,0.14,3.85,1.27,4.87,3.03l0.43,0.84
	c0.76,1.76,0.43,3.81-0.85,5.24l-2.36,2.36c-1.88,2.07-2.98,4.73-3.11,7.53c0,7.18,5.82,13,13,13c0.01,0,0.01,0,0.02,0
	c7.18-0.01,12.99-5.84,12.98-13.02c-0.13-2.79-1.23-5.44-3.11-7.51l-2.36-2.36c-1.25-1.24-1.64-3.66-0.85-5.24l0.43-0.84
	c1.02-1.76,2.84-2.89,4.87-3.03H431v35.02c0.14,2.78,1.7,5.3,4.13,6.66l0.84,0.43c2.54,1.15,5.51,0.67,7.56-1.22l2.36-2.36
	c1.36-1.37,4.17-2.53,6.11-2.53c6.08,0,11,4.92,11,11s-4.92,11-11,11c-2.26-0.13-4.42-1.02-6.11-2.53l-2.36-2.36
	c-2.04-1.89-5.02-2.37-7.56-1.22l-0.84,0.43c-2.43,1.36-3.99,3.88-4.13,6.66V431h-35.02c-2.03-0.14-3.85-1.27-4.87-3.03l-0.43-0.84
	c-0.76-1.76-0.43-3.81,0.85-5.24l2.36-2.36c1.74-1.74,3.11-5.06,3.11-7.53c0-7.18-5.82-13-13-13s-13,5.82-13,13
	c0.13,2.8,1.23,5.46,3.11,7.53l2.36,2.36c1.25,1.24,1.65,3.65,0.85,5.24l-0.43,0.84c-1.02,1.76-2.84,2.89-4.87,3.03H337v-35.02
	C336.86,393.2,335.3,390.68,332.87,389.32z M294.11,443.53l2.36,2.36c1.37,1.36,2.53,4.17,2.53,6.11c0,6.08-4.92,11-11,11
	s-11-4.92-11-11c0.13-2.26,1.02-4.42,2.53-6.11l2.36-2.36c1.89-2.04,2.37-5.02,1.22-7.56l-0.43-0.84c-1.36-2.43-3.88-3.99-6.66-4.13
	H241v-35.02c0.14-2.03,1.27-3.85,3.03-4.87l0.84-0.43c1.76-0.76,3.81-0.43,5.24,0.85l2.36,2.36c2.07,1.88,4.73,2.98,7.53,3.11
	c7.18,0,13-5.82,13-13c0-0.01,0-0.01,0-0.02c-0.01-7.18-5.84-12.99-13.02-12.98c-2.79,0.13-5.44,1.23-7.51,3.11l-2.36,2.36
	c-1.24,1.25-3.66,1.64-5.24,0.85l-0.84-0.43c-1.76-1.02-2.89-2.84-3.03-4.87V337h35.02c2.78-0.14,5.3-1.7,6.66-4.13l0.43-0.84
	c1.15-2.54,0.67-5.51-1.22-7.56l-2.36-2.36c-1.37-1.36-2.53-4.17-2.53-6.11c0-6.08,4.92-11,11-11s11,4.92,11,11
	c-0.13,2.26-1.02,4.42-2.53,6.11l-2.36,2.36c-1.89,2.04-2.37,5.02-1.22,7.56l0.43,0.84c1.36,2.43,3.88,3.99,6.66,4.13H335v35.02
	c-0.14,2.03-1.27,3.85-3.03,4.87l-0.84,0.43c-1.76,0.76-3.81,0.43-5.24-0.85l-2.36-2.36c-1.74-1.74-5.06-3.11-7.53-3.11
	c-7.18,0-13,5.82-13,13s5.82,13,13,13c2.8-0.13,5.46-1.23,7.53-3.11l2.36-2.36c1.24-1.25,3.65-1.65,5.24-0.85l0.84,0.43
	c1.76,1.02,2.89,2.84,3.03,4.87V431h-35.02c-2.78,0.14-5.3,1.7-6.66,4.13l-0.43,0.84C291.74,438.51,292.22,441.48,294.11,443.53z
	 M140.87,389.32l-0.84-0.43c-2.54-1.15-5.51-0.67-7.56,1.22l-2.36,2.36c-1.36,1.37-4.17,2.53-6.11,2.53c-6.08,0-11-4.92-11-11
	s4.92-11,11-11c2.26,0.13,4.42,1.02,6.11,2.53l2.36,2.36c2.04,1.89,5.02,2.37,7.56,1.22l0.84-0.43c2.43-1.36,3.99-3.88,4.13-6.66
	V337h35.02c2.03,0.14,3.85,1.27,4.87,3.03l0.43,0.84c0.76,1.76,0.43,3.81-0.85,5.24l-2.36,2.36c-1.88,2.07-2.98,4.73-3.11,7.53
	c0,7.18,5.82,13,13,13c0.01,0,0.01,0,0.02,0c7.18-0.01,12.99-5.84,12.98-13.02c-0.13-2.79-1.23-5.44-3.11-7.51l-2.36-2.36
	c-1.25-1.24-1.64-3.66-0.85-5.24l0.43-0.84c1.02-1.76,2.84-2.89,4.87-3.03H239v35.02c0.14,2.78,1.7,5.3,4.13,6.66l0.84,0.43
	c2.54,1.15,5.51,0.67,7.56-1.22l2.36-2.36c1.36-1.37,4.17-2.53,6.11-2.53c6.08,0,11,4.92,11,11s-4.92,11-11,11
	c-2.26-0.13-4.42-1.02-6.11-2.53l-2.36-2.36c-2.04-1.89-5.02-2.37-7.56-1.22l-0.84,0.43c-2.43,1.36-3.99,3.88-4.13,6.66V431h-35.02
	c-2.03-0.14-3.85-1.27-4.87-3.03l-0.43-0.84c-0.76-1.76-0.43-3.81,0.85-5.24l2.36-2.36c1.74-1.74,3.11-5.06,3.11-7.53
	c0-7.18-5.82-13-13-13s-13,5.82-13,13c0.13,2.8,1.23,5.46,3.11,7.53l2.36,2.36c1.25,1.24,1.65,3.65,0.85,5.24l-0.43,0.84
	c-1.02,1.76-2.84,2.89-4.87,3.03H145v-35.02C144.86,393.2,143.3,390.68,140.87,389.32z M243.13,186.68l0.84,0.43
	c2.54,1.15,5.51,0.67,7.56-1.22l2.36-2.36c1.36-1.37,4.17-2.53,6.11-2.53c6.08,0,11,4.92,11,11s-4.92,11-11,11
	c-2.26-0.13-4.42-1.02-6.11-2.53l-2.36-2.36c-2.04-1.89-5.02-2.37-7.56-1.22l-0.84,0.43c-2.43,1.36-3.99,3.88-4.13,6.66V239h-35.02
	c-2.03-0.14-3.85-1.27-4.87-3.03l-0.43-0.84c-0.76-1.76-0.43-3.81,0.85-5.24l2.36-2.36c1.74-1.74,3.11-5.06,3.11-7.53
	c0-7.18-5.82-13-13-13s-13,5.82-13,13c0.13,2.8,1.23,5.46,3.11,7.53l2.36,2.36c1.25,1.24,1.65,3.65,0.85,5.24l-0.43,0.84
	c-1.02,1.76-2.84,2.89-4.87,3.03H145v-35.02c-0.14-2.78-1.7-5.3-4.13-6.66l-0.84-0.43c-2.54-1.15-5.51-0.67-7.56,1.22l-2.36,2.36
	c-1.36,1.37-4.17,2.53-6.11,2.53c-6.08,0-11-4.92-11-11s4.92-11,11-11c2.26,0.13,4.42,1.02,6.11,2.53l2.36,2.36
	c2.04,1.89,5.02,2.37,7.56,1.22l0.84-0.43c2.43-1.36,3.99-3.88,4.13-6.66V145h35.02c2.03,0.14,3.85,1.27,4.87,3.03l0.43,0.84
	c0.76,1.76,0.43,3.81-0.85,5.24l-2.36,2.36c-1.88,2.07-2.98,4.73-3.11,7.53c0,7.18,5.82,13,13,13c0.01,0,0.01,0,0.02,0
	c7.18-0.01,12.99-5.84,12.98-13.02c-0.13-2.79-1.23-5.44-3.11-7.51l-2.36-2.36c-1.25-1.24-1.64-3.66-0.85-5.24l0.43-0.84
	c1.02-1.76,2.84-2.89,4.87-3.03H239v35.02C239.14,182.8,240.7,185.32,243.13,186.68z M281.89,132.47l-2.36-2.36
	c-1.37-1.36-2.53-4.17-2.53-6.11c0-6.08,4.92-11,11-11s11,4.92,11,11c-0.13,2.26-1.02,4.42-2.53,6.11l-2.36,2.36
	c-1.89,2.04-2.37,5.02-1.22,7.56l0.43,0.84c1.36,2.43,3.88,3.99,6.66,4.13H335v35.02c-0.14,2.03-1.27,3.85-3.03,4.87l-0.84,0.43
	c-1.76,0.76-3.81,0.43-5.24-0.85l-2.36-2.36c-1.74-1.74-5.06-3.11-7.53-3.11c-7.18,0-13,5.82-13,13s5.82,13,13,13
	c2.8-0.13,5.46-1.23,7.53-3.11l2.36-2.36c1.24-1.25,3.65-1.65,5.24-0.85l0.84,0.43c1.76,1.02,2.89,2.84,3.03,4.87V239h-35.02
	c-2.78,0.14-5.3,1.7-6.66,4.13l-0.43,0.84c-1.15,2.54-0.67,5.51,1.22,7.56l2.36,2.36c1.37,1.36,2.53,4.17,2.53,6.11
	c0,6.08-4.92,11-11,11s-11-4.92-11-11c0.13-2.26,1.02-4.42,2.53-6.11l2.36-2.36c1.89-2.04,2.37-5.02,1.22-7.56l-0.43-0.84
	c-1.36-2.43-3.88-3.99-6.66-4.13H241v-35.02c0.14-2.03,1.27-3.85,3.03-4.87l0.84-0.43c1.76-0.76,3.81-0.43,5.24,0.85l2.36,2.36
	c2.07,1.88,4.73,2.98,7.53,3.11c7.18,0,13-5.82,13-13c0-0.01,0-0.01,0-0.02c-0.01-7.18-5.84-12.99-13.02-12.98
	c-2.79,0.13-5.44,1.23-7.51,3.11l-2.36,2.36c-1.24,1.25-3.66,1.64-5.24,0.85l-0.84-0.43c-1.76-1.02-2.89-2.84-3.03-4.87V145h35.02
	c2.78-0.14,5.3-1.7,6.66-4.13l0.43-0.84C284.26,137.49,283.78,134.52,281.89,132.47z M435.13,186.68l0.84,0.43
	c2.54,1.15,5.51,0.67,7.56-1.22l2.36-2.36c1.36-1.37,4.17-2.53,6.11-2.53c6.08,0,11,4.92,11,11s-4.92,11-11,11
	c-2.26-0.13-4.42-1.02-6.11-2.53l-2.36-2.36c-2.04-1.89-5.02-2.37-7.56-1.22l-0.84,0.43c-2.43,1.36-3.99,3.88-4.13,6.66V239h-35.02
	c-2.03-0.14-3.85-1.27-4.87-3.03l-0.43-0.84c-0.76-1.76-0.43-3.81,0.85-5.24l2.36-2.36c1.74-1.74,3.11-5.06,3.11-7.53
	c0-7.18-5.82-13-13-13s-13,5.82-13,13c0.13,2.8,1.23,5.46,3.11,7.53l2.36,2.36c1.25,1.24,1.65,3.65,0.85,5.24l-0.43,0.84
	c-1.02,1.76-2.84,2.89-4.87,3.03H337v-35.02c-0.14-2.78-1.7-5.3-4.13-6.66l-0.84-0.43c-2.54-1.15-5.51-0.67-7.56,1.22l-2.36,2.36
	c-1.36,1.37-4.17,2.53-6.11,2.53c-6.08,0-11-4.92-11-11s4.92-11,11-11c2.26,0.13,4.42,1.02,6.11,2.53l2.36,2.36
	c2.04,1.89,5.02,2.37,7.56,1.22l0.84-0.43c2.43-1.36,3.99-3.88,4.13-6.66V145h35.02c2.03,0.14,3.85,1.27,4.87,3.03l0.43,0.84
	c0.76,1.76,0.43,3.81-0.85,5.24l-2.36,2.36c-1.88,2.07-2.98,4.73-3.11,7.53c0,7.18,5.82,13,13,13c0.01,0,0.01,0,0.02,0
	c7.18-0.01,12.99-5.84,12.98-13.02c-0.13-2.79-1.23-5.44-3.11-7.51l-2.36-2.36c-1.25-1.24-1.64-3.66-0.85-5.24l0.43-0.84
	c1.02-1.76,2.84-2.89,4.87-3.03H431v35.02C431.14,182.8,432.7,185.32,435.13,186.68z M473.89,132.47l-2.36-2.36
	c-1.37-1.36-2.53-4.17-2.53-6.11c0-6.08,4.92-11,11-11s11,4.92,11,11c-0.13,2.26-1.02,4.42-2.53,6.11l-2.36,2.36
	c-1.89,2.04-2.37,5.02-1.22,7.56l0.43,0.84c1.36,2.43,3.88,3.99,6.66,4.13H527v35.02c-0.14,2.03-1.27,3.85-3.03,4.87l-0.84,0.43
	c-1.76,0.76-3.81,0.43-5.24-0.85l-2.36-2.36c-1.74-1.74-5.06-3.11-7.53-3.11c-7.18,0-13,5.82-13,13s5.82,13,13,13
	c2.8-0.13,5.46-1.23,7.53-3.11l2.36-2.36c1.24-1.25,3.65-1.65,5.24-0.85l0.84,0.43c1.76,1.02,2.89,2.84,3.03,4.87V239h-35.02
	c-2.78,0.14-5.3,1.7-6.66,4.13l-0.43,0.84c-1.15,2.54-0.67,5.51,1.22,7.56l2.36,2.36c1.37,1.36,2.53,4.17,2.53,6.11
	c0,6.08-4.92,11-11,11s-11-4.92-11-11c0.13-2.26,1.02-4.42,2.53-6.11l2.36-2.36c1.89-2.04,2.37-5.02,1.22-7.56l-0.43-0.84
	c-1.36-2.43-3.88-3.99-6.66-4.13H433v-35.02c0.14-2.03,1.27-3.85,3.03-4.87l0.84-0.43c1.76-0.76,3.81-0.43,5.24,0.85l2.36,2.36
	c2.07,1.88,4.73,2.98,7.53,3.11c7.18,0,13-5.82,13-13c0-0.01,0-0.01,0-0.02c-0.01-7.18-5.84-12.99-13.02-12.98
	c-2.79,0.13-5.44,1.23-7.51,3.11l-2.36,2.36c-1.24,1.25-3.66,1.64-5.24,0.85l-0.84-0.43c-1.76-1.02-2.89-2.84-3.03-4.87V145h35.02
	c2.78-0.14,5.3-1.7,6.66-4.13l0.43-0.84C476.26,137.49,475.78,134.52,473.89,132.47z M575.02,177c0.16,0,0.32-0.02,0.48-0.03
	c0.17,0.01,0.33,0.03,0.5,0.03v-0.05c6.72-0.51,12.01-6.12,12-12.97c-0.13-2.79-1.23-5.44-3.11-7.51l-2.36-2.36
	c-1.25-1.24-1.64-3.66-0.85-5.24l0.43-0.84c1.02-1.76,2.84-2.89,4.87-3.03H622v35.02c0.14,2.78,1.7,5.3,4.13,6.66l0.84,0.43
	c2.54,1.15,5.51,0.67,7.56-1.22l2.36-2.36c1.36-1.37,4.17-2.53,6.11-2.53c6.08,0,11,4.92,11,11s-4.92,11-11,11
	c-2.26-0.13-4.42-1.02-6.11-2.53l-2.36-2.36c-2.04-1.89-5.02-2.37-7.56-1.22l-0.84,0.43c-2.43,1.36-3.99,3.88-4.13,6.66V239h-35.02
	c-2.03-0.14-3.85-1.27-4.87-3.03l-0.43-0.84c-0.76-1.76-0.43-3.81,0.85-5.24l2.36-2.36c1.74-1.74,3.11-5.06,3.11-7.53
	c0-6.84-5.29-12.44-12-12.95V207c-0.17,0-0.33,0.02-0.5,0.03c-0.17-0.01-0.33-0.03-0.5-0.03v0.05c-6.71,0.51-12,6.11-12,12.95
	c0.13,2.8,1.23,5.46,3.11,7.53l2.36,2.36c1.25,1.24,1.65,3.65,0.85,5.24l-0.43,0.84c-1.02,1.76-2.84,2.89-4.87,3.03H529v-35.02
	c-0.14-2.78-1.7-5.3-4.13-6.66l-0.84-0.43c-2.54-1.15-5.51-0.67-7.56,1.22l-2.36,2.36c-1.36,1.37-4.17,2.53-6.11,2.53
	c-6.08,0-11-4.92-11-11s4.92-11,11-11c2.26,0.13,4.42,1.02,6.11,2.53l2.36,2.36c2.04,1.89,5.02,2.37,7.56,1.22l0.84-0.43
	c2.43-1.36,3.99-3.88,4.13-6.66V145h35.02c2.03,0.14,3.85,1.27,4.87,3.03l0.43,0.84c0.76,1.76,0.43,3.81-0.85,5.24l-2.36,2.36
	c-1.88,2.07-2.98,4.73-3.11,7.53c0,6.84,5.29,12.44,12,12.95V177C575.01,177,575.01,177,575.02,177z M664.89,132.47l-2.36-2.36
	c-1.37-1.36-2.53-4.17-2.53-6.11c0-6.08,4.92-11,11-11s11,4.92,11,11c-0.13,2.26-1.02,4.42-2.53,6.11l-2.36,2.36
	c-1.89,2.04-2.37,5.02-1.22,7.56l0.43,0.84c1.36,2.43,3.88,3.99,6.66,4.13H718v35.02c-0.14,2.03-1.27,3.85-3.03,4.87l-0.84,0.43
	c-1.76,0.76-3.81,0.43-5.24-0.85l-2.36-2.36c-1.74-1.74-5.06-3.11-7.53-3.11c-7.18,0-13,5.82-13,13s5.82,13,13,13
	c2.8-0.13,5.46-1.23,7.53-3.11l2.36-2.36c1.24-1.25,3.65-1.65,5.24-0.85l0.84,0.43c1.76,1.02,2.89,2.84,3.03,4.87V239h-35.02
	c-2.78,0.14-5.3,1.7-6.66,4.13l-0.43,0.84c-1.15,2.54-0.67,5.51,1.22,7.56l2.36,2.36c1.37,1.36,2.53,4.17,2.53,6.11
	c0,6.08-4.92,11-11,11s-11-4.92-11-11c0.13-2.26,1.02-4.42,2.53-6.11l2.36-2.36c1.89-2.04,2.37-5.02,1.22-7.56l-0.43-0.84
	c-1.36-2.43-3.88-3.99-6.66-4.13H624v-35.02c0.14-2.03,1.27-3.85,3.03-4.87l0.84-0.43c1.76-0.76,3.81-0.43,5.24,0.85l2.36,2.36
	c2.07,1.88,4.73,2.98,7.53,3.11c7.18,0,13-5.82,13-13c0-0.01,0-0.01,0-0.02c-0.01-7.18-5.84-12.99-13.02-12.98
	c-2.79,0.13-5.44,1.23-7.51,3.11l-2.36,2.36c-1.24,1.25-3.66,1.64-5.24,0.85l-0.84-0.43c-1.76-1.02-2.89-2.84-3.03-4.87V145h35.02
	c2.78-0.14,5.3-1.7,6.66-4.13l0.43-0.84C667.26,137.49,666.78,134.52,664.89,132.47z M818.13,186.68l0.84,0.43
	c2.54,1.15,5.51,0.67,7.56-1.22l2.36-2.36c1.36-1.37,4.17-2.53,6.11-2.53c6.08,0,11,4.92,11,11s-4.92,11-11,11
	c-2.26-0.13-4.42-1.02-6.11-2.53l-2.36-2.36c-2.04-1.89-5.02-2.37-7.56-1.22l-0.84,0.43c-2.43,1.36-3.99,3.88-4.13,6.66V239h-35.02
	c-2.03-0.14-3.85-1.27-4.87-3.03l-0.43-0.84c-0.76-1.76-0.43-3.81,0.85-5.24l2.36-2.36c1.74-1.74,3.11-5.06,3.11-7.53
	c0-7.18-5.82-13-13-13s-13,5.82-13,13c0.13,2.8,1.23,5.46,3.11,7.53l2.36,2.36c1.25,1.24,1.65,3.65,0.85,5.24l-0.43,0.84
	c-1.02,1.76-2.84,2.89-4.87,3.03H720v-35.02c-0.14-2.78-1.7-5.3-4.13-6.66l-0.84-0.43c-2.54-1.15-5.51-0.67-7.56,1.22l-2.36,2.36
	c-1.36,1.37-4.17,2.53-6.11,2.53c-6.08,0-11-4.92-11-11s4.92-11,11-11c2.26,0.13,4.42,1.02,6.11,2.53l2.36,2.36
	c2.04,1.89,5.02,2.37,7.56,1.22l0.84-0.43c2.43-1.36,3.99-3.88,4.13-6.66V145h35.02c2.03,0.14,3.85,1.27,4.87,3.03l0.43,0.84
	c0.76,1.76,0.43,3.81-0.85,5.24l-2.36,2.36c-1.88,2.07-2.98,4.73-3.11,7.53c0,7.18,5.82,13,13,13c0.01,0,0.01,0,0.02,0
	c7.18-0.01,12.99-5.84,12.98-13.02c-0.13-2.79-1.23-5.44-3.11-7.51l-2.36-2.36c-1.25-1.24-1.64-3.66-0.85-5.24l0.43-0.84
	c1.02-1.76,2.84-2.89,4.87-3.03H814v35.02C814.14,182.8,815.7,185.32,818.13,186.68z M856.89,132.47l-2.36-2.36
	c-1.37-1.36-2.53-4.17-2.53-6.11c0-6.08,4.92-11,11-11s11,4.92,11,11c-0.13,2.26-1.02,4.42-2.53,6.11l-2.36,2.36
	c-1.89,2.04-2.37,5.02-1.22,7.56l0.43,0.84c1.36,2.43,3.88,3.99,6.66,4.13H910v35.02c-0.14,2.03-1.27,3.85-3.03,4.87l-0.84,0.43
	c-1.76,0.76-3.81,0.43-5.24-0.85l-2.36-2.36c-1.74-1.74-5.06-3.11-7.53-3.11c-7.18,0-13,5.82-13,13s5.82,13,13,13
	c2.8-0.13,5.46-1.23,7.53-3.11l2.36-2.36c1.24-1.25,3.65-1.65,5.24-0.85l0.84,0.43c1.76,1.02,2.89,2.84,3.03,4.87V239h-35.02
	c-2.78,0.14-5.3,1.7-6.66,4.13l-0.43,0.84c-1.15,2.54-0.67,5.51,1.22,7.56l2.36,2.36c1.37,1.36,2.53,4.17,2.53,6.11
	c0,6.08-4.92,11-11,11s-11-4.92-11-11c0.13-2.26,1.02-4.42,2.53-6.11l2.36-2.36c1.89-2.04,2.37-5.02,1.22-7.56l-0.43-0.84
	c-1.36-2.43-3.88-3.99-6.66-4.13H816v-35.02c0.14-2.03,1.27-3.85,3.03-4.87l0.84-0.43c1.76-0.76,3.81-0.43,5.24,0.85l2.36,2.36
	c2.07,1.88,4.73,2.98,7.53,3.11c7.18,0,13-5.82,13-13c0-0.01,0-0.01,0-0.02c-0.01-7.18-5.84-12.99-13.02-12.98
	c-2.79,0.13-5.44,1.23-7.51,3.11l-2.36,2.36c-1.24,1.25-3.66,1.64-5.24,0.85l-0.84-0.43c-1.76-1.02-2.89-2.84-3.03-4.87V145h35.02
	c2.78-0.14,5.3-1.7,6.66-4.13l0.43-0.84C859.26,137.49,858.78,134.52,856.89,132.47z M811.87,293.32l-0.84-0.43
	c-2.54-1.15-5.51-0.67-7.56,1.22l-2.36,2.36c-1.36,1.37-4.17,2.53-6.11,2.53c-6.08,0-11-4.92-11-11s4.92-11,11-11
	c2.26,0.13,4.42,1.02,6.11,2.53l2.36,2.36c2.04,1.89,5.02,2.37,7.56,1.22l0.84-0.43c2.43-1.36,3.99-3.88,4.13-6.66V241h35.02
	c2.03,0.14,3.85,1.27,4.87,3.03l0.43,0.84c0.76,1.76,0.43,3.81-0.85,5.24l-2.36,2.36c-1.88,2.07-2.98,4.73-3.11,7.53
	c0.01,7.18,5.83,13,13.01,12.99c7.18-0.01,13-5.83,12.99-13.01c-0.13-2.79-1.23-5.44-3.11-7.51l-2.36-2.36
	c-1.25-1.24-1.64-3.66-0.85-5.24l0.43-0.84c1.02-1.76,2.84-2.89,4.87-3.03H910v35.02c0.14,2.78,1.7,5.3,4.13,6.66l0.84,0.43
	c2.54,1.15,5.51,0.67,7.56-1.22l2.36-2.36c1.36-1.37,4.17-2.53,6.11-2.53c6.08,0,11,4.92,11,11s-4.92,11-11,11
	c-2.26-0.13-4.42-1.02-6.11-2.53l-2.36-2.36c-2.04-1.89-5.02-2.37-7.56-1.22l-0.84,0.43c-2.43,1.36-3.99,3.88-4.13,6.66V335h-35.02
	c-2.03-0.14-3.85-1.27-4.87-3.03l-0.43-0.84c-0.76-1.76-0.43-3.81,0.85-5.24l2.36-2.36c1.74-1.74,3.11-5.06,3.11-7.53
	c0-7.18-5.82-13-13-13s-13,5.82-13,13c0.13,2.8,1.23,5.46,3.11,7.53l2.36,2.36c1.25,1.24,1.65,3.65,0.85,5.24l-0.43,0.84
	c-1.02,1.76-2.84,2.89-4.87,3.03H816v-35.02C815.86,297.2,814.3,294.68,811.87,293.32z M773.11,347.53l2.36,2.36
	c1.37,1.36,2.53,4.17,2.53,6.11c0,6.08-4.92,11-11,11s-11-4.92-11-11c0.13-2.26,1.02-4.42,2.53-6.11l2.36-2.36
	c1.89-2.04,2.37-5.02,1.22-7.56l-0.43-0.84c-1.36-2.43-3.88-3.99-6.66-4.13H720v-35.02c0.14-2.03,1.27-3.85,3.03-4.87l0.84-0.43
	c1.76-0.76,3.81-0.43,5.24,0.85l2.36,2.36c2.07,1.88,4.73,2.98,7.53,3.11c7.18-0.01,13-5.83,12.99-13.01
	c-0.01-7.18-5.83-13-13.01-12.99c-2.79,0.13-5.44,1.23-7.51,3.11l-2.36,2.36c-1.24,1.25-3.66,1.64-5.24,0.85l-0.84-0.43
	c-1.76-1.02-2.89-2.84-3.03-4.87V241h35.02c2.78-0.14,5.3-1.7,6.66-4.13l0.43-0.84c1.15-2.54,0.67-5.51-1.22-7.56l-2.36-2.36
	c-1.37-1.36-2.53-4.17-2.53-6.11c0-6.08,4.92-11,11-11s11,4.92,11,11c-0.13,2.26-1.02,4.42-2.53,6.11l-2.36,2.36
	c-1.89,2.04-2.37,5.02-1.22,7.56l0.43,0.84c1.36,2.43,3.88,3.99,6.66,4.13H814v35.02c-0.14,2.03-1.27,3.85-3.03,4.87l-0.84,0.43
	c-1.76,0.76-3.81,0.43-5.24-0.85l-2.36-2.36c-1.74-1.74-5.06-3.11-7.53-3.11c-7.18,0-13,5.82-13,13s5.82,13,13,13
	c2.8-0.13,5.46-1.23,7.53-3.11l2.36-2.36c1.24-1.25,3.65-1.65,5.24-0.85l0.84,0.43c1.76,1.02,2.89,2.84,3.03,4.87V335h-35.02
	c-2.78,0.14-5.3,1.7-6.66,4.13l-0.43,0.84C770.74,342.51,771.22,345.48,773.11,347.53z M619.87,293.32l-0.84-0.43
	c-2.54-1.15-5.51-0.67-7.56,1.22l-2.36,2.36c-1.36,1.37-4.17,2.53-6.11,2.53c-6.08,0-11-4.92-11-11s4.92-11,11-11
	c2.26,0.13,4.42,1.02,6.11,2.53l2.36,2.36c2.04,1.89,5.02,2.37,7.56,1.22l0.84-0.43c2.43-1.36,3.99-3.88,4.13-6.66V241h35.02
	c2.03,0.14,3.85,1.27,4.87,3.03l0.43,0.84c0.76,1.76,0.43,3.81-0.85,5.24l-2.36,2.36c-1.88,2.07-2.98,4.73-3.11,7.53
	c0.01,7.18,5.83,13,13.01,12.99c7.18-0.01,13-5.83,12.99-13.01c-0.13-2.79-1.23-5.44-3.11-7.51l-2.36-2.36
	c-1.25-1.24-1.64-3.66-0.85-5.24l0.43-0.84c1.02-1.76,2.84-2.89,4.87-3.03H718v35.02c0.14,2.78,1.7,5.3,4.13,6.66l0.84,0.43
	c2.54,1.15,5.51,0.67,7.56-1.22l2.36-2.36c1.36-1.37,4.17-2.53,6.11-2.53c6.08,0,11,4.92,11,11s-4.92,11-11,11
	c-2.26-0.13-4.42-1.02-6.11-2.53l-2.36-2.36c-2.04-1.89-5.02-2.37-7.56-1.22l-0.84,0.43c-2.43,1.36-3.99,3.88-4.13,6.66V335h-35.02
	c-2.03-0.14-3.85-1.27-4.87-3.03l-0.43-0.84c-0.76-1.76-0.43-3.81,0.85-5.24l2.36-2.36c1.74-1.74,3.11-5.06,3.11-7.53
	c0-7.18-5.82-13-13-13s-13,5.82-13,13c0.13,2.8,1.23,5.46,3.11,7.53l2.36,2.36c1.25,1.24,1.65,3.65,0.85,5.24l-0.43,0.84
	c-1.02,1.76-2.84,2.89-4.87,3.03H624v-35.02C623.86,297.2,622.3,294.68,619.87,293.32z M581.11,347.53l2.36,2.36
	c1.37,1.36,2.53,4.17,2.53,6.11c0,5.91-4.66,10.71-10.5,10.97c-5.84-0.26-10.5-5.07-10.5-10.97c0.13-2.26,1.02-4.42,2.53-6.11
	l2.36-2.36c1.89-2.04,2.37-5.02,1.22-7.56l-0.43-0.84c-1.36-2.43-3.88-3.99-6.66-4.13H529v-35.02c0.14-2.03,1.27-3.85,3.03-4.87
	l0.84-0.43c1.76-0.76,3.81-0.43,5.24,0.85l2.36,2.36c2.07,1.88,4.73,2.98,7.53,3.11c7.18-0.01,13-5.83,12.99-13.01
	c-0.01-7.18-5.83-13-13.01-12.99c-2.79,0.13-5.44,1.23-7.51,3.11l-2.36,2.36c-1.24,1.25-3.66,1.64-5.24,0.85l-0.84-0.43
	c-1.76-1.02-2.89-2.84-3.03-4.87V241h35.02c2.78-0.14,5.3-1.7,6.66-4.13l0.43-0.84c1.15-2.54,0.67-5.51-1.22-7.56l-2.36-2.36
	c-1.37-1.36-2.53-4.17-2.53-6.11c0-5.91,4.66-10.71,10.5-10.97c5.84,0.26,10.5,5.07,10.5,10.97c-0.13,2.26-1.02,4.42-2.53,6.11
	l-2.36,2.36c-1.89,2.04-2.37,5.02-1.22,7.56l0.43,0.84c1.36,2.43,3.88,3.99,6.66,4.13H622v35.02c-0.14,2.03-1.27,3.85-3.03,4.87
	l-0.84,0.43c-1.76,0.76-3.81,0.43-5.24-0.85l-2.36-2.36c-1.74-1.74-5.06-3.11-7.53-3.11c-7.18,0-13,5.82-13,13s5.82,13,13,13
	c2.8-0.13,5.46-1.23,7.53-3.11l2.36-2.36c1.24-1.25,3.65-1.65,5.24-0.85l0.84,0.43c1.76,1.02,2.89,2.84,3.03,4.87V335h-35.02
	c-2.78,0.14-5.3,1.7-6.66,4.13l-0.43,0.84C578.74,342.51,579.22,345.48,581.11,347.53z M428.87,293.32l-0.84-0.43
	c-2.54-1.15-5.51-0.67-7.56,1.22l-2.36,2.36c-1.36,1.37-4.17,2.53-6.11,2.53c-6.08,0-11-4.92-11-11s4.92-11,11-11
	c2.26,0.13,4.42,1.02,6.11,2.53l2.36,2.36c2.04,1.89,5.02,2.37,7.56,1.22l0.84-0.43c2.43-1.36,3.99-3.88,4.13-6.66V241h35.02
	c2.03,0.14,3.85,1.27,4.87,3.03l0.43,0.84c0.76,1.76,0.43,3.81-0.85,5.24l-2.36,2.36c-1.88,2.07-2.98,4.73-3.11,7.53
	c0.01,7.18,5.83,13,13.01,12.99c7.18-0.01,13-5.83,12.99-13.01c-0.13-2.79-1.23-5.44-3.11-7.51l-2.36-2.36
	c-1.25-1.24-1.64-3.66-0.85-5.24l0.43-0.84c1.02-1.76,2.84-2.89,4.87-3.03H527v35.02c0.14,2.78,1.7,5.3,4.13,6.66l0.84,0.43
	c2.54,1.15,5.51,0.67,7.56-1.22l2.36-2.36c1.36-1.37,4.17-2.53,6.11-2.53c6.08,0,11,4.92,11,11s-4.92,11-11,11
	c-2.26-0.13-4.42-1.02-6.11-2.53l-2.36-2.36c-2.04-1.89-5.02-2.37-7.56-1.22l-0.84,0.43c-2.43,1.36-3.99,3.88-4.13,6.66V335h-35.02
	c-2.03-0.14-3.85-1.27-4.87-3.03l-0.43-0.84c-0.76-1.76-0.43-3.81,0.85-5.24l2.36-2.36c1.74-1.74,3.11-5.06,3.11-7.53
	c0-7.18-5.82-13-13-13s-13,5.82-13,13c0.13,2.8,1.23,5.46,3.11,7.53l2.36,2.36c1.25,1.24,1.65,3.65,0.85,5.24l-0.43,0.84
	c-1.02,1.76-2.84,2.89-4.87,3.03H433v-35.02C432.86,297.2,431.3,294.68,428.87,293.32z M390.11,347.53l2.36,2.36
	c1.37,1.36,2.53,4.17,2.53,6.11c0,6.08-4.92,11-11,11s-11-4.92-11-11c0.13-2.26,1.02-4.42,2.53-6.11l2.36-2.36
	c1.89-2.04,2.37-5.02,1.22-7.56l-0.43-0.84c-1.36-2.43-3.88-3.99-6.66-4.13H337v-35.02c0.14-2.03,1.27-3.85,3.03-4.87l0.84-0.43
	c1.76-0.76,3.81-0.43,5.24,0.85l2.36,2.36c2.07,1.88,4.73,2.98,7.53,3.11c7.18-0.01,13-5.83,12.99-13.01
	c-0.01-7.18-5.83-13-13.01-12.99c-2.79,0.13-5.44,1.23-7.51,3.11l-2.36,2.36c-1.24,1.25-3.66,1.64-5.24,0.85l-0.84-0.43
	c-1.76-1.02-2.89-2.84-3.03-4.87V241h35.02c2.78-0.14,5.3-1.7,6.66-4.13l0.43-0.84c1.15-2.54,0.67-5.51-1.22-7.56l-2.36-2.36
	c-1.37-1.36-2.53-4.17-2.53-6.11c0-6.08,4.92-11,11-11s11,4.92,11,11c-0.13,2.26-1.02,4.42-2.53,6.11l-2.36,2.36
	c-1.89,2.04-2.37,5.02-1.22,7.56l0.43,0.84c1.36,2.43,3.88,3.99,6.66,4.13H431v35.02c-0.14,2.03-1.27,3.85-3.03,4.87l-0.84,0.43
	c-1.76,0.76-3.81,0.43-5.24-0.85l-2.36-2.36c-1.74-1.74-5.06-3.11-7.53-3.11c-7.18,0-13,5.82-13,13s5.82,13,13,13
	c2.8-0.13,5.46-1.23,7.53-3.11l2.36-2.36c1.24-1.25,3.65-1.65,5.24-0.85l0.84,0.43c1.76,1.02,2.89,2.84,3.03,4.87V335h-35.02
	c-2.78,0.14-5.3,1.7-6.66,4.13l-0.43,0.84C387.74,342.51,388.22,345.48,390.11,347.53z M236.87,293.32l-0.84-0.43
	c-2.54-1.15-5.51-0.67-7.56,1.22l-2.36,2.36c-1.36,1.37-4.17,2.53-6.11,2.53c-6.08,0-11-4.92-11-11s4.92-11,11-11
	c2.26,0.13,4.42,1.02,6.11,2.53l2.36,2.36c2.04,1.89,5.02,2.37,7.56,1.22l0.84-0.43c2.43-1.36,3.99-3.88,4.13-6.66V241h35.02
	c2.03,0.14,3.85,1.27,4.87,3.03l0.43,0.84c0.76,1.76,0.43,3.81-0.85,5.24l-2.36,2.36c-1.88,2.07-2.98,4.73-3.11,7.53
	c0.01,7.18,5.83,13,13.01,12.99c7.18-0.01,13-5.83,12.99-13.01c-0.13-2.79-1.23-5.44-3.11-7.51l-2.36-2.36
	c-1.25-1.24-1.64-3.66-0.85-5.24l0.43-0.84c1.02-1.76,2.84-2.89,4.87-3.03H335v35.02c0.14,2.78,1.7,5.3,4.13,6.66l0.84,0.43
	c2.54,1.15,5.51,0.67,7.56-1.22l2.36-2.36c1.36-1.37,4.17-2.53,6.11-2.53c6.08,0,11,4.92,11,11s-4.92,11-11,11
	c-2.26-0.13-4.42-1.02-6.11-2.53l-2.36-2.36c-2.04-1.89-5.02-2.37-7.56-1.22l-0.84,0.43c-2.43,1.36-3.99,3.88-4.13,6.66V335h-35.02
	c-2.03-0.14-3.85-1.27-4.87-3.03l-0.43-0.84c-0.76-1.76-0.43-3.81,0.85-5.24l2.36-2.36c1.74-1.74,3.11-5.06,3.11-7.53
	c0-7.18-5.82-13-13-13s-13,5.82-13,13c0.13,2.8,1.23,5.46,3.11,7.53l2.36,2.36c1.25,1.24,1.65,3.65,0.85,5.24l-0.43,0.84
	c-1.02,1.76-2.84,2.89-4.87,3.03H241v-35.02C240.86,297.2,239.3,294.68,236.87,293.32z M145,241h35.02c2.78-0.14,5.3-1.7,6.66-4.13
	l0.43-0.84c1.15-2.54,0.67-5.51-1.22-7.56l-2.36-2.36c-1.37-1.36-2.53-4.17-2.53-6.11c0-6.08,4.92-11,11-11s11,4.92,11,11
	c-0.13,2.26-1.02,4.42-2.53,6.11l-2.36,2.36c-1.89,2.04-2.37,5.02-1.22,7.56l0.43,0.84c1.36,2.43,3.88,3.99,6.66,4.13H239v35.02
	c-0.14,2.03-1.27,3.85-3.03,4.87l-0.84,0.43c-1.76,0.76-3.81,0.43-5.24-0.85l-2.36-2.36c-1.74-1.74-5.06-3.11-7.53-3.11
	c-7.18,0-13,5.82-13,13s5.82,13,13,13c2.8-0.13,5.46-1.23,7.53-3.11l2.36-2.36c1.24-1.25,3.65-1.65,5.24-0.85l0.84,0.43
	c1.76,1.02,2.89,2.84,3.03,4.87V335h-35.02c-2.78,0.14-5.3,1.7-6.66,4.13l-0.43,0.84c-1.15,2.54-0.67,5.51,1.22,7.56l2.36,2.36
	c1.37,1.36,2.53,4.17,2.53,6.11c0,6.08-4.92,11-11,11s-11-4.92-11-11c0.13-2.26,1.02-4.42,2.53-6.11l2.36-2.36
	c1.89-2.04,2.37-5.02,1.22-7.56l-0.43-0.84c-1.36-2.43-3.88-3.99-6.66-4.13H145v-35.02c0.14-2.03,1.27-3.85,3.03-4.87l0.84-0.43
	c1.76-0.76,3.81-0.43,5.24,0.85l2.36,2.36c2.07,1.88,4.73,2.98,7.53,3.11c7.18-0.01,13-5.83,12.99-13.01
	c-0.01-7.18-5.83-13-13.01-12.99c-2.79,0.13-5.44,1.23-7.51,3.11l-2.36,2.36c-1.24,1.25-3.66,1.64-5.24,0.85l-0.84-0.43
	c-1.76-1.02-2.89-2.84-3.03-4.87V241z M1006,335h-35.02c-2.78,0.14-5.3,1.7-6.66,4.13l-0.43,0.84c-1.15,2.54-0.67,5.51,1.22,7.56
	l2.36,2.36c1.37,1.36,2.53,4.17,2.53,6.11c0,6.08-4.92,11-11,11s-11-4.92-11-11c0.13-2.26,1.02-4.42,2.53-6.11l2.36-2.36
	c1.89-2.04,2.37-5.02,1.22-7.56l-0.43-0.84c-1.36-2.43-3.88-3.99-6.66-4.13H912v-35.02c0.14-2.03,1.27-3.85,3.03-4.87l0.84-0.43
	c1.76-0.76,3.81-0.43,5.24,0.85l2.36,2.36c2.07,1.88,4.73,2.98,7.53,3.11c7.18-0.01,13-5.83,12.99-13.01
	c-0.01-7.18-5.83-13-13.01-12.99c-2.79,0.13-5.44,1.23-7.51,3.11l-2.36,2.36c-1.24,1.25-3.66,1.64-5.24,0.85l-0.84-0.43
	c-1.76-1.02-2.89-2.84-3.03-4.87V241h35.02c2.78-0.14,5.3-1.7,6.66-4.13l0.43-0.84c1.15-2.54,0.67-5.51-1.22-7.56l-2.36-2.36
	c-1.37-1.36-2.53-4.17-2.53-6.11c0-6.08,4.92-11,11-11s11,4.92,11,11c-0.13,2.26-1.02,4.42-2.53,6.11l-2.36,2.36
	c-1.89,2.04-2.37,5.02-1.22,7.56l0.43,0.84c1.36,2.43,3.88,3.99,6.66,4.13H1006v35.02c-0.14,2.03-1.27,3.85-3.03,4.87l-0.84,0.43
	c-1.76,0.76-3.81,0.43-5.24-0.85l-2.36-2.36c-1.74-1.74-5.06-3.11-7.53-3.11c-7.18,0-13,5.82-13,13s5.82,13,13,13
	c2.8-0.13,5.46-1.23,7.53-3.11l2.36-2.36c1.24-1.25,3.65-1.65,5.24-0.85l0.84,0.43c1.76,1.02,2.89,2.84,3.03,4.87V335z M970.98,239
	c-2.03-0.14-3.85-1.27-4.87-3.03l-0.43-0.84c-0.76-1.76-0.43-3.81,0.85-5.24l2.36-2.36c1.74-1.74,3.11-5.06,3.11-7.53
	c0-7.18-5.82-13-13-13s-13,5.82-13,13c0.13,2.8,1.23,5.46,3.11,7.53l2.36,2.36c1.25,1.24,1.65,3.65,0.85,5.24l-0.43,0.84
	c-1.02,1.76-2.84,2.89-4.87,3.03H912v-35.02c-0.14-2.78-1.7-5.3-4.13-6.66l-0.84-0.43c-2.54-1.15-5.51-0.67-7.56,1.22l-2.36,2.36
	c-1.36,1.37-4.17,2.53-6.11,2.53c-6.08,0-11-4.92-11-11s4.92-11,11-11c2.26,0.13,4.42,1.02,6.11,2.53l2.36,2.36
	c2.04,1.89,5.02,2.37,7.56,1.22l0.84-0.43c2.43-1.36,3.99-3.88,4.13-6.66V145h35.02c2.03,0.14,3.85,1.27,4.87,3.03l0.43,0.84
	c0.76,1.76,0.43,3.81-0.85,5.24l-2.36,2.36c-1.88,2.07-2.98,4.73-3.11,7.53c0,7.18,5.82,13,13,13c0.01,0,0.01,0,0.02,0
	c7.18-0.01,12.99-5.84,12.98-13.02c-0.13-2.79-1.23-5.44-3.11-7.51l-2.36-2.36c-1.25-1.24-1.64-3.66-0.85-5.24l0.43-0.84
	c1.02-1.76,2.84-2.89,4.87-3.03H1006v35.02c0.14,2.78,1.7,5.3,4.13,6.66l0.84,0.43c2.54,1.15,5.51,0.67,7.56-1.22l2.36-2.36
	c1.36-1.37,4.17-2.53,6.11-2.53c6.08,0,11,4.92,11,11s-4.92,11-11,11c-2.26-0.13-4.42-1.02-6.11-2.53l-2.36-2.36
	c-2.04-1.89-5.02-2.37-7.56-1.22l-0.84,0.43c-2.43,1.36-3.99,3.88-4.13,6.66V239H970.98z M816,84.02V49h35.02
	c2.03,0.14,3.85,1.27,4.87,3.03l0.43,0.84c0.76,1.76,0.43,3.81-0.85,5.24l-2.36,2.36c-1.88,2.07-2.98,4.73-3.11,7.53
	c0.01,7.18,5.83,13,13.01,12.99c7.18-0.01,13-5.83,12.99-13.01c-0.13-2.79-1.23-5.44-3.11-7.51l-2.36-2.36
	c-1.25-1.24-1.64-3.66-0.85-5.24l0.43-0.84c1.02-1.76,2.84-2.89,4.87-3.03H910v35.02c0.14,2.78,1.7,5.3,4.13,6.66l0.84,0.43
	c2.54,1.15,5.51,0.67,7.56-1.22l2.36-2.36c1.36-1.37,4.17-2.53,6.11-2.53c6.08,0,11,4.92,11,11s-4.92,11-11,11
	c-2.26-0.13-4.42-1.02-6.11-2.53l-2.36-2.36c-2.04-1.89-5.02-2.37-7.56-1.22l-0.84,0.43c-2.43,1.36-3.99,3.88-4.13,6.66V143h-35.02
	c-2.03-0.14-3.85-1.27-4.87-3.03l-0.43-0.84c-0.76-1.76-0.43-3.81,0.85-5.24l2.36-2.36c1.74-1.74,3.11-5.06,3.11-7.53
	c0-7.18-5.82-13-13-13s-13,5.82-13,13c0.13,2.8,1.23,5.46,3.11,7.53l2.36,2.36c1.25,1.24,1.65,3.65,0.85,5.24l-0.43,0.84
	c-1.02,1.76-2.84,2.89-4.87,3.03H816v-35.02c-0.14-2.78-1.7-5.3-4.13-6.66l-0.84-0.43c-2.54-1.15-5.51-0.67-7.56,1.22l-2.36,2.36
	c-1.36,1.37-4.17,2.53-6.11,2.53c-6.08,0-11-4.92-11-11s4.92-11,11-11c2.26,0.13,4.42,1.02,6.11,2.53l2.36,2.36
	c2.04,1.89,5.02,2.37,7.56,1.22l0.84-0.43C814.3,89.32,815.86,86.8,816,84.02z M720,49h35.02c2.78-0.14,5.3-1.7,6.66-4.13l0.43-0.84
	c1.15-2.54,0.67-5.51-1.22-7.56l-2.36-2.36C757.16,32.75,756,29.94,756,28c0-6.08,4.92-11,11-11s11,4.92,11,11
	c-0.13,2.26-1.02,4.42-2.53,6.11l-2.36,2.36c-1.89,2.04-2.37,5.02-1.22,7.56l0.43,0.84c1.36,2.43,3.88,3.99,6.66,4.13H814v35.02
	c-0.14,2.03-1.27,3.85-3.03,4.87l-0.84,0.43c-1.76,0.76-3.81,0.43-5.24-0.85l-2.36-2.36C800.79,84.37,797.47,83,795,83
	c-7.18,0-13,5.82-13,13s5.82,13,13,13c2.8-0.13,5.46-1.23,7.53-3.11l2.36-2.36c1.24-1.25,3.65-1.65,5.24-0.85l0.84,0.43
	c1.76,1.02,2.89,2.84,3.03,4.87V143h-35.02c-2.78,0.14-5.3,1.7-6.66,4.13l-0.43,0.84c-1.15,2.54-0.67,5.51,1.22,7.56l2.36,2.36
	c1.37,1.36,2.53,4.17,2.53,6.11c0,6.08-4.92,11-11,11s-11-4.92-11-11c0.13-2.26,1.02-4.42,2.53-6.11l2.36-2.36
	c1.89-2.04,2.37-5.02,1.22-7.56l-0.43-0.84c-1.36-2.43-3.88-3.99-6.66-4.13H720v-35.02c0.14-2.03,1.27-3.85,3.03-4.87l0.84-0.43
	c1.76-0.76,3.81-0.43,5.24,0.85l2.36,2.36c2.07,1.88,4.73,2.98,7.53,3.11c7.18-0.01,13-5.83,12.99-13.01
	c-0.01-7.18-5.83-13-13.01-12.99c-2.79,0.13-5.44,1.23-7.51,3.11l-2.36,2.36c-1.24,1.25-3.66,1.64-5.24,0.85l-0.84-0.43
	c-1.76-1.02-2.89-2.84-3.03-4.87V49z M624,84.02V49h35.02c2.03,0.14,3.85,1.27,4.87,3.03l0.43,0.84c0.76,1.76,0.43,3.81-0.85,5.24
	l-2.36,2.36c-1.88,2.07-2.98,4.73-3.11,7.53c0.01,7.18,5.83,13,13.01,12.99c7.18-0.01,13-5.83,12.99-13.01
	c-0.13-2.79-1.23-5.44-3.11-7.51l-2.36-2.36c-1.25-1.24-1.64-3.66-0.85-5.24l0.43-0.84c1.02-1.76,2.84-2.89,4.87-3.03H718v35.02
	c0.14,2.78,1.7,5.3,4.13,6.66l0.84,0.43c2.54,1.15,5.51,0.67,7.56-1.22l2.36-2.36c1.36-1.37,4.17-2.53,6.11-2.53
	c6.08,0,11,4.92,11,11s-4.92,11-11,11c-2.26-0.13-4.42-1.02-6.11-2.53l-2.36-2.36c-2.04-1.89-5.02-2.37-7.56-1.22l-0.84,0.43
	c-2.43,1.36-3.99,3.88-4.13,6.66V143h-35.02c-2.03-0.14-3.85-1.27-4.87-3.03l-0.43-0.84c-0.76-1.76-0.43-3.81,0.85-5.24l2.36-2.36
	c1.74-1.74,3.11-5.06,3.11-7.53c0-7.18-5.82-13-13-13s-13,5.82-13,13c0.13,2.8,1.23,5.46,3.11,7.53l2.36,2.36
	c1.25,1.24,1.65,3.65,0.85,5.24l-0.43,0.84c-1.02,1.76-2.84,2.89-4.87,3.03H624v-35.02c-0.14-2.78-1.7-5.3-4.13-6.66l-0.84-0.43
	c-2.54-1.15-5.51-0.67-7.56,1.22l-2.36,2.36c-1.36,1.37-4.17,2.53-6.11,2.53c-6.08,0-11-4.92-11-11s4.92-11,11-11
	c2.26,0.13,4.42,1.02,6.11,2.53l2.36,2.36c2.04,1.89,5.02,2.37,7.56,1.22l0.84-0.43C622.3,89.32,623.86,86.8,624,84.02z M529,49
	h35.02c2.78-0.14,5.3-1.7,6.66-4.13l0.43-0.84c1.15-2.54,0.67-5.51-1.22-7.56l-2.36-2.36C566.16,32.75,565,29.94,565,28
	c0-5.91,4.66-10.71,10.5-10.97C581.34,17.29,586,22.09,586,28c-0.13,2.26-1.02,4.42-2.53,6.11l-2.36,2.36
	c-1.89,2.04-2.37,5.02-1.22,7.56l0.43,0.84c1.36,2.43,3.88,3.99,6.66,4.13H622v35.02c-0.14,2.03-1.27,3.85-3.03,4.87l-0.84,0.43
	c-1.76,0.76-3.81,0.43-5.24-0.85l-2.36-2.36C608.79,84.37,605.47,83,603,83c-7.18,0-13,5.82-13,13s5.82,13,13,13
	c2.8-0.13,5.46-1.23,7.53-3.11l2.36-2.36c1.24-1.25,3.65-1.65,5.24-0.85l0.84,0.43c1.76,1.02,2.89,2.84,3.03,4.87V143h-35.02
	c-2.78,0.14-5.3,1.7-6.66,4.13l-0.43,0.84c-1.15,2.54-0.67,5.51,1.22,7.56l2.36,2.36c1.37,1.36,2.53,4.17,2.53,6.11
	c0,5.91-4.66,10.71-10.5,10.97c-5.84-0.26-10.5-5.07-10.5-10.97c0.13-2.26,1.02-4.42,2.53-6.11l2.36-2.36
	c1.89-2.04,2.37-5.02,1.22-7.56l-0.43-0.84c-1.36-2.43-3.88-3.99-6.66-4.13H529v-35.02c0.14-2.03,1.27-3.85,3.03-4.87l0.84-0.43
	c1.76-0.76,3.81-0.43,5.24,0.85l2.36,2.36c2.07,1.88,4.73,2.98,7.53,3.11c7.18-0.01,13-5.83,12.99-13.01
	c-0.01-7.18-5.83-13-13.01-12.99c-2.79,0.13-5.44,1.23-7.51,3.11l-2.36,2.36c-1.24,1.25-3.66,1.64-5.24,0.85l-0.84-0.43
	c-1.76-1.02-2.89-2.84-3.03-4.87V49z M433,84.02V49h35.02c2.03,0.14,3.85,1.27,4.87,3.03l0.43,0.84c0.76,1.76,0.43,3.81-0.85,5.24
	l-2.36,2.36c-1.88,2.07-2.98,4.73-3.11,7.53c0.01,7.18,5.83,13,13.01,12.99c7.18-0.01,13-5.83,12.99-13.01
	c-0.13-2.79-1.23-5.44-3.11-7.51l-2.36-2.36c-1.25-1.24-1.64-3.66-0.85-5.24l0.43-0.84c1.02-1.76,2.84-2.89,4.87-3.03H527v35.02
	c0.14,2.78,1.7,5.3,4.13,6.66l0.84,0.43c2.54,1.15,5.51,0.67,7.56-1.22l2.36-2.36c1.36-1.37,4.17-2.53,6.11-2.53
	c6.08,0,11,4.92,11,11s-4.92,11-11,11c-2.26-0.13-4.42-1.02-6.11-2.53l-2.36-2.36c-2.04-1.89-5.02-2.37-7.56-1.22l-0.84,0.43
	c-2.43,1.36-3.99,3.88-4.13,6.66V143h-35.02c-2.03-0.14-3.85-1.27-4.87-3.03l-0.43-0.84c-0.76-1.76-0.43-3.81,0.85-5.24l2.36-2.36
	c1.74-1.74,3.11-5.06,3.11-7.53c0-7.18-5.82-13-13-13s-13,5.82-13,13c0.13,2.8,1.23,5.46,3.11,7.53l2.36,2.36
	c1.25,1.24,1.65,3.65,0.85,5.24l-0.43,0.84c-1.02,1.76-2.84,2.89-4.87,3.03H433v-35.02c-0.14-2.78-1.7-5.3-4.13-6.66l-0.84-0.43
	c-2.54-1.15-5.51-0.67-7.56,1.22l-2.36,2.36c-1.36,1.37-4.17,2.53-6.11,2.53c-6.08,0-11-4.92-11-11s4.92-11,11-11
	c2.26,0.13,4.42,1.02,6.11,2.53l2.36,2.36c2.04,1.89,5.02,2.37,7.56,1.22l0.84-0.43C431.3,89.32,432.86,86.8,433,84.02z M337,49
	h35.02c2.78-0.14,5.3-1.7,6.66-4.13l0.43-0.84c1.15-2.54,0.67-5.51-1.22-7.56l-2.36-2.36C374.16,32.75,373,29.94,373,28
	c0-6.08,4.92-11,11-11s11,4.92,11,11c-0.13,2.26-1.02,4.42-2.53,6.11l-2.36,2.36c-1.89,2.04-2.37,5.02-1.22,7.56l0.43,0.84
	c1.36,2.43,3.88,3.99,6.66,4.13H431v35.02c-0.14,2.03-1.27,3.85-3.03,4.87l-0.84,0.43c-1.76,0.76-3.81,0.43-5.24-0.85l-2.36-2.36
	C417.79,84.37,414.47,83,412,83c-7.18,0-13,5.82-13,13s5.82,13,13,13c2.8-0.13,5.46-1.23,7.53-3.11l2.36-2.36
	c1.24-1.25,3.65-1.65,5.24-0.85l0.84,0.43c1.76,1.02,2.89,2.84,3.03,4.87V143h-35.02c-2.78,0.14-5.3,1.7-6.66,4.13l-0.43,0.84
	c-1.15,2.54-0.67,5.51,1.22,7.56l2.36,2.36c1.37,1.36,2.53,4.17,2.53,6.11c0,6.08-4.92,11-11,11s-11-4.92-11-11
	c0.13-2.26,1.02-4.42,2.53-6.11l2.36-2.36c1.89-2.04,2.37-5.02,1.22-7.56l-0.43-0.84c-1.36-2.43-3.88-3.99-6.66-4.13H337v-35.02
	c0.14-2.03,1.27-3.85,3.03-4.87l0.84-0.43c1.76-0.76,3.81-0.43,5.24,0.85l2.36,2.36c2.07,1.88,4.73,2.98,7.53,3.11
	c7.18-0.01,13-5.83,12.99-13.01c-0.01-7.18-5.83-13-13.01-12.99c-2.79,0.13-5.44,1.23-7.51,3.11l-2.36,2.36
	c-1.24,1.25-3.66,1.64-5.24,0.85l-0.84-0.43c-1.76-1.02-2.89-2.84-3.03-4.87V49z M241,84.02V49h35.02c2.03,0.14,3.85,1.27,4.87,3.03
	l0.43,0.84c0.76,1.76,0.43,3.81-0.85,5.24l-2.36,2.36c-1.88,2.07-2.98,4.73-3.11,7.53c0.01,7.18,5.83,13,13.01,12.99
	c7.18-0.01,13-5.83,12.99-13.01c-0.13-2.79-1.23-5.44-3.11-7.51l-2.36-2.36c-1.25-1.24-1.64-3.66-0.85-5.24l0.43-0.84
	c1.02-1.76,2.84-2.89,4.87-3.03H335v35.02c0.14,2.78,1.7,5.3,4.13,6.66l0.84,0.43c2.54,1.15,5.51,0.67,7.56-1.22l2.36-2.36
	c1.36-1.37,4.17-2.53,6.11-2.53c6.08,0,11,4.92,11,11s-4.92,11-11,11c-2.26-0.13-4.42-1.02-6.11-2.53l-2.36-2.36
	c-2.04-1.89-5.02-2.37-7.56-1.22l-0.84,0.43c-2.43,1.36-3.99,3.88-4.13,6.66V143h-35.02c-2.03-0.14-3.85-1.27-4.87-3.03l-0.43-0.84
	c-0.76-1.76-0.43-3.81,0.85-5.24l2.36-2.36c1.74-1.74,3.11-5.06,3.11-7.53c0-7.18-5.82-13-13-13s-13,5.82-13,13
	c0.13,2.8,1.23,5.46,3.11,7.53l2.36,2.36c1.25,1.24,1.65,3.65,0.85,5.24l-0.43,0.84c-1.02,1.76-2.84,2.89-4.87,3.03H241v-35.02
	c-0.14-2.78-1.7-5.3-4.13-6.66l-0.84-0.43c-2.54-1.15-5.51-0.67-7.56,1.22l-2.36,2.36c-1.36,1.37-4.17,2.53-6.11,2.53
	c-6.08,0-11-4.92-11-11s4.92-11,11-11c2.26,0.13,4.42,1.02,6.11,2.53l2.36,2.36c2.04,1.89,5.02,2.37,7.56,1.22l0.84-0.43
	C239.3,89.32,240.86,86.8,241,84.02z M145,49h35.02c2.78-0.14,5.3-1.7,6.66-4.13l0.43-0.84c1.15-2.54,0.67-5.51-1.22-7.56
	l-2.36-2.36C182.16,32.75,181,29.94,181,28c0-6.08,4.92-11,11-11s11,4.92,11,11c-0.13,2.26-1.02,4.42-2.53,6.11l-2.36,2.36
	c-1.89,2.04-2.37,5.02-1.22,7.56l0.43,0.84c1.36,2.43,3.88,3.99,6.66,4.13H239v35.02c-0.14,2.03-1.27,3.85-3.03,4.87l-0.84,0.43
	c-1.76,0.76-3.81,0.43-5.24-0.85l-2.36-2.36C225.79,84.37,222.47,83,220,83c-7.18,0-13,5.82-13,13s5.82,13,13,13
	c2.8-0.13,5.46-1.23,7.53-3.11l2.36-2.36c1.24-1.25,3.65-1.65,5.24-0.85l0.84,0.43c1.76,1.02,2.89,2.84,3.03,4.87V143h-35.02
	c-2.78,0.14-5.3,1.7-6.66,4.13l-0.43,0.84c-1.15,2.54-0.67,5.51,1.22,7.56l2.36,2.36c1.37,1.36,2.53,4.17,2.53,6.11
	c0,6.08-4.92,11-11,11s-11-4.92-11-11c0.13-2.26,1.02-4.42,2.53-6.11l2.36-2.36c1.89-2.04,2.37-5.02,1.22-7.56l-0.43-0.84
	c-1.36-2.43-3.88-3.99-6.66-4.13H145v-35.02c0.14-2.03,1.27-3.85,3.03-4.87l0.84-0.43c1.76-0.76,3.81-0.43,5.24,0.85l2.36,2.36
	c2.07,1.88,4.73,2.98,7.53,3.11c7.18-0.01,13-5.83,12.99-13.01c-0.01-7.18-5.83-13-13.01-12.99c-2.79,0.13-5.44,1.23-7.51,3.11
	l-2.36,2.36c-1.24,1.25-3.66,1.64-5.24,0.85l-0.84-0.43c-1.76-1.02-2.89-2.84-3.03-4.87V49z M44.87,101.32l-0.84-0.43
	c-2.54-1.15-5.51-0.67-7.56,1.22l-2.36,2.36C32.75,105.84,29.94,107,28,107c-6.08,0-11-4.92-11-11s4.92-11,11-11
	c2.26,0.13,4.42,1.02,6.11,2.53l2.36,2.36c2.04,1.89,5.02,2.37,7.56,1.22l0.84-0.43c2.43-1.36,3.99-3.88,4.13-6.66V49h35.02
	c2.03,0.14,3.85,1.27,4.87,3.03l0.43,0.84c0.76,1.76,0.43,3.81-0.85,5.24l-2.36,2.36C84.23,62.54,83.13,65.2,83,68
	c0.01,7.18,5.83,13,13.01,12.99c7.18-0.01,13-5.83,12.99-13.01c-0.13-2.79-1.23-5.44-3.11-7.51l-2.36-2.36
	c-1.25-1.24-1.64-3.66-0.85-5.24l0.43-0.84c1.02-1.76,2.84-2.89,4.87-3.03H143v35.02c0.14,2.78,1.7,5.3,4.13,6.66l0.84,0.43
	c2.54,1.15,5.51,0.67,7.56-1.22l2.36-2.36c1.36-1.37,4.17-2.53,6.11-2.53c6.08,0,11,4.92,11,11s-4.92,11-11,11
	c-2.26-0.13-4.42-1.02-6.11-2.53l-2.36-2.36c-2.04-1.89-5.02-2.37-7.56-1.22l-0.84,0.43c-2.43,1.36-3.99,3.88-4.13,6.66V143h-35.02
	c-2.03-0.14-3.85-1.27-4.87-3.03l-0.43-0.84c-0.76-1.76-0.43-3.81,0.85-5.24l2.36-2.36c1.74-1.74,3.11-5.06,3.11-7.53
	c0-7.18-5.82-13-13-13s-13,5.82-13,13c0.13,2.8,1.23,5.46,3.11,7.53l2.36,2.36c1.25,1.24,1.65,3.65,0.85,5.24l-0.43,0.84
	c-1.02,1.76-2.84,2.89-4.87,3.03H49v-35.02C48.86,105.2,47.3,102.68,44.87,101.32z M49,203.98c0.14-2.03,1.27-3.85,3.03-4.87
	l0.84-0.43c1.76-0.76,3.81-0.43,5.24,0.85l2.36,2.36c2.07,1.88,4.73,2.98,7.53,3.11c7.18,0,13-5.82,13-13c0-0.01,0-0.01,0-0.02
	c-0.01-7.18-5.84-12.99-13.02-12.98c-2.79,0.13-5.44,1.23-7.51,3.11l-2.36,2.36c-1.24,1.25-3.66,1.64-5.24,0.85l-0.84-0.43
	c-1.76-1.02-2.89-2.84-3.03-4.87V145h35.02c2.78-0.14,5.3-1.7,6.66-4.13l0.43-0.84c1.15-2.54,0.67-5.51-1.22-7.56l-2.36-2.36
	C86.16,128.75,85,125.94,85,124c0-6.08,4.92-11,11-11s11,4.92,11,11c-0.13,2.26-1.02,4.42-2.53,6.11l-2.36,2.36
	c-1.89,2.04-2.37,5.02-1.22,7.56l0.43,0.84c1.36,2.43,3.88,3.99,6.66,4.13H143v35.02c-0.14,2.03-1.27,3.85-3.03,4.87l-0.84,0.43
	c-1.76,0.76-3.81,0.43-5.24-0.85l-2.36-2.36c-1.74-1.74-5.06-3.11-7.53-3.11c-7.18,0-13,5.82-13,13s5.82,13,13,13
	c2.8-0.13,5.46-1.23,7.53-3.11l2.36-2.36c1.24-1.25,3.65-1.65,5.24-0.85l0.84,0.43c1.76,1.02,2.89,2.84,3.03,4.87V239h-35.02
	c-2.78,0.14-5.3,1.7-6.66,4.13l-0.43,0.84c-1.15,2.54-0.67,5.51,1.22,7.56l2.36,2.36c1.37,1.36,2.53,4.17,2.53,6.11
	c0,6.08-4.92,11-11,11s-11-4.92-11-11c0.13-2.26,1.02-4.42,2.53-6.11l2.36-2.36c1.89-2.04,2.37-5.02,1.22-7.56l-0.43-0.84
	c-1.36-2.43-3.88-3.99-6.66-4.13H49V203.98z M44.87,293.32l-0.84-0.43c-2.54-1.15-5.51-0.67-7.56,1.22l-2.36,2.36
	C32.75,297.84,29.94,299,28,299c-6.08,0-11-4.92-11-11s4.92-11,11-11c2.26,0.13,4.42,1.02,6.11,2.53l2.36,2.36
	c2.04,1.89,5.02,2.37,7.56,1.22l0.84-0.43c2.43-1.36,3.99-3.88,4.13-6.66V241h35.02c2.03,0.14,3.85,1.27,4.87,3.03l0.43,0.84
	c0.76,1.76,0.43,3.81-0.85,5.24l-2.36,2.36c-1.88,2.07-2.98,4.73-3.11,7.53c0.01,7.18,5.83,13,13.01,12.99
	c7.18-0.01,13-5.83,12.99-13.01c-0.13-2.79-1.23-5.44-3.11-7.51l-2.36-2.36c-1.25-1.24-1.64-3.66-0.85-5.24l0.43-0.84
	c1.02-1.76,2.84-2.89,4.87-3.03H143v35.02c0.14,2.78,1.7,5.3,4.13,6.66l0.84,0.43c2.54,1.15,5.51,0.67,7.56-1.22l2.36-2.36
	c1.36-1.37,4.17-2.53,6.11-2.53c6.08,0,11,4.92,11,11s-4.92,11-11,11c-2.26-0.13-4.42-1.02-6.11-2.53l-2.36-2.36
	c-2.04-1.89-5.02-2.37-7.56-1.22l-0.84,0.43c-2.43,1.36-3.99,3.88-4.13,6.66V335h-35.02c-2.03-0.14-3.85-1.27-4.87-3.03l-0.43-0.84
	c-0.76-1.76-0.43-3.81,0.85-5.24l2.36-2.36c1.74-1.74,3.11-5.06,3.11-7.53c0-7.18-5.82-13-13-13s-13,5.82-13,13
	c0.13,2.8,1.23,5.46,3.11,7.53l2.36,2.36c1.25,1.24,1.65,3.65,0.85,5.24l-0.43,0.84c-1.02,1.76-2.84,2.89-4.87,3.03H49v-35.02
	C48.86,297.2,47.3,294.68,44.87,293.32z M49,395.98c0.14-2.03,1.27-3.85,3.03-4.87l0.84-0.43c1.76-0.76,3.81-0.43,5.24,0.85
	l2.36,2.36c2.07,1.88,4.73,2.98,7.53,3.11c7.18,0,13-5.82,13-13c0-0.01,0-0.01,0-0.02c-0.01-7.18-5.84-12.99-13.02-12.98
	c-2.79,0.13-5.44,1.23-7.51,3.11l-2.36,2.36c-1.24,1.25-3.66,1.64-5.24,0.85l-0.84-0.43c-1.76-1.02-2.89-2.84-3.03-4.87V337h35.02
	c2.78-0.14,5.3-1.7,6.66-4.13l0.43-0.84c1.15-2.54,0.67-5.51-1.22-7.56l-2.36-2.36C86.16,320.75,85,317.94,85,316
	c0-6.08,4.92-11,11-11s11,4.92,11,11c-0.13,2.26-1.02,4.42-2.53,6.11l-2.36,2.36c-1.89,2.04-2.37,5.02-1.22,7.56l0.43,0.84
	c1.36,2.43,3.88,3.99,6.66,4.13H143v35.02c-0.14,2.03-1.27,3.85-3.03,4.87l-0.84,0.43c-1.76,0.76-3.81,0.43-5.24-0.85l-2.36-2.36
	c-1.74-1.74-5.06-3.11-7.53-3.11c-7.18,0-13,5.82-13,13s5.82,13,13,13c2.8-0.13,5.46-1.23,7.53-3.11l2.36-2.36
	c1.24-1.25,3.65-1.65,5.24-0.85l0.84,0.43c1.76,1.02,2.89,2.84,3.03,4.87V431h-35.02c-2.78,0.14-5.3,1.7-6.66,4.13l-0.43,0.84
	c-1.15,2.54-0.67,5.51,1.22,7.56l2.36,2.36c1.37,1.36,2.53,4.17,2.53,6.11c0,6.08-4.92,11-11,11s-11-4.92-11-11
	c0.13-2.26,1.02-4.42,2.53-6.11l2.36-2.36c1.89-2.04,2.37-5.02,1.22-7.56l-0.43-0.84c-1.36-2.43-3.88-3.99-6.66-4.13H49V395.98z
	 M143,491.98V527h-35.02c-2.03-0.14-3.85-1.27-4.87-3.03l-0.43-0.84c-0.76-1.76-0.43-3.81,0.85-5.24l2.36-2.36
	c1.74-1.74,3.11-5.06,3.11-7.53c0-7.18-5.82-13-13-13s-13,5.82-13,13c0.13,2.8,1.23,5.46,3.11,7.53l2.36,2.36
	c1.25,1.24,1.65,3.65,0.85,5.24l-0.43,0.84c-1.02,1.76-2.84,2.89-4.87,3.03H49v-35.02c-0.14-2.78-1.7-5.3-4.13-6.66l-0.84-0.43
	c-2.54-1.15-5.51-0.67-7.56,1.22l-2.36,2.36C32.75,489.84,29.94,491,28,491c-6.08,0-11-4.92-11-11s4.92-11,11-11
	c2.26,0.13,4.42,1.02,6.11,2.53l2.36,2.36c2.04,1.89,5.02,2.37,7.56,1.22l0.84-0.43c2.43-1.36,3.99-3.88,4.13-6.66V433h35.02
	c2.03,0.14,3.85,1.27,4.87,3.03l0.43,0.84c0.76,1.76,0.43,3.81-0.85,5.24l-2.36,2.36c-1.88,2.07-2.98,4.73-3.11,7.53
	c0.01,7.18,5.83,13,13.01,12.99c7.18-0.01,13-5.83,12.99-13.01c-0.13-2.79-1.23-5.44-3.11-7.51l-2.36-2.36
	c-1.25-1.24-1.64-3.66-0.85-5.24l0.43-0.84c1.02-1.76,2.84-2.89,4.87-3.03H143v35.02c0.14,2.78,1.7,5.3,4.13,6.66l0.84,0.43
	c2.54,1.15,5.51,0.67,7.56-1.22l2.36-2.36c1.36-1.37,4.17-2.53,6.11-2.53c6.08,0,11,4.92,11,11s-4.92,11-11,11
	c-2.26-0.13-4.42-1.02-6.11-2.53l-2.36-2.36c-2.04-1.89-5.02-2.37-7.56-1.22l-0.84,0.43C144.7,486.68,143.14,489.2,143,491.98z
	 M239,527h-35.02c-2.78,0.14-5.3,1.7-6.66,4.13l-0.43,0.84c-1.15,2.54-0.67,5.51,1.22,7.56l2.36,2.36c1.37,1.36,2.53,4.17,2.53,6.11
	c0,6.08-4.92,11-11,11s-11-4.92-11-11c0.13-2.26,1.02-4.42,2.53-6.11l2.36-2.36c1.89-2.04,2.37-5.02,1.22-7.56l-0.43-0.84
	c-1.36-2.43-3.88-3.99-6.66-4.13H145v-35.02c0.14-2.03,1.27-3.85,3.03-4.87l0.84-0.43c1.76-0.76,3.81-0.43,5.24,0.85l2.36,2.36
	c2.07,1.88,4.73,2.98,7.53,3.11c7.18-0.01,13-5.83,12.99-13.01c-0.01-7.18-5.83-13-13.01-12.99c-2.79,0.13-5.44,1.23-7.51,3.11
	l-2.36,2.36c-1.24,1.25-3.66,1.64-5.24,0.85l-0.84-0.43c-1.76-1.02-2.89-2.84-3.03-4.87V433h35.02c2.78-0.14,5.3-1.7,6.66-4.13
	l0.43-0.84c1.15-2.54,0.67-5.51-1.22-7.56l-2.36-2.36c-1.37-1.36-2.53-4.17-2.53-6.11c0-6.08,4.92-11,11-11s11,4.92,11,11
	c-0.13,2.26-1.02,4.42-2.53,6.11l-2.36,2.36c-1.89,2.04-2.37,5.02-1.22,7.56l0.43,0.84c1.36,2.43,3.88,3.99,6.66,4.13H239v35.02
	c-0.14,2.03-1.27,3.85-3.03,4.87l-0.84,0.43c-1.76,0.76-3.81,0.43-5.24-0.85l-2.36-2.36c-1.74-1.74-5.06-3.11-7.53-3.11
	c-7.18,0-13,5.82-13,13s5.82,13,13,13c2.8-0.13,5.46-1.23,7.53-3.11l2.36-2.36c1.24-1.25,3.65-1.65,5.24-0.85l0.84,0.43
	c1.76,1.02,2.89,2.84,3.03,4.87V527z M335,491.98V527h-35.02c-2.03-0.14-3.85-1.27-4.87-3.03l-0.43-0.84
	c-0.76-1.76-0.43-3.81,0.85-5.24l2.36-2.36c1.74-1.74,3.11-5.06,3.11-7.53c0-7.18-5.82-13-13-13s-13,5.82-13,13
	c0.13,2.8,1.23,5.46,3.11,7.53l2.36,2.36c1.25,1.24,1.65,3.65,0.85,5.24l-0.43,0.84c-1.02,1.76-2.84,2.89-4.87,3.03H241v-35.02
	c-0.14-2.78-1.7-5.3-4.13-6.66l-0.84-0.43c-2.54-1.15-5.51-0.67-7.56,1.22l-2.36,2.36c-1.36,1.37-4.17,2.53-6.11,2.53
	c-6.08,0-11-4.92-11-11s4.92-11,11-11c2.26,0.13,4.42,1.02,6.11,2.53l2.36,2.36c2.04,1.89,5.02,2.37,7.56,1.22l0.84-0.43
	c2.43-1.36,3.99-3.88,4.13-6.66V433h35.02c2.03,0.14,3.85,1.27,4.87,3.03l0.43,0.84c0.76,1.76,0.43,3.81-0.85,5.24l-2.36,2.36
	c-1.88,2.07-2.98,4.73-3.11,7.53c0.01,7.18,5.83,13,13.01,12.99c7.18-0.01,13-5.83,12.99-13.01c-0.13-2.79-1.23-5.44-3.11-7.51
	l-2.36-2.36c-1.25-1.24-1.64-3.66-0.85-5.24l0.43-0.84c1.02-1.76,2.84-2.89,4.87-3.03H335v35.02c0.14,2.78,1.7,5.3,4.13,6.66
	l0.84,0.43c2.54,1.15,5.51,0.67,7.56-1.22l2.36-2.36c1.36-1.37,4.17-2.53,6.11-2.53c6.08,0,11,4.92,11,11s-4.92,11-11,11
	c-2.26-0.13-4.42-1.02-6.11-2.53l-2.36-2.36c-2.04-1.89-5.02-2.37-7.56-1.22l-0.84,0.43C336.7,486.68,335.14,489.2,335,491.98z
	 M431,527h-35.02c-2.78,0.14-5.3,1.7-6.66,4.13l-0.43,0.84c-1.15,2.54-0.67,5.51,1.22,7.56l2.36,2.36c1.37,1.36,2.53,4.17,2.53,6.11
	c0,6.08-4.92,11-11,11s-11-4.92-11-11c0.13-2.26,1.02-4.42,2.53-6.11l2.36-2.36c1.89-2.04,2.37-5.02,1.22-7.56l-0.43-0.84
	c-1.36-2.43-3.88-3.99-6.66-4.13H337v-35.02c0.14-2.03,1.27-3.85,3.03-4.87l0.84-0.43c1.76-0.76,3.81-0.43,5.24,0.85l2.36,2.36
	c2.07,1.88,4.73,2.98,7.53,3.11c7.18-0.01,13-5.83,12.99-13.01c-0.01-7.18-5.83-13-13.01-12.99c-2.79,0.13-5.44,1.23-7.51,3.11
	l-2.36,2.36c-1.24,1.25-3.66,1.64-5.24,0.85l-0.84-0.43c-1.76-1.02-2.89-2.84-3.03-4.87V433h35.02c2.78-0.14,5.3-1.7,6.66-4.13
	l0.43-0.84c1.15-2.54,0.67-5.51-1.22-7.56l-2.36-2.36c-1.37-1.36-2.53-4.17-2.53-6.11c0-6.08,4.92-11,11-11s11,4.92,11,11
	c-0.13,2.26-1.02,4.42-2.53,6.11l-2.36,2.36c-1.89,2.04-2.37,5.02-1.22,7.56l0.43,0.84c1.36,2.43,3.88,3.99,6.66,4.13H431v35.02
	c-0.14,2.03-1.27,3.85-3.03,4.87l-0.84,0.43c-1.76,0.76-3.81,0.43-5.24-0.85l-2.36-2.36c-1.74-1.74-5.06-3.11-7.53-3.11
	c-7.18,0-13,5.82-13,13s5.82,13,13,13c2.8-0.13,5.46-1.23,7.53-3.11l2.36-2.36c1.24-1.25,3.65-1.65,5.24-0.85l0.84,0.43
	c1.76,1.02,2.89,2.84,3.03,4.87V527z M527,491.98V527h-35.02c-2.03-0.14-3.85-1.27-4.87-3.03l-0.43-0.84
	c-0.76-1.76-0.43-3.81,0.85-5.24l2.36-2.36c1.74-1.74,3.11-5.06,3.11-7.53c0-7.18-5.82-13-13-13s-13,5.82-13,13
	c0.13,2.8,1.23,5.46,3.11,7.53l2.36,2.36c1.25,1.24,1.65,3.65,0.85,5.24l-0.43,0.84c-1.02,1.76-2.84,2.89-4.87,3.03H433v-35.02
	c-0.14-2.78-1.7-5.3-4.13-6.66l-0.84-0.43c-2.54-1.15-5.51-0.67-7.56,1.22l-2.36,2.36c-1.36,1.37-4.17,2.53-6.11,2.53
	c-6.08,0-11-4.92-11-11s4.92-11,11-11c2.26,0.13,4.42,1.02,6.11,2.53l2.36,2.36c2.04,1.89,5.02,2.37,7.56,1.22l0.84-0.43
	c2.43-1.36,3.99-3.88,4.13-6.66V433h35.02c2.03,0.14,3.85,1.27,4.87,3.03l0.43,0.84c0.76,1.76,0.43,3.81-0.85,5.24l-2.36,2.36
	c-1.88,2.07-2.98,4.73-3.11,7.53c0.01,7.18,5.83,13,13.01,12.99c7.18-0.01,13-5.83,12.99-13.01c-0.13-2.79-1.23-5.44-3.11-7.51
	l-2.36-2.36c-1.25-1.24-1.64-3.66-0.85-5.24l0.43-0.84c1.02-1.76,2.84-2.89,4.87-3.03H527v35.02c0.14,2.78,1.7,5.3,4.13,6.66
	l0.84,0.43c2.54,1.15,5.51,0.67,7.56-1.22l2.36-2.36c1.36-1.37,4.17-2.53,6.11-2.53c6.08,0,11,4.92,11,11s-4.92,11-11,11
	c-2.26-0.13-4.42-1.02-6.11-2.53l-2.36-2.36c-2.04-1.89-5.02-2.37-7.56-1.22l-0.84,0.43C528.7,486.68,527.14,489.2,527,491.98z
	 M622,527h-35.02c-2.78,0.14-5.3,1.7-6.66,4.13l-0.43,0.84c-1.15,2.54-0.67,5.51,1.22,7.56l2.36,2.36c1.37,1.36,2.53,4.17,2.53,6.11
	c0,5.91-4.66,10.71-10.5,10.97c-5.84-0.26-10.5-5.07-10.5-10.97c0.13-2.26,1.02-4.42,2.53-6.11l2.36-2.36
	c1.89-2.04,2.37-5.02,1.22-7.56l-0.43-0.84c-1.36-2.43-3.88-3.99-6.66-4.13H529v-35.02c0.14-2.03,1.27-3.85,3.03-4.87l0.84-0.43
	c1.76-0.76,3.81-0.43,5.24,0.85l2.36,2.36c2.07,1.88,4.73,2.98,7.53,3.11c7.18-0.01,13-5.83,12.99-13.01
	c-0.01-7.18-5.83-13-13.01-12.99c-2.79,0.13-5.44,1.23-7.51,3.11l-2.36,2.36c-1.24,1.25-3.66,1.64-5.24,0.85l-0.84-0.43
	c-1.76-1.02-2.89-2.84-3.03-4.87V433h35.02c2.78-0.14,5.3-1.7,6.66-4.13l0.43-0.84c1.15-2.54,0.67-5.51-1.22-7.56l-2.36-2.36
	c-1.37-1.36-2.53-4.17-2.53-6.11c0-5.91,4.66-10.71,10.5-10.97c5.84,0.26,10.5,5.07,10.5,10.97c-0.13,2.26-1.02,4.42-2.53,6.11
	l-2.36,2.36c-1.89,2.04-2.37,5.02-1.22,7.56l0.43,0.84c1.36,2.43,3.88,3.99,6.66,4.13H622v35.02c-0.14,2.03-1.27,3.85-3.03,4.87
	l-0.84,0.43c-1.76,0.76-3.81,0.43-5.24-0.85l-2.36-2.36c-1.74-1.74-5.06-3.11-7.53-3.11c-7.18,0-13,5.82-13,13s5.82,13,13,13
	c2.8-0.13,5.46-1.23,7.53-3.11l2.36-2.36c1.24-1.25,3.65-1.65,5.24-0.85l0.84,0.43c1.76,1.02,2.89,2.84,3.03,4.87V527z M718,491.98
	V527h-35.02c-2.03-0.14-3.85-1.27-4.87-3.03l-0.43-0.84c-0.76-1.76-0.43-3.81,0.85-5.24l2.36-2.36c1.74-1.74,3.11-5.06,3.11-7.53
	c0-7.18-5.82-13-13-13s-13,5.82-13,13c0.13,2.8,1.23,5.46,3.11,7.53l2.36,2.36c1.25,1.24,1.65,3.65,0.85,5.24l-0.43,0.84
	c-1.02,1.76-2.84,2.89-4.87,3.03H624v-35.02c-0.14-2.78-1.7-5.3-4.13-6.66l-0.84-0.43c-2.54-1.15-5.51-0.67-7.56,1.22l-2.36,2.36
	c-1.36,1.37-4.17,2.53-6.11,2.53c-6.08,0-11-4.92-11-11s4.92-11,11-11c2.26,0.13,4.42,1.02,6.11,2.53l2.36,2.36
	c2.04,1.89,5.02,2.37,7.56,1.22l0.84-0.43c2.43-1.36,3.99-3.88,4.13-6.66V433h35.02c2.03,0.14,3.85,1.27,4.87,3.03l0.43,0.84
	c0.76,1.76,0.43,3.81-0.85,5.24l-2.36,2.36c-1.88,2.07-2.98,4.73-3.11,7.53c0.01,7.18,5.83,13,13.01,12.99
	c7.18-0.01,13-5.83,12.99-13.01c-0.13-2.79-1.23-5.44-3.11-7.51l-2.36-2.36c-1.25-1.24-1.64-3.66-0.85-5.24l0.43-0.84
	c1.02-1.76,2.84-2.89,4.87-3.03H718v35.02c0.14,2.78,1.7,5.3,4.13,6.66l0.84,0.43c2.54,1.15,5.51,0.67,7.56-1.22l2.36-2.36
	c1.36-1.37,4.17-2.53,6.11-2.53c6.08,0,11,4.92,11,11s-4.92,11-11,11c-2.26-0.13-4.42-1.02-6.11-2.53l-2.36-2.36
	c-2.04-1.89-5.02-2.37-7.56-1.22l-0.84,0.43C719.7,486.68,718.14,489.2,718,491.98z M814,527h-35.02c-2.78,0.14-5.3,1.7-6.66,4.13
	l-0.43,0.84c-1.15,2.54-0.67,5.51,1.22,7.56l2.36,2.36c1.37,1.36,2.53,4.17,2.53,6.11c0,6.08-4.92,11-11,11s-11-4.92-11-11
	c0.13-2.26,1.02-4.42,2.53-6.11l2.36-2.36c1.89-2.04,2.37-5.02,1.22-7.56l-0.43-0.84c-1.36-2.43-3.88-3.99-6.66-4.13H720v-35.02
	c0.14-2.03,1.27-3.85,3.03-4.87l0.84-0.43c1.76-0.76,3.81-0.43,5.24,0.85l2.36,2.36c2.07,1.88,4.73,2.98,7.53,3.11
	c7.18-0.01,13-5.83,12.99-13.01c-0.01-7.18-5.83-13-13.01-12.99c-2.79,0.13-5.44,1.23-7.51,3.11l-2.36,2.36
	c-1.24,1.25-3.66,1.64-5.24,0.85l-0.84-0.43c-1.76-1.02-2.89-2.84-3.03-4.87V433h35.02c2.78-0.14,5.3-1.7,6.66-4.13l0.43-0.84
	c1.15-2.54,0.67-5.51-1.22-7.56l-2.36-2.36c-1.37-1.36-2.53-4.17-2.53-6.11c0-6.08,4.92-11,11-11s11,4.92,11,11
	c-0.13,2.26-1.02,4.42-2.53,6.11l-2.36,2.36c-1.89,2.04-2.37,5.02-1.22,7.56l0.43,0.84c1.36,2.43,3.88,3.99,6.66,4.13H814v35.02
	c-0.14,2.03-1.27,3.85-3.03,4.87l-0.84,0.43c-1.76,0.76-3.81,0.43-5.24-0.85l-2.36-2.36c-1.74-1.74-5.06-3.11-7.53-3.11
	c-7.18,0-13,5.82-13,13s5.82,13,13,13c2.8-0.13,5.46-1.23,7.53-3.11l2.36-2.36c1.24-1.25,3.65-1.65,5.24-0.85l0.84,0.43
	c1.76,1.02,2.89,2.84,3.03,4.87V527z M910,491.98V527h-35.02c-2.03-0.14-3.85-1.27-4.87-3.03l-0.43-0.84
	c-0.76-1.76-0.43-3.81,0.85-5.24l2.36-2.36c1.74-1.74,3.11-5.06,3.11-7.53c0-7.18-5.82-13-13-13s-13,5.82-13,13
	c0.13,2.8,1.23,5.46,3.11,7.53l2.36,2.36c1.25,1.24,1.65,3.65,0.85,5.24l-0.43,0.84c-1.02,1.76-2.84,2.89-4.87,3.03H816v-35.02
	c-0.14-2.78-1.7-5.3-4.13-6.66l-0.84-0.43c-2.54-1.15-5.51-0.67-7.56,1.22l-2.36,2.36c-1.36,1.37-4.17,2.53-6.11,2.53
	c-6.08,0-11-4.92-11-11s4.92-11,11-11c2.26,0.13,4.42,1.02,6.11,2.53l2.36,2.36c2.04,1.89,5.02,2.37,7.56,1.22l0.84-0.43
	c2.43-1.36,3.99-3.88,4.13-6.66V433h35.02c2.03,0.14,3.85,1.27,4.87,3.03l0.43,0.84c0.76,1.76,0.43,3.81-0.85,5.24l-2.36,2.36
	c-1.88,2.07-2.98,4.73-3.11,7.53c0.01,7.18,5.83,13,13.01,12.99c7.18-0.01,13-5.83,12.99-13.01c-0.13-2.79-1.23-5.44-3.11-7.51
	l-2.36-2.36c-1.25-1.24-1.64-3.66-0.85-5.24l0.43-0.84c1.02-1.76,2.84-2.89,4.87-3.03H910v35.02c0.14,2.78,1.7,5.3,4.13,6.66
	l0.84,0.43c2.54,1.15,5.51,0.67,7.56-1.22l2.36-2.36c1.36-1.37,4.17-2.53,6.11-2.53c6.08,0,11,4.92,11,11s-4.92,11-11,11
	c-2.26-0.13-4.42-1.02-6.11-2.53l-2.36-2.36c-2.04-1.89-5.02-2.37-7.56-1.22l-0.84,0.43C911.7,486.68,910.14,489.2,910,491.98z
	 M1006,527h-35.02c-2.78,0.14-5.3,1.7-6.66,4.13l-0.43,0.84c-1.15,2.54-0.67,5.51,1.22,7.56l2.36,2.36
	c1.37,1.36,2.53,4.17,2.53,6.11c0,6.08-4.92,11-11,11s-11-4.92-11-11c0.13-2.26,1.02-4.42,2.53-6.11l2.36-2.36
	c1.89-2.04,2.37-5.02,1.22-7.56l-0.43-0.84c-1.36-2.43-3.88-3.99-6.66-4.13H912v-35.02c0.14-2.03,1.27-3.85,3.03-4.87l0.84-0.43
	c1.76-0.76,3.81-0.43,5.24,0.85l2.36,2.36c2.07,1.88,4.73,2.98,7.53,3.11c7.18-0.01,13-5.83,12.99-13.01
	c-0.01-7.18-5.83-13-13.01-12.99c-2.79,0.13-5.44,1.23-7.51,3.11l-2.36,2.36c-1.24,1.25-3.66,1.64-5.24,0.85l-0.84-0.43
	c-1.76-1.02-2.89-2.84-3.03-4.87V433h35.02c2.78-0.14,5.3-1.7,6.66-4.13l0.43-0.84c1.15-2.54,0.67-5.51-1.22-7.56l-2.36-2.36
	c-1.37-1.36-2.53-4.17-2.53-6.11c0-6.08,4.92-11,11-11s11,4.92,11,11c-0.13,2.26-1.02,4.42-2.53,6.11l-2.36,2.36
	c-1.89,2.04-2.37,5.02-1.22,7.56l0.43,0.84c1.36,2.43,3.88,3.99,6.66,4.13H1006v35.02c-0.14,2.03-1.27,3.85-3.03,4.87l-0.84,0.43
	c-1.76,0.76-3.81,0.43-5.24-0.85l-2.36-2.36c-1.74-1.74-5.06-3.11-7.53-3.11c-7.18,0-13,5.82-13,13s5.82,13,13,13
	c2.8-0.13,5.46-1.23,7.53-3.11l2.36-2.36c1.24-1.25,3.65-1.65,5.24-0.85l0.84,0.43c1.76,1.02,2.89,2.84,3.03,4.87V527z
	 M1106.13,474.68l0.84,0.43c2.54,1.15,5.51,0.67,7.56-1.22l2.36-2.36c1.36-1.37,4.17-2.53,6.11-2.53c6.08,0,11,4.92,11,11
	s-4.92,11-11,11c-2.26-0.13-4.42-1.02-6.11-2.53l-2.36-2.36c-2.04-1.89-5.02-2.37-7.56-1.22l-0.84,0.43
	c-2.43,1.36-3.99,3.88-4.13,6.66V527h-35.02c-2.03-0.14-3.85-1.27-4.87-3.03l-0.43-0.84c-0.76-1.76-0.43-3.81,0.85-5.24l2.36-2.36
	c1.74-1.74,3.11-5.06,3.11-7.53c0-7.18-5.82-13-13-13s-13,5.82-13,13c0.13,2.8,1.23,5.46,3.11,7.53l2.36,2.36
	c1.25,1.24,1.65,3.65,0.85,5.24l-0.43,0.84c-1.02,1.76-2.84,2.89-4.87,3.03H1008v-35.02c-0.14-2.78-1.7-5.3-4.13-6.66l-0.84-0.43
	c-2.54-1.15-5.51-0.67-7.56,1.22l-2.36,2.36c-1.36,1.37-4.17,2.53-6.11,2.53c-6.08,0-11-4.92-11-11s4.92-11,11-11
	c2.26,0.13,4.42,1.02,6.11,2.53l2.36,2.36c2.04,1.89,5.02,2.37,7.56,1.22l0.84-0.43c2.43-1.36,3.99-3.88,4.13-6.66V433h35.02
	c2.03,0.14,3.85,1.27,4.87,3.03l0.43,0.84c0.76,1.76,0.43,3.81-0.85,5.24l-2.36,2.36c-1.88,2.07-2.98,4.73-3.11,7.53
	c0.01,7.18,5.83,13,13.01,12.99c7.18-0.01,13-5.83,12.99-13.01c-0.13-2.79-1.23-5.44-3.11-7.51l-2.36-2.36
	c-1.25-1.24-1.64-3.66-0.85-5.24l0.43-0.84c1.02-1.76,2.84-2.89,4.87-3.03H1102v35.02C1102.14,470.8,1103.7,473.32,1106.13,474.68z
	 M1102,372.02c-0.14,2.03-1.27,3.85-3.03,4.87l-0.84,0.43c-1.76,0.76-3.81,0.43-5.24-0.85l-2.36-2.36
	c-1.74-1.74-5.06-3.11-7.53-3.11c-7.18,0-13,5.82-13,13s5.82,13,13,13c2.8-0.13,5.46-1.23,7.53-3.11l2.36-2.36
	c1.24-1.25,3.65-1.65,5.24-0.85l0.84,0.43c1.76,1.02,2.89,2.84,3.03,4.87V431h-35.02c-2.78,0.14-5.3,1.7-6.66,4.13l-0.43,0.84
	c-1.15,2.54-0.67,5.51,1.22,7.56l2.36,2.36c1.37,1.36,2.53,4.17,2.53,6.11c0,6.08-4.92,11-11,11s-11-4.92-11-11
	c0.13-2.26,1.02-4.42,2.53-6.11l2.36-2.36c1.89-2.04,2.37-5.02,1.22-7.56l-0.43-0.84c-1.36-2.43-3.88-3.99-6.66-4.13H1008v-35.02
	c0.14-2.03,1.27-3.85,3.03-4.87l0.84-0.43c1.76-0.76,3.81-0.43,5.24,0.85l2.36,2.36c2.07,1.88,4.73,2.98,7.53,3.11
	c7.18,0,13-5.82,13-13c0-0.01,0-0.01,0-0.02c-0.01-7.18-5.84-12.99-13.02-12.98c-2.79,0.13-5.44,1.23-7.51,3.11l-2.36,2.36
	c-1.24,1.25-3.66,1.64-5.24,0.85l-0.84-0.43c-1.76-1.02-2.89-2.84-3.03-4.87V337h35.02c2.78-0.14,5.3-1.7,6.66-4.13l0.43-0.84
	c1.15-2.54,0.67-5.51-1.22-7.56l-2.36-2.36c-1.37-1.36-2.53-4.17-2.53-6.11c0-6.08,4.92-11,11-11s11,4.92,11,11
	c-0.13,2.26-1.02,4.42-2.53,6.11l-2.36,2.36c-1.89,2.04-2.37,5.02-1.22,7.56l0.43,0.84c1.36,2.43,3.88,3.99,6.66,4.13H1102V372.02z
	 M1106.13,282.68l0.84,0.43c2.54,1.15,5.51,0.67,7.56-1.22l2.36-2.36c1.36-1.37,4.17-2.53,6.11-2.53c6.08,0,11,4.92,11,11
	s-4.92,11-11,11c-2.26-0.13-4.42-1.02-6.11-2.53l-2.36-2.36c-2.04-1.89-5.02-2.37-7.56-1.22l-0.84,0.43
	c-2.43,1.36-3.99,3.88-4.13,6.66V335h-35.02c-2.03-0.14-3.85-1.27-4.87-3.03l-0.43-0.84c-0.76-1.76-0.43-3.81,0.85-5.24l2.36-2.36
	c1.74-1.74,3.11-5.06,3.11-7.53c0-7.18-5.82-13-13-13s-13,5.82-13,13c0.13,2.8,1.23,5.46,3.11,7.53l2.36,2.36
	c1.25,1.24,1.65,3.65,0.85,5.24l-0.43,0.84c-1.02,1.76-2.84,2.89-4.87,3.03H1008v-35.02c-0.14-2.78-1.7-5.3-4.13-6.66l-0.84-0.43
	c-2.54-1.15-5.51-0.67-7.56,1.22l-2.36,2.36c-1.36,1.37-4.17,2.53-6.11,2.53c-6.08,0-11-4.92-11-11s4.92-11,11-11
	c2.26,0.13,4.42,1.02,6.11,2.53l2.36,2.36c2.04,1.89,5.02,2.37,7.56,1.22l0.84-0.43c2.43-1.36,3.99-3.88,4.13-6.66V241h35.02
	c2.03,0.14,3.85,1.27,4.87,3.03l0.43,0.84c0.76,1.76,0.43,3.81-0.85,5.24l-2.36,2.36c-1.88,2.07-2.98,4.73-3.11,7.53
	c0.01,7.18,5.83,13,13.01,12.99c7.18-0.01,13-5.83,12.99-13.01c-0.13-2.79-1.23-5.44-3.11-7.51l-2.36-2.36
	c-1.25-1.24-1.64-3.66-0.85-5.24l0.43-0.84c1.02-1.76,2.84-2.89,4.87-3.03H1102v35.02C1102.14,278.8,1103.7,281.32,1106.13,282.68z
	 M1102,180.02c-0.14,2.03-1.27,3.85-3.03,4.87l-0.84,0.43c-1.76,0.76-3.81,0.43-5.24-0.85l-2.36-2.36
	c-1.74-1.74-5.06-3.11-7.53-3.11c-7.18,0-13,5.82-13,13s5.82,13,13,13c2.8-0.13,5.46-1.23,7.53-3.11l2.36-2.36
	c1.24-1.25,3.65-1.65,5.24-0.85l0.84,0.43c1.76,1.02,2.89,2.84,3.03,4.87V239h-35.02c-2.78,0.14-5.3,1.7-6.66,4.13l-0.43,0.84
	c-1.15,2.54-0.67,5.51,1.22,7.56l2.36,2.36c1.37,1.36,2.53,4.17,2.53,6.11c0,6.08-4.92,11-11,11s-11-4.92-11-11
	c0.13-2.26,1.02-4.42,2.53-6.11l2.36-2.36c1.89-2.04,2.37-5.02,1.22-7.56l-0.43-0.84c-1.36-2.43-3.88-3.99-6.66-4.13H1008v-35.02
	c0.14-2.03,1.27-3.85,3.03-4.87l0.84-0.43c1.76-0.76,3.81-0.43,5.24,0.85l2.36,2.36c2.07,1.88,4.73,2.98,7.53,3.11
	c7.18,0,13-5.82,13-13c0-0.01,0-0.01,0-0.02c-0.01-7.18-5.84-12.99-13.02-12.98c-2.79,0.13-5.44,1.23-7.51,3.11l-2.36,2.36
	c-1.24,1.25-3.66,1.64-5.24,0.85l-0.84-0.43c-1.76-1.02-2.89-2.84-3.03-4.87V145h35.02c2.78-0.14,5.3-1.7,6.66-4.13l0.43-0.84
	c1.15-2.54,0.67-5.51-1.22-7.56l-2.36-2.36c-1.37-1.36-2.53-4.17-2.53-6.11c0-6.08,4.92-11,11-11s11,4.92,11,11
	c-0.13,2.26-1.02,4.42-2.53,6.11l-2.36,2.36c-1.89,2.04-2.37,5.02-1.22,7.56l0.43,0.84c1.36,2.43,3.88,3.99,6.66,4.13H1102V180.02z
	 M1106.13,90.68l0.84,0.43c2.54,1.15,5.51,0.67,7.56-1.22l2.36-2.36c1.36-1.37,4.17-2.53,6.11-2.53c6.08,0,11,4.92,11,11
	s-4.92,11-11,11c-2.26-0.13-4.42-1.02-6.11-2.53l-2.36-2.36c-2.04-1.89-5.02-2.37-7.56-1.22l-0.84,0.43
	c-2.43,1.36-3.99,3.88-4.13,6.66V143h-35.02c-2.03-0.14-3.85-1.27-4.87-3.03l-0.43-0.84c-0.76-1.76-0.43-3.81,0.85-5.24l2.36-2.36
	c1.74-1.74,3.11-5.06,3.11-7.53c0-7.18-5.82-13-13-13s-13,5.82-13,13c0.13,2.8,1.23,5.46,3.11,7.53l2.36,2.36
	c1.25,1.24,1.65,3.65,0.85,5.24l-0.43,0.84c-1.02,1.76-2.84,2.89-4.87,3.03H1008v-35.02c-0.14-2.78-1.7-5.3-4.13-6.66l-0.84-0.43
	c-2.54-1.15-5.51-0.67-7.56,1.22l-2.36,2.36c-1.36,1.37-4.17,2.53-6.11,2.53c-6.08,0-11-4.92-11-11s4.92-11,11-11
	c2.26,0.13,4.42,1.02,6.11,2.53l2.36,2.36c2.04,1.89,5.02,2.37,7.56,1.22l0.84-0.43c2.43-1.36,3.99-3.88,4.13-6.66V49h35.02
	c2.03,0.14,3.85,1.27,4.87,3.03l0.43,0.84c0.76,1.76,0.43,3.81-0.85,5.24l-2.36,2.36c-1.88,2.07-2.98,4.73-3.11,7.53
	c0.01,7.18,5.83,13,13.01,12.99c7.18-0.01,13-5.83,12.99-13.01c-0.13-2.79-1.23-5.44-3.11-7.51l-2.36-2.36
	c-1.25-1.24-1.64-3.66-0.85-5.24l0.43-0.84c1.02-1.76,2.84-2.89,4.87-3.03H1102v35.02C1102.14,86.8,1103.7,89.32,1106.13,90.68z"/>
</svg>
