<?xml version="1.0"?>
<svg xmlns="http://www.w3.org/2000/svg" height="512px" viewBox="0 0 512 512" width="512px" class=""><g><path d="m343.394531 105.929688h124.46875c24.375 0 44.136719 19.761718 44.136719 44.140624v317.792969c0 24.375-19.761719 44.136719-44.136719 44.136719h-423.726562c-11.703125 0-22.929688-4.648438-31.210938-12.925781-8.277343-8.28125-12.925781-19.507813-12.925781-31.210938v-361.933593zm0 0" fill="#b49aca" data-original="#B49ACA" class="" data-old_color="#b49aca" style="fill:#6F6EAE"/><path d="m0 432.550781c0-24.375 19.761719-44.136719 44.136719-44.136719 24.378906 0 44.140625 19.761719 44.140625 44.136719v-353.101562c0-24.378907-19.761719-44.140625-44.140625-44.140625-24.375 0-44.136719 19.761718-44.136719 44.140625zm0 0" fill="#7d6599" data-original="#7D6599" class="" data-old_color="#7d6599" style="fill:#4846AC"/><path d="m168.09375 397.242188c-3.011719-.003907-5.8125-1.546876-7.433594-4.089844-1.617187-2.539063-1.824218-5.730469-.554687-8.464844l18.644531-40.003906c1.332031-2.859375 4.089844-4.792969 7.230469-5.066406 3.140625-.277344 6.191406 1.144531 8.003906 3.730468 1.808594 2.582032 2.101563 5.933594.769531 8.792969l-18.644531 40.007813c-1.453125 3.113281-4.578125 5.097656-8.015625 5.09375zm0 0" fill="#f3d55b" data-original="#F3D55B" class="" data-old_color="#f3d55b" style="fill:#FBC791"/><path d="m432.179688 397.242188c-3.433594 0-6.554688-1.988282-8.003907-5.101563l-18.644531-40.007813c-1.332031-2.859374-1.039062-6.210937.769531-8.796874 1.808594-2.582032 4.859375-4.003907 8.003907-3.726563 3.140624.273437 5.898437 2.203125 7.230468 5.0625l18.644532 40.007813c1.273437 2.734374 1.066406 5.929687-.554688 8.476562-1.617188 2.542969-4.425781 4.085938-7.445312 4.085938zm0 0" fill="#f3d55b" data-original="#F3D55B" class="" data-old_color="#f3d55b" style="fill:#FBC791"/><path d="m300.136719 282.484375c-25.871094.058594-51.464844-5.355469-75.09375-15.890625-4.453125-1.984375-6.457031-7.203125-4.472657-11.65625 1.984376-4.453125 7.203126-6.457031 11.65625-4.472656 43.253907 19.109375 92.558594 19.109375 135.8125 0 4.453126-1.984375 9.671876.019531 11.65625 4.472656 1.984376 4.453125-.015624 9.671875-4.46875 11.65625-23.628906 10.53125-49.21875 15.949219-75.089843 15.890625zm0 0" fill="#e57e25" data-original="#E57E25"/><g fill="#df4d60"><path d="m397.242188 441.378906h-194.207032c-3.570312 0-6.789062-2.152344-8.15625-5.449218-1.363281-3.296876-.609375-7.09375 1.914063-9.617188l26.484375-26.484375c3.460937-3.34375 8.96875-3.296875 12.375.105469 3.402344 3.40625 3.453125 8.914062.105468 12.375l-11.414062 11.414062h172.898438c4.875 0 8.828124 3.953125 8.828124 8.828125s-3.953124 8.828125-8.828124 8.828125zm0 0" data-original="#000000" class="active-path" style="fill:#B8C1DB" data-old_color="#000000"/><path d="m229.515625 467.863281c-2.339844 0-4.585937-.933593-6.238281-2.585937l-26.484375-26.484375c-3.34375-3.464844-3.296875-8.96875.109375-12.375 3.402344-3.40625 8.910156-3.453125 12.375-.105469l26.480468 26.480469c2.523438 2.523437 3.277344 6.320312 1.914063 9.621093-1.367187 3.296876-4.585937 5.445313-8.15625 5.449219zm0 0" data-original="#000000" class="active-path" style="fill:#B8C1DB" data-old_color="#000000"/><path d="m397.242188 441.378906c-2.34375 0-4.585938-.929687-6.242188-2.585937l-26.484375-26.484375c-3.34375-3.460938-3.296875-8.96875.109375-12.375 3.40625-3.402344 8.910156-3.449219 12.375-.105469l26.484375 26.484375c2.523437 2.523438 3.277344 6.320312 1.910156 9.617188-1.367187 3.296874-4.582031 5.449218-8.152343 5.449218zm0 0" data-original="#000000" class="active-path" style="fill:#B8C1DB" data-old_color="#000000"/><path d="m370.757812 467.863281c-3.570312-.003906-6.785156-2.152343-8.152343-5.449219-1.367188-3.300781-.613281-7.097656 1.910156-9.621093l26.484375-26.480469c3.464844-3.347656 8.96875-3.300781 12.375.105469s3.453125 8.910156.109375 12.375l-26.484375 26.484375c-1.65625 1.652344-3.898438 2.585937-6.242188 2.585937zm0 0" data-original="#000000" class="active-path" style="fill:#B8C1DB" data-old_color="#000000"/></g><path d="m123.585938 176.550781c-4.875 0-8.828126-3.953125-8.828126-8.828125v-26.480468c0-4.875 3.953126-8.828126 8.828126-8.828126h26.484374c4.875 0 8.828126 3.953126 8.828126 8.828126s-3.953126 8.828124-8.828126 8.828124h-17.65625v17.652344c0 4.875-3.953124 8.828125-8.828124 8.828125zm0 0" fill="#3d324c" data-original="#3D324C" class="" data-old_color="#3d324c" style="fill:#3C3A9A"/><path d="m476.691406 176.550781c-4.878906 0-8.828125-3.953125-8.828125-8.828125v-17.652344h-17.65625c-4.875 0-8.828125-3.953124-8.828125-8.828124s3.953125-8.828126 8.828125-8.828126h26.484375c4.875 0 8.824219 3.953126 8.824219 8.828126v26.480468c0 4.875-3.949219 8.828125-8.824219 8.828125zm0 0" fill="#3d324c" data-original="#3D324C" class="" data-old_color="#3d324c" style="fill:#3C3A9A"/><path d="m150.070312 485.515625h-26.484374c-4.875 0-8.828126-3.949219-8.828126-8.824219v-26.484375c0-4.875 3.953126-8.828125 8.828126-8.828125s8.828124 3.953125 8.828124 8.828125v17.65625h17.65625c4.875 0 8.828126 3.949219 8.828126 8.828125 0 4.875-3.953126 8.824219-8.828126 8.824219zm0 0" fill="#3d324c" data-original="#3D324C" class="" data-old_color="#3d324c" style="fill:#3C3A9A"/><path d="m476.691406 485.515625h-26.484375c-4.875 0-8.828125-3.949219-8.828125-8.824219 0-4.878906 3.953125-8.828125 8.828125-8.828125h17.65625v-17.65625c0-4.875 3.949219-8.828125 8.828125-8.828125 4.875 0 8.824219 3.953125 8.824219 8.828125v26.484375c0 4.875-3.949219 8.824219-8.824219 8.824219zm0 0" fill="#3d324c" data-original="#3D324C" class="" data-old_color="#3d324c" style="fill:#3C3A9A"/><path d="m273.65625 61.792969v-35.308594c0-14.628906 11.855469-26.484375 26.480469-26.484375 14.628906 0 26.484375 11.855469 26.484375 26.484375v35.308594zm0 0" fill="#f3d55b" data-original="#F3D55B" class="" data-old_color="#f3d55b" style="fill:#FBC791"/><path d="m179.28125 373.230469c-1.285156 0-2.554688-.28125-3.71875-.820313-10.613281-4.9375-18.824219-13.894531-22.820312-24.894531-3.996094-11.003906-3.449219-23.140625 1.519531-33.738281l96.113281-206.082032c1.226562-2.628906 3.667969-4.488281 6.527344-4.972656 2.863281-.484375 5.777344.46875 7.800781 2.546875l26.308594 27.011719c2.558593 2.632812 3.222656 6.570312 1.667969 9.894531l-105.394532 225.933594c-1.441406 3.121094-4.566406 5.121094-8.003906 5.121094zm0 0" fill="#f3d55b" data-original="#F3D55B" class="" data-old_color="#f3d55b" style="fill:#FBC791"/><path d="m420.996094 373.230469c-3.433594.003906-6.554688-1.984375-8.007813-5.09375l-105.398437-226.011719c-1.558594-3.324219-.890625-7.265625 1.667968-9.898438l26.304688-27.011718c2.023438-2.078125 4.941406-3.03125 7.800781-2.546875s5.300781 2.347656 6.527344 4.976562l96.132813 206.125c4.960937 10.59375 5.503906 22.726563 1.507812 33.722657-4 10.996093-12.210938 19.949218-22.820312 24.882812-1.160157.550781-2.429688.84375-3.714844.855469zm0 0" fill="#f3d55b" data-original="#F3D55B" class="" data-old_color="#f3d55b" style="fill:#FBC791"/><path d="m344.277344 97.101562c0 24.378907-19.761719 44.140626-44.140625 44.140626-24.375 0-44.136719-19.761719-44.136719-44.140626 0-24.375 19.761719-44.136718 44.136719-44.136718 24.378906 0 44.140625 19.761718 44.140625 44.136718zm0 0" fill="#e57e25" data-original="#E57E25"/><path d="m300.136719 105.929688c-.589844-.019532-1.179688-.078126-1.765625-.175782-.550782-.097656-1.085938-.277344-1.585938-.527344-.566406-.195312-1.105468-.460937-1.597656-.796874-.460938-.324219-.902344-.679688-1.316406-1.058594-3.425782-3.453125-3.410156-9.03125.035156-12.46875 3.445312-3.433594 9.019531-3.433594 12.464844 0 3.445312 3.4375 3.460937 9.015625.035156 12.46875-.433594.402344-.90625.757812-1.414062 1.058594-.449219.351562-.957032.617187-1.5.796874-.527344.265626-1.09375.441407-1.675782.527344-.554687.101563-1.117187.160156-1.679687.175782zm0 0" fill="#f3d55b" data-original="#F3D55B" class="" data-old_color="#f3d55b" style="fill:#FBC791"/></g> </svg>
