<svg id="Layer_1" data-name="Layer 1" xmlns="http://www.w3.org/2000/svg" xmlns:xlink="http://www.w3.org/1999/xlink" viewBox="0 0 541.53 339.82"><defs><linearGradient id="linear-gradient" x1="270.32" y1="454.45" x2="270.32" y2="108.43" gradientTransform="matrix(1, 0, 0, -1, 0, 458)" gradientUnits="userSpaceOnUse"><stop offset="0" stop-color="#2d0066"/><stop offset="1" stop-color="#570997"/></linearGradient><clipPath id="clip-path"><rect x="-14.63" y="-4.79" width="569.91" height="356.19" rx="6.29" fill="none"/></clipPath><linearGradient id="linear-gradient-2" x1="279.18" y1="477.09" x2="424.77" y2="333.36" gradientTransform="matrix(1, 0, 0, -1, 83.37, 581.21)" gradientUnits="userSpaceOnUse"><stop offset="0" stop-color="#651fff"/><stop offset="1"/></linearGradient><linearGradient id="linear-gradient-3" x1="305.72" y1="455.65" x2="336.2" y2="582.97" gradientTransform="matrix(1, 0, 0, -1, 83.37, 581.21)" gradientUnits="userSpaceOnUse"><stop offset="0" stop-color="#4064ff"/><stop offset="1"/></linearGradient><linearGradient id="linear-gradient-4" x1="186" y1="434.34" x2="530.66" y2="425.31" xlink:href="#linear-gradient-3"/><linearGradient id="linear-gradient-5" x1="302.89" y1="365.55" x2="308.89" y2="186.55" gradientTransform="matrix(1, 0, 0, -1, 83.37, 581.21)" gradientUnits="userSpaceOnUse"><stop offset="0" stop-color="#d500f9"/><stop offset="1"/></linearGradient><linearGradient id="linear-gradient-6" x1="27.89" y1="298.24" x2="30.55" y2="208.24" gradientTransform="matrix(1, 0, 0, -1, 83.37, 581.21)" gradientUnits="userSpaceOnUse"><stop offset="0" stop-color="#448aff"/><stop offset="1"/></linearGradient><linearGradient id="linear-gradient-7" x1="290.28" y1="373.65" x2="321.28" y2="621.65" xlink:href="#linear-gradient-5"/><clipPath id="clip-path-2"><circle cx="380.79" cy="223.71" r="50.4" fill="none"/></clipPath><clipPath id="clip-path-3"><circle cx="246.93" cy="-20.05" r="50.4" fill="none"/></clipPath><clipPath id="clip-path-4"><circle cx="538.29" cy="360.69" r="86.17" transform="translate(-97.39 486.27) rotate(-45)" fill="none"/></clipPath></defs><title>Artboard 1</title><rect x="-14.63" y="-4.79" width="569.91" height="356.19" rx="6.29" fill="url(#linear-gradient)"/><g clip-path="url(#clip-path)"><path d="M560.42,56.77c.65,43.21-8.65,116.2-124.36,124.38-94.59,6.68-156.68,43.57-172,105.55-13.3,53.62,23.13,138.19,158,134.21C561.14,416.8,605,272.7,591.32,219s2.79-127.38,68.44-128.52C691,90,671.24,57.1,640.7,35.59,606.94,11.82,559.47-6.45,560.42,56.77Z" opacity="0.74" fill="url(#linear-gradient-2)" style="isolation:isolate"/><path d="M290.06-97.53c-23.69,32.28-32.92,155.1,55.12,198.44s207.25,3.73,227.57-85.33-56.22-23-108.38-77.21S335.85-159.79,290.06-97.53Z" opacity="0.74" fill="url(#linear-gradient-3)" style="isolation:isolate"/><path d="M379.86-44.79c-13.7,41.11,45.34,86-23.33,150.67-43.93,41.37-79.39,116-16.46,198s163.46,97.33,282.46,74.33-71-93-21-216,2.33-187-78.83-222S395.2-90.79,379.86-44.79Z" opacity="0.74" fill="url(#linear-gradient-4)" style="isolation:isolate"/><path d="M633.57,231.41C577.14,222.8,539.43,370.68,368,283.05c-105.29-53.84-185.29-22.84-230.94,13C71.53,347.55,32.69,447.31,56.87,551.21s174.69-57.67,241.5-116.12,216.55-21.6,280-13c28.44,3.86,102.33,17.17,131.47-20.58C781.37,308.83,690.37,240.07,633.57,231.41Z" opacity="0.74" fill="url(#linear-gradient-5)" style="isolation:isolate"/><path d="M-36.4,315.91c38.75-25.23,120.66-36.66,202-12s144.38,84,163.19,159.3-133.19-74.67-209.86-4.67-210,48.67-216.67-27.47C-101.46,388.54-65.07,334.58-36.4,315.91Z" opacity="0.74" fill="url(#linear-gradient-6)" style="isolation:isolate"/><path d="M169.53-59.45c8,61,35,191,215,119s236,73,236,73v-182Z" opacity="0.74" fill="url(#linear-gradient-7)" style="isolation:isolate"/><circle cx="308.6" cy="94.72" r="5.33" fill="none" stroke="#3330a3" stroke-linecap="round" stroke-linejoin="round" stroke-width="2"/><path d="M469.92,103.69a4.48,4.48,0,1,1-4.48-4.49A4.49,4.49,0,0,1,469.92,103.69Z" fill="none" stroke="#3330a3" stroke-linecap="round" stroke-linejoin="round" stroke-width="2"/><path d="M470.77,189.88a5.34,5.34,0,1,1-5.35-5.33h0A5.33,5.33,0,0,1,470.77,189.88Z" fill="none" stroke="#3330a3" stroke-linecap="round" stroke-linejoin="round" stroke-width="2"/><path d="M75.2,313.21a5.34,5.34,0,1,1-5.35-5.33h0a5.33,5.33,0,0,1,5.34,5.32Z" fill="none" stroke="#3330a3" stroke-linecap="round" stroke-linejoin="round" stroke-width="2"/><circle cx="372.53" cy="313.23" r="5.33" fill="none" stroke="#3330a3" stroke-linecap="round" stroke-linejoin="round" stroke-width="2"/><path d="M342,63.7c3.6,0,3.6,5.34,7.21,5.34s3.6-5.34,7.21-5.34S360,69,363.58,69s3.61-5.34,7.22-5.34S374.4,69,378,69s3.61-5.34,7.22-5.34S388.84,69,392.44,69" fill="none" stroke="#3330a3" stroke-linecap="round" stroke-linejoin="round" stroke-width="2"/><path d="M474.23,242.38c3.61,0,3.61,5.35,7.21,5.35s3.61-5.35,7.21-5.35,3.61,5.35,7.21,5.35,3.61-5.35,7.22-5.35,3.61,5.35,7.21,5.35,3.61-5.35,7.22-5.35,3.61,5.35,7.22,5.35" fill="none" stroke="#3330a3" stroke-linecap="round" stroke-linejoin="round" stroke-width="2"/><path d="M136,323.21c3.6,0,3.6,5.35,7.21,5.35s3.6-5.35,7.21-5.35,3.61,5.35,7.21,5.35,3.61-5.35,7.22-5.35,3.6,5.35,7.21,5.35,3.61-5.35,7.22-5.35,3.61,5.35,7.22,5.35" fill="none" stroke="#3330a3" stroke-linecap="round" stroke-linejoin="round" stroke-width="2"/><line x1="391.69" y1="134.55" x2="398.53" y2="141.38" fill="none" stroke="#3330a3" stroke-linecap="round" stroke-linejoin="round" stroke-width="2"/><line x1="391.69" y1="141.38" x2="398.53" y2="134.55" fill="none" stroke="#3330a3" stroke-linecap="round" stroke-linejoin="round" stroke-width="2"/><line x1="255.53" y1="53.95" x2="262.36" y2="60.78" fill="none" stroke="#3330a3" stroke-linecap="round" stroke-linejoin="round" stroke-width="2"/><line x1="255.53" y1="60.78" x2="262.36" y2="53.95" fill="none" stroke="#3330a3" stroke-linecap="round" stroke-linejoin="round" stroke-width="2"/><line x1="196.53" y1="286.72" x2="203.36" y2="293.55" fill="none" stroke="#3330a3" stroke-linecap="round" stroke-linejoin="round" stroke-width="2"/><line x1="196.53" y1="293.55" x2="203.36" y2="286.72" fill="none" stroke="#3330a3" stroke-linecap="round" stroke-linejoin="round" stroke-width="2"/><path d="M237.3,284.4a1.85,1.85,0,1,1-1.85-1.85,1.85,1.85,0,0,1,1.85,1.85Z" fill="#3330a3"/><path d="M248.12,284.4a1.85,1.85,0,1,1-1.85-1.85,1.85,1.85,0,0,1,1.85,1.85Z" fill="#3330a3"/><path d="M259,284.4a1.86,1.86,0,1,1-1.87-1.85h0a1.85,1.85,0,0,1,1.86,1.84Z" fill="#3330a3"/><path d="M269.77,284.4a1.86,1.86,0,1,1-1.87-1.85h0a1.85,1.85,0,0,1,1.85,1.85Z" fill="#3330a3"/><path d="M280.59,284.4a1.86,1.86,0,1,1-1.87-1.85h0a1.85,1.85,0,0,1,1.85,1.85Z" fill="#3330a3"/><path d="M291.37,284.4a1.85,1.85,0,1,1-1.85-1.85,1.85,1.85,0,0,1,1.85,1.85Z" fill="#3330a3"/><path d="M302.23,284.4a1.85,1.85,0,1,1-1.85-1.85,1.85,1.85,0,0,1,1.85,1.85Z" fill="#3330a3"/><path d="M313.06,284.4a1.86,1.86,0,1,1-1.87-1.85h0a1.85,1.85,0,0,1,1.86,1.84Z" fill="#3330a3"/><path d="M237.3,295.21a1.85,1.85,0,1,1-1.85-1.85,1.85,1.85,0,0,1,1.85,1.85Z" fill="#3330a3"/><path d="M248.12,295.21a1.85,1.85,0,1,1-1.85-1.85,1.85,1.85,0,0,1,1.85,1.85Z" fill="#3330a3"/><path d="M259,295.21a1.86,1.86,0,1,1-1.87-1.85h0A1.87,1.87,0,0,1,259,295.21Z" fill="#3330a3"/><path d="M269.77,295.21a1.86,1.86,0,1,1-1.87-1.85h0a1.85,1.85,0,0,1,1.85,1.85Z" fill="#3330a3"/><path d="M280.59,295.21a1.86,1.86,0,1,1-1.87-1.85h0a1.85,1.85,0,0,1,1.85,1.85Z" fill="#3330a3"/><path d="M291.37,295.21a1.85,1.85,0,1,1-1.85-1.85,1.85,1.85,0,0,1,1.85,1.85Z" fill="#3330a3"/><path d="M302.23,295.21a1.85,1.85,0,1,1-1.85-1.85,1.85,1.85,0,0,1,1.85,1.85Z" fill="#3330a3"/><path d="M313.06,295.21a1.86,1.86,0,1,1-1.87-1.85h0A1.87,1.87,0,0,1,313.06,295.21Z" fill="#3330a3"/><path d="M237.3,306a1.85,1.85,0,1,1-1.85-1.85A1.85,1.85,0,0,1,237.3,306Z" fill="#3330a3"/><path d="M248.12,306a1.85,1.85,0,1,1-1.87-1.83h0A1.85,1.85,0,0,1,248.12,306Z" fill="#3330a3"/><path d="M259,306a1.86,1.86,0,1,1-1.87-1.85h0A1.87,1.87,0,0,1,259,306Z" fill="#3330a3"/><path d="M269.77,306a1.86,1.86,0,1,1-1.87-1.85h0a1.85,1.85,0,0,1,1.85,1.85Z" fill="#3330a3"/><path d="M280.59,306a1.86,1.86,0,1,1-1.87-1.85h0a1.85,1.85,0,0,1,1.85,1.85Z" fill="#3330a3"/><path d="M291.37,306a1.85,1.85,0,1,1-1.85-1.85,1.85,1.85,0,0,1,1.85,1.85Z" fill="#3330a3"/><path d="M302.23,306a1.85,1.85,0,1,1-1.87-1.83h0A1.84,1.84,0,0,1,302.23,306Z" fill="#3330a3"/><path d="M313.06,306a1.86,1.86,0,1,1-1.87-1.85h0A1.87,1.87,0,0,1,313.06,306Z" fill="#3330a3"/><path d="M237.3,316.87a1.85,1.85,0,1,1-1.85-1.86,1.85,1.85,0,0,1,1.85,1.86Z" fill="#3330a3"/><path d="M248.12,316.87a1.85,1.85,0,1,1-1.85-1.86,1.85,1.85,0,0,1,1.85,1.86Z" fill="#3330a3"/><path d="M259,316.87a1.86,1.86,0,1,1-1.86-1.86h0a1.85,1.85,0,0,1,1.86,1.84Z" fill="#3330a3"/><path d="M269.77,316.87a1.86,1.86,0,1,1-1.86-1.86h0a1.85,1.85,0,0,1,1.85,1.85Z" fill="#3330a3"/><path d="M280.59,316.87a1.86,1.86,0,1,1-1.86-1.86h0a1.85,1.85,0,0,1,1.85,1.85Z" fill="#3330a3"/><path d="M291.37,316.87a1.85,1.85,0,1,1-1.85-1.86,1.85,1.85,0,0,1,1.85,1.86Z" fill="#3330a3"/><path d="M302.23,316.87a1.85,1.85,0,1,1-1.86-1.86,1.85,1.85,0,0,1,1.86,1.86Z" fill="#3330a3"/><path d="M313.06,316.87A1.86,1.86,0,1,1,311.2,315h0a1.85,1.85,0,0,1,1.86,1.84Z" fill="#3330a3"/><path d="M237.3,327.69a1.85,1.85,0,1,1-1.85-1.86,1.85,1.85,0,0,1,1.85,1.86Z" fill="#3330a3"/><path d="M248.12,327.69a1.85,1.85,0,1,1-1.85-1.86,1.85,1.85,0,0,1,1.85,1.86Z" fill="#3330a3"/><path d="M259,327.69a1.86,1.86,0,1,1-1.86-1.86h0a1.85,1.85,0,0,1,1.86,1.84Z" fill="#3330a3"/><path d="M269.77,327.69a1.86,1.86,0,1,1-1.86-1.86h0a1.85,1.85,0,0,1,1.85,1.85Z" fill="#3330a3"/><path d="M280.59,327.69a1.86,1.86,0,1,1-1.86-1.86h0a1.85,1.85,0,0,1,1.85,1.85Z" fill="#3330a3"/><path d="M291.37,327.69a1.85,1.85,0,1,1-1.85-1.86,1.85,1.85,0,0,1,1.85,1.86Z" fill="#3330a3"/><path d="M302.23,327.69a1.85,1.85,0,1,1-1.85-1.86,1.85,1.85,0,0,1,1.85,1.86Z" fill="#3330a3"/><path d="M313.06,327.69a1.86,1.86,0,1,1-1.86-1.86h0a1.85,1.85,0,0,1,1.86,1.84Z" fill="#3330a3"/><path d="M284.13,121.92a1.86,1.86,0,1,1-1.87-1.85h0a1.85,1.85,0,0,1,1.86,1.84Z" fill="#3330a3"/><path d="M295,121.92a1.86,1.86,0,1,1-1.87-1.85h0a1.85,1.85,0,0,1,1.85,1.85Z" fill="#3330a3"/><path d="M305.77,121.92a1.86,1.86,0,1,1-1.87-1.85h0a1.85,1.85,0,0,1,1.85,1.85Z" fill="#3330a3"/><path d="M316.59,121.92a1.85,1.85,0,1,1-1.85-1.85,1.85,1.85,0,0,1,1.85,1.85Z" fill="#3330a3"/><path d="M327.37,121.92a1.85,1.85,0,1,1-1.85-1.85,1.85,1.85,0,0,1,1.85,1.85Z" fill="#3330a3"/><path d="M338.24,121.92a1.86,1.86,0,1,1-1.87-1.85h0a1.85,1.85,0,0,1,1.86,1.84Z" fill="#3330a3"/><path d="M284.13,132.74a1.86,1.86,0,1,1-1.87-1.85h0a1.85,1.85,0,0,1,1.86,1.84Z" fill="#3330a3"/><path d="M295,132.74a1.86,1.86,0,1,1-1.87-1.85h0a1.85,1.85,0,0,1,1.85,1.85Z" fill="#3330a3"/><path d="M305.77,132.74a1.86,1.86,0,1,1-1.87-1.85h0a1.85,1.85,0,0,1,1.85,1.85Z" fill="#3330a3"/><path d="M316.59,132.74a1.85,1.85,0,1,1-1.85-1.85,1.85,1.85,0,0,1,1.85,1.85Z" fill="#3330a3"/><path d="M327.37,132.74a1.85,1.85,0,1,1-1.85-1.85,1.85,1.85,0,0,1,1.85,1.85Z" fill="#3330a3"/><path d="M338.24,132.74a1.86,1.86,0,1,1-1.87-1.85h0a1.85,1.85,0,0,1,1.86,1.84Z" fill="#3330a3"/><path d="M284.13,143.56a1.86,1.86,0,1,1-1.87-1.85h0A1.87,1.87,0,0,1,284.13,143.56Z" fill="#3330a3"/><path d="M295,143.56a1.86,1.86,0,1,1-1.87-1.85h0a1.85,1.85,0,0,1,1.85,1.85Z" fill="#3330a3"/><path d="M305.77,143.56a1.86,1.86,0,1,1-1.87-1.85h0a1.85,1.85,0,0,1,1.85,1.85Z" fill="#3330a3"/><path d="M316.59,143.56a1.85,1.85,0,1,1-1.85-1.85,1.85,1.85,0,0,1,1.85,1.85Z" fill="#3330a3"/><path d="M327.37,143.56a1.85,1.85,0,1,1-1.85-1.85,1.85,1.85,0,0,1,1.85,1.85Z" fill="#3330a3"/><path d="M338.24,143.56a1.86,1.86,0,1,1-1.87-1.85,1.86,1.86,0,0,1,1.87,1.85Z" fill="#3330a3"/><path d="M284.13,154.39a1.86,1.86,0,1,1-1.86-1.86h0a1.85,1.85,0,0,1,1.86,1.84Z" fill="#3330a3"/><path d="M295,154.39a1.86,1.86,0,1,1-1.86-1.86h0a1.85,1.85,0,0,1,1.85,1.85Z" fill="#3330a3"/><path d="M305.77,154.39a1.86,1.86,0,1,1-1.86-1.86h0a1.85,1.85,0,0,1,1.85,1.85Z" fill="#3330a3"/><path d="M316.59,154.39a1.85,1.85,0,1,1-1.85-1.86,1.85,1.85,0,0,1,1.85,1.86Z" fill="#3330a3"/><path d="M327.37,154.39a1.85,1.85,0,1,1-1.85-1.86,1.85,1.85,0,0,1,1.85,1.86Z" fill="#3330a3"/><path d="M338.24,154.39a1.86,1.86,0,1,1-1.86-1.86h0a1.85,1.85,0,0,1,1.86,1.84Z" fill="#3330a3"/><path d="M284.13,165.21a1.86,1.86,0,1,1-1.86-1.86h0a1.85,1.85,0,0,1,1.86,1.84Z" fill="#3330a3"/><path d="M295,165.21a1.86,1.86,0,1,1-1.86-1.86h0A1.85,1.85,0,0,1,295,165.2Z" fill="#3330a3"/><path d="M305.77,165.21a1.86,1.86,0,1,1-1.86-1.86h0a1.85,1.85,0,0,1,1.85,1.85Z" fill="#3330a3"/><path d="M316.59,165.21a1.85,1.85,0,1,1-1.85-1.86,1.85,1.85,0,0,1,1.85,1.86Z" fill="#3330a3"/><path d="M327.37,165.21a1.85,1.85,0,1,1-1.85-1.86,1.85,1.85,0,0,1,1.85,1.86Z" fill="#3330a3"/><path d="M338.24,165.21a1.86,1.86,0,1,1-1.86-1.86h0a1.85,1.85,0,0,1,1.86,1.84Z" fill="#3330a3"/><path d="M540.14,64.1a1.84,1.84,0,1,1,.05,0Z" fill="#3330a3"/><path d="M540.14,74.93A1.86,1.86,0,1,1,542,73.07h0a1.85,1.85,0,0,1-1.84,1.86Z" fill="#3330a3"/><path d="M540.14,85.75A1.86,1.86,0,1,1,542,83.89h0a1.85,1.85,0,0,1-1.85,1.85Z" fill="#3330a3"/><path d="M540.14,96.57A1.86,1.86,0,1,1,542,94.71h0a1.85,1.85,0,0,1-1.85,1.85Z" fill="#3330a3"/><path d="M540.14,107.39a1.85,1.85,0,1,1,1.86-1.85,1.85,1.85,0,0,1-1.86,1.85Z" fill="#3330a3"/><path d="M540.14,118.21a1.85,1.85,0,1,1,1.86-1.85,1.85,1.85,0,0,1-1.86,1.85Z" fill="#3330a3"/><path d="M540.14,129a1.86,1.86,0,1,1,1.86-1.86h0a1.85,1.85,0,0,1-1.84,1.86Z" fill="#3330a3"/><path d="M540.14,139.86A1.86,1.86,0,1,1,542,138h0a1.85,1.85,0,0,1-1.84,1.86Z" fill="#3330a3"/><path d="M529.37,64.1a1.85,1.85,0,1,1,1.8-1.9h0A1.85,1.85,0,0,1,529.37,64.1Z" fill="#3330a3"/><path d="M529.37,74.93a1.86,1.86,0,1,1,1.85-1.87h0a1.85,1.85,0,0,1-1.84,1.86Z" fill="#3330a3"/><path d="M529.37,85.75a1.86,1.86,0,1,1,1.85-1.87v0A1.85,1.85,0,0,1,529.37,85.75Z" fill="#3330a3"/><path d="M529.37,96.57a1.86,1.86,0,1,1,1.85-1.87v0A1.85,1.85,0,0,1,529.37,96.57Z" fill="#3330a3"/><path d="M529.37,107.39a1.85,1.85,0,1,1,1.85-1.85h0A1.85,1.85,0,0,1,529.37,107.39Z" fill="#3330a3"/><path d="M529.37,118.21a1.85,1.85,0,1,1,1.85-1.85h0A1.85,1.85,0,0,1,529.37,118.21Z" fill="#3330a3"/><path d="M529.37,129a1.86,1.86,0,1,1,1.8-1.92v.09A1.86,1.86,0,0,1,529.37,129Z" fill="#3330a3"/><path d="M529.37,139.86a1.86,1.86,0,1,1,1.85-1.87h0a1.85,1.85,0,0,1-1.84,1.86Z" fill="#3330a3"/><path d="M518.5,64.1a1.84,1.84,0,1,1,.06,0Z" fill="#3330a3"/><path d="M518.5,74.93a1.86,1.86,0,1,1,1.87-1.86,1.86,1.86,0,0,1-1.87,1.86Z" fill="#3330a3"/><path d="M518.5,85.75a1.86,1.86,0,1,1,1.87-1.85,1.86,1.86,0,0,1-1.87,1.85Z" fill="#3330a3"/><path d="M518.5,96.57a1.86,1.86,0,1,1,1.87-1.85,1.86,1.86,0,0,1-1.87,1.85Z" fill="#3330a3"/><path d="M518.5,107.39a1.85,1.85,0,1,1,1.85-1.85h0A1.85,1.85,0,0,1,518.5,107.39Z" fill="#3330a3"/><path d="M518.5,118.21a1.85,1.85,0,1,1,1.85-1.85h0A1.85,1.85,0,0,1,518.5,118.21Z" fill="#3330a3"/><path d="M518.5,129a1.86,1.86,0,1,1,1.87-1.85v0A1.85,1.85,0,0,1,518.5,129Z" fill="#3330a3"/><path d="M518.5,139.86a1.86,1.86,0,1,1,1.85-1.87h0a1.85,1.85,0,0,1-1.84,1.86Z" fill="#3330a3"/><path d="M507.68,64.1a1.85,1.85,0,1,1,1.85-1.89,1.85,1.85,0,0,1-1.85,1.89Z" fill="#3330a3"/><path d="M507.68,74.93a1.86,1.86,0,1,1,1.85-1.87h0A1.87,1.87,0,0,1,507.68,74.93Z" fill="#3330a3"/><path d="M507.68,85.75a1.86,1.86,0,1,1,1.85-1.87v0A1.85,1.85,0,0,1,507.68,85.75Z" fill="#3330a3"/><path d="M507.68,96.57a1.86,1.86,0,1,1,1.85-1.87v0A1.85,1.85,0,0,1,507.68,96.57Z" fill="#3330a3"/><path d="M507.68,107.39a1.85,1.85,0,1,1,1.85-1.85h0A1.85,1.85,0,0,1,507.68,107.39Z" fill="#3330a3"/><path d="M507.68,118.21a1.85,1.85,0,1,1,1.85-1.85h0A1.85,1.85,0,0,1,507.68,118.21Z" fill="#3330a3"/><path d="M507.68,129a1.86,1.86,0,1,1,1.85-1.87h0A1.87,1.87,0,0,1,507.68,129Z" fill="#3330a3"/><path d="M507.68,139.86a1.86,1.86,0,1,1,1.85-1.87h0A1.87,1.87,0,0,1,507.68,139.86Z" fill="#3330a3"/><path d="M496.86,64.1a1.85,1.85,0,1,1,1.85-1.89,1.85,1.85,0,0,1-1.85,1.89Z" fill="#3330a3"/><path d="M496.86,74.93a1.86,1.86,0,1,1,1.85-1.87h0A1.87,1.87,0,0,1,496.86,74.93Z" fill="#3330a3"/><path d="M496.86,85.75a1.86,1.86,0,1,1,1.85-1.87v0A1.85,1.85,0,0,1,496.86,85.75Z" fill="#3330a3"/><path d="M496.86,96.57a1.86,1.86,0,1,1,1.85-1.87v0A1.85,1.85,0,0,1,496.86,96.57Z" fill="#3330a3"/><path d="M496.86,107.39a1.85,1.85,0,1,1,1.85-1.85h0A1.85,1.85,0,0,1,496.86,107.39Z" fill="#3330a3"/><path d="M496.86,118.21a1.85,1.85,0,1,1,1.85-1.85h0A1.85,1.85,0,0,1,496.86,118.21Z" fill="#3330a3"/><path d="M496.86,129a1.86,1.86,0,1,1,1.85-1.87h0A1.87,1.87,0,0,1,496.86,129Z" fill="#3330a3"/><path d="M496.86,139.86a1.86,1.86,0,1,1,1.85-1.87h0A1.87,1.87,0,0,1,496.86,139.86Z" fill="#3330a3"/><path d="M494.2,10.71a1.85,1.85,0,1,1,1.85,1.85,1.85,1.85,0,0,1-1.85-1.85Z" fill="#3330a3"/><path d="M483.37,10.71a1.86,1.86,0,1,1,1.87,1.85h0a1.85,1.85,0,0,1-1.86-1.84Z" fill="#3330a3"/><path d="M472.55,10.71a1.86,1.86,0,1,1,1.87,1.85h-.05A1.85,1.85,0,0,1,472.55,10.71Z" fill="#3330a3"/><path d="M461.73,10.71a1.86,1.86,0,1,1,1.87,1.85h0a1.85,1.85,0,0,1-1.85-1.85Z" fill="#3330a3"/><path d="M450.91,10.71a1.85,1.85,0,1,1,1.85,1.85,1.85,1.85,0,0,1-1.85-1.85Z" fill="#3330a3"/><path d="M440.09,10.71a1.85,1.85,0,1,1,1.85,1.85,1.85,1.85,0,0,1-1.85-1.85Z" fill="#3330a3"/><path d="M429.26,10.71a1.86,1.86,0,1,1,1.87,1.85h0a1.85,1.85,0,0,1-1.86-1.84Z" fill="#3330a3"/><path d="M418.44,10.71a1.86,1.86,0,1,1,1.87,1.85h0a1.85,1.85,0,0,1-1.86-1.84Z" fill="#3330a3"/><path d="M494.2-.11A1.85,1.85,0,0,1,496.05-2,1.85,1.85,0,0,1,497.9-.11a1.85,1.85,0,0,1-1.85,1.85A1.85,1.85,0,0,1,494.2-.11Z" fill="#3330a3"/><path d="M483.37-.11A1.86,1.86,0,0,1,485.22-2a1.86,1.86,0,0,1,1.87,1.85,1.86,1.86,0,0,1-1.85,1.87h0A1.85,1.85,0,0,1,483.37-.1Z" fill="#3330a3"/><path d="M472.55-.11A1.86,1.86,0,0,1,474.4-2a1.86,1.86,0,0,1,1.87,1.85,1.85,1.85,0,0,1-1.85,1.87h-.05A1.85,1.85,0,0,1,472.55-.11Z" fill="#3330a3"/><path d="M461.73-.11A1.86,1.86,0,0,1,463.58-2a1.86,1.86,0,0,1,1.87,1.85,1.86,1.86,0,0,1-1.85,1.87h0a1.85,1.85,0,0,1-1.85-1.85Z" fill="#3330a3"/><path d="M450.91-.11A1.85,1.85,0,0,1,452.76-2a1.85,1.85,0,0,1,1.85,1.85,1.85,1.85,0,0,1-1.85,1.85,1.85,1.85,0,0,1-1.85-1.85Z" fill="#3330a3"/><path d="M440.09-.11A1.85,1.85,0,0,1,441.94-2a1.85,1.85,0,0,1,1.85,1.85,1.85,1.85,0,0,1-1.85,1.85,1.85,1.85,0,0,1-1.85-1.85Z" fill="#3330a3"/><path d="M429.26-.11A1.86,1.86,0,0,1,431.11-2,1.86,1.86,0,0,1,433-.13a1.86,1.86,0,0,1-1.85,1.87h0A1.85,1.85,0,0,1,429.26-.1Z" fill="#3330a3"/><path d="M418.44-.11A1.86,1.86,0,0,1,420.29-2a1.86,1.86,0,0,1,1.87,1.85,1.86,1.86,0,0,1-1.85,1.87h0A1.85,1.85,0,0,1,418.44-.1Z" fill="#3330a3"/><g clip-path="url(#clip-path-2)"><line x1="331.71" y1="138.65" x2="156.79" y2="313.57" fill="none" stroke="#3330a3" stroke-linecap="round" stroke-linejoin="round" stroke-width="2"/><line x1="338.79" y1="138.65" x2="163.87" y2="313.57" fill="none" stroke="#3330a3" stroke-linecap="round" stroke-linejoin="round" stroke-width="2"/><line x1="345.87" y1="138.65" x2="170.94" y2="313.57" fill="none" stroke="#3330a3" stroke-linecap="round" stroke-linejoin="round" stroke-width="2"/><line x1="352.94" y1="138.65" x2="178.02" y2="313.57" fill="none" stroke="#3330a3" stroke-linecap="round" stroke-linejoin="round" stroke-width="2"/><line x1="360.02" y1="138.65" x2="185.1" y2="313.57" fill="none" stroke="#3330a3" stroke-linecap="round" stroke-linejoin="round" stroke-width="2"/><line x1="367.1" y1="138.65" x2="192.17" y2="313.57" fill="none" stroke="#3330a3" stroke-linecap="round" stroke-linejoin="round" stroke-width="2"/><line x1="374.17" y1="138.65" x2="199.25" y2="313.57" fill="none" stroke="#3330a3" stroke-linecap="round" stroke-linejoin="round" stroke-width="2"/><line x1="381.25" y1="138.65" x2="206.33" y2="313.57" fill="none" stroke="#3330a3" stroke-linecap="round" stroke-linejoin="round" stroke-width="2"/><line x1="388.33" y1="138.65" x2="213.4" y2="313.57" fill="none" stroke="#3330a3" stroke-linecap="round" stroke-linejoin="round" stroke-width="2"/><line x1="395.4" y1="138.65" x2="220.48" y2="313.57" fill="none" stroke="#3330a3" stroke-linecap="round" stroke-linejoin="round" stroke-width="2"/><line x1="402.48" y1="138.65" x2="227.56" y2="313.57" fill="none" stroke="#3330a3" stroke-linecap="round" stroke-linejoin="round" stroke-width="2"/><line x1="409.56" y1="138.65" x2="234.63" y2="313.57" fill="none" stroke="#3330a3" stroke-linecap="round" stroke-linejoin="round" stroke-width="2"/><line x1="416.63" y1="138.65" x2="241.71" y2="313.57" fill="none" stroke="#3330a3" stroke-linecap="round" stroke-linejoin="round" stroke-width="2"/><line x1="423.71" y1="138.65" x2="248.79" y2="313.57" fill="none" stroke="#3330a3" stroke-linecap="round" stroke-linejoin="round" stroke-width="2"/><line x1="430.79" y1="138.65" x2="255.86" y2="313.57" fill="none" stroke="#3330a3" stroke-linecap="round" stroke-linejoin="round" stroke-width="2"/><line x1="437.86" y1="138.65" x2="262.94" y2="313.57" fill="none" stroke="#3330a3" stroke-linecap="round" stroke-linejoin="round" stroke-width="2"/><line x1="444.94" y1="138.65" x2="270.02" y2="313.57" fill="none" stroke="#3330a3" stroke-linecap="round" stroke-linejoin="round" stroke-width="2"/><line x1="452.02" y1="138.65" x2="277.09" y2="313.57" fill="none" stroke="#3330a3" stroke-linecap="round" stroke-linejoin="round" stroke-width="2"/><line x1="459.09" y1="138.65" x2="284.17" y2="313.57" fill="none" stroke="#3330a3" stroke-linecap="round" stroke-linejoin="round" stroke-width="2"/><line x1="466.17" y1="138.65" x2="291.25" y2="313.57" fill="none" stroke="#3330a3" stroke-linecap="round" stroke-linejoin="round" stroke-width="2"/><line x1="473.25" y1="138.65" x2="298.32" y2="313.57" fill="none" stroke="#3330a3" stroke-linecap="round" stroke-linejoin="round" stroke-width="2"/><line x1="480.32" y1="138.65" x2="305.4" y2="313.57" fill="none" stroke="#3330a3" stroke-linecap="round" stroke-linejoin="round" stroke-width="2"/><line x1="487.4" y1="138.65" x2="312.48" y2="313.57" fill="none" stroke="#3330a3" stroke-linecap="round" stroke-linejoin="round" stroke-width="2"/><line x1="494.48" y1="138.65" x2="319.55" y2="313.57" fill="none" stroke="#3330a3" stroke-linecap="round" stroke-linejoin="round" stroke-width="2"/><line x1="501.55" y1="138.65" x2="326.63" y2="313.57" fill="none" stroke="#3330a3" stroke-linecap="round" stroke-linejoin="round" stroke-width="2"/><line x1="508.63" y1="138.65" x2="333.71" y2="313.57" fill="none" stroke="#3330a3" stroke-linecap="round" stroke-linejoin="round" stroke-width="2"/><line x1="515.71" y1="138.65" x2="340.79" y2="313.57" fill="none" stroke="#3330a3" stroke-linecap="round" stroke-linejoin="round" stroke-width="2"/><line x1="522.79" y1="138.65" x2="347.86" y2="313.57" fill="none" stroke="#3330a3" stroke-linecap="round" stroke-linejoin="round" stroke-width="2"/><line x1="529.86" y1="138.65" x2="354.94" y2="313.57" fill="none" stroke="#3330a3" stroke-linecap="round" stroke-linejoin="round" stroke-width="2"/><line x1="536.94" y1="138.65" x2="362.02" y2="313.57" fill="none" stroke="#3330a3" stroke-linecap="round" stroke-linejoin="round" stroke-width="2"/><line x1="544.02" y1="138.65" x2="369.09" y2="313.57" fill="none" stroke="#3330a3" stroke-linecap="round" stroke-linejoin="round" stroke-width="2"/><line x1="551.09" y1="138.65" x2="376.17" y2="313.57" fill="none" stroke="#3330a3" stroke-linecap="round" stroke-linejoin="round" stroke-width="2"/><line x1="558.17" y1="138.65" x2="383.25" y2="313.57" fill="none" stroke="#3330a3" stroke-linecap="round" stroke-linejoin="round" stroke-width="2"/><line x1="565.25" y1="138.65" x2="390.32" y2="313.57" fill="none" stroke="#3330a3" stroke-linecap="round" stroke-linejoin="round" stroke-width="2"/><line x1="572.32" y1="138.65" x2="397.4" y2="313.57" fill="none" stroke="#3330a3" stroke-linecap="round" stroke-linejoin="round" stroke-width="2"/></g><g clip-path="url(#clip-path-3)"><line x1="197.85" y1="-105.11" x2="22.93" y2="69.81" fill="none" stroke="#3330a3" stroke-linecap="round" stroke-linejoin="round" stroke-width="2"/><line x1="204.93" y1="-105.11" x2="30" y2="69.81" fill="none" stroke="#3330a3" stroke-linecap="round" stroke-linejoin="round" stroke-width="2"/><line x1="212" y1="-105.11" x2="37.08" y2="69.81" fill="none" stroke="#3330a3" stroke-linecap="round" stroke-linejoin="round" stroke-width="2"/><line x1="219.08" y1="-105.11" x2="44.16" y2="69.81" fill="none" stroke="#3330a3" stroke-linecap="round" stroke-linejoin="round" stroke-width="2"/><line x1="226.16" y1="-105.11" x2="51.23" y2="69.81" fill="none" stroke="#3330a3" stroke-linecap="round" stroke-linejoin="round" stroke-width="2"/><line x1="233.23" y1="-105.11" x2="58.31" y2="69.81" fill="none" stroke="#3330a3" stroke-linecap="round" stroke-linejoin="round" stroke-width="2"/><line x1="240.31" y1="-105.11" x2="65.39" y2="69.81" fill="none" stroke="#3330a3" stroke-linecap="round" stroke-linejoin="round" stroke-width="2"/><line x1="247.39" y1="-105.11" x2="72.46" y2="69.81" fill="none" stroke="#3330a3" stroke-linecap="round" stroke-linejoin="round" stroke-width="2"/><line x1="254.46" y1="-105.11" x2="79.54" y2="69.81" fill="none" stroke="#3330a3" stroke-linecap="round" stroke-linejoin="round" stroke-width="2"/><line x1="261.54" y1="-105.11" x2="86.62" y2="69.81" fill="none" stroke="#3330a3" stroke-linecap="round" stroke-linejoin="round" stroke-width="2"/><line x1="268.62" y1="-105.11" x2="93.7" y2="69.81" fill="none" stroke="#3330a3" stroke-linecap="round" stroke-linejoin="round" stroke-width="2"/><line x1="275.69" y1="-105.11" x2="100.77" y2="69.81" fill="none" stroke="#3330a3" stroke-linecap="round" stroke-linejoin="round" stroke-width="2"/><line x1="282.77" y1="-105.11" x2="107.85" y2="69.81" fill="none" stroke="#3330a3" stroke-linecap="round" stroke-linejoin="round" stroke-width="2"/><line x1="289.85" y1="-105.11" x2="114.93" y2="69.81" fill="none" stroke="#3330a3" stroke-linecap="round" stroke-linejoin="round" stroke-width="2"/><line x1="296.93" y1="-105.11" x2="122" y2="69.81" fill="none" stroke="#3330a3" stroke-linecap="round" stroke-linejoin="round" stroke-width="2"/><line x1="304" y1="-105.11" x2="129.08" y2="69.81" fill="none" stroke="#3330a3" stroke-linecap="round" stroke-linejoin="round" stroke-width="2"/><line x1="311.08" y1="-105.11" x2="136.16" y2="69.81" fill="none" stroke="#3330a3" stroke-linecap="round" stroke-linejoin="round" stroke-width="2"/><line x1="318.16" y1="-105.11" x2="143.23" y2="69.81" fill="none" stroke="#3330a3" stroke-linecap="round" stroke-linejoin="round" stroke-width="2"/><line x1="325.23" y1="-105.11" x2="150.31" y2="69.81" fill="none" stroke="#3330a3" stroke-linecap="round" stroke-linejoin="round" stroke-width="2"/><line x1="332.31" y1="-105.11" x2="157.39" y2="69.81" fill="none" stroke="#3330a3" stroke-linecap="round" stroke-linejoin="round" stroke-width="2"/><line x1="339.39" y1="-105.11" x2="164.46" y2="69.81" fill="none" stroke="#3330a3" stroke-linecap="round" stroke-linejoin="round" stroke-width="2"/><line x1="346.46" y1="-105.11" x2="171.54" y2="69.81" fill="none" stroke="#3330a3" stroke-linecap="round" stroke-linejoin="round" stroke-width="2"/><line x1="353.54" y1="-105.11" x2="178.62" y2="69.81" fill="none" stroke="#3330a3" stroke-linecap="round" stroke-linejoin="round" stroke-width="2"/><line x1="360.62" y1="-105.11" x2="185.69" y2="69.81" fill="none" stroke="#3330a3" stroke-linecap="round" stroke-linejoin="round" stroke-width="2"/><line x1="367.69" y1="-105.11" x2="192.77" y2="69.81" fill="none" stroke="#3330a3" stroke-linecap="round" stroke-linejoin="round" stroke-width="2"/><line x1="374.77" y1="-105.11" x2="199.85" y2="69.81" fill="none" stroke="#3330a3" stroke-linecap="round" stroke-linejoin="round" stroke-width="2"/><line x1="381.85" y1="-105.11" x2="206.92" y2="69.81" fill="none" stroke="#3330a3" stroke-linecap="round" stroke-linejoin="round" stroke-width="2"/><line x1="388.92" y1="-105.11" x2="214" y2="69.81" fill="none" stroke="#3330a3" stroke-linecap="round" stroke-linejoin="round" stroke-width="2"/><line x1="396" y1="-105.11" x2="221.08" y2="69.81" fill="none" stroke="#3330a3" stroke-linecap="round" stroke-linejoin="round" stroke-width="2"/><line x1="403.08" y1="-105.11" x2="228.15" y2="69.81" fill="none" stroke="#3330a3" stroke-linecap="round" stroke-linejoin="round" stroke-width="2"/><line x1="410.15" y1="-105.11" x2="235.23" y2="69.81" fill="none" stroke="#3330a3" stroke-linecap="round" stroke-linejoin="round" stroke-width="2"/><line x1="417.23" y1="-105.11" x2="242.31" y2="69.81" fill="none" stroke="#3330a3" stroke-linecap="round" stroke-linejoin="round" stroke-width="2"/><line x1="424.31" y1="-105.11" x2="249.38" y2="69.81" fill="none" stroke="#3330a3" stroke-linecap="round" stroke-linejoin="round" stroke-width="2"/><line x1="431.38" y1="-105.11" x2="256.46" y2="69.81" fill="none" stroke="#3330a3" stroke-linecap="round" stroke-linejoin="round" stroke-width="2"/><line x1="438.46" y1="-105.11" x2="263.54" y2="69.81" fill="none" stroke="#3330a3" stroke-linecap="round" stroke-linejoin="round" stroke-width="2"/></g><g clip-path="url(#clip-path-4)"><line x1="489.21" y1="275.63" x2="314.29" y2="450.56" fill="none" stroke="#3330a3" stroke-linecap="round" stroke-linejoin="round" stroke-width="2"/><line x1="496.29" y1="275.63" x2="321.36" y2="450.56" fill="none" stroke="#3330a3" stroke-linecap="round" stroke-linejoin="round" stroke-width="2"/><line x1="503.36" y1="275.63" x2="328.44" y2="450.56" fill="none" stroke="#3330a3" stroke-linecap="round" stroke-linejoin="round" stroke-width="2"/><line x1="510.44" y1="275.63" x2="335.52" y2="450.56" fill="none" stroke="#3330a3" stroke-linecap="round" stroke-linejoin="round" stroke-width="2"/><line x1="517.52" y1="275.63" x2="342.59" y2="450.56" fill="none" stroke="#3330a3" stroke-linecap="round" stroke-linejoin="round" stroke-width="2"/><line x1="524.59" y1="275.63" x2="349.67" y2="450.56" fill="none" stroke="#3330a3" stroke-linecap="round" stroke-linejoin="round" stroke-width="2"/><line x1="531.67" y1="275.63" x2="356.75" y2="450.56" fill="none" stroke="#3330a3" stroke-linecap="round" stroke-linejoin="round" stroke-width="2"/><line x1="538.75" y1="275.63" x2="363.82" y2="450.56" fill="none" stroke="#3330a3" stroke-linecap="round" stroke-linejoin="round" stroke-width="2"/><line x1="545.82" y1="275.63" x2="370.9" y2="450.56" fill="none" stroke="#3330a3" stroke-linecap="round" stroke-linejoin="round" stroke-width="2"/><line x1="552.9" y1="275.63" x2="377.98" y2="450.56" fill="none" stroke="#3330a3" stroke-linecap="round" stroke-linejoin="round" stroke-width="2"/><line x1="559.98" y1="275.63" x2="385.05" y2="450.56" fill="none" stroke="#3330a3" stroke-linecap="round" stroke-linejoin="round" stroke-width="2"/><line x1="567.05" y1="275.63" x2="392.13" y2="450.56" fill="none" stroke="#3330a3" stroke-linecap="round" stroke-linejoin="round" stroke-width="2"/><line x1="574.13" y1="275.63" x2="399.21" y2="450.56" fill="none" stroke="#3330a3" stroke-linecap="round" stroke-linejoin="round" stroke-width="2"/><line x1="581.21" y1="275.63" x2="406.28" y2="450.56" fill="none" stroke="#3330a3" stroke-linecap="round" stroke-linejoin="round" stroke-width="2"/><line x1="588.28" y1="275.63" x2="413.36" y2="450.56" fill="none" stroke="#3330a3" stroke-linecap="round" stroke-linejoin="round" stroke-width="2"/><line x1="595.36" y1="275.63" x2="420.44" y2="450.56" fill="none" stroke="#3330a3" stroke-linecap="round" stroke-linejoin="round" stroke-width="2"/><line x1="602.44" y1="275.63" x2="427.51" y2="450.56" fill="none" stroke="#3330a3" stroke-linecap="round" stroke-linejoin="round" stroke-width="2"/><line x1="609.51" y1="275.63" x2="434.59" y2="450.56" fill="none" stroke="#3330a3" stroke-linecap="round" stroke-linejoin="round" stroke-width="2"/><line x1="616.59" y1="275.63" x2="441.67" y2="450.56" fill="none" stroke="#3330a3" stroke-linecap="round" stroke-linejoin="round" stroke-width="2"/><line x1="623.67" y1="275.63" x2="448.74" y2="450.56" fill="none" stroke="#3330a3" stroke-linecap="round" stroke-linejoin="round" stroke-width="2"/><line x1="630.74" y1="275.63" x2="455.82" y2="450.56" fill="none" stroke="#3330a3" stroke-linecap="round" stroke-linejoin="round" stroke-width="2"/><line x1="637.82" y1="275.63" x2="462.9" y2="450.56" fill="none" stroke="#3330a3" stroke-linecap="round" stroke-linejoin="round" stroke-width="2"/><line x1="644.9" y1="275.63" x2="469.97" y2="450.56" fill="none" stroke="#3330a3" stroke-linecap="round" stroke-linejoin="round" stroke-width="2"/><line x1="651.97" y1="275.63" x2="477.05" y2="450.56" fill="none" stroke="#3330a3" stroke-linecap="round" stroke-linejoin="round" stroke-width="2"/><line x1="659.05" y1="275.63" x2="484.13" y2="450.56" fill="none" stroke="#3330a3" stroke-linecap="round" stroke-linejoin="round" stroke-width="2"/><line x1="666.13" y1="275.63" x2="491.2" y2="450.56" fill="none" stroke="#3330a3" stroke-linecap="round" stroke-linejoin="round" stroke-width="2"/><line x1="673.2" y1="275.63" x2="498.28" y2="450.56" fill="none" stroke="#3330a3" stroke-linecap="round" stroke-linejoin="round" stroke-width="2"/><line x1="680.28" y1="275.63" x2="505.36" y2="450.56" fill="none" stroke="#3330a3" stroke-linecap="round" stroke-linejoin="round" stroke-width="2"/><line x1="687.36" y1="275.63" x2="512.43" y2="450.56" fill="none" stroke="#3330a3" stroke-linecap="round" stroke-linejoin="round" stroke-width="2"/><line x1="694.43" y1="275.63" x2="519.51" y2="450.56" fill="none" stroke="#3330a3" stroke-linecap="round" stroke-linejoin="round" stroke-width="2"/><line x1="701.51" y1="275.63" x2="526.59" y2="450.56" fill="none" stroke="#3330a3" stroke-linecap="round" stroke-linejoin="round" stroke-width="2"/><line x1="708.59" y1="275.63" x2="533.66" y2="450.56" fill="none" stroke="#3330a3" stroke-linecap="round" stroke-linejoin="round" stroke-width="2"/><line x1="715.66" y1="275.63" x2="540.74" y2="450.56" fill="none" stroke="#3330a3" stroke-linecap="round" stroke-linejoin="round" stroke-width="2"/></g><polygon points="521.88 180.39 521.88 193.29 533.05 186.84 521.88 180.39" fill="none" stroke="#3330a3" stroke-linecap="round" stroke-linejoin="round" stroke-width="2"/><polygon points="435.71 57.45 428.88 46.51 422.82 57.9 435.71 57.45" fill="none" stroke="#3330a3" stroke-linecap="round" stroke-linejoin="round" stroke-width="2"/><polygon points="453.17 291.5 446.34 280.56 440.28 291.95 453.17 291.5" fill="none" stroke="#3330a3" stroke-linecap="round" stroke-linejoin="round" stroke-width="2"/></g></svg>