<?xml version="1.0" encoding="iso-8859-1"?>
<!-- Generator: Adobe Illustrator 19.0.0, SVG Export Plug-In . SVG Version: 6.00 Build 0)  -->
<svg version="1.1" id="Capa_1" xmlns="http://www.w3.org/2000/svg" xmlns:xlink="http://www.w3.org/1999/xlink" x="0px" y="0px"
	 viewBox="0 0 512 512" style="enable-background:new 0 0 512 512;" xml:space="preserve">
<path style="fill:#FEEB70;" d="M326.586,413.62H185.409c-8.36,0-15.138-6.778-15.138-15.138v-21.688
	c-44.209-28.866-71.322-78.502-71.322-131.607c0-86.598,70.453-157.052,157.052-157.052c86.599,0,157.052,70.453,157.052,157.052
	c0,53.108-27.115,102.744-71.327,131.609v21.686C341.724,406.842,334.947,413.62,326.586,413.62z"/>
<path style="fill:#FEF7CB;" d="M305.041,258.422c0-8.36-6.778-15.138-15.138-15.138s-15.138,6.778-15.138,15.138
	c0,10.349-8.42,18.77-18.769,18.77s-18.77-8.42-18.77-18.77c0-8.36-6.778-15.138-15.138-15.138s-15.138,6.778-15.138,15.138
	c0,21.761,14.251,40.249,33.908,46.644v93.417c0,8.36,6.778,15.138,15.138,15.138c8.361,0,15.138-6.778,15.138-15.138v-93.417
	C290.79,298.671,305.041,280.184,305.041,258.422z"/>
<path style="fill:#18A7FC;" d="M255.998,512c-47.27,0-85.727-38.457-85.727-85.726v-27.791c0-8.36,6.778-15.138,15.138-15.138
	h141.179c8.36,0,15.138,6.778,15.138,15.138v27.791C341.725,473.543,303.268,512,255.998,512z"/>
<g>
	<path style="fill:#FEEB70;" d="M255.999,56.851c-8.36,0-15.138-6.778-15.138-15.138V15.138c0-8.36,6.778-15.138,15.138-15.138
		c8.36,0,15.138,6.778,15.138,15.138v26.575C271.137,50.073,264.359,56.851,255.999,56.851z"/>
	<path style="fill:#FEEB70;" d="M199.259,66.089c-6.115,0-11.873-3.731-14.163-9.79L175.7,31.44
		c-2.956-7.821,0.988-16.557,8.808-19.512c7.818-2.955,16.556,0.988,19.512,8.808l9.396,24.86
		c2.956,7.821-0.988,16.557-8.808,19.512C202.846,65.774,201.037,66.089,199.259,66.089z"/>
</g>
<g>
	<path style="fill:#FCB629;" d="M312.739,66.089c-1.778,0-3.587-0.316-5.349-0.982c-7.82-2.956-11.764-11.692-8.809-19.512
		l9.396-24.86c2.956-7.82,11.691-11.765,19.512-8.809c7.82,2.956,11.764,11.692,8.809,19.512l-9.396,24.86
		C324.613,62.357,318.854,66.089,312.739,66.089z"/>
	<path style="fill:#FCB629;" d="M255.999,0c-0.001,0-0.002,0-0.004,0v56.851c0.001,0,0.002,0,0.004,0
		c8.36,0,15.138-6.778,15.138-15.138V15.138C271.137,6.778,264.359,0,255.999,0z"/>
	<path style="fill:#FCB629;" d="M255.999,88.136c-0.001,0-0.002,0-0.004,0V413.62h70.59c8.36,0,15.138-6.778,15.138-15.138v-21.686
		c44.212-28.865,71.327-78.502,71.327-131.609C413.051,158.59,342.598,88.136,255.999,88.136z"/>
</g>
<path style="fill:#FEEB70;" d="M289.903,243.284c-8.36,0-15.138,6.778-15.138,15.138c0,10.349-8.42,18.77-18.769,18.77l0,0V413.62
	l0,0c8.361,0,15.138-6.778,15.138-15.138v-93.417c19.656-6.395,33.908-24.882,33.908-46.644
	C305.041,250.061,298.263,243.284,289.903,243.284z"/>
<path style="fill:#0074F0;" d="M326.587,383.344h-70.591V512c0.001,0,0.001,0,0.002,0c47.27,0,85.727-38.457,85.727-85.726v-27.791
	C341.725,390.122,334.948,383.344,326.587,383.344z"/>
<g>
</g>
<g>
</g>
<g>
</g>
<g>
</g>
<g>
</g>
<g>
</g>
<g>
</g>
<g>
</g>
<g>
</g>
<g>
</g>
<g>
</g>
<g>
</g>
<g>
</g>
<g>
</g>
<g>
</g>
</svg>
