<svg height="512pt" viewBox="-4 0 512 512.00044" width="512pt" xmlns="http://www.w3.org/2000/svg"><path d="m480.816406 162.132812c12.992188.101563 23.417969 10.738282 23.261719 23.730469l-1.601563 134.382813c-.15625 13.503906-5.179687 26.507812-14.140624 36.605468l-90.035157 101.535157c-4.636719 5.222656-7.175781 11.972656-7.132812 18.964843l.324219 34.648438h-99.234376l-18.367187-100.558594c-3.972656-21.769531 1.925781-44.417968 16.820313-60.800781.59375-.652344 1.21875-1.304687 1.84375-1.957031l85.097656-87.167969c3.859375-3.957031 8.964844-5.914063 14.054687-5.914063 5.234375 0 10.46875 2.070313 14.351563 6.210938 6.980468 7.476562 7.066406 19.046875.199218 26.621094l-51.242187 56.492187c-3.175781 3.503907-4.722656 7.871094-4.722656 12.226563 0 5.375 2.367187 10.722656 6.964843 14.324218 7.472657 5.882813 18.210938 5.003907 24.648438-1.984374l59.300781-64.507813c5.261719-5.742187 8.4375-13.089844 8.992188-20.859375l7.0625-100.191406c.878906-12.296875 11.105469-21.796875 23.386719-21.796875.054687-.003907.113281-.003907.167968-.003907zm0 0" fill="#ffd3ae"/><path d="m320.011719 350.640625c-14.890625 16.378906-20.792969 39.03125-16.820313 60.800781l18.367188 100.558594h-29.300782l-18.367187-100.558594c-3.972656-21.769531 1.925781-44.421875 16.820313-60.800781.59375-.652344 1.21875-1.304687 1.84375-1.957031l85.097656-87.167969c3.859375-3.957031 8.964844-5.917969 14.054687-5.917969 5.234375 0 10.46875 2.074219 14.355469 6.214844.097656.097656.199219.210938.28125.324219l-84.488281 86.546875c-.625.652344-1.25 1.304687-1.84375 1.957031zm0 0" fill="#e5b48f"/><path d="m213.382812 350.640625c14.878907 16.378906 20.777344 39.03125 16.808594 60.800781l-18.351562 100.558594h-99.253906l.324218-34.648438c.058594-6.992187-2.496094-13.746093-7.117187-18.964843l-90.035157-101.535157c-8.960937-10.097656-13.984374-23.105468-14.152343-36.605468l-1.60156275-134.382813c-.16015625-12.992187 10.26562475-23.628906 23.25781275-23.730469h.167969c12.285156 0 22.523437 9.503907 23.390624 21.800782l7.074219 100.1875c.554688 7.773437 3.71875 15.121094 8.992188 20.863281l59.285156 64.503906c6.441406 6.992188 17.175781 7.871094 24.648437 1.984375 4.597657-3.601562 6.964844-8.949218 6.964844-14.324218 0-4.351563-1.542968-8.722657-4.722656-12.226563l-51.242188-56.488281c-6.863281-7.574219-6.777343-19.148438.214844-26.621094 3.871094-4.140625 9.105469-6.214844 14.339844-6.214844 5.105469 0 10.195312 1.960938 14.054688 5.917969l85.097656 87.167969c.636718.652344 1.246094 1.304687 1.855468 1.957031zm0 0" fill="#ffd3ae"/><path d="m138.886719 458.386719-90.035157-101.535157c-8.964843-10.097656-13.984374-23.105468-14.152343-36.605468l-11.269531-158.113282c-.078126-6.582031 12.230468 11.175782 16.542968 6.867188-4.257812-4.246094-10.113281-6.867188-16.542968-6.867188-.054688 0-.113282 0-.167969 0-12.992188.101563-23.417969 10.738282-23.25781275 23.730469l1.60156275 134.382813c.167969 13.503906 5.191406 26.507812 14.152343 36.605468l90.035157 101.535157c4.625 5.21875 7.175781 11.972656 7.117187 18.964843l-.324218 34.648438h33.09375l.324218-34.648438c.058594-6.992187-2.496094-13.746093-7.117187-18.964843zm0 0" fill="#e5b48f"/><path d="m270.9375 29.304688 21.539062 43.636718c3.148438 6.375 9.230469 10.796875 16.269532 11.820313l48.15625 6.996093c17.726562 2.578126 24.804687 24.363282 11.976562 36.863282l-34.84375 33.96875c-5.09375 4.964844-7.417968 12.117187-6.214844 19.128906l8.226563 47.960938c3.027344 17.652343-15.503906 31.117187-31.359375 22.78125l-43.070312-22.644532c-6.296876-3.308594-13.816407-3.308594-20.113282 0l-43.074218 22.644532c-15.851563 8.335937-34.382813-5.128907-31.355469-22.78125l8.226562-47.960938c1.203125-7.011719-1.121093-14.164062-6.214843-19.128906l-34.847657-33.96875c-12.824219-12.5-5.746093-34.285156 11.980469-36.863282l48.15625-6.996093c7.039062-1.023438 13.125-5.445313 16.269531-11.820313l21.535157-43.636718c7.925781-16.0625 30.832031-16.0625 38.757812 0zm0 0" fill="#e8a328"/><g fill="#ffbf3e"><path d="m265.863281 59.597656 15.898438 32.210938c2.324219 4.707031 6.816406 7.972656 12.011719 8.726562l35.546874 5.167969c13.082032 1.898437 18.308594 17.980469 8.839844 27.207031l-25.722656 25.074219c-3.757812 3.664063-5.472656 8.945313-4.585938 14.117187l6.070313 35.402344c2.234375 13.03125-11.441406 22.96875-23.144531 16.816406l-31.792969-16.714843c-4.648437-2.441407-10.199219-2.441407-14.847656 0l-31.792969 16.714843c-11.703125 6.152344-25.382812-3.785156-23.148438-16.816406l6.074219-35.402344c.886719-5.171874-.828125-10.453124-4.589843-14.117187l-25.71875-25.074219c-9.46875-9.230468-4.246094-25.308594 8.839843-27.207031l35.546875-5.167969c5.195313-.753906 9.6875-4.019531 12.011719-8.726562l15.894531-32.210938c5.851563-11.855468 22.757813-11.855468 28.609375 0zm0 0"/><path d="m381.230469 58.941406c-1.011719 0-2.035157-.199218-3.023438-.617187-3.921875-1.671875-5.746093-6.203125-4.078125-10.128907l18.527344-43.5c1.667969-3.921874 6.199219-5.746093 10.125-4.078124 3.921875 1.671874 5.746094 6.207031 4.078125 10.128906l-18.527344 43.5c-1.25 2.933594-4.101562 4.695312-7.101562 4.695312zm0 0"/><path d="m415.191406 93.933594c-3.25 0-6.273437-2.070313-7.335937-5.328125-1.320313-4.054688.890625-8.410157 4.945312-9.730469l47.339844-15.4375c4.054687-1.324219 8.410156.890625 9.734375 4.945312 1.320312 4.050782-.894531 8.40625-4.949219 9.730469l-47.339843 15.4375c-.792969.257813-1.601563.382813-2.394532.382813zm0 0"/><path d="m438.863281 157.738281c-.855469 0-1.726562-.144531-2.582031-.445312l-31.902344-11.320313c-4.015625-1.425781-6.117187-5.839844-4.691406-9.855468 1.425781-4.019532 5.839844-6.117188 9.851562-4.695313l31.90625 11.324219c4.015626 1.421875 6.117188 5.835937 4.691407 9.855468-1.121094 3.164063-4.097657 5.136719-7.273438 5.136719zm0 0"/><path d="m121.890625 58.941406c-3 0-5.855469-1.761718-7.105469-4.695312l-18.523437-43.5c-1.671875-3.921875.15625-8.457032 4.078125-10.125 3.921875-1.671875 8.453125.152344 10.125 4.078125l18.523437 43.5c1.671875 3.921875-.15625 8.453125-4.078125 10.125-.988281.417969-2.011718.617187-3.019531.617187zm0 0"/><path d="m87.925781 93.933594c-.792969 0-1.597656-.125-2.394531-.382813l-47.339844-15.4375c-4.050781-1.320312-6.265625-5.679687-4.945312-9.730469 1.320312-4.054687 5.679687-6.269531 9.730468-4.945312l47.339844 15.4375c4.054688 1.320312 6.269532 5.675781 4.949219 9.730469-1.0625 3.257812-4.089844 5.328125-7.339844 5.328125zm0 0"/><path d="m64.253906 157.738281c-3.175781 0-6.152344-1.972656-7.273437-5.136719-1.425781-4.019531.675781-8.429687 4.695312-9.855468l31.902344-11.324219c4.015625-1.421875 8.429687.679687 9.855469 4.695313 1.425781 4.015624-.675782 8.429687-4.695313 9.855468l-31.902343 11.320313c-.851563.300781-1.722657.445312-2.582032.445312zm0 0"/></g></svg>