<?xml version="1.0"?>
<svg xmlns="http://www.w3.org/2000/svg" viewBox="0 0 64 64" width="512" height="512"><g id="Flat"><rect x="27" y="49" width="10" height="9" style="fill:gray"/><rect x="3" y="13" width="58" height="32" style="fill:#e6e6e6"/><rect x="3" y="45" width="58" height="6" style="fill:#b3b3b3"/><polygon points="27 56 25 61 39 61 37 56 27 56" style="fill:#b3b3b3"/><path d="M27,35H19l-4.172-4.172a2.828,2.828,0,0,0-2-.828h0A2.828,2.828,0,0,0,10,32.828h0a2.828,2.828,0,0,0,.828,2L17,41H54V33H44l-6-2H29a3,3,0,0,0-3,3h0a3,3,0,0,0,3,3h9" style="fill:#ffdaaa"/><path d="M44,17V13H40.769a8.943,8.943,0,0,0-1.156-2.785L41.9,7.929,39.071,5.1,36.785,7.387A8.943,8.943,0,0,0,34,6.231V3H30V6.231a8.943,8.943,0,0,0-2.785,1.156L24.929,5.1,22.1,7.929l2.286,2.286A8.943,8.943,0,0,0,23.231,13H20v4h3.231a8.943,8.943,0,0,0,1.156,2.785L22.1,22.071,24.929,24.9l2.286-2.286A8.943,8.943,0,0,0,30,23.769V27h4V23.769a8.943,8.943,0,0,0,2.785-1.156L39.071,24.9,41.9,22.071l-2.286-2.286A8.943,8.943,0,0,0,40.769,17ZM32,20a5,5,0,1,1,5-5A5,5,0,0,1,32,20Z" style="fill:#6cbbc7"/><path d="M29,36a1.993,1.993,0,0,1-1.722-1H25.142A4,4,0,0,0,29,38H39V36Z" style="fill:#ffe9cc"/></g></svg>
