<svg height="512pt" viewBox="-26 0 512 512" width="512pt" xmlns="http://www.w3.org/2000/svg"><path d="m302.511719 0h-246.039063c-31.1875 0-56.46874975 25.28125-56.46874975 56.464844v399.070312c0 31.183594 25.28124975 56.464844 56.46874975 56.464844h246.039063c31.1875 0 56.46875-25.28125 56.46875-56.464844v-399.070312c0-31.183594-25.28125-56.464844-56.46875-56.464844zm0 0" fill="#4c5072"/><path d="m79.941406 512h-23.472656c-31.191406 0-56.46484375-25.285156-56.46484375-56.464844v-399.070312c0-31.179688 25.27343775-56.464844 56.46484375-56.464844h23.472656c-31.191406 0-56.464844 25.285156-56.464844 56.464844v399.070312c0 31.179688 25.273438 56.464844 56.464844 56.464844zm0 0" fill="#353a59"/><path d="m358.96875 88.132812v335.746094c0 21.105469-16.367188 39.015625-39.027344 45.183594-5.484375 1.511719-11.347656 2.320312-17.425781 2.320312h-246.039063c-4.378906 0-8.65625-.417968-12.753906-1.226562-1.585937-.304688-3.140625-.675781-4.671875-1.09375-22.660156-6.167969-39.050781-24.078125-39.050781-45.183594v-335.746094c0-21.121093 16.390625-39.03125 39.050781-45.199218 1.53125-.417969 3.085938-.789063 4.671875-1.089844 4.097656-.8125 8.375-1.230469 12.753906-1.230469h246.035157c6.082031 0 11.945312.8125 17.425781 2.320313 22.664062 6.167968 39.03125 24.078125 39.03125 45.199218zm0 0" fill="#bce8f1"/><path d="m23.945312 462.691406c-.296874-2.34375-.46875-4.730468-.46875-7.15625v-399.070312c0-2.425782.167969-4.8125.46875-7.15625-14.476562 8.597656-23.94140575 22.78125-23.94140575 38.824218v335.746094c0 16.03125 9.46484375 30.214844 23.94140575 38.8125zm0 0" fill="#95dae8"/><path d="m445.691406 380.53125-18.351562 18.351562-.003906-189.734374c.003906-.082032.003906-.167969.003906-.25l-.003906-53.359376 18.355468 18.355469c1.53125 1.53125 3.535156 2.296875 5.542969 2.296875 2.003906 0 4.011719-.765625 5.539063-2.296875 3.0625-3.058593 3.0625-8.019531 0-11.082031l-31.730469-31.730469c-1.46875-1.472656-3.464844-2.296875-5.542969-2.296875s-4.070312.824219-5.539062 2.296875l-31.734376 31.730469c-3.058593 3.0625-3.058593 8.023438 0 11.082031 3.0625 3.0625 8.023438 3.0625 11.082032 0l18.351562-18.351562.003906 53.101562c0 .085938-.003906.167969-.003906.253907l.007813 189.992187-18.359375-18.359375c-3.058594-3.058594-8.023438-3.058594-11.082032 0-3.058593 3.0625-3.058593 8.023438 0 11.082031l31.734376 31.734375c1.527343 1.53125 3.535156 2.296875 5.539062 2.296875s4.011719-.765625 5.542969-2.296875l31.730469-31.734375c3.0625-3.058593 3.0625-8.019531 0-11.082031-3.058594-3.058594-8.019532-3.058594-11.082032 0zm0 0" fill="#ff435e"/><path d="m167.546875 41.386719v133.164062c0 11.199219-9.078125 20.28125-20.292969 20.28125h-59.484375c-11.203125 0-20.292969-9.082031-20.292969-20.28125v-133.9375h100.050782c.019531.261719.019531.511719.019531.773438zm0 0" fill="#f9d35a"/><g fill="#353a59"><path d="m281.90625 81.753906h-87.152344c-4.328125 0-7.835937-3.511718-7.835937-7.835937 0-4.328125 3.507812-7.839844 7.835937-7.839844h87.152344c4.328125 0 7.835938 3.511719 7.835938 7.839844 0 4.324219-3.507813 7.835937-7.835938 7.835937zm0 0"/><path d="m281.90625 119.238281h-87.152344c-4.328125 0-7.835937-3.511719-7.835937-7.839843 0-4.328126 3.507812-7.835938 7.835937-7.835938h87.152344c4.328125 0 7.835938 3.507812 7.835938 7.835938 0 4.328124-3.507813 7.839843-7.835938 7.839843zm0 0"/><path d="m281.90625 156.71875h-87.152344c-4.328125 0-7.835937-3.507812-7.835937-7.835938 0-4.328124 3.507812-7.835937 7.835937-7.835937h87.152344c4.328125 0 7.835938 3.507813 7.835938 7.835937 0 4.328126-3.507813 7.835938-7.835938 7.835938zm0 0"/><path d="m252.71875 194.203125h-57.964844c-4.328125 0-7.835937-3.507813-7.835937-7.835937 0-4.328126 3.507812-7.839844 7.835937-7.839844h57.964844c4.328125 0 7.835938 3.511718 7.835938 7.839844 0 4.328124-3.507813 7.835937-7.835938 7.835937zm0 0"/><path d="m281.90625 315.351562h-87.152344c-4.328125 0-7.835937-3.507812-7.835937-7.835937s3.507812-7.835937 7.835937-7.835937h87.152344c4.328125 0 7.835938 3.507812 7.835938 7.835937s-3.507813 7.835937-7.835938 7.835937zm0 0"/><path d="m281.90625 351.042969h-87.152344c-4.328125 0-7.835937-3.507813-7.835937-7.835938s3.507812-7.835937 7.835937-7.835937h87.152344c4.328125 0 7.835938 3.507812 7.835938 7.835937s-3.507813 7.835938-7.835938 7.835938zm0 0"/><path d="m281.90625 279.988281h-87.152344c-4.328125 0-7.835937-3.507812-7.835937-7.835937s3.507812-7.839844 7.835937-7.839844h87.152344c4.328125 0 7.835938 3.511719 7.835938 7.839844s-3.507813 7.835937-7.835938 7.835937zm0 0"/><path d="m281.90625 386.734375h-87.152344c-4.328125 0-7.835937-3.507813-7.835937-7.835937 0-4.328126 3.507812-7.835938 7.835937-7.835938h87.152344c4.328125 0 7.835938 3.507812 7.835938 7.835938 0 4.328124-3.507813 7.835937-7.835938 7.835937zm0 0"/><path d="m252.71875 422.425781h-57.964844c-4.328125 0-7.835937-3.507812-7.835937-7.835937s3.507812-7.839844 7.835937-7.839844h57.964844c4.328125 0 7.835938 3.511719 7.835938 7.839844s-3.507813 7.835937-7.835938 7.835937zm0 0"/></g><path d="m147.257812 423.800781h-59.488281c-11.207031 0-20.292969-9.085937-20.292969-20.292969v-122.703124c0-11.207032 9.085938-20.292969 20.292969-20.292969h59.488281c11.207032 0 20.292969 9.085937 20.292969 20.292969v122.703124c0 11.207032-9.085937 20.292969-20.292969 20.292969zm0 0" fill="#ff435e"/></svg>