<svg xmlns="http://www.w3.org/2000/svg" xmlns:xlink="http://www.w3.org/1999/xlink" viewBox="0 0 695.13 424.54"><defs><clipPath id="clip-path"><rect x="-26.46" y="-26.46" width="750" height="500" fill="none"/></clipPath><radialGradient id="radial-gradient" cx="348.54" cy="223.54" r="318.69" gradientUnits="userSpaceOnUse"><stop offset="0" stop-color="#3d1f75"/><stop offset="1" stop-color="#2b1552"/></radialGradient><radialGradient id="radial-gradient-2" cx="135.49" cy="430.41" r="30.57" xlink:href="#radial-gradient"/><radialGradient id="radial-gradient-3" cx="131.87" cy="426.79" r="20.6" xlink:href="#radial-gradient"/><radialGradient id="radial-gradient-4" cx="146.37" cy="441.29" r="47.97" xlink:href="#radial-gradient"/><radialGradient id="radial-gradient-5" cx="157.14" cy="452.06" r="58.71" xlink:href="#radial-gradient"/><radialGradient id="radial-gradient-6" cx="139.12" cy="434.04" r="37.64" xlink:href="#radial-gradient"/><radialGradient id="radial-gradient-7" cx="153.58" cy="448.5" r="55.57" xlink:href="#radial-gradient"/><radialGradient id="radial-gradient-8" cx="149.99" cy="444.91" r="52.01" xlink:href="#radial-gradient"/><radialGradient id="radial-gradient-9" cx="142.74" cy="437.66" r="43.27" xlink:href="#radial-gradient"/><radialGradient id="radial-gradient-10" cx="167.87" cy="462.79" r="66.07" xlink:href="#radial-gradient"/><radialGradient id="radial-gradient-11" cx="178.64" cy="473.56" r="71.01" xlink:href="#radial-gradient"/><radialGradient id="radial-gradient-12" cx="189.43" cy="484.35" r="74.02" xlink:href="#radial-gradient"/><radialGradient id="radial-gradient-13" cx="160.71" cy="455.63" r="61.48" xlink:href="#radial-gradient"/><radialGradient id="radial-gradient-14" cx="175.05" cy="469.97" r="69.6" xlink:href="#radial-gradient"/><radialGradient id="radial-gradient-15" cx="182.24" cy="477.16" r="72.21" xlink:href="#radial-gradient"/><radialGradient id="radial-gradient-16" cx="171.46" cy="466.38" r="67.96" xlink:href="#radial-gradient"/><radialGradient id="radial-gradient-17" cx="164.29" cy="459.21" r="63.92" xlink:href="#radial-gradient"/><radialGradient id="radial-gradient-18" cx="196.62" cy="491.54" r="75.09" xlink:href="#radial-gradient"/><radialGradient id="radial-gradient-19" cx="203.82" cy="498.74" r="75.45" xlink:href="#radial-gradient"/><radialGradient id="radial-gradient-20" cx="200.22" cy="495.14" r="75.36" xlink:href="#radial-gradient"/><radialGradient id="radial-gradient-21" cx="193.03" cy="487.95" r="74.65" xlink:href="#radial-gradient"/><radialGradient id="radial-gradient-22" cx="185.83" cy="480.75" r="73.22" xlink:href="#radial-gradient"/><radialGradient id="radial-gradient-23" cx="4.44" cy="74.51" r="52.17" xlink:href="#radial-gradient"/><radialGradient id="radial-gradient-24" cx="15.32" cy="85.38" r="37.92" xlink:href="#radial-gradient"/><radialGradient id="radial-gradient-25" cx="8.07" cy="78.13" r="48.16" xlink:href="#radial-gradient"/><radialGradient id="radial-gradient-26" cx="11.69" cy="81.76" r="43.49" xlink:href="#radial-gradient"/><radialGradient id="radial-gradient-27" cx="18.94" cy="89.01" r="30.92" xlink:href="#radial-gradient"/><radialGradient id="radial-gradient-28" cx="22.57" cy="92.63" r="21.15" xlink:href="#radial-gradient"/><radialGradient id="radial-gradient-29" cx="0.86" cy="70.92" r="55.71" xlink:href="#radial-gradient"/><radialGradient id="radial-gradient-30" cx="-2.7" cy="67.36" r="58.84" xlink:href="#radial-gradient"/><radialGradient id="radial-gradient-31" cx="-56.58" cy="13.48" r="75.09" xlink:href="#radial-gradient"/><radialGradient id="radial-gradient-32" cx="-63.78" cy="6.29" r="74.02" xlink:href="#radial-gradient"/><radialGradient id="radial-gradient-33" cx="-67.37" cy="2.69" r="73.22" xlink:href="#radial-gradient"/><radialGradient id="radial-gradient-34" cx="-27.8" cy="42.26" r="72.26" xlink:href="#radial-gradient"/><radialGradient id="radial-gradient-35" cx="-42.19" cy="27.88" r="75.11" xlink:href="#radial-gradient"/><radialGradient id="radial-gradient-36" cx="-45.79" cy="24.28" r="75.36" xlink:href="#radial-gradient"/><radialGradient id="radial-gradient-37" cx="-6.28" cy="63.79" r="61.6" xlink:href="#radial-gradient"/><radialGradient id="radial-gradient-38" cx="-20.62" cy="49.45" r="69.66" xlink:href="#radial-gradient"/><radialGradient id="radial-gradient-39" cx="-24.21" cy="45.86" r="71.07" xlink:href="#radial-gradient"/><radialGradient id="radial-gradient-40" cx="-70.97" cy="-0.9" r="72.21" xlink:href="#radial-gradient"/><radialGradient id="radial-gradient-41" cx="-49.38" cy="20.68" r="75.45" xlink:href="#radial-gradient"/><radialGradient id="radial-gradient-42" cx="-52.98" cy="17.08" r="75.36" xlink:href="#radial-gradient"/><radialGradient id="radial-gradient-43" cx="-60.18" cy="9.89" r="74.65" xlink:href="#radial-gradient"/><radialGradient id="radial-gradient-44" cx="-34.99" cy="35.07" r="74.05" xlink:href="#radial-gradient"/><radialGradient id="radial-gradient-45" cx="-31.4" cy="38.67" r="73.25" xlink:href="#radial-gradient"/><radialGradient id="radial-gradient-46" cx="-38.59" cy="31.48" r="74.67" xlink:href="#radial-gradient"/><radialGradient id="radial-gradient-47" cx="-13.44" cy="56.63" r="66.16" xlink:href="#radial-gradient"/><radialGradient id="radial-gradient-48" cx="-9.86" cy="60.21" r="64.02" xlink:href="#radial-gradient"/><radialGradient id="radial-gradient-49" cx="-17.02" cy="53.04" r="68.03" xlink:href="#radial-gradient"/><radialGradient id="radial-gradient-50" cx="709.47" cy="257.45" r="20.6" xlink:href="#radial-gradient"/><radialGradient id="radial-gradient-51" cx="713.1" cy="261.07" r="30.57" xlink:href="#radial-gradient"/><radialGradient id="radial-gradient-52" cx="723.97" cy="271.95" r="47.97" xlink:href="#radial-gradient"/><radialGradient id="radial-gradient-53" cx="727.6" cy="275.57" r="52.01" xlink:href="#radial-gradient"/><radialGradient id="radial-gradient-54" cx="720.35" cy="268.32" r="43.27" xlink:href="#radial-gradient"/><radialGradient id="radial-gradient-55" cx="716.72" cy="264.7" r="37.64" xlink:href="#radial-gradient"/><radialGradient id="radial-gradient-56" cx="731.18" cy="279.16" r="55.57" xlink:href="#radial-gradient"/><radialGradient id="radial-gradient-57" cx="734.75" cy="282.72" r="58.71" xlink:href="#radial-gradient"/><radialGradient id="radial-gradient-58" cx="738.32" cy="286.29" r="61.48" xlink:href="#radial-gradient"/><radialGradient id="radial-gradient-59" cx="759.85" cy="307.82" r="72.21" xlink:href="#radial-gradient"/><radialGradient id="radial-gradient-60" cx="749.06" cy="297.04" r="67.96" xlink:href="#radial-gradient"/><radialGradient id="radial-gradient-61" cx="741.9" cy="289.87" r="63.92" xlink:href="#radial-gradient"/><radialGradient id="radial-gradient-62" cx="763.44" cy="311.41" r="73.22" xlink:href="#radial-gradient"/><radialGradient id="radial-gradient-63" cx="752.66" cy="300.63" r="69.6" xlink:href="#radial-gradient"/><radialGradient id="radial-gradient-64" cx="756.25" cy="304.22" r="71.01" xlink:href="#radial-gradient"/><radialGradient id="radial-gradient-65" cx="745.48" cy="293.45" r="66.07" xlink:href="#radial-gradient"/><radialGradient id="radial-gradient-66" cx="767.04" cy="315.01" r="74.02" xlink:href="#radial-gradient"/><radialGradient id="radial-gradient-67" cx="415.54" cy="300.86" r="52.17" xlink:href="#radial-gradient"/><radialGradient id="radial-gradient-68" cx="419.17" cy="304.49" r="48.16" xlink:href="#radial-gradient"/><radialGradient id="radial-gradient-69" cx="422.79" cy="308.11" r="43.49" xlink:href="#radial-gradient"/><radialGradient id="radial-gradient-70" cx="430.04" cy="315.36" r="30.92" xlink:href="#radial-gradient"/><radialGradient id="radial-gradient-71" cx="426.42" cy="311.74" r="37.92" xlink:href="#radial-gradient"/><radialGradient id="radial-gradient-72" cx="433.67" cy="318.98" r="21.15" xlink:href="#radial-gradient"/><radialGradient id="radial-gradient-73" cx="289.76" cy="175.08" r="20.6" xlink:href="#radial-gradient"/><radialGradient id="radial-gradient-74" cx="293.39" cy="178.7" r="30.57" xlink:href="#radial-gradient"/><radialGradient id="radial-gradient-75" cx="304.26" cy="189.58" r="47.97" xlink:href="#radial-gradient"/><radialGradient id="radial-gradient-76" cx="307.89" cy="193.2" r="52.01" xlink:href="#radial-gradient"/><radialGradient id="radial-gradient-77" cx="300.64" cy="185.95" r="43.27" xlink:href="#radial-gradient"/><radialGradient id="radial-gradient-78" cx="297.01" cy="182.33" r="37.64" xlink:href="#radial-gradient"/><radialGradient id="radial-gradient-79" cx="311.47" cy="196.79" r="55.57" xlink:href="#radial-gradient"/><radialGradient id="radial-gradient-80" cx="315.03" cy="200.35" r="58.71" xlink:href="#radial-gradient"/><radialGradient id="radial-gradient-81" cx="318.61" cy="203.92" r="61.48" xlink:href="#radial-gradient"/><radialGradient id="radial-gradient-82" cx="340.13" cy="225.45" r="72.21" xlink:href="#radial-gradient"/><radialGradient id="radial-gradient-83" cx="329.35" cy="214.67" r="67.96" xlink:href="#radial-gradient"/><radialGradient id="radial-gradient-84" cx="322.19" cy="207.5" r="63.92" xlink:href="#radial-gradient"/><radialGradient id="radial-gradient-85" cx="361.72" cy="247.03" r="75.45" xlink:href="#radial-gradient"/><radialGradient id="radial-gradient-86" cx="343.73" cy="229.05" r="73.22" xlink:href="#radial-gradient"/><radialGradient id="radial-gradient-87" cx="383.3" cy="268.62" r="72.26" xlink:href="#radial-gradient"/><radialGradient id="radial-gradient-88" cx="379.7" cy="265.02" r="73.25" xlink:href="#radial-gradient"/><radialGradient id="radial-gradient-89" cx="365.31" cy="250.63" r="75.36" xlink:href="#radial-gradient"/><radialGradient id="radial-gradient-90" cx="404.82" cy="290.14" r="61.6" xlink:href="#radial-gradient"/><radialGradient id="radial-gradient-91" cx="401.25" cy="286.56" r="64.02" xlink:href="#radial-gradient"/><radialGradient id="radial-gradient-92" cx="411.96" cy="297.28" r="55.71" xlink:href="#radial-gradient"/><radialGradient id="radial-gradient-93" cx="408.4" cy="293.72" r="58.84" xlink:href="#radial-gradient"/><radialGradient id="radial-gradient-94" cx="332.94" cy="218.26" r="69.6" xlink:href="#radial-gradient"/><radialGradient id="radial-gradient-95" cx="336.54" cy="221.86" r="71.01" xlink:href="#radial-gradient"/><radialGradient id="radial-gradient-96" cx="325.77" cy="211.09" r="66.07" xlink:href="#radial-gradient"/><radialGradient id="radial-gradient-97" cx="354.52" cy="239.84" r="75.09" xlink:href="#radial-gradient"/><radialGradient id="radial-gradient-98" cx="350.92" cy="236.24" r="74.65" xlink:href="#radial-gradient"/><radialGradient id="radial-gradient-99" cx="347.32" cy="232.64" r="74.02" xlink:href="#radial-gradient"/><radialGradient id="radial-gradient-100" cx="358.12" cy="243.43" r="75.36" xlink:href="#radial-gradient"/><radialGradient id="radial-gradient-101" cx="376.11" cy="261.42" r="74.05" xlink:href="#radial-gradient"/><radialGradient id="radial-gradient-102" cx="372.51" cy="257.83" r="74.67" xlink:href="#radial-gradient"/><radialGradient id="radial-gradient-103" cx="368.91" cy="254.23" r="75.11" xlink:href="#radial-gradient"/><radialGradient id="radial-gradient-104" cx="397.66" cy="282.98" r="66.16" xlink:href="#radial-gradient"/><radialGradient id="radial-gradient-105" cx="394.08" cy="279.4" r="68.03" xlink:href="#radial-gradient"/><radialGradient id="radial-gradient-106" cx="390.49" cy="275.8" r="69.66" xlink:href="#radial-gradient"/><radialGradient id="radial-gradient-107" cx="386.89" cy="272.21" r="71.07" xlink:href="#radial-gradient"/><radialGradient id="radial-gradient-108" cx="497.91" cy="-36.3" r="52.17" xlink:href="#radial-gradient"/><radialGradient id="radial-gradient-109" cx="501.54" cy="-32.67" r="48.16" xlink:href="#radial-gradient"/><radialGradient id="radial-gradient-110" cx="505.16" cy="-29.05" r="43.49" xlink:href="#radial-gradient"/><radialGradient id="radial-gradient-111" cx="508.79" cy="-25.42" r="37.92" xlink:href="#radial-gradient"/><radialGradient id="radial-gradient-112" cx="512.41" cy="-21.8" r="30.92" xlink:href="#radial-gradient"/><radialGradient id="radial-gradient-113" cx="516.04" cy="-18.17" r="21.15" xlink:href="#radial-gradient"/><radialGradient id="radial-gradient-114" cx="494.33" cy="-39.88" r="55.71" xlink:href="#radial-gradient"/><radialGradient id="radial-gradient-115" cx="490.77" cy="-43.44" r="58.84" xlink:href="#radial-gradient"/><radialGradient id="radial-gradient-116" cx="487.19" cy="-47.02" r="61.6" xlink:href="#radial-gradient"/><radialGradient id="radial-gradient-117" cx="480.03" cy="-54.18" r="66.16" xlink:href="#radial-gradient"/><radialGradient id="radial-gradient-118" cx="472.85" cy="-61.36" r="69.66" xlink:href="#radial-gradient"/><radialGradient id="radial-gradient-119" cx="469.26" cy="-64.95" r="71.07" xlink:href="#radial-gradient"/><radialGradient id="radial-gradient-120" cx="465.67" cy="-68.54" r="72.26" xlink:href="#radial-gradient"/><radialGradient id="radial-gradient-121" cx="462.07" cy="-72.14" r="73.25" xlink:href="#radial-gradient"/><radialGradient id="radial-gradient-122" cx="483.61" cy="-50.6" r="64.02" xlink:href="#radial-gradient"/><radialGradient id="radial-gradient-123" cx="476.45" cy="-57.76" r="68.03" xlink:href="#radial-gradient"/><linearGradient id="linear-gradient" x1="150.22" y1="4.55" x2="316.47" y2="4.55" xlink:href="#radial-gradient"/><linearGradient id="linear-gradient-2" x1="163.67" y1="11.27" x2="333.78" y2="11.27" gradientUnits="userSpaceOnUse"><stop offset="0" stop-color="#ff4ec5"/><stop offset="1" stop-color="#ff8e18"/></linearGradient><linearGradient id="linear-gradient-3" x1="-104.56" y1="155.21" x2="61.69" y2="155.21" xlink:href="#radial-gradient"/><linearGradient id="linear-gradient-4" x1="-91.11" y1="161.92" x2="79" y2="161.92" xlink:href="#linear-gradient-2"/><linearGradient id="linear-gradient-5" x1="-242.08" y1="319.72" x2="-71.96" y2="319.72" gradientTransform="translate(-51.62 819.33) rotate(180)" xlink:href="#linear-gradient-2"/><linearGradient id="linear-gradient-6" x1="-531.54" y1="550.88" x2="-365.29" y2="550.88" gradientTransform="translate(-51.62 819.33) rotate(180)" xlink:href="#radial-gradient"/><linearGradient id="linear-gradient-7" x1="-518.09" y1="557.59" x2="-347.97" y2="557.59" gradientTransform="translate(-51.62 819.33) rotate(180)" xlink:href="#linear-gradient-2"/><linearGradient id="linear-gradient-8" x1="-128.18" y1="344.39" x2="14.32" y2="344.39" gradientTransform="translate(292.12 342.08) rotate(80.24)" xlink:href="#linear-gradient-2"/><linearGradient id="linear-gradient-9" x1="528.39" y1="150.84" x2="740.27" y2="150.84" gradientTransform="translate(292.45 -404.35) rotate(45)" xlink:href="#linear-gradient-2"/><linearGradient id="linear-gradient-10" x1="134.45" y1="193.15" x2="241.35" y2="193.15" gradientTransform="translate(331.45 -34.9) rotate(76.4)" xlink:href="#linear-gradient-2"/><linearGradient id="linear-gradient-11" x1="225.59" y1="448.59" x2="348.54" y2="448.59" xlink:href="#radial-gradient"/><linearGradient id="linear-gradient-12" x1="244.68" y1="440.13" x2="371.55" y2="440.13" xlink:href="#linear-gradient-2"/><linearGradient id="linear-gradient-13" x1="630.25" y1="-36.65" x2="753.2" y2="-36.65" xlink:href="#radial-gradient"/><linearGradient id="linear-gradient-14" x1="649.33" y1="-45.11" x2="776.21" y2="-45.11" xlink:href="#linear-gradient-2"/><linearGradient id="linear-gradient-15" x1="489.88" y1="354.73" x2="612.83" y2="354.73" xlink:href="#radial-gradient"/><linearGradient id="linear-gradient-16" x1="508.96" y1="346.27" x2="635.84" y2="346.27" xlink:href="#linear-gradient-2"/><linearGradient id="linear-gradient-17" x1="186.41" y1="577.76" x2="309.36" y2="577.76" gradientTransform="translate(802.25 577.52) rotate(180)" xlink:href="#radial-gradient"/><linearGradient id="linear-gradient-18" x1="205.49" y1="569.29" x2="332.37" y2="569.29" gradientTransform="translate(802.25 577.52) rotate(180)" xlink:href="#linear-gradient-2"/><linearGradient id="linear-gradient-19" x1="490.13" y1="329.26" x2="618.61" y2="200.78" xlink:href="#linear-gradient-2"/><linearGradient id="linear-gradient-20" x1="652.49" y1="90.24" x2="780.96" y2="-38.23" xlink:href="#linear-gradient-2"/><linearGradient id="linear-gradient-21" x1="408.61" y1="85" x2="537.09" y2="-43.48" xlink:href="#linear-gradient-2"/><linearGradient id="linear-gradient-22" x1="235.83" y1="329.76" x2="364.3" y2="201.29" xlink:href="#linear-gradient-2"/><linearGradient id="linear-gradient-23" x1="33.74" y1="405.67" x2="162.22" y2="277.19" xlink:href="#linear-gradient-2"/><linearGradient id="linear-gradient-24" x1="13.45" y1="62.56" x2="141.93" y2="-65.92" xlink:href="#linear-gradient-2"/><linearGradient id="linear-gradient-25" x1="-95.25" y1="308.2" x2="33.23" y2="179.72" xlink:href="#linear-gradient-2"/><linearGradient id="linear-gradient-26" x1="458.81" y1="511.63" x2="587.28" y2="383.15" xlink:href="#linear-gradient-2"/><linearGradient id="linear-gradient-27" x1="648.86" y1="440.32" x2="777.34" y2="311.85" xlink:href="#linear-gradient-2"/><clipPath id="clip-path-2"><rect x="-556.93" y="-26.46" width="500" height="500" fill="none"/></clipPath><clipPath id="clip-path-3"><rect x="-681.93" y="-26.46" width="750" height="500" fill="none"/></clipPath><radialGradient id="radial-gradient-124" cx="-306.93" cy="223.54" r="318.69" xlink:href="#radial-gradient"/><radialGradient id="radial-gradient-125" cx="179.79" cy="383.23" r="52.17" xlink:href="#radial-gradient"/><radialGradient id="radial-gradient-126" cx="183.41" cy="386.85" r="48.16" xlink:href="#radial-gradient"/><radialGradient id="radial-gradient-127" cx="187.04" cy="390.48" r="43.49" xlink:href="#radial-gradient"/><radialGradient id="radial-gradient-128" cx="194.29" cy="397.73" r="30.92" xlink:href="#radial-gradient"/><radialGradient id="radial-gradient-129" cx="190.66" cy="394.1" r="37.92" xlink:href="#radial-gradient"/><radialGradient id="radial-gradient-130" cx="197.91" cy="401.35" r="21.15" xlink:href="#radial-gradient"/><radialGradient id="radial-gradient-131" cx="54.01" cy="257.45" r="20.6" xlink:href="#radial-gradient"/><radialGradient id="radial-gradient-132" cx="57.63" cy="261.07" r="30.57" xlink:href="#radial-gradient"/><radialGradient id="radial-gradient-133" cx="68.51" cy="271.95" r="47.97" xlink:href="#radial-gradient"/><radialGradient id="radial-gradient-134" cx="72.13" cy="275.57" r="52.01" xlink:href="#radial-gradient"/><radialGradient id="radial-gradient-135" cx="64.88" cy="268.32" r="43.27" xlink:href="#radial-gradient"/><radialGradient id="radial-gradient-136" cx="61.26" cy="264.7" r="37.64" xlink:href="#radial-gradient"/><radialGradient id="radial-gradient-137" cx="75.72" cy="279.16" r="55.57" xlink:href="#radial-gradient"/><radialGradient id="radial-gradient-138" cx="79.28" cy="282.72" r="58.71" xlink:href="#radial-gradient"/><radialGradient id="radial-gradient-139" cx="82.85" cy="286.29" r="61.48" xlink:href="#radial-gradient"/><radialGradient id="radial-gradient-140" cx="104.38" cy="307.82" r="72.21" xlink:href="#radial-gradient"/><radialGradient id="radial-gradient-141" cx="93.6" cy="297.04" r="67.96" xlink:href="#radial-gradient"/><radialGradient id="radial-gradient-142" cx="86.43" cy="289.87" r="63.92" xlink:href="#radial-gradient"/><radialGradient id="radial-gradient-143" cx="125.96" cy="329.4" r="75.45" xlink:href="#radial-gradient"/><radialGradient id="radial-gradient-144" cx="107.97" cy="311.41" r="73.22" xlink:href="#radial-gradient"/><radialGradient id="radial-gradient-145" cx="147.54" cy="350.98" r="72.26" xlink:href="#radial-gradient"/><radialGradient id="radial-gradient-146" cx="143.95" cy="347.39" r="73.25" xlink:href="#radial-gradient"/><radialGradient id="radial-gradient-147" cx="129.56" cy="333" r="75.36" xlink:href="#radial-gradient"/><radialGradient id="radial-gradient-148" cx="169.07" cy="372.51" r="61.6" xlink:href="#radial-gradient"/><radialGradient id="radial-gradient-149" cx="165.49" cy="368.93" r="64.02" xlink:href="#radial-gradient"/><radialGradient id="radial-gradient-150" cx="176.2" cy="379.64" r="55.71" xlink:href="#radial-gradient"/><radialGradient id="radial-gradient-151" cx="172.64" cy="376.08" r="58.84" xlink:href="#radial-gradient"/><radialGradient id="radial-gradient-152" cx="97.19" cy="300.63" r="69.6" xlink:href="#radial-gradient"/><radialGradient id="radial-gradient-153" cx="100.78" cy="304.22" r="71.01" xlink:href="#radial-gradient"/><radialGradient id="radial-gradient-154" cx="90.01" cy="293.45" r="66.07" xlink:href="#radial-gradient"/><radialGradient id="radial-gradient-155" cx="118.76" cy="322.2" r="75.09" xlink:href="#radial-gradient"/><radialGradient id="radial-gradient-156" cx="115.17" cy="318.61" r="74.65" xlink:href="#radial-gradient"/><radialGradient id="radial-gradient-157" cx="111.57" cy="315.01" r="74.02" xlink:href="#radial-gradient"/><radialGradient id="radial-gradient-158" cx="122.36" cy="325.8" r="75.36" xlink:href="#radial-gradient"/><radialGradient id="radial-gradient-159" cx="140.35" cy="343.79" r="74.05" xlink:href="#radial-gradient"/><radialGradient id="radial-gradient-160" cx="136.75" cy="340.2" r="74.67" xlink:href="#radial-gradient"/><radialGradient id="radial-gradient-161" cx="133.16" cy="336.6" r="75.11" xlink:href="#radial-gradient"/><radialGradient id="radial-gradient-162" cx="161.91" cy="365.35" r="66.16" xlink:href="#radial-gradient"/><radialGradient id="radial-gradient-163" cx="158.32" cy="361.76" r="68.03" xlink:href="#radial-gradient"/><radialGradient id="radial-gradient-164" cx="154.73" cy="358.17" r="69.66" xlink:href="#radial-gradient"/><radialGradient id="radial-gradient-165" cx="151.14" cy="354.58" r="71.07" xlink:href="#radial-gradient"/><linearGradient id="linear-gradient-28" x1="-127.08" y1="150.84" x2="84.8" y2="150.84" gradientTransform="translate(100.47 59.13) rotate(45)" xlink:href="#linear-gradient-2"/><linearGradient id="linear-gradient-29" x1="-25.22" y1="-36.65" x2="97.73" y2="-36.65" xlink:href="#radial-gradient"/><linearGradient id="linear-gradient-30" x1="-6.13" y1="-45.11" x2="120.75" y2="-45.11" xlink:href="#linear-gradient-2"/><linearGradient id="linear-gradient-31" x1="-2.98" y1="90.24" x2="125.49" y2="-38.23" xlink:href="#linear-gradient-2"/><linearGradient id="linear-gradient-32" x1="2.7" y1="313.19" x2="112.57" y2="203.33" gradientTransform="translate(0 10.85) scale(1 1.41)" xlink:href="#linear-gradient-2"/></defs><title>Mesa de trabajo 1 copia</title><g style="isolation:isolate"><g id="BACKGROUND_2" data-name="BACKGROUND 2"><g clip-path="url(#clip-path)"><rect x="-26.46" y="-26.46" width="750" height="500" fill="url(#radial-gradient)"/><g style="mix-blend-mode:screen"><path d="M120.77,445.14l21.59-21.6.08-.08.08-.07,21.59-21.6.08-.08,1.87-1.87c-.86.33-1.72.67-2.57,1l-.11,0-1,.4-21,21-.08.08-.07.07-21.6,21.6-.08.07-.07.08-13.14,13.14c-.51,1.2-1,2.42-1.47,3.64l15.77-15.77Z" fill="url(#radial-gradient-2)"/><path d="M117.07,441.59l.07-.08,21.6-21.6.08-.07.07-.08,13.58-13.57q-2.75,1.51-5.37,3.19l-9.3,9.3-.07.07-.08.08-21.6,21.59-.07.08-.08.08L114.46,442c-1.12,1.75-2.18,3.55-3.2,5.37l5.73-5.73Z" fill="url(#radial-gradient-3)"/><path d="M109.89,477.76h0l21.6-21.6.08-.07.07-.08,21.6-21.6.08-.07.07-.08,21.67-21.67.08-.08,19.2-19.2-2.42.25L174,411.5l-.08.08-21.6,21.59-.07.08-.08.08-21.6,21.59-.07.08-21.75,21.75-.08.07h0l-10,10c-.1.81-.18,1.61-.25,2.42l11.43-11.42Z" fill="url(#radial-gradient-4)"/><path d="M120.77,488.63,142.36,467l.08-.08.08-.07,21.59-21.6.08-.08.08-.07,21.59-21.6.08-.08.07-.07,21.6-21.6.08-.08,8.16-8.16-2-.2-7.2,7.2-.08.08L184.93,422.3l-.08.08-.08.07-21.59,21.6-.08.07-.07.08-21.6,21.6-.08.07-.07.08-21.6,21.6-.08.07-.07.08-21.1,21.1c0,.37.06.73.1,1.1a1,1,0,0,1,0,.17c0,.23.06.47.08.7l.24-.24h0l.07-.08,21.75-21.75Z" fill="url(#radial-gradient-5)"/><path d="M102.57,470.59l.07-.08,21.6-21.6.08-.07.07-.08,21.6-21.6.08-.07.07-.08,21.6-21.59.07-.08.08-.08,8.87-8.87c-1,.27-2,.56-3,.85l-6.93,6.94-.07.07-.08.08-21.6,21.59L145,426l-.08.08-21.6,21.59-.07.08-.08.08-20.83,20.83c-.12.39-.24.78-.35,1.18l0,.12c-.16.57-.32,1.15-.47,1.72l1-1Z" fill="url(#radial-gradient-6)"/><path d="M117,485.16l.08-.07,21.67-21.68.08-.07.07-.08,21.6-21.6.07-.07.08-.08,21.6-21.6.07-.07.08-.08,21.67-21.67.08-.08h0l5-5-2.09-.08L203,397l-.07.08h0l-21.6,21.6-.07.07-.08.08-21.6,21.59-.07.08-.08.08-21.6,21.59-.07.08-.08.07-21.6,21.6h0L116,484,98,502c0,.7,0,1.4.08,2.1L117,485.16Z" fill="url(#radial-gradient-7)"/><path d="M113.44,481.46l.08-.07,21.6-21.6.07-.08.08-.07L156.86,438l.08-.08.08-.07,21.59-21.6.08-.08.07-.07,21.6-21.6h0l.08-.07L202,392.9l-2.24.07-.33.33h0l-.08.08-21.67,21.67-.08.08-.07.07-21.6,21.6-.08.07-.07.08-21.6,21.6-.08.07-.07.08-21.6,21.6-.08.07-.07.08L98.05,494.68c0,.75-.06,1.49-.07,2.24l15.39-15.38Z" fill="url(#radial-gradient-8)"/><path d="M106.19,474.21l.08-.07,21.6-21.6.07-.08.08-.07,21.59-21.6.08-.08.08-.07L171.36,409l.08-.08.08-.07L186,394.39c-.89.15-1.78.31-2.66.49L170.43,407.8l-.08.08-.07.07-21.6,21.6-.08.08-.07.07-21.6,21.6-.08.07-.07.08-21.6,21.6-.08.07-.07.08L100,478.27c-.18.89-.34,1.77-.49,2.67l6.65-6.65Z" fill="url(#radial-gradient-9)"/><path d="M109.89,521.26h0l21.68-21.67.07-.08h0l21.68-21.67.07-.08h0l21.6-21.6.07-.07.08-.08,21.6-21.6h0l.07-.07,21.68-21.68h0l.07-.08,15.38-15.38-1.69-.49-14.7,14.71h0l-.08.07L195.8,433.18h0l-.07.08L174,455l-21.75,21.75-.08.07h0L130.48,498.5l-.08.07h0l-21.67,21.68-.08.07h0l-6.85,6.85c.16.57.32,1.13.49,1.69l7.53-7.53Z" fill="url(#radial-gradient-10)"/><path d="M120.77,532.13l21.59-21.59.08-.08.08-.08,21.59-21.59.08-.08.08-.08L185.86,467l.08-.08.07-.07,21.6-21.6.08-.08.07-.07,21.6-21.6.08-.08.07-.07,20.14-20.14-1.48-.7L228.42,422.3l-.07.08-.08.07-21.59,21.6-.08.07-.08.08-21.59,21.6-.08.07-.08.08-21.59,21.6-.08.07-.07.08-21.6,21.6-.08.07-.07.08L119.68,531l-.08.08-.07.08-11.9,11.89.69,1.49,12.37-12.37Z" fill="url(#radial-gradient-11)"/><path d="M131.64,543h0l21.68-21.68.07-.07h0l21.67-21.67.08-.08h0l21.6-21.6.07-.07.08-.08,21.6-21.6h0l.07-.07,21.68-21.68h0l.07-.07L262,412.66h0l.08-.08,1.39-1.39c-.43-.3-.87-.59-1.3-.87l-1.1,1.1h0l-.08.07L239.3,433.18h0l-.08.08-21.67,21.67h0l-.08.08L195.8,476.67l-.07.08-.08.07L174,498.5l-.08.07h0l-21.67,21.68-.08.07h0L130.48,542l-.08.08h0l-15,15,.87,1.3,15.3-15.29Z" fill="url(#radial-gradient-12)"/><path d="M102.57,514.08l.07-.07,21.6-21.6.08-.07.07-.08,21.6-21.6.08-.07.07-.08,21.6-21.6.07-.07.08-.08,21.6-21.6.07-.07.08-.08,21.6-21.59.07-.08.08-.08,10.8-10.8-1.86-.31-10,10-.08.07-.07.08-21.6,21.59-.07.08-.08.08-21.6,21.59-.07.08-.08.08-21.6,21.59-.07.08-.08.07-21.6,21.6-.07.08-.08.07-21.59,21.6-.08.08-.08.07-2.17,2.18c.09.62.2,1.24.31,1.87l2.95-3Z" fill="url(#radial-gradient-13)"/><path d="M117,528.66l.08-.08,21.67-21.67h0l.08-.08,21.67-21.67h0l.07-.07,21.68-21.68.07-.07.08-.08,21.67-21.67.08-.08h0l21.67-21.67.08-.08h0L244.65,401l-1.55-.63-18.38,18.38-.07.08h0L203,440.5l-.07.08h0l-21.6,21.59-.07.08-.08.07-21.6,21.6h0l-.07.08L137.8,505.67h0l-.07.08-21.68,21.67h0l-.07.08L105.45,538l.63,1.55L117,528.66Z" fill="url(#radial-gradient-14)"/><path d="M124.32,535.83l.07-.07,21.6-21.6.08-.08.07-.07,21.6-21.6.07-.07.08-.08,21.6-21.6.07-.07.08-.08,21.6-21.6.07-.07.08-.08,21.6-21.6.07-.07.08-.08,21.31-21.31c-.47-.26-.95-.51-1.42-.75l-21,21L232,426l-.07.08-21.6,21.59-.08.08-.07.08-21.6,21.59-.07.08-.08.07-21.6,21.6-.07.08-.08.07-21.6,21.6L145,513l-.08.07-21.6,21.6-.07.08-.08.07L110,548c.25.48.5.95.76,1.42l13.46-13.46Z" fill="url(#radial-gradient-15)"/><path d="M113.44,525l.08-.08,21.6-21.59.07-.08.08-.08,21.59-21.59.08-.08.08-.07,21.59-21.6.08-.08.07-.07,21.6-21.6.08-.08.07-.07,21.6-21.6.08-.08.07-.07L239.41,399c-.53-.19-1.07-.39-1.61-.57l-16.63,16.63-.07.08-.08.07-21.59,21.6-.08.07-.08.08-21.59,21.6-.08.07-.07.08-21.6,21.6-.08.07-.07.08-21.6,21.6-.08.07-.07.08-21.6,21.6-.08.07-.07.08-8.78,8.77c.18.54.38,1.08.57,1.62l9.3-9.31Z" fill="url(#radial-gradient-16)"/><path d="M106.19,517.71l.08-.08L127.87,496l.07-.08.08-.08,21.59-21.59.08-.08.08-.07,21.59-21.6.08-.08.08-.07,21.59-21.6.08-.08.07-.07,21.6-21.6.08-.08.07-.07,13.2-13.2-1.77-.4L213.93,407.8l-.08.08-.08.07-21.59,21.6-.08.08-.08.07-21.59,21.6-.08.07-.07.08-21.6,21.6-.08.07-.07.08-21.6,21.6-.08.07-.07.08-21.6,21.6-.08.07-.07.08-4.66,4.66c.13.59.26,1.19.4,1.78l5.35-5.35Z" fill="url(#radial-gradient-17)"/><path d="M138.74,550.41l.08-.08,21.67-21.67h0l.07-.08,21.68-21.67h0l.07-.08,21.75-21.74,21.75-21.75.08-.08h0l21.67-21.67.08-.08h0l21.67-21.67.08-.08h0l2.33-2.33-1.19-1-2.3,2.3-.07.08h0L246.47,440.5l-.07.08h0l-21.68,21.67-.07.07h0l-21.6,21.6L203,484l-.07.07-21.6,21.6h0l-.07.08-21.68,21.67h0l-.07.08L137.8,549.17h0l-.07.07-16.2,16.2,1,1.2,16.23-16.23Z" fill="url(#radial-gradient-18)"/><path d="M146.07,557.58l.07-.07,21.6-21.6.07-.08.08-.07,21.6-21.6.07-.08.08-.07,21.6-21.6.07-.07.08-.08,21.6-21.6.07-.07.08-.08,21.59-21.6.08-.07.08-.08,21.59-21.6.08-.07.08-.08,2.63-2.63c-.36-.37-.73-.73-1.09-1.09l-2.63,2.63-.08.08-.07.08-21.6,21.59-.08.08-.07.08-21.6,21.59-.08.08-.07.07-21.6,21.6-.08.08-.07.07-21.6,21.6-.07.08-.08.07-21.6,21.6-.07.08-.08.07-21.6,21.6-.07.07-.08.08L128.37,573.1l1.09,1.09L146,557.66Z" fill="url(#radial-gradient-19)"/><path d="M142.44,554l.08-.08,21.59-21.6.08-.07.08-.08,21.59-21.59.08-.08.07-.08,21.6-21.59.08-.08.07-.08L229.36,467l.08-.08.07-.07,21.6-21.6.08-.08.07-.07,21.6-21.6.07-.08.08-.07,2.57-2.57-1.14-1-2.52,2.51-.07.08-.08.07-21.6,21.6-.07.07-.08.08-21.6,21.6-.07.07-.08.08-21.59,21.6-.08.07-.08.08-21.59,21.6-.08.07-.08.08L163.18,531l-.08.08-.07.08-21.6,21.59-.08.08-.07.08-16.42,16.41,1,1.14L142.36,554Z" fill="url(#radial-gradient-20)"/><path d="M135.19,546.71l.08-.08L156.86,525l.08-.07.08-.08,21.59-21.59.08-.08.07-.08,21.6-21.59.08-.08.07-.07,21.6-21.6.08-.08.07-.07,21.6-21.6.08-.08.07-.07,21.6-21.6.07-.08.08-.07,1.91-1.91c-.41-.32-.83-.62-1.25-.93l-1.75,1.75-.07.08-.08.07-21.6,21.6-.07.08-.08.07-21.6,21.6-.07.07-.08.08-21.59,21.6-.08.07-.08.08-21.59,21.6-.08.07-.07.08-21.6,21.6-.08.07-.07.08-21.6,21.59-.08.08-.07.08-15.65,15.65.92,1.25,15.82-15.82Z" fill="url(#radial-gradient-21)"/><path d="M127.94,539.46l.08-.08,21.59-21.59.08-.08.08-.08L171.36,496l.08-.08.08-.08,21.59-21.59.08-.08.07-.07,21.6-21.6.08-.08.07-.07,21.6-21.6.08-.08.07-.07L258.44,409l.07-.07.54-.54-1.36-.81-.27.26-.07.08-.08.07-21.6,21.6-.07.08-.08.07-21.59,21.6-.08.07-.08.08-21.59,21.6-.08.07-.08.08-21.59,21.6-.08.07-.07.08-21.6,21.6-.08.07-.07.08-21.6,21.59-.08.08-14.23,14.24c.27.45.53.91.81,1.36l14.44-14.44Z" fill="url(#radial-gradient-22)"/><path d="M55,24l-.08.07L33.22,45.73h0l-.08.08L11.47,67.48h0l-.08.08L-10.28,89.23h0l-.08.08-21.75,21.75,0,0-15.6,15.6c.75,0,1.49,0,2.23-.06l14.41-14.4.05,0,0,0,.08-.08,21.6-21.6h0l.07-.07L12.4,68.72h0l.08-.07L34.15,47h0l.08-.07L55.9,25.22h0l.08-.07.58-.58c0-.74,0-1.48,0-2.23L55,24Z" fill="url(#radial-gradient-23)"/><path d="M44,56.68,22.34,78.36l-.07.07-.08.08L.59,100.11l-.07.07-21.75,21.75-.08.08h0l-1.29,1.29,2.15-.58.12,0,.74-.21L1.53,101.35l.08-.08.07-.08L23.28,79.6l.07-.08.08-.07L45,57.85l.07-.08,7.3-7.29c.29-1,.57-2,.83-3l-9.14,9.14Z" fill="url(#radial-gradient-24)"/><path d="M36.84,49.36l-.07.07L15.09,71.11h0l-.07.07L-6.66,92.86h0l-.07.07-21.68,21.68h0l-.07.07-11.61,11.61c.8-.06,1.61-.14,2.41-.23l10.21-10.22h0l.08-.08L-5.72,94.1h0l.08-.08L16,72.35h0l.07-.08L37.78,50.6h0l.07-.08L56,32.38c.09-.8.17-1.6.24-2.41L36.84,49.36Z" fill="url(#radial-gradient-25)"/><path d="M40.31,53.14h0L18.64,74.81l-.07.07h0L-3.11,96.56l-.07.07h0l-21.6,21.6h0l-.08.08-6.94,6.94c.89-.15,1.77-.31,2.65-.48l5.31-5.3h0l.07-.08L-2,97.65l.08-.08h0L19.73,75.9l.08-.08h0L41.48,54.15l.07-.08h0L54.71,40.92c.17-.88.33-1.77.47-2.65L40.39,53.06Z" fill="url(#radial-gradient-26)"/><path d="M47.56,60.38h0L25.89,82.06l-.07.07h0L4.14,103.81l-.07.07h0l-16,16c1.21-.45,2.41-.93,3.6-1.43L5.23,104.9l.08-.08h0L27,83.15l.08-.08h0L48.43,61.7c.06-.14.11-.29.17-.43a1.17,1.17,0,0,0,0-.11c.42-1,.82-2,1.21-3.07l-2.22,2.22Z" fill="url(#radial-gradient-27)"/><path d="M29.44,85.76h0L7.77,107.43l-.08.08h0l-6.28,6.28c1.79-1,3.53-2,5.25-3.08l2.2-2.19.07-.08h0L30.6,86.77l.08-.07h0l10-10c1.07-1.72,2.1-3.47,3.07-5.25l-14.2,14.2Z" fill="url(#radial-gradient-28)"/><path d="M-34.57,108.44h0l21.68-21.67.07-.07h0L8.86,65,8.93,65h0L30.6,43.27l.08-.07h0L52.35,21.52l.08-.07h0l4.14-4.14c0-.7,0-1.4-.08-2.1l-5.22,5.23-.08.07h0L29.52,42.19l-.08.07h0L7.77,63.93,7.69,64h0L-14,85.68l-.08.08h0l-21.67,21.67-.08.08h0l-19,19c.69,0,1.39.06,2.09.09l18.12-18.12Z" fill="url(#radial-gradient-29)"/><path d="M-38.19,104.82h0l21.67-21.67.08-.08h0L5.23,61.4l.08-.08h0L27,39.65l.08-.08h0L48.65,18l.08-.08.07-.08,7.34-7.33-.21-2-8.21,8.21-.08.07L25.89,38.56l-.07.08h0L4.14,60.31l-.07.07h0L-17.61,82.06l-.07.07h0l-21.68,21.68-.07.07h0L-61.1,125.56l-.08.07h0l-.36.36,1,.11.17,0,.82.08,21.3-21.3Z" fill="url(#radial-gradient-30)"/><path d="M-114.31,72.2h0l21.59-21.6h0l.08-.08L-71,28.85h0l.08-.08L-49.22,7.1h0l.08-.07,21.67-21.68h0l.08-.07L-5.72-36.4h0l.08-.07L16-58.15h0l.08-.07,2.4-2.41-1.2-1-2.22,2.22h0l-.07.08L-6.66-37.64h0l-.07.08L-28.41-15.89h0l-.07.08L-50.15,5.86h0l-.08.08L-71.9,27.61h0l-.08.08L-93.65,49.36h0l-.08.07-21.75,21.75-.07.08h0l-16.12,16.12,1,1.2,16.3-16.31Z" fill="url(#radial-gradient-31)"/><path d="M-121.56,65h0l21.67-21.68.08-.07h0l21.67-21.68.08-.07h0L-56.39-.22l.07-.08h0L-34.64-22l.07-.08h0l21.68-21.67.07-.08h0L8.78-65.4l.08-.07.07-.08,1.32-1.31c-.43-.3-.87-.59-1.31-.87l-1.1,1.09-.07.08L-14-44.81l-.08.07h0L-35.73-23.06l-.08.07h0L-57.48-1.31l-.08.07h0L-79.23,20.44l-.07.07h0L-101,42.19l-.07.07h0l-21.68,21.67-.07.08h0l-15,15,.87,1.3L-121.64,65Z" fill="url(#radial-gradient-32)"/><path d="M-125.19,61.32h0l21.68-21.67.07-.08h0L-81.84,18l.07-.08.08-.08,21.6-21.59.07-.08.08-.08,21.6-21.59.07-.08,21.75-21.75.08-.07h0L5.23-69.1l.08-.07h0l.53-.54-1.36-.81-.34.34-.07.07h0L-17.61-48.44l-.07.08h0l-21.6,21.6-.08.07L-61-5l-.07.07-.08.08-21.6,21.6-.07.07L-104.6,38.56l-.08.08h0l-21.67,21.67-.08.07h0l-14.16,14.17c.27.45.54.91.82,1.36l14.51-14.51Z" fill="url(#radial-gradient-33)"/><path d="M-85.31,101.19-63.72,79.6l.08-.08.07-.07L-42,57.85l.08-.08L-20.14,36l.07-.07h0L1.61,14.27l.07-.07h0L23.35-7.47l.08-.08h0l21-21c-.25-.47-.5-1-.76-1.42L22.27-8.56l-.08.07h0L.52,13.19l-.08.07h0L-21.23,34.94l-.08.07h0L-42.9,56.61l-.08.07L-64.65,78.36l-.08.07-.08.08-21.59,21.6-.08.07-.07.08-13.51,13.51,1.42.75,13.25-13.25Z" fill="url(#radial-gradient-34)"/><path d="M-99.81,86.7h0L-78.14,65l.08-.07h0l21.68-21.68.07-.07h0l21.68-21.68.07-.07h0L-12.89-.22l.07-.08h0L8.86-22,8.93-22h0L30.6-43.72l.08-.08h0L32.92-46l-1-1.19-2.41,2.42-.08.07h0L7.77-23.06,7.69-23h0L-14-1.31l-.08.07h0L-35.73,20.44l-.08.07h0L-57.48,42.19l-.08.07h0L-79.23,63.93l-.07.08h0L-101,85.68l-.07.08h0L-117.29,102l1.19,1,16.21-16.21Z" fill="url(#radial-gradient-35)"/><path d="M-103.44,83.07h0L-81.77,61.4l.08-.08h0L-60,39.65l.08-.08h0L-38.34,18l.07-.08.08-.08,21.6-21.59.07-.08.08-.08L5.15-25.52l.08-.08L27-47.35l.08-.07h0l2.53-2.53-1-1.14-2.65,2.65-.07.08h0L4.22-26.76l-.08.07L-17.53-5l-.08.07-.07.08-21.6,21.6-.08.07L-61.1,38.56l-.08.08h0L-82.85,60.31l-.08.07h0L-104.6,82.06l-.08.07h0l-16.47,16.48,1.14,1,16.5-16.49Z" fill="url(#radial-gradient-36)"/><path d="M-42,101.35l.08-.08.07-.08,21.6-21.59.08-.08.07-.07,21.6-21.6.08-.08L23.35,36l.08-.07h0L45.1,14.27l.08-.07h0L55.32,4.06c-.1-.62-.2-1.25-.31-1.87l-11,11-.08.07h0L22.27,34.94l-.08.07h0L.59,56.61l-.07.07L-21.16,78.36l-.07.07-.08.08-21.59,21.6-.08.07-21.75,21.75-.08.08h0l-3.07,3.06,1.86.31,2.37-2.36.07-.08h0Z" fill="url(#radial-gradient-37)"/><path d="M-78.06,108.44h0l21.68-21.67.07-.07h0L-34.64,65l.07-.07h0l21.68-21.68.07-.07h0L8.86,21.52l.07-.07h0L30.6-.22l.08-.08h0L49.05-18.67l-.63-1.54L29.52-1.31l-.08.07h0L7.77,20.44l-.08.07h0L-14,42.19l-.08.07h0L-35.73,63.93l-.08.08h0L-57.48,85.68l-.08.08h0l-21.68,21.67-.07.08h0l-11,11c.51.22,1,.43,1.55.63l10.59-10.59Z" fill="url(#radial-gradient-38)"/><path d="M-81.69,104.82h0L-60,83.15l.08-.08h0L-38.27,61.4l.08-.08h0l21.67-21.67.08-.08h0L5.15,18l.08-.08.08-.08L26.9-3.77,27-3.85l.08-.08,19.8-19.8-.69-1.48L26-5l-.08.07-.07.08L4.22,16.74l-.08.07L-17.61,38.56l-.07.08h0L-39.36,60.31l-.07.07h0L-61.1,82.06l-.08.07h0l-21.67,21.68-.08.07h0l-12.35,12.35c.49.24,1,.46,1.49.69l12-12Z" fill="url(#radial-gradient-39)"/><path d="M-129,57.85l.07-.08,21.68-21.67h0l.07-.08,21.75-21.75.08-.07h0L-63.64-7.47l.07-.08h0l21.68-21.67.07-.08h0L-20.14-51l.07-.08h0L1.25-72.36c-.47-.26-.95-.51-1.43-.76l-21,21.06-.08.08h0L-43-30.31l-.08.07h0L-64.73-8.56l-.08.07h0L-86.48,13.19l-.07.07h0l-21.6,21.6h0l-.08.08L-129.9,56.61h0l-.08.07-13.2,13.21.75,1.42L-129,57.85Z" fill="url(#radial-gradient-40)"/><path d="M-107.21,79.6l.07-.08,21.75-21.75,0,0L-63.64,36l.07-.07h0l21.68-21.68.07-.07h0L-20.14-7.47l.07-.08h0L1.61-29.22l.07-.08h0L23.35-51l.08-.08h0l2.63-2.63L25-54.77l-2.7,2.71-.08.08h0L.52-30.31l-.08.07h0L-21.23-8.56l-.08.07h0L-43,13.19l-.08.07h0L-64.73,34.94l-.08.07h0l-21.6,21.6,0,0,0,0-.07.08-21.6,21.6h0l-.08.07L-124.83,95l1.08,1.09,16.54-16.53Z" fill="url(#radial-gradient-41)"/><path d="M-110.84,76l.08-.07,21.67-21.68h0l.08-.07,21.67-21.68h0l.07-.07,21.68-21.68h0l.07-.08L-23.84-11h0l.07-.08L-2-32.85l.08-.07h0l21.59-21.6.08-.08.08-.07,2.56-2.57c-.37-.35-.76-.69-1.14-1l-2.51,2.51-.08.07L-3.11-33.94l-.07.08h0l-21.6,21.6h0l-.08.07L-46.53,9.49h0l-.08.07L-68.28,31.24h0l-.07.07L-90,53h0l-.07.08-21.68,21.67h0l-.07.08L-128.34,91.3l1,1.14L-110.84,76Z" fill="url(#radial-gradient-42)"/><path d="M-118,68.65l.07-.08L-96.34,47l.08-.07,21.74-21.75.08-.08h0L-52.77,3.4l.08-.08h0L-31-18.35l.08-.07h0L-9.34-40h0l.07-.08L12.4-61.77h0l.08-.08,2-2-1.25-.92L11.47-63h0l-.08.07L-10.28-41.26h0l-.08.07L-32.11-19.44l-.07.08h0L-53.85,2.31l-.08.08h0L-75.6,24.06l-.08.08h0l-21.6,21.59-.07.08L-119,67.48l-.07.08-.08.07-15.65,15.65.93,1.25,15.81-15.81Z" fill="url(#radial-gradient-43)"/><path d="M-92.72,94.1l.08-.08L-71,72.35h0l.08-.08L-49.22,50.6h0l.08-.08,21.67-21.67h0l.08-.08L-5.72,7.1h0L-5.64,7,16-14.65h0l.08-.07L37.78-36.4h0l.07-.07,1.21-1.21L38.19-39l-1.35,1.34h0l-.07.08L15.09-15.89h0l-.07.08L-6.66,5.86h0l-.07.08L-28.41,27.61h0l-.07.08L-50.15,49.36h0l-.08.07L-71.9,71.11h0l-.08.07L-93.65,92.86h0l-.08.07L-109,108.25l1.3.88,15-15Z" fill="url(#radial-gradient-44)"/><path d="M-89.09,97.72l.08-.07L-67.34,76h0l.07-.07,21.68-21.68h0l.07-.07,21.68-21.68h0l.07-.07L-2,10.65l.08-.08h0L19.73-11.1l.08-.07h0L41.48-32.85l.07-.07h0l.31-.31c-.27-.45-.54-.91-.82-1.36l-.65.65-.08.08h0L18.64-12.19l-.07.08h0L-3.11,9.56l-.07.08h0l-21.6,21.6h0l-.08.07L-46.53,53h0l-.08.08L-68.28,74.73h0l-.07.08L-90,96.48h0l-.07.08-14.55,14.55,1.36.81,14.2-14.2Z" fill="url(#radial-gradient-45)"/><path d="M-96.26,90.4l.07-.08,21.6-21.6.07-.07.08-.08L-52.84,47l.07-.07L-31,25.15l.08-.08h0L-9.34,3.48h0l.07-.08L12.4-18.27h0l.08-.08L34.15-40h0l.08-.08,1.85-1.85-.93-1.25-1.93,1.94h0l-.08.07L11.47-19.51h0l-.08.07L-10.28,2.24h0l-.08.07L-32.11,24.06l-.07.08h0l-21.6,21.59-.07.08L-75.53,67.48l-.07.08-.08.07-21.6,21.6-.07.08-.08.07-15.83,15.84,1.25.93,15.67-15.68Z" fill="url(#radial-gradient-46)"/><path d="M-71,115.85l.08-.08L-49.22,94.1h0l.08-.08,21.67-21.67h0l.08-.08L-5.72,50.6h0l.08-.08L16,28.85h0l.08-.08L37.78,7.1h0L37.85,7,52.72-7.84c-.16-.57-.32-1.13-.49-1.69L36.84,5.86h0l-.07.08L15.09,27.61h0l-.07.08L-6.66,49.36h0l-.07.07L-28.41,71.11h0l-.07.07L-50.15,92.86h0l-.08.07L-71.9,114.61h0l-.08.07-7.61,7.62,1.68.49,6.94-7Z" fill="url(#radial-gradient-47)"/><path d="M-67.34,119.47l.07-.08,21.68-21.67h0l.07-.07L-23.84,76h0l.07-.07L-2,54.15l.08-.08h0L19.73,32.4l.08-.08h0L41.48,10.65l.07-.08h0L54.17-2c-.13-.59-.27-1.18-.41-1.77L40.39,9.56l-.08.08h0L18.64,31.31l-.07.08h0L-3.11,53.06l-.07.08h0l-21.6,21.59h0l-.08.08L-46.53,96.48h0l-.08.08-21.67,21.67h0l-.07.08-5.53,5.52,1.78.4,4.76-4.76Z" fill="url(#radial-gradient-48)"/><path d="M-74.52,112.15l.08-.08,21.6-21.6.07-.07.08-.08L-31,68.65l.08-.08L-9.34,47h0l.07-.07L12.4,25.22h0l.08-.07L34.15,3.48h0l.08-.08L51-13.38c-.18-.54-.38-1.07-.57-1.61L33.22,2.24h0l-.08.07L11.47,24h0l-.08.07L-10.28,45.73h0l-.08.08L-32.11,67.56l-.07.07-21.6,21.6-.07.08-.08.07L-75.53,111l-.07.08L-85,120.51l1.6.56,8.86-8.85Z" fill="url(#radial-gradient-49)"/><path d="M694.6,272.32l.07-.07,21.68-21.68h0l.07-.07,13.66-13.65q-2.75,1.52-5.38,3.19l-9.29,9.29h0l-.07.08-21.68,21.67h0l-.07.08-1.52,1.52c-1.12,1.75-2.18,3.54-3.2,5.37l5.73-5.73Z" fill="url(#radial-gradient-50)"/><path d="M698.22,276l.08-.08,21.75-21.75.07-.07,21.6-21.6.08-.08.07-.07,1.8-1.8c-.86.33-1.72.67-2.57,1l-.11,0-1,.4-21,21L719,253l-.08.08-21.59,21.6h0l-.08.07L684,288c-.52,1.2-1,2.42-1.47,3.64L698.22,276Z" fill="url(#radial-gradient-51)"/><path d="M687.5,308.42h0l21.67-21.67.08-.08h0L730.92,265l.08-.08h0l21.67-21.67.08-.08h0L772,224c-.81.07-1.62.16-2.42.25l-17.95,17.94-.07.08h0l-21.68,21.67-.07.07h0l-21.67,21.68-.08.07h0l-21.67,21.68-.08.07h0l-10,10c-.09.81-.17,1.61-.24,2.42l11.43-11.42Z" fill="url(#radial-gradient-52)"/><path d="M691.13,312l21.59-21.59h0l.08-.08,21.67-21.67h0l.08-.08L756.22,247h0l.08-.08L778,225.2h0l.08-.08,1.56-1.56-2.24.07L777,224h0L777,224l-21.68,21.67h0l-.07.07-21.67,21.68h0l-.07.07-21.67,21.68h0l-.08.07L690,311l-.07.08-14.24,14.23c0,.75,0,1.49-.06,2.24l15.46-15.46Z" fill="url(#radial-gradient-53)"/><path d="M683.88,304.79h0l21.67-21.67.07-.07h0l21.68-21.68.07-.07h0l21.68-21.68.07-.07h0l14.5-14.5c-.89.15-1.78.31-2.66.49l-13,13-.08.08h0l-21.67,21.67-.08.08h0L704.46,282l-.07.08h0l-21.68,21.67-.07.08h0l-5.08,5.07c-.17.88-.33,1.77-.48,2.66l6.72-6.72Z" fill="url(#radial-gradient-54)"/><path d="M680.18,301.25l.07-.08,21.6-21.6.07-.07.08-.08,21.6-21.6.07-.07.08-.08,21.6-21.6.07-.07.08-.08,8.87-8.87c-1,.27-2,.55-3,.85l-6.93,6.93-.08.08-.07.08-21.6,21.59-.07.08-.08.08-21.6,21.59-.07.08-.08.07-20.83,20.84c-.12.39-.24.78-.35,1.18l0,.12c-.17.57-.32,1.14-.47,1.72l1-1Z" fill="url(#radial-gradient-55)"/><path d="M694.6,315.82l.07-.08,21.68-21.67h0l.07-.07,21.68-21.68h0l.07-.07,21.68-21.68h0l.07-.07,21.67-21.68h0l.07-.07,5.08-5.08c-.7,0-1.39-.06-2.09-.08l-4,4h0l-.08.08-21.67,21.67h0l-.08.08-21.67,21.67h0l-.08.08-21.67,21.67h0l-.07.08-21.68,21.67h0l-.07.08-18,18c0,.7,0,1.4.08,2.09l18.9-18.9Z" fill="url(#radial-gradient-56)"/><path d="M698.22,319.45l.08-.08,21.75-21.75.07-.08L741.72,276l.08-.08.07-.07,21.6-21.6.08-.08.07-.07,21.6-21.6.07-.08.08-.07,8.09-8.09-2-.2-7.2,7.2-.07.08-.08.07L762.53,253l-.07.07-.08.08-21.6,21.6-.07.07-.08.08L719,296.46l-.08.07-.08.08-21.59,21.6h0l-.08.07L676,339.46c0,.36.06.73.1,1.1,0,.05,0,.11,0,.17,0,.23.05.46.08.7l.23-.24h0l.07-.07,21.67-21.68Z" fill="url(#radial-gradient-57)"/><path d="M680.25,344.67h0L701.92,323l.08-.07h0l21.6-21.6.07-.07.08-.08,21.6-21.6.07-.07.08-.08,21.6-21.6.07-.07.08-.08,21.59-21.6.08-.07.08-.08,10.8-10.8-1.87-.31-10,10-.08.08-.07.08-21.6,21.59-.08.08-.07.08-21.6,21.59-.08.08-.07.07-21.6,21.6-.07.08-21.75,21.75-.08.07h0l-21.67,21.67-.08.08h0l-2.18,2.18c.1.62.21,1.24.31,1.86l3-3Z" fill="url(#radial-gradient-58)"/><path d="M702,366.42h0l21.67-21.68.08-.07h0L745.42,323l.08-.07h0l21.6-21.6.07-.07.08-.08,21.59-21.6.08-.07.08-.08,21.59-21.6.08-.07.07-.08,21.32-21.31-1.42-.76-21,21-.08.08-.07.08-21.6,21.59-.08.08-.07.07-21.6,21.6-.08.08-21.75,21.75-.07.07h0l-21.68,21.67-.07.08h0L700.84,365.4l-.08.08h0l-13.13,13.13.75,1.42,13.54-13.54Z" fill="url(#radial-gradient-59)"/><path d="M691.13,355.54l21.59-21.6h0l.08-.07,21.67-21.68h0l.08-.08,21.67-21.67h0l.08-.08L778,268.7h0l.08-.08L799.72,247h0l.07-.08L817,229.65c-.53-.19-1.07-.39-1.61-.57l-16.63,16.63h0l-.07.07L777,267.46h0l-.07.07-21.68,21.68h0l-.07.07L733.54,311h0l-.07.07-21.67,21.68h0l-.08.07L690,354.53l-.07.08-8.78,8.77c.18.54.37,1.08.56,1.61l9.38-9.37Z" fill="url(#radial-gradient-60)"/><path d="M683.88,348.29h0l21.67-21.67.07-.08h0l21.68-21.67.07-.08h0l21.68-21.67.07-.07h0l21.68-21.68.07-.07h0l21.67-21.68.08-.07h0l13.2-13.2L804,226l-12.58,12.59-.08.07h0l-21.67,21.67-.08.08h0L748,282l-.08.08h0l-21.67,21.67-.08.08h0l-21.67,21.67-.07.08h0l-21.68,21.67-.07.08h0L678,352q.18.89.39,1.77l5.43-5.42Z" fill="url(#radial-gradient-61)"/><path d="M705.62,370h0l21.68-21.67.07-.08h0l21.68-21.67.07-.08h0l21.68-21.67.07-.08h0l21.68-21.67.07-.07h0l21.67-21.68.08-.07h0L836,239.62l.08-.07h0l.54-.54-1.37-.81-.34.34-.07.07h0l-21.67,21.67-.08.08h0L791.46,282l-.08.08h0l-21.67,21.67-.08.08h0L748,325.53l-.08.08h0l-21.67,21.67-.08.08h0L704.46,369l-.07.07h0l-14.17,14.17c.27.45.54.91.82,1.36l14.51-14.51Z" fill="url(#radial-gradient-62)"/><path d="M694.6,359.32l.07-.08,21.68-21.67h0l.07-.08,21.68-21.67h0l.07-.08,21.68-21.67h0l.07-.07,21.67-21.68h0l.07-.07,21.75-21.75.07-.08,18.76-18.76-1.54-.63-18.3,18.3-.08.08-.07.08-21.6,21.59h0l-.08.08-21.67,21.67h0l-.08.08-21.67,21.67h0l-.08.08-21.67,21.67h0l-.07.08-21.68,21.67h0l-.07.07-10.53,10.53.63,1.55,10.91-10.91Z" fill="url(#radial-gradient-63)"/><path d="M698.22,362.94l.08-.07,21.75-21.75.07-.08,21.6-21.59.08-.08.07-.08,21.6-21.59.08-.08.07-.08L785.22,276l.08-.08.07-.07L807,254.2l.07-.08.08-.07,20.14-20.15-1.48-.69L806,253,806,253l-.08.08-21.6,21.6-.07.07-.08.08-21.6,21.6-.07.07-.08.08-21.6,21.6-.07.07-.08.08L719,340,719,340l-.08.08L697.29,361.7h0l-.08.08-12,12,.69,1.49,12.29-12.3Z" fill="url(#radial-gradient-64)"/><path d="M687.42,352l.08-.07,21.6-21.6.07-.08,21.75-21.74.08-.08h0l21.67-21.67.08-.08h0L774.42,265l.08-.08h0l21.67-21.67.07-.08,15.31-15.3-1.69-.49-14.78,14.78-.07.08-21.68,21.67-.07.07h0l-21.68,21.68-.07.07h0l-21.68,21.68-.07.07h0l-21.6,21.6-.07.08-21.68,21.67-.07.07-.08.08-6.85,6.85.48,1.69,7.46-7.45Z" fill="url(#radial-gradient-65)"/><path d="M709.17,373.74l.08-.07,21.6-21.6.07-.08.08-.07,21.6-21.6.07-.08,21.75-21.74.08-.08h0l21.59-21.6.08-.07.07-.08,21.6-21.6.08-.07.07-.08,21.68-21.67.07-.08,1.32-1.31-1.3-.88-1.18,1.18-.08.08-21.59,21.59-.08.08-.07.07-21.6,21.6-.08.08-.07.07-21.68,21.68-.07.07h0l-21.6,21.6-.08.08-21.67,21.67-.08.07-.07.08-21.6,21.6-.07.07-.08.08-15,15,.87,1.3,15.22-15.21Z" fill="url(#radial-gradient-66)"/><path d="M466.07,250.34l-.08.07-.08.08-21.59,21.6h0l-.08.07-21.67,21.68h0l-.08.07-21.67,21.68h0l-.08.08-21.67,21.67h0l-.08.08L363.37,353c.75,0,1.49,0,2.24-.06l14.4-14.4h0l.07-.07,21.68-21.68h0l.07-.07,21.68-21.68h0l.07-.08,21.67-21.67h0l.08-.08,21.75-21.75.07-.07.51-.51c0-.74,0-1.48,0-2.23Z" fill="url(#radial-gradient-67)"/><path d="M447.87,275.79l-.08.07-21.6,21.6-.07.08-.08.07-21.6,21.6-.07.08-.08.07L382.7,341l-.08.07-.08.08L371,352.65c.8-.07,1.61-.15,2.41-.24l10.29-10.29.07-.07,21.6-21.6.08-.08.07-.07,21.6-21.6.08-.08.07-.07,21.6-21.6.07-.07.08-.08,18.07-18.07c.08-.8.16-1.6.23-2.41l-19.39,19.39Z" fill="url(#radial-gradient-68)"/><path d="M451.49,279.41l-.07.08-21.6,21.6-.08.07L408,322.91l-.07.08h0l-21.68,21.67-.07.07h0l-6.87,6.87c.89-.15,1.77-.3,2.65-.47l5.38-5.38.08-.08h0L409.08,324l.08-.08h0l21.59-21.59.08-.08.08-.08,21.59-21.59.08-.08.08-.08,13.15-13.15c.17-.88.33-1.76.47-2.65l-14.71,14.72Z" fill="url(#radial-gradient-69)"/><path d="M458.74,286.66l-.07.08L437,308.41l-.07.08h0l-21.6,21.59-.08.08-16.11,16.12c1.21-.46,2.41-.93,3.6-1.43l13.53-13.53.07-.07,21.75-21.75.08-.08h0l21.37-21.37c.06-.14.11-.28.17-.43s0-.07.05-.1c.42-1,.82-2,1.21-3.08l-2.14,2.15Z" fill="url(#radial-gradient-70)"/><path d="M455,283.11h0l-21.67,21.68-.08.07h0l-21.67,21.67-.08.08h0l-21.67,21.67-.08.08h0l-1.29,1.29,2.15-.58.12,0,.74-.22,21.2-21.2.07-.07h0l21.68-21.68.07-.07h0l21.67-21.67.08-.08h0l7.22-7.22c.29-1,.57-2,.84-3L455.12,283Z" fill="url(#radial-gradient-71)"/><path d="M440.69,312l-.07.08-21.68,21.67h0l-.07.07-6.36,6.36c1.78-1,3.53-2,5.25-3.07l2.12-2.12h0l.08-.08,21.67-21.67h0l.08-.08,10-10c1.07-1.72,2.1-3.47,3.07-5.25L440.69,312Z" fill="url(#radial-gradient-72)"/><path d="M274.89,190l.07-.07,21.68-21.67h0l.07-.08,13.65-13.65c-1.82,1-3.61,2.08-5.37,3.19L295.7,167h0l-.08.07L274,188.72h0l-.08.07-1.51,1.52c-1.12,1.75-2.18,3.55-3.2,5.37l5.73-5.73Z" fill="url(#radial-gradient-73)"/><path d="M278.51,193.58l.08-.08,21.75-21.74.07-.08,21.6-21.6.08-.07.07-.08,1.8-1.79c-.87.33-1.72.67-2.57,1l-.11,0-1,.4-21,21-.07.08-.08.07-21.59,21.6h0l-.08.08-13.22,13.21c-.51,1.2-1,2.42-1.46,3.64l15.69-15.69Z" fill="url(#radial-gradient-74)"/><path d="M267.79,226.05h0l21.67-21.67.08-.08h0l21.67-21.67.08-.08h0L333,160.88l.08-.07h0l19.2-19.21-2.42.25-17.95,17.94-.07.08h0l-21.68,21.67-.07.08h0l-21.68,21.67-.07.08h0L266.63,225l-.08.08h0l-10,10c-.09.81-.17,1.61-.24,2.42l11.42-11.42Z" fill="url(#radial-gradient-75)"/><path d="M271.41,229.68l21.6-21.6h0l.08-.08,21.67-21.67h0l.08-.08,21.67-21.67h0l.07-.07,21.68-21.68h0l.07-.07,1.57-1.57-2.24.07-.34.33h0l-.07.08-21.68,21.67h0l-.07.08-21.68,21.67h0l-.07.08-21.68,21.67h0l-.07.08-21.75,21.74-.08.08L255.94,243c0,.75-.05,1.49-.06,2.24l15.46-15.46Z" fill="url(#radial-gradient-76)"/><path d="M264.16,222.43h0l21.68-21.68.07-.07h0L307.59,179l.07-.08h0l21.68-21.67.07-.08h0l14.5-14.5c-.89.15-1.78.32-2.66.49l-13,13-.08.07h0L306.5,177.92l-.08.07h0l-21.67,21.68-.08.07h0L263,221.41l-.08.08h0l-5.08,5.07c-.17.89-.33,1.78-.49,2.67l6.73-6.73Z" fill="url(#radial-gradient-77)"/><path d="M260.46,218.88l.08-.08,21.6-21.6.07-.07.08-.08,21.6-21.59.07-.08.08-.08,21.59-21.59.08-.08.08-.07,8.87-8.88c-1,.27-2,.56-3,.85l-6.93,6.94-.08.07-.07.08L303,174.22l-.08.07-.07.08L281.2,196l-.08.07-.07.08L260.22,217c-.12.39-.24.78-.35,1.18a.56.56,0,0,1,0,.12c-.16.57-.31,1.15-.46,1.72l1-1Z" fill="url(#radial-gradient-78)"/><path d="M274.89,233.45l.07-.07,21.68-21.68h0l.07-.07L318.39,190h0l.07-.07,21.67-21.67h0l.08-.08,21.67-21.67h0l.08-.08L367,141.3l-2.1-.08-4,4h0l-.08.07L339.2,167h0l-.08.07-21.67,21.68h0l-.08.07L295.7,210.47h0l-.08.08L274,232.21h0l-.08.08-18,18c0,.7,0,1.4.08,2.1l18.91-18.91Z" fill="url(#radial-gradient-79)"/><path d="M278.51,237.08l.08-.08,21.75-21.75.07-.07,21.6-21.6.08-.08.07-.07,21.6-21.6.07-.07.08-.08,21.6-21.6.07-.07.08-.08,8.08-8.08c-.65-.08-1.31-.15-2-.21l-7.2,7.2-.07.08-.08.07-21.6,21.6-.07.08-.08.07-21.6,21.6-.07.08-.08.07-21.6,21.6-.07.08-.08.07-21.59,21.6h0l-.08.07-21.18,21.18c0,.37.07.73.11,1.1a1,1,0,0,0,0,.17c0,.23.05.47.08.7l.23-.23h0l.08-.08,21.67-21.67Z" fill="url(#radial-gradient-80)"/><path d="M260.54,262.3h0l21.67-21.67.08-.08h0l21.6-21.6.07-.07.08-.08,21.59-21.6.08-.07.08-.08,21.59-21.59.08-.08.07-.08,21.6-21.59.08-.08.07-.07,10.81-10.81-1.87-.31-10,10-.08.07-.08.08-21.59,21.6-.08.07-.07.08L324.7,196l-.08.07-.07.08L303,217.71l-.08.08-21.75,21.75-.07.07h0l-21.67,21.68-.08.07h0l-2.18,2.18c.1.62.2,1.25.31,1.87l3-3Z" fill="url(#radial-gradient-81)"/><path d="M282.29,284.05h0L304,262.38l.08-.08h0l21.67-21.67.08-.08h0L347.38,219l.08-.07.07-.08,21.6-21.6.08-.07.07-.08,21.6-21.59.08-.08.07-.08L412.35,154c-.47-.26-1-.5-1.42-.75l-21,21-.08.07-.08.08L368.2,196l-.08.07-.08.08-21.59,21.59-.08.08-21.75,21.75-.07.07h0l-21.68,21.68-.07.07h0L281.12,283l-.07.07h0l-13.13,13.13.75,1.43,13.54-13.54Z" fill="url(#radial-gradient-82)"/><path d="M271.41,273.17,293,251.58h0l.08-.08,21.67-21.67h0l.08-.08,21.67-21.67h0l.08-.08,21.67-21.67h0l.07-.08L380,164.58h0l.07-.07,17.23-17.23-1.61-.57-16.63,16.63h0l-.08.08-21.67,21.67h0l-.07.08-21.68,21.67h0l-.07.08-21.68,21.67h0l-.07.07-21.68,21.68h0l-.07.07-21.75,21.75-.08.08L261.4,281c.18.54.37,1.07.56,1.61l9.38-9.38Z" fill="url(#radial-gradient-83)"/><path d="M264.16,265.93h0l21.68-21.68.07-.07h0l21.68-21.68.07-.07h0l21.68-21.68.07-.07h0L351.08,179l.08-.08h0l21.67-21.67.08-.08h0l13.2-13.2-1.78-.4-12.59,12.59-.07.07h0L350,177.92l-.08.07h0l-21.67,21.68-.08.07h0L306.5,221.41l-.08.08h0l-21.67,21.67-.08.08h0L263,264.91l-.08.08h0l-4.67,4.66c.13.59.26,1.19.4,1.78l5.43-5.43Z" fill="url(#radial-gradient-84)"/><path d="M304,305.8h0l21.67-21.67.08-.08h0l21.67-21.67.07-.08h0l21.68-21.67.07-.08h0l21.6-21.6.08-.07.07-.08,21.6-21.6.08-.07.07-.08,21.6-21.59.08-.08.07-.08,2.63-2.63c-.36-.36-.72-.73-1.09-1.08l-2.63,2.63-.07.07-.08.08L411.69,196l-.07.07-.08.08L390,217.71l-.08.08-21.75,21.75-.08.07h0l-21.68,21.68-.07.07h0L324.62,283l-.07.07h0l-21.68,21.68-.07.07h0l-16.53,16.53,1.08,1.09L304,305.87Z" fill="url(#radial-gradient-85)"/><path d="M285.91,287.67h0L307.59,266l.07-.07h0l21.68-21.68.07-.07h0l21.67-21.68.08-.07h0l21.67-21.68.08-.07h0L394.58,179l.08-.08h0l21.67-21.67.08-.08h0l.53-.54-1.36-.81-.34.34-.07.07h0l-21.68,21.68-.07.07h0l-21.67,21.68-.08.07h0L350,221.41l-.08.08h0l-21.67,21.67-.08.08h0L306.5,264.91l-.08.08h0l-21.67,21.67-.08.08h0L270.51,300.9c.27.45.54.91.82,1.36l14.51-14.51Z" fill="url(#radial-gradient-86)"/><path d="M325.79,327.55h0l21.67-21.68.07-.07h0l21.68-21.67.07-.08h0L391,262.38l.07-.08h0l21.68-21.67.07-.08h0l21.6-21.6.08-.07.07-.08,21-21c-.25-.47-.5-.94-.76-1.41l-21.36,21.35-.07.08-21.75,21.75-.08.07h0l-21.67,21.68-.08.07h0L368.12,283l-.08.07h0l-21.68,21.68-.07.07h0l-21.68,21.67-.07.08h0L311,340.12l1.42.76,13.25-13.26Z" fill="url(#radial-gradient-87)"/><path d="M322.16,323.92h0l21.6-21.59.07-.08.08-.08,21.6-21.59.07-.08.08-.08,21.6-21.59.07-.08.08-.07,21.6-21.6.07-.08.08-.07,21.59-21.6.08-.08.08-.07,21.59-21.6.08-.08.08-.07.3-.3c-.27-.46-.54-.91-.82-1.36l-.57.57-.08.08-.07.07-21.6,21.6-.08.08-.07.07-21.6,21.6-.08.07-.07.08-21.6,21.6-.08.07-.07.08-21.6,21.6-.07.07-.08.08-21.6,21.6-.07.07L321,322.91l-.08.08h0l-14.47,14.47,1.36.81L322.09,324Z" fill="url(#radial-gradient-88)"/><path d="M307.66,309.42h0l21.68-21.67.07-.08h0L351.08,266l.08-.07h0l21.67-21.68.08-.07h0l21.67-21.68.08-.07h0l21.67-21.68.08-.07h0L438.08,179l.08-.08h0l2.52-2.52c-.34-.39-.69-.77-1-1.14L437,177.92l-.07.07h0l-21.68,21.68-.07.07h0l-21.68,21.67-.07.08h0l-21.67,21.67-.08.08h0L350,264.91l-.08.08h0l-21.67,21.67-.08.08h0L306.5,308.41l-.08.08h0L290,325l1.14,1,16.5-16.5Z" fill="url(#radial-gradient-89)"/><path d="M369.21,327.62l.07-.07h0L391,305.87l.07-.07h0l21.68-21.67.07-.08h0l21.68-21.67.07-.08h0l21.67-21.67.08-.08h0l10.14-10.14c-.1-.62-.2-1.24-.31-1.86l-11,11-.08.07h0l-21.67,21.68-.08.07h0L411.62,283l-.08.07h0l-21.67,21.68-.08.07h0l-21.67,21.67-.08.08h0l-21.68,21.67-.07.08h0l-3.07,3.07,1.87.31,2.36-2.37.07-.07h0Z" fill="url(#radial-gradient-90)"/><path d="M343.91,345.67h0L365.58,324l.08-.08h0l21.6-21.59.07-.08.08-.08L409,280.58l.07-.08.08-.08,21.59-21.59.08-.08.08-.07,21.59-21.6.08-.08.08-.07,12.61-12.61c-.13-.6-.27-1.19-.41-1.78l-13.29,13.3-.08.07-.07.08-21.6,21.6-.08.07-.07.08-21.6,21.6-.08.07-.07.08-21.6,21.6-.08.07L364.5,322.91l-.08.08h0l-21.67,21.67-.08.07h0l-5.44,5.45,1.77.4,4.83-4.83Z" fill="url(#radial-gradient-91)"/><path d="M376.38,335l.08-.08,21.67-21.67h0l.08-.08,21.67-21.67h0l.08-.08,21.67-21.67h0l.08-.07L463.38,248h0l.07-.07,4.22-4.22c0-.7,0-1.4-.08-2.09l-5.15,5.14h0l-.07.08-21.68,21.67h0l-.07.08-21.68,21.67h0l-.07.08L397.19,312h0l-.07.08-21.67,21.67h0l-.08.07-19.12,19.13,2.09.08,18-18Z" fill="url(#radial-gradient-92)"/><path d="M372.83,331.25l21.75-21.75.08-.08h0l21.67-21.67.08-.08h0L438.08,266l.08-.07h0l21.59-21.6.08-.08.07-.07,7.34-7.34-.21-2-8.21,8.21-.08.07-.07.08L437,264.91l-.07.08h0l-21.68,21.67-.07.08h0l-21.68,21.67-.07.08h0l-21.6,21.59-.07.08-21.68,21.67-.07.08-.08.07-.36.36,1,.12.17,0,.82.07,21.23-21.23Z" fill="url(#radial-gradient-93)"/><path d="M274.89,277l.07-.07,21.68-21.68h0l.07-.07,21.68-21.68h0l.07-.07,21.67-21.68h0l.08-.07L361.88,190h0l.08-.07,21.75-21.75.07-.08,18.76-18.75c-.51-.22-1-.43-1.54-.63L382.7,167l-.08.07-.08.08L361,188.72h0l-.08.07L339.2,210.47h0l-.08.08-21.67,21.67h0l-.08.08L295.7,254h0l-.08.08L274,275.71h0l-.08.08-10.52,10.52c.2.52.42,1,.63,1.55L274.89,277Z" fill="url(#radial-gradient-94)"/><path d="M278.51,280.58l.08-.08,21.75-21.75.07-.07,21.6-21.6.08-.08.07-.07,21.6-21.6.07-.08.08-.07,21.6-21.6.07-.08.08-.07,21.6-21.6.07-.07.08-.08,20.14-20.14-1.48-.7-19.75,19.75-.08.08-.07.07-21.6,21.6-.07.08-.08.07-21.6,21.6-.07.08-.08.07-21.6,21.6-.07.07-.08.08-21.6,21.6-.07.07-.08.08-21.59,21.6h0l-.08.07-12,12c.23.5.45,1,.69,1.49l12.29-12.29Z" fill="url(#radial-gradient-95)"/><path d="M267.71,269.63l.08-.08,21.6-21.6.07-.07,21.75-21.75.08-.08h0L333,204.38l.08-.08h0l21.67-21.67.07-.08h0l21.68-21.67.07-.07,15.31-15.31-1.69-.49-14.78,14.78-.08.08-21.67,21.67-.07.08h0l-21.68,21.67-.07.08h0L310.12,225l-.07.08h0l-21.6,21.59-.08.08L266.7,268.46l-.07.08-.08.07-6.85,6.86c.15.56.32,1.12.48,1.69l7.46-7.46Z" fill="url(#radial-gradient-96)"/><path d="M296.64,298.7l.07-.08L318.39,277h0l.07-.07,21.67-21.68h0l.08-.07,21.67-21.68h0l.08-.07,21.75-21.75.07-.08,21.6-21.6.08-.07.07-.08,21.6-21.59.08-.08.07-.08,2.33-2.32c-.4-.33-.79-.66-1.2-1L426.19,167l-.07.07-.08.08-21.6,21.6-.07.07-.08.08L382.7,210.46l-.08.08-.08.08L361,232.21h0l-.08.08L339.2,254h0l-.08.08-21.67,21.67h0l-.08.08L295.7,297.46h0l-.08.08-16.19,16.19,1,1.2,16.23-16.23Z" fill="url(#radial-gradient-97)"/><path d="M293,295.08l.08-.08,21.67-21.67h0l.08-.08,21.67-21.67h0l.08-.08,21.67-21.67h0l.07-.08L380,208.08h0l.07-.08,21.68-21.67h0l.07-.08,21.68-21.67h0l.07-.07,2-2c-.41-.32-.83-.62-1.25-.93l-1.75,1.75h0l-.08.08-21.67,21.67h0l-.08.08-21.67,21.67h0l-.08.08-21.67,21.67h0l-.07.07-21.68,21.68h0l-.07.07-21.68,21.68h0l-.07.07-21.68,21.68h0l-.07.07-15.73,15.73.93,1.25L293,295.07Z" fill="url(#radial-gradient-98)"/><path d="M289.46,291.37l.08-.07,21.6-21.6.07-.07.08-.08L332.88,248l.08-.07,21.75-21.75.07-.08h0l21.6-21.6.08-.07.07-.08,21.6-21.6.08-.07.07-.08L420,160.88l.07-.07,1.32-1.32c-.43-.3-.87-.58-1.31-.87l-1.17,1.17-.08.08-21.6,21.6-.07.07-.08.08-21.59,21.6-.08.07-.08.08L353.62,225l-.07.08h0L332,246.71l-.08.08L310.2,268.46l-.08.08-.07.07-21.6,21.6-.08.08-.07.07-15,15,.87,1.31,15.22-15.22Z" fill="url(#radial-gradient-99)"/><path d="M300.34,302.25l.07-.08L322,280.58l.08-.08.07-.08,21.6-21.59.07-.08.08-.07,21.6-21.6.07-.08.08-.07,21.6-21.6.07-.08.08-.07,21.6-21.6.07-.08.08-.07,21.59-21.6.08-.07.08-.08,2.56-2.57c-.37-.35-.75-.69-1.14-1l-2.51,2.51-.08.08-.07.07-21.6,21.6-.08.08-.07.07-21.6,21.6-.08.08-.07.07-21.6,21.6-.07.07-.08.08-21.6,21.6-.07.07-.08.08-21.6,21.6-.07.07-.08.08-21.6,21.6-.07.07-.08.08-16.41,16.41,1,1.14,16.47-16.46Z" fill="url(#radial-gradient-100)"/><path d="M318.39,320.45l.07-.08,21.67-21.67h0l.08-.08L361.88,277h0l.08-.07,21.75-21.75.07-.08,21.6-21.6.08-.07.07-.08,21.6-21.6.08-.07.07-.08,21.6-21.6.07-.07.08-.08,1.13-1.13-.87-1.3-1.35,1.35-.07.07-.08.08-21.6,21.59-.07.08-.08.08-21.6,21.59-.07.08-.08.08L382.7,254l-.08.08-.08.07L361,275.71h0l-.08.08L339.2,297.46h0l-.08.08-21.67,21.67h0l-.08.08-15.32,15.32,1.3.87,15-15Z" fill="url(#radial-gradient-101)"/><path d="M314.76,316.82l.08-.07,21.67-21.68h0l.08-.08,21.67-21.67h0l.07-.08L380,251.58h0l.07-.08,21.68-21.67h0l.07-.08,21.68-21.67h0l.07-.08,21.67-21.67h0l.08-.08,1.85-1.85-.93-1.24-1.93,1.93h0l-.08.08-21.67,21.67h0l-.08.08-21.67,21.67h0l-.08.07-21.67,21.68h0l-.08.07-21.67,21.68h0l-.07.07-21.68,21.68h0l-.07.07-21.68,21.68h0l-.07.08-15.91,15.91,1.25.93,15.67-15.68Z" fill="url(#radial-gradient-102)"/><path d="M311.21,313.12l.08-.07,21.59-21.6.08-.08.08-.07,21.67-21.67.07-.08,21.6-21.6h0l.08-.07,21.67-21.68.08-.07.07-.08,21.6-21.6.08-.07.07-.08,21.6-21.6.07-.07.08-.08,2.24-2.23c-.33-.4-.65-.8-1-1.2l-2.34,2.35-.07.07-.08.08-21.6,21.6-.07.07-.08.08L397.19,225l-.07.08-.08.08-21.59,21.59h0l-.08.08-21.75,21.75-.07.07L332,290.21l-.08.08-.07.07L310.2,312l-.08.08-.07.07-16.24,16.24,1.19,1,16.14-16.14Z" fill="url(#radial-gradient-103)"/><path d="M340.13,342.2l.08-.08,21.67-21.67h0l.08-.08,21.75-21.75.07-.07,21.6-21.6.08-.07.07-.08,21.6-21.6.08-.07.07-.08,21.6-21.6.07-.07.08-.08,14.79-14.79c-.16-.57-.32-1.13-.49-1.69l-15.39,15.39-.07.08-.08.08L426.19,254l-.07.08-.08.07-21.6,21.6-.07.08-.08.07-21.59,21.6-.08.08-.08.07L361,319.21h0l-.08.08L339.2,341h0l-.08.07-7.61,7.62,1.68.49,6.94-6.94Z" fill="url(#radial-gradient-104)"/><path d="M336.51,338.57l.08-.07,21.67-21.68h0l.07-.07L380,295.07h0l.07-.08,21.68-21.67h0l.07-.08,21.68-21.67h0l.07-.08,21.67-21.67h0l.08-.08L462.11,213c-.18-.54-.37-1.07-.57-1.61l-17.22,17.23h0l-.08.07-21.67,21.68h0l-.08.07-21.67,21.68h0l-.08.07-21.67,21.68h0l-.08.07-21.67,21.68h0l-.07.08-21.68,21.67h0l-.07.08-9.45,9.45,1.6.57,8.86-8.86Z" fill="url(#radial-gradient-105)"/><path d="M333,334.87l.08-.07,21.67-21.68.07-.07,21.6-21.6h0l.08-.08,21.67-21.67h0l.08-.07L419.88,248h0l.08-.07,21.67-21.68.07-.07.08-.08,18.37-18.36-.63-1.55L440.69,225l-.07.08-.08.08-21.6,21.59h0l-.07.08-21.68,21.67h0l-.07.08-21.67,21.67h0l-.08.08L353.62,312l-.07.07L332,333.71l-.08.07-.07.08-11,11c.52.22,1,.43,1.55.63L332.88,335Z" fill="url(#radial-gradient-106)"/><path d="M329.34,331.25l.07-.08h0l21.67-21.67.08-.08h0l21.67-21.67.08-.08h0L394.58,266l.08-.07h0l21.67-21.68.08-.07h0l21.67-21.68.08-.07h0L458,202.62l-.69-1.48L437,221.41l-.07.08h0l-21.68,21.67-.07.08h0l-21.68,21.67-.07.08h0l-21.67,21.67-.08.08h0L350,308.41l-.08.08h0l-21.6,21.59-.07.08-12.43,12.42,1.49.7,11.95-12Z" fill="url(#radial-gradient-107)"/><path d="M548.43-86.82l-.07.07L526.61-65l-.08.08h0l-21.59,21.6-.08.07L483.19-21.58l-.08.08-.07.08L461.44.17l-.08.08-.07.08L445.74,15.87c.75,0,1.49,0,2.23-.06l14.4-14.4.08-.07.08-.08,21.59-21.6.08-.07.07-.08,21.6-21.59.08-.08L527.7-63.91l.07-.07h0l21.6-21.59h0l.08-.08.57-.58c0-.74.05-1.48.06-2.23l-1.65,1.65Z" fill="url(#radial-gradient-108)"/><path d="M530.31-61.45l-.08.08L508.56-39.7h0l-.08.08L486.81-17.95h0l-.07.08L465.06,3.8h0l-.07.07L453.37,15.49c.81-.07,1.61-.15,2.41-.24L466,5h0l.07-.08,21.68-21.67h0l.07-.08L509.5-38.46h0l.07-.08,21.68-21.67h0l.07-.07,18.14-18.15c.09-.8.17-1.6.24-2.41L530.31-61.45Z" fill="url(#radial-gradient-109)"/><path d="M533.93-57.82l-.07.07L512.19-36.07h0l-.08.07L490.44-14.32h0l-.08.08L468.69,7.42h0l-.08.08-6.94,6.94c.89-.15,1.77-.3,2.65-.47l5.3-5.31h0l.08-.07,21.67-21.68h0l.08-.07,21.67-21.68h0l.08-.07,21.67-21.67h0l.08-.08,13.23-13.23c.17-.88.32-1.76.47-2.65L533.93-57.82Z" fill="url(#radial-gradient-110)"/><path d="M537.41-54h0l-21.6,21.6-.08.08L494.06-10.7l-.07.07-.08.08-21.6,21.6-.07.07-.08.08-1.29,1.29c.72-.18,1.44-.38,2.15-.58l.12,0,.74-.22L495-9.46l.07-.08.08-.07,21.6-21.6.07-.08L538.57-53l.08-.07h0l7.22-7.22c.29-1,.57-2,.83-3l-9.22,9.22Z" fill="url(#radial-gradient-111)"/><path d="M541-50.42h0L519.36-28.75l-.08.08h0L497.61-7l-.08.08h0l-16,16c1.22-.46,2.42-.93,3.61-1.43l13.6-13.6.07-.08h0l21.68-21.67.07-.08h0L541.9-49.11c.06-.14.11-.28.17-.43a.42.42,0,0,0,0-.1c.42-1,.83-2,1.22-3.08l-2.22,2.22Z" fill="url(#radial-gradient-112)"/><path d="M522.91-25h0L501.24-3.38l-.08.08h0L494.88,3c1.78-1,3.53-2,5.25-3.07l2.19-2.2.08-.07h0L524.07-24l.08-.07h0l10-10c1.07-1.72,2.1-3.47,3.07-5.25L523-25.12Z" fill="url(#radial-gradient-113)"/><path d="M458.9-2.36h0L480.57-24l.08-.07h0l21.67-21.68.08-.07h0l21.67-21.67.08-.08h0l21.67-21.67.08-.08h0L550-93.5c0-.7,0-1.4-.08-2.09l-5.23,5.22-.07.07h0L523-68.62l-.07.07h0L501.24-46.87l-.08.07h0L479.49-25.12l-.08.07h0L457.74-3.38l-.08.08h0l-19,19.05,2.09.08L458.83-2.29Z" fill="url(#radial-gradient-114)"/><path d="M455.28-6h0L477-27.66l.07-.08h0L498.7-49.41l.07-.08h0l21.6-21.59.08-.08.07-.07,21.6-21.6.08-.08.07-.07,7.33-7.34c-.06-.65-.13-1.31-.21-2l-8.21,8.21-.07.07-.08.08-21.59,21.6-.08.07L497.61-50.5l-.08.08h0L475.86-28.75l-.07.08h0L454.11-7l-.07.08h0L432.36,14.75l-.07.07h0l-.36.36,1,.12h.17l.81.08L455.2-5.91Z" fill="url(#radial-gradient-115)"/><path d="M451.5-9.46l.08-.08,21.74-21.75,0,0,0-.05h0L495.07-53l.08-.07h0l21.67-21.67.08-.08h0l21.67-21.67.08-.08h0l10.14-10.14c-.1-.62-.2-1.24-.31-1.86l-11,11-.07.07h0L515.73-75.87l-.07.07h0L494-54.12l-.08.07h0l-21.6,21.6-.05.05,0,0-.08.07-21.6,21.6h0l-.07.07L428.81,11.05h0l-.07.07-3.14,3.15,1.86.31,2.29-2.29h0l.08-.08L451.5-9.46Z" fill="url(#radial-gradient-116)"/><path d="M422.65,4.89h0l21.68-21.68.07-.07h0L466-38.46h0l.07-.08,21.68-21.67h0l.07-.07L509.5-82h0l.07-.07,21.68-21.68h0l.07-.07,14.87-14.87c-.16-.57-.32-1.13-.49-1.69l-15.39,15.39h0l-.08.08L508.56-83.2h0l-.08.08L486.81-61.45h0l-.07.08L465.06-39.7h0l-.07.08L443.24-17.87l-.08.07h0L421.49,3.87l-.08.08h0l-7.54,7.54,1.69.49,7-7Z" fill="url(#radial-gradient-117)"/><path d="M415.4-2.36h0L437.08-24l.07-.07h0l21.68-21.68.07-.07h0l21.67-21.67.08-.08h0l21.67-21.67.08-.08h0L524.07-111l.08-.08h0l18.36-18.36c-.2-.52-.41-1-.63-1.55L523-112.12l-.07.08h0L501.24-90.37l-.08.07h0L479.49-68.62l-.08.07h0L457.74-46.87l-.08.07h0L436-25.12l-.08.07h0L414.24-3.38l-.08.08h0l-11,11c.51.22,1,.43,1.54.63l10.6-10.59Z" fill="url(#radial-gradient-118)"/><path d="M411.78-6h0l21.67-21.67.08-.08h0L455.2-49.41l.08-.08h0l21.59-21.59.08-.08.07-.07,21.6-21.6.08-.08.07-.07,21.6-21.6.08-.08,19.88-19.88c-.23-.49-.46-1-.7-1.48l-20.19,20.2-.08.07L497.69-94.07l-.08.07-.08.08-21.59,21.6-.08.07L454.11-50.5l-.07.08h0L432.36-28.75l-.07.08h0L410.61-7l-.07.08h0L398.19,5.42l1.48.7,12-12Z" fill="url(#radial-gradient-119)"/><path d="M408-9.46l.08-.08,21.67-21.67h0l.08-.08L451.5-53h0l.08-.07,21.74-21.75.08-.08h0l21.67-21.67.08-.08h0l21.67-21.67.08-.08h0l21-21c-.25-.47-.5-.94-.76-1.41l-21.44,21.43-.07.08h0L494-97.62l-.08.07h0L472.24-75.87l-.08.07h0l-21.6,21.6h0l-.07.08L428.81-32.45h0l-.07.08L407.07-10.7h0l-.07.07L393.41,3l1.41.76L408-9.46Z" fill="url(#radial-gradient-120)"/><path d="M404.38-13.09l.07-.07,21.68-21.68h0l.07-.07,21.68-21.67h0l.07-.08,21.67-21.67h0l.08-.08,21.67-21.67h0l.08-.08,21.67-21.67h0l.08-.08,21.67-21.67h0l.08-.08.37-.37-.81-1.36-.58.57h0l-.07.08-21.67,21.67h0l-.08.08-21.67,21.67h0l-.08.07L468.69-79.57h0l-.08.07L446.94-57.82h0l-.08.07L425.19-36.07h0l-.08.07L403.44-14.32h0l-.08.08L388.82.3l1.36.81,14.2-14.2Z" fill="url(#radial-gradient-121)"/><path d="M426.13,8.66l.07-.07,21.68-21.68h0l.07-.07,21.67-21.68h0l.08-.07,21.67-21.67h0l.08-.08,21.67-21.67h0l.08-.08,21.67-21.67h0l.08-.08,12.68-12.68c-.13-.6-.26-1.19-.4-1.78l-13.3,13.3h0l-.07.07L512.19-79.57h0l-.08.07L490.44-57.82h0l-.08.07L468.69-36.07h0l-.08.07L446.94-14.32h0l-.08.08L425.19,7.42h0l-.08.08L419.59,13l1.78.4,4.76-4.76Z" fill="url(#radial-gradient-122)"/><path d="M419,1.34l.08-.08,21.6-21.6.07-.07.08-.08,21.59-21.59.08-.08L484.2-63.91l.07-.07h0L506-85.66l.07-.07h0l21.68-21.68.07-.07h0l16.71-16.71-.57-1.61-17.3,17.3-.08.08h0L504.86-86.75l-.08.08h0L483.11-65l-.07.08h0l-21.6,21.6-.08.07L439.69-21.58l-.08.08-.07.08L417.94.17l-.08.08-.07.08L408.41,9.7l1.61.57,8.86-8.86Z" fill="url(#radial-gradient-123)"/></g><polygon points="316.47 -72.32 150.22 81.43 298.22 81.43 316.47 -72.32" opacity="0.3" fill="url(#linear-gradient)" style="mix-blend-mode:multiply"/><polygon points="332.47 -64.82 166.22 88.93 314.22 88.93 332.47 -64.82" fill="none" stroke-miterlimit="10" stroke-width="2" stroke="url(#linear-gradient-2)"/><polygon points="61.69 78.33 -104.56 232.09 43.44 232.09 61.69 78.33" opacity="0.3" fill="url(#linear-gradient-3)" style="mix-blend-mode:multiply"/><polygon points="77.69 85.83 -88.56 239.59 59.44 239.59 77.69 85.83" fill="none" stroke-miterlimit="10" stroke-width="2" stroke="url(#linear-gradient-4)"/><polygon points="21.65 575.7 187.9 421.94 39.9 421.94 21.65 575.7" fill="none" stroke-miterlimit="10" stroke-width="2" stroke="url(#linear-gradient-5)"/><polygon points="313.66 345.32 479.91 191.57 331.91 191.57 313.66 345.32" opacity="0.3" fill="url(#linear-gradient-6)" style="mix-blend-mode:multiply"/><polygon points="297.66 337.82 463.91 184.07 315.91 184.07 297.66 337.82" fill="none" stroke-miterlimit="10" stroke-width="2" stroke="url(#linear-gradient-7)"/><circle cx="-56.93" cy="344.39" r="71.25" transform="translate(-386.67 229.87) rotate(-80.24)" fill="url(#linear-gradient-8)"/><circle cx="634.33" cy="150.84" r="105.94" transform="translate(79.13 492.72) rotate(-45)" fill="url(#linear-gradient-9)"/><circle cx="187.9" cy="193.15" r="53.45" transform="translate(-44.01 330.36) rotate(-76.4)" fill="url(#linear-gradient-10)"/><polygon points="348.54 387.12 225.59 510.07 327.49 510.07 348.54 387.12" opacity="0.3" fill="url(#linear-gradient-11)" style="mix-blend-mode:multiply"/><polygon points="370.04 379.62 247.09 502.57 348.99 502.57 370.04 379.62" fill="none" stroke-miterlimit="10" stroke-width="2" stroke="url(#linear-gradient-12)"/><polygon points="753.2 -98.12 630.25 24.83 732.15 24.83 753.2 -98.12" opacity="0.3" fill="url(#linear-gradient-13)" style="mix-blend-mode:multiply"/><polygon points="774.7 -105.62 651.75 17.33 753.65 17.33 774.7 -105.62" fill="none" stroke-miterlimit="10" stroke-width="2" stroke="url(#linear-gradient-14)"/><polygon points="612.83 293.26 489.88 416.21 591.78 416.21 612.83 293.26" opacity="0.3" fill="url(#linear-gradient-15)" style="mix-blend-mode:multiply"/><polygon points="634.33 285.76 511.38 408.71 613.28 408.71 634.33 285.76" fill="none" stroke-miterlimit="10" stroke-width="2" stroke="url(#linear-gradient-16)"/><polygon points="492.89 61.24 615.84 -61.7 513.94 -61.7 492.89 61.24" opacity="0.3" fill="url(#linear-gradient-17)" style="mix-blend-mode:multiply"/><polygon points="471.39 68.74 594.34 -54.2 492.44 -54.2 471.39 68.74" fill="none" stroke-miterlimit="10" stroke-width="2" stroke="url(#linear-gradient-18)"/><polygon points="492.25 328.55 619.31 201.49 616.49 201.49 489.42 328.55 492.25 328.55" fill="url(#linear-gradient-19)" style="mix-blend-mode:screen"/><polygon points="654.61 89.53 781.67 -37.53 778.84 -37.53 651.78 89.53 654.61 89.53" fill="url(#linear-gradient-20)" style="mix-blend-mode:screen"/><polygon points="410.74 84.29 537.8 -42.77 534.97 -42.77 407.91 84.29 410.74 84.29" fill="url(#linear-gradient-21)" style="mix-blend-mode:screen"/><polygon points="237.95 329.06 365.01 201.99 362.18 201.99 235.12 329.06 237.95 329.06" fill="url(#linear-gradient-22)" style="mix-blend-mode:screen"/><polygon points="35.87 404.96 162.93 277.9 160.1 277.9 33.04 404.96 35.87 404.96" fill="url(#linear-gradient-23)" style="mix-blend-mode:screen"/><polygon points="15.57 61.85 142.63 -65.21 139.81 -65.21 12.74 61.85 15.57 61.85" fill="url(#linear-gradient-24)" style="mix-blend-mode:screen"/><polygon points="-93.13 307.49 33.93 180.43 31.11 180.43 -95.96 307.49 -93.13 307.49" fill="url(#linear-gradient-25)" style="mix-blend-mode:screen"/><polygon points="460.93 510.92 587.99 383.86 585.16 383.86 458.1 510.92 460.93 510.92" fill="url(#linear-gradient-26)" style="mix-blend-mode:screen"/><polygon points="650.98 439.61 778.04 312.55 775.22 312.55 648.15 439.61 650.98 439.61" fill="url(#linear-gradient-27)" style="mix-blend-mode:screen"/><g style="mix-blend-mode:screen"><path d="M445.74,415a6.67,6.67,0,1,1,6.67-6.67A6.67,6.67,0,0,1,445.74,415Zm0-11a4.37,4.37,0,1,0,4.37,4.36A4.37,4.37,0,0,0,445.74,404Z" fill="#fff"/></g><g style="mix-blend-mode:screen"><path d="M651.75,393.79a6.67,6.67,0,1,1,6.66-6.67A6.67,6.67,0,0,1,651.75,393.79Zm0-11a4.37,4.37,0,1,0,4.36,4.37A4.37,4.37,0,0,0,651.75,382.75Z" fill="#fff"/></g><g style="mix-blend-mode:screen"><path d="M83.5,437.25a6.67,6.67,0,1,1,6.66-6.66A6.67,6.67,0,0,1,83.5,437.25Zm0-11a4.37,4.37,0,1,0,4.37,4.37A4.37,4.37,0,0,0,83.5,426.22Z" fill="#fff"/></g><g style="mix-blend-mode:screen"><path d="M270.51,143.93a6.67,6.67,0,1,1,6.67-6.67A6.67,6.67,0,0,1,270.51,143.93Zm0-11a4.37,4.37,0,1,0,4.37,4.36A4.36,4.36,0,0,0,270.51,132.9Z" fill="#fff"/></g><g style="mix-blend-mode:screen"><path d="M568.75,17.87a6.67,6.67,0,1,1,6.66-6.67A6.67,6.67,0,0,1,568.75,17.87Zm0-11a4.37,4.37,0,1,0,4.37,4.37A4.37,4.37,0,0,0,568.75,6.83Z" fill="#fff"/></g><g style="mix-blend-mode:screen"><path d="M480,127.74a6.67,6.67,0,1,1,6.67-6.67A6.67,6.67,0,0,1,480,127.74Zm0-11a4.37,4.37,0,1,0,4.37,4.36A4.36,4.36,0,0,0,480,116.71Z" fill="#fff"/></g><g style="mix-blend-mode:screen"><path d="M354.52,49.76a6.67,6.67,0,1,1,6.66-6.66A6.67,6.67,0,0,1,354.52,49.76Zm0-11a4.37,4.37,0,1,0,4.37,4.37A4.37,4.37,0,0,0,354.52,38.73Z" fill="#fff"/></g><g style="mix-blend-mode:screen"><path d="M171.46,344.49a6.67,6.67,0,1,1,6.66-6.67A6.67,6.67,0,0,1,171.46,344.49Zm0-11a4.37,4.37,0,1,0,4.36,4.36A4.37,4.37,0,0,0,171.46,333.46Z" fill="#fff"/></g><g style="mix-blend-mode:screen"><path d="M32.92,285.82a6.67,6.67,0,1,1,6.66-6.66A6.67,6.67,0,0,1,32.92,285.82Zm0-11a4.37,4.37,0,1,0,4.36,4.37A4.37,4.37,0,0,0,32.92,274.79Z" fill="#fff"/></g><g style="mix-blend-mode:screen"><path d="M115.4,54.13a6.67,6.67,0,1,1,6.67-6.66A6.67,6.67,0,0,1,115.4,54.13Zm0-11a4.37,4.37,0,1,0,4.37,4.37A4.37,4.37,0,0,0,115.4,43.1Z" fill="#fff"/></g></g></g><g id="BACKGROUND_1" data-name="BACKGROUND 1"><g clip-path="url(#clip-path-2)"><g clip-path="url(#clip-path-3)"><rect x="-681.93" y="-26.46" width="750" height="500" fill="url(#radial-gradient-124)"/><g style="mix-blend-mode:screen"><path d="M230.31,332.71l-.07.07-.08.08-21.6,21.59h0l-.07.08L186.81,376.2h0l-.07.08L165.06,398h0L165,398,143.31,419.7h0l-.07.08L127.62,435.4c.74,0,1.49,0,2.23-.06l14.4-14.4h0l.08-.08L166,399.19h0l.08-.07,21.67-21.68h0l.08-.07,21.67-21.68h0l.07-.07,21.75-21.75.08-.08.5-.5c0-.74,0-1.49.06-2.23Z" fill="url(#radial-gradient-125)"/><path d="M212.11,358.15l-.07.08-21.6,21.6-.08.07-.07.08-21.6,21.6-.08.07-.07.08-21.6,21.6-.08.07-.07.08L135.25,435c.81-.07,1.61-.14,2.41-.23L148,424.49l.08-.08,21.6-21.59.07-.08.08-.07,21.59-21.6.08-.08.08-.07,21.59-21.6.08-.08.07-.07,18.07-18.07c.09-.8.16-1.6.23-2.41l-19.38,19.39Z" fill="url(#radial-gradient-126)"/><path d="M215.74,361.78l-.08.08-21.6,21.59-.07.08-21.75,21.75-.08.07h0L150.49,427l-.08.07h0L143.55,434c.88-.15,1.77-.31,2.65-.48l5.38-5.38.07-.07h0l21.68-21.67.07-.08h0l21.6-21.6.07-.07.08-.08,21.6-21.6.07-.07.08-.08,13.15-13.15c.17-.88.33-1.77.48-2.65L215.81,361.7Z" fill="url(#radial-gradient-127)"/><path d="M223,369l-.08.07-21.67,21.68-.08.07h0l-21.6,21.6-.07.08-16.12,16.11c1.21-.45,2.42-.93,3.61-1.43l13.52-13.52.08-.07,21.74-21.75.08-.08h0l21.37-21.37L224,370l0-.11c.42-1,.83-2,1.21-3.07L223.06,369Z" fill="url(#radial-gradient-128)"/><path d="M219.29,365.48h0l-21.68,21.67-.07.08h0L175.86,408.9l-.07.08h0l-21.68,21.67-.07.08h0L152.75,432l2.15-.58.12,0,.73-.21L177,410l.08-.07h0l21.67-21.67.08-.07h0l21.68-21.68.07-.07h0l7.23-7.23c.29-1,.57-2,.83-3l-9.22,9.21Z" fill="url(#radial-gradient-129)"/><path d="M204.94,394.33l-.08.07-21.67,21.68h0l-.08.07-6.35,6.36q2.67-1.47,5.24-3.07l2.12-2.13h0l.07-.08,21.67-21.67h0l.08-.08,10-10c1.08-1.72,2.1-3.47,3.08-5.25l-14.13,14.13Z" fill="url(#radial-gradient-130)"/><path d="M39.13,272.32l.08-.07,21.67-21.68h0l.08-.07,13.65-13.65q-2.74,1.52-5.37,3.19l-9.3,9.29h0l-.07.08L38.19,271.08h0l-.07.08-1.52,1.52q-1.68,2.63-3.19,5.37l5.72-5.73Z" fill="url(#radial-gradient-131)"/><path d="M42.76,276l.07-.08,21.75-21.75.08-.07,21.59-21.6.08-.08.08-.07,1.79-1.8c-.86.33-1.72.67-2.57,1l-.11,0-1,.4-21,21-.08.07-.07.08-21.6,21.6h0l-.08.07L28.53,288c-.51,1.2-1,2.42-1.47,3.64L42.76,276Z" fill="url(#radial-gradient-132)"/><path d="M32,308.42h0l21.68-21.67.07-.08h0L75.46,265l.07-.08h0L97.2,243.25l.08-.08h0l19.2-19.2c-.81.07-1.62.16-2.42.25L96.12,242.16l-.08.08h0L74.37,263.91l-.08.07h0L52.62,285.66l-.08.07h0L30.87,307.41l-.08.07h0l-10,10c-.09.81-.18,1.61-.25,2.42L32,308.5Z" fill="url(#radial-gradient-133)"/><path d="M35.66,312l21.6-21.59h0l.07-.08L79,268.7h0l.08-.08L100.75,247h0l.08-.08L122.5,225.2h0l.08-.08,1.56-1.56-2.24.07-.33.33h0l-.08.08L99.82,245.71h0l-.08.07L78.07,267.46h0l-.08.07L56.32,289.21h0l-.08.07L34.49,311l-.07.08L20.19,325.34c0,.75-.05,1.49-.07,2.24l15.46-15.46Z" fill="url(#radial-gradient-134)"/><path d="M28.41,304.79h0l21.67-21.67.08-.07h0l21.67-21.68.08-.07h0l21.67-21.68.08-.07h0l14.5-14.5c-.89.15-1.78.31-2.66.49l-13,13-.07.08h0L70.74,260.28l-.07.08h0L49,282l-.07.08h0L27.24,303.78l-.07.08h0l-5.07,5.07c-.18.88-.34,1.77-.49,2.66l6.72-6.72Z" fill="url(#radial-gradient-135)"/><path d="M24.71,301.25l.07-.08,21.6-21.6.08-.07.07-.08,21.6-21.6.08-.07.07-.08,21.6-21.6L90,236l.08-.08,8.87-8.87c-1,.27-2,.55-3,.85l-6.94,6.93-.07.08-.08.08-21.6,21.59-.07.08-.08.08-21.6,21.59-.07.08-.08.07L24.46,299.32c-.12.39-.24.78-.35,1.18l0,.12c-.16.57-.32,1.14-.47,1.72l1-1Z" fill="url(#radial-gradient-136)"/><path d="M39.13,315.82l.08-.08,21.67-21.67h0L61,294l21.67-21.68h0l.08-.07,21.67-21.68h0l.07-.07,21.68-21.68h0l.07-.07,5.08-5.08c-.69,0-1.39-.06-2.09-.08l-4,4h0l-.08.08-21.67,21.67h0l-.07.08L81.69,271.08h0l-.07.08L59.94,292.83h0l-.07.08L38.19,314.58h0l-.07.08-18,18c0,.7,0,1.4.08,2.09l18.9-18.9Z" fill="url(#radial-gradient-137)"/><path d="M42.76,319.45l.07-.08,21.75-21.75.08-.08L86.25,276l.08-.08.08-.07L108,254.2l.08-.08.07-.07,21.6-21.6.08-.08.07-.07,8.09-8.09-2-.2-7.2,7.2-.08.08-.08.07L107.07,253,107,253l-.07.08-21.6,21.6-.08.07-.07.08-21.6,21.6-.08.07-.07.08-21.6,21.6h0l-.08.07L20.57,339.46c0,.36.07.73.1,1.1a.88.88,0,0,1,0,.17c0,.23.06.46.08.7l.24-.24h0l.07-.07,21.68-21.68Z" fill="url(#radial-gradient-138)"/><path d="M24.78,344.67h0L46.46,323l.07-.07h0l21.6-21.6.08-.07.07-.08,21.6-21.6.07-.07.08-.08,21.6-21.6.07-.07.08-.08,21.6-21.6.07-.07.08-.08,10.8-10.8-1.86-.31-10,10-.08.08-.07.08-21.6,21.59-.07.08-.08.08-21.6,21.59-.07.08-.08.07-21.6,21.6-.07.08L45.37,321.91l-.08.07h0L23.62,343.65l-.08.08h0l-2.17,2.18c.09.62.2,1.24.31,1.86l3-3Z" fill="url(#radial-gradient-139)"/><path d="M46.53,366.42h0l21.68-21.68.07-.07h0L90,323l.08-.07h0l21.6-21.6.07-.07.08-.08,21.6-21.6.07-.07.08-.08,21.6-21.6.07-.07.08-.08,21.31-21.31-1.42-.76-21,21-.08.08-.07.08-21.6,21.59-.08.08-.07.07-21.6,21.6-.07.08L88.87,321.91l-.08.07h0L67.12,343.65l-.08.08h0L45.37,365.4l-.08.08h0L32.16,378.61c.25.47.5.95.76,1.42l13.54-13.54Z" fill="url(#radial-gradient-140)"/><path d="M35.66,355.54l21.6-21.6h0l.07-.07L79,312.19h0l.08-.08,21.67-21.67h0l.08-.08L122.5,268.7h0l.08-.08L144.25,247h0l.08-.08,17.22-17.22c-.53-.19-1.07-.39-1.61-.57l-16.63,16.63h0l-.07.07-21.67,21.68h0l-.08.07L99.82,289.21h0l-.08.07L78.07,311h0L78,311,56.32,332.71h0l-.08.07L34.49,354.53l-.07.08-8.78,8.77c.18.54.38,1.08.57,1.61l9.37-9.37Z" fill="url(#radial-gradient-141)"/><path d="M28.41,348.29h0l21.67-21.67.08-.08h0l21.67-21.67.08-.08h0l21.67-21.67.08-.07h0l21.68-21.68.07-.07h0l21.68-21.68.07-.07h0l13.2-13.2-1.77-.4L136,238.54l-.08.07h0l-21.67,21.67-.07.08h0L92.49,282l-.07.08h0L70.74,303.78l-.07.08h0L49,325.53l-.07.08h0L27.24,347.28l-.07.08h0L22.51,352c.13.59.26,1.18.4,1.77l5.42-5.42Z" fill="url(#radial-gradient-142)"/><path d="M68.28,388.17h0L90,366.49l.08-.07h0l21.67-21.68.08-.07h0L133.45,323l.08-.07h0l21.6-21.6.07-.07.08-.08,21.6-21.6.07-.07.08-.08,21.59-21.6.08-.07.08-.08,2.63-2.63c-.36-.37-.73-.73-1.09-1.09l-2.63,2.63-.08.08-.07.08-21.6,21.59-.08.08-.07.07-21.6,21.6-.08.08-21.75,21.75-.07.07h0l-21.67,21.68-.08.07h0L88.87,365.4l-.08.08h0L67.12,387.15l-.08.08h0L50.51,403.76l1.09,1.09,16.61-16.61Z" fill="url(#radial-gradient-143)"/><path d="M50.16,370h0l21.67-21.67.08-.08h0l21.67-21.67.08-.08h0l21.68-21.67.07-.08h0l21.68-21.67.07-.07h0l21.68-21.68.07-.07h0l21.68-21.68.07-.07h0l.54-.54c-.45-.28-.91-.54-1.37-.81l-.33.34-.08.07h0l-21.67,21.67-.08.08h0L136,282l-.08.08h0l-21.67,21.67-.07.08h0L92.49,325.53l-.07.08h0L70.74,347.28l-.07.08h0L49,369l-.07.07h0L34.76,383.27c.27.45.53.91.81,1.36l14.51-14.51Z" fill="url(#radial-gradient-144)"/><path d="M90,409.92h0l21.67-21.67.08-.07h0l21.67-21.68.08-.07h0l21.67-21.68.08-.07h0L177,323l.08-.07h0l21.59-21.6.08-.07.08-.08,21-21-.75-1.42-21.36,21.36-.08.08-21.75,21.75-.07.07h0l-21.68,21.68-.07.07h0L132.36,365.4l-.07.08h0l-21.67,21.67-.08.08h0L88.87,408.9l-.08.08h0L75.28,422.49l1.42.75L90,410Z" fill="url(#radial-gradient-145)"/><path d="M86.41,406.29h0l21.6-21.6.08-.07.07-.08,21.6-21.6.08-.07.07-.08,21.6-21.6.08-.07.07-.08,21.6-21.59.08-.08.07-.08L195,297.7l.07-.08.08-.08L216.75,276l.07-.08.08-.07.3-.31-.82-1.36-.57.58-.07.07-.08.08-21.6,21.6-.07.07-.08.08-21.6,21.6-.07.07-.08.08L150.56,340l-.07.07-.08.08L128.82,361.7l-.08.08-.08.08-21.59,21.59-.08.08L85.24,405.28l-.07.07h0L70.69,419.82l1.36.82,14.28-14.27Z" fill="url(#radial-gradient-146)"/><path d="M71.91,391.79h0l21.67-21.67.08-.08h0l21.68-21.67.07-.08h0l21.68-21.67.07-.08h0l21.68-21.67.07-.08h0l21.68-21.67.07-.07h0l21.67-21.68.08-.07h0l2.52-2.53-1-1.14-2.65,2.65-.08.08h0L179.49,282l-.08.08h0l-21.67,21.67-.08.08h0L136,325.53l-.08.08h0l-21.67,21.67-.07.08h0L92.49,369l-.07.07h0L70.74,390.78l-.07.07h0L54.19,407.33l1.14,1,16.5-16.49Z" fill="url(#radial-gradient-147)"/><path d="M133.45,410l.08-.07h0l21.67-21.67.08-.07h0L177,366.49l.08-.07h0l21.67-21.68.08-.07h0L220.45,323l.07-.07h0l10.14-10.14c-.1-.62-.2-1.25-.31-1.87l-11,11-.07.07h0l-21.68,21.68-.07.07h0L175.86,365.4l-.07.08h0l-21.68,21.67-.07.08h0L132.36,408.9l-.07.08h0l-21.67,21.67-.08.08h0l-3.07,3.06,1.87.31,2.36-2.36.08-.08h0Z" fill="url(#radial-gradient-148)"/><path d="M108.15,428h0l21.68-21.67.07-.08h0l21.6-21.6.08-.07.07-.08,21.6-21.6.08-.07.07-.08,21.6-21.6.07-.07.08-.08,21.6-21.59.07-.08.08-.08,12.61-12.61c-.13-.59-.26-1.18-.4-1.77l-13.3,13.3-.07.07-.08.08L194.06,340,194,340l-.08.08-21.6,21.59-.07.08-.08.08-21.6,21.59-.07.08-21.75,21.75-.08.07h0L107,427l-.07.07h0l-5.45,5.45,1.77.4,4.84-4.84Z" fill="url(#radial-gradient-149)"/><path d="M140.63,417.32l.07-.08,21.68-21.67h0l.07-.08,21.67-21.67h0l.07-.08,21.67-21.67h0L206,352l21.67-21.67h0l.08-.08,4.22-4.21c0-.7,0-1.4-.09-2.1l-5.14,5.15h0l-.08.08-21.67,21.67h0l-.08.07-21.67,21.68h0l-.08.07-21.67,21.68h0l-.08.07-21.67,21.68h0l-.08.07-19.12,19.12,2.1.09,18-18.05Z" fill="url(#radial-gradient-150)"/><path d="M137.08,413.61l21.75-21.74.07-.08h0l21.68-21.67.07-.08h0l21.67-21.67.08-.08h0l21.6-21.6.07-.07.08-.08,7.33-7.33c-.06-.66-.13-1.31-.21-2l-8.21,8.21-.07.07-.08.08-21.67,21.67-.08.08h0L179.49,369l-.08.07h0l-21.67,21.68-.08.07h0l-21.59,21.6-.08.08L114.32,434.2l-.08.08-.07.07-.36.36,1,.11.17,0,.81.08L137,413.69Z" fill="url(#radial-gradient-151)"/><path d="M39.13,359.32l.08-.08,21.67-21.67h0l.08-.08,21.67-21.67h0l.08-.08,21.67-21.67h0l.07-.07,21.68-21.68h0l.07-.07L148,250.5l.08-.08,18.76-18.76-1.55-.63-18.3,18.3-.08.08-.07.08-21.6,21.59h0l-.08.08-21.67,21.67h0l-.07.08L81.69,314.58h0l-.07.08L59.94,336.33h0l-.07.08L38.19,358.08h0l-.07.07L27.59,368.68l.63,1.55,10.91-10.91Z" fill="url(#radial-gradient-152)"/><path d="M42.76,362.94l.07-.07,21.75-21.75.08-.08,21.59-21.59.08-.08.08-.08L108,297.7l.08-.08.07-.08L129.75,276l.08-.08.07-.07,21.6-21.6.08-.08.07-.07,20.14-20.15-1.48-.69L150.56,253l-.07.07-.08.08-21.59,21.6-.08.07-.08.08-21.59,21.6-.08.07-.07.08-21.6,21.6-.08.07-.07.08L63.57,340l-.08.07-.07.08L41.82,361.7h0l-.08.08-12,12,.69,1.49,12.3-12.3Z" fill="url(#radial-gradient-153)"/><path d="M32,352l.07-.07,21.6-21.6.08-.08L75.46,308.5l.07-.08h0L97.2,286.75l.08-.08h0L119,265l.08-.08h0l21.67-21.67.08-.08,15.3-15.3-1.69-.49-14.78,14.78-.07.08-21.67,21.67-.08.07h0L96.12,285.66l-.08.07h0L74.37,307.41l-.08.07h0l-21.6,21.6-.07.08L31,350.83l-.08.07-.08.08-6.85,6.85c.16.57.32,1.13.49,1.69l7.45-7.45Z" fill="url(#radial-gradient-154)"/><path d="M60.88,381.07,61,381l21.67-21.67h0l.08-.08,21.67-21.67h0l.07-.08,21.68-21.67h0l.07-.08L148,294l.08-.08,21.6-21.6.07-.07.08-.08,21.59-21.6.08-.07.08-.08,2.32-2.33-1.19-1-2.22,2.22-.08.08-.07.08-21.6,21.59-.08.08-.07.07-21.6,21.6-.08.08-.07.07-21.6,21.6h0l-.07.08-21.68,21.67h0l-.07.08L81.69,358.08h0l-.07.07L59.94,379.83h0l-.07.07-16.2,16.2,1,1.2,16.23-16.23Z" fill="url(#radial-gradient-155)"/><path d="M57.26,377.44l.07-.07L79,355.69h0l.08-.07,21.67-21.68h0l.08-.07,21.67-21.68h0l.08-.08,21.67-21.67h0l.08-.08L166,268.7h0l.08-.08L187.75,247h0l.08-.08,2-2-1.25-.92-1.75,1.75h0l-.07.07-21.68,21.68h0l-.07.07-21.68,21.68h0l-.07.07L121.57,311h0l-.08.07L99.82,332.71h0l-.08.07L78.07,354.45h0l-.08.08L56.32,376.2h0l-.08.08L40.52,392c.3.42.61.84.92,1.25l15.82-15.81Z" fill="url(#radial-gradient-156)"/><path d="M53.71,373.74l.07-.07,21.6-21.6.08-.08.07-.07,21.6-21.6.07-.08L119,308.5l.08-.08h0l21.6-21.6.07-.07.08-.08,21.6-21.6.07-.07.08-.08,21.67-21.67.08-.08,1.31-1.31-1.3-.88-1.18,1.18-.07.08-21.6,21.59-.08.08-.07.07-21.6,21.6-.08.08-.07.07-21.67,21.68-.08.07h0l-21.6,21.6-.07.08L74.44,350.83l-.07.07-.08.08-21.6,21.6-.07.07-.08.08-15,15,.87,1.3,15.22-15.21Z" fill="url(#radial-gradient-157)"/><path d="M64.58,384.62l.08-.08,21.59-21.6.08-.07.08-.08L108,341.19l.08-.07.07-.08,21.6-21.59.08-.08.07-.08,21.6-21.59.08-.08.07-.08L173.25,276l.08-.08.07-.07L195,254.2l.07-.08.08-.07,2.57-2.57-1.14-1L194.06,253,194,253l-.08.08-21.6,21.6-.07.07-.08.08-21.6,21.6-.07.07-.08.08-21.59,21.6-.08.07-.08.08L107.07,340,107,340l-.07.08L85.32,361.7l-.08.08-.07.08-21.6,21.59-.08.08-.07.07L47,400l1,1.14L64.5,384.69Z" fill="url(#radial-gradient-158)"/><path d="M82.63,402.82l.08-.08,21.67-21.67h0l.07-.08,21.68-21.67h0l.07-.08L148,337.49l.08-.07,21.6-21.6.07-.08.08-.07,21.59-21.6.08-.07.08-.08,21.59-21.6.08-.07.07-.08,1.14-1.13c-.29-.44-.58-.87-.88-1.3l-1.34,1.34-.08.08-.07.07-21.6,21.6-.08.08-.07.07-21.6,21.6-.08.08-.07.07-21.6,21.6-.08.08-.07.07-21.6,21.6h0l-.07.07-21.68,21.68h0l-.07.07L81.69,401.58h0l-.07.07L66.3,417l1.3.88,15-15Z" fill="url(#radial-gradient-159)"/><path d="M79,399.19l.08-.07,21.67-21.68h0l.08-.07,21.67-21.68h0l.08-.07,21.67-21.68h0l.08-.07L166,312.19h0l.08-.08,21.67-21.67h0l.08-.08L209.5,268.7h0l.07-.08,1.86-1.85-.93-1.25-1.94,1.94h0l-.07.07-21.68,21.68h0l-.07.07L165.06,311h0L165,311l-21.68,21.68h0l-.07.07-21.67,21.67h0l-.08.08L99.82,376.2h0l-.08.08L78.07,398h0L78,398,62.08,413.94l1.25.93L79,399.19Z" fill="url(#radial-gradient-160)"/><path d="M75.46,395.49l.07-.07,21.6-21.6.07-.08.08-.07L119,352l.08-.07,21.6-21.6h0l.07-.08,21.68-21.67.07-.08.08-.07,21.6-21.6.07-.07.08-.08,21.59-21.6L206,265l.07-.08,2.24-2.24c-.32-.4-.65-.79-1-1.19l-2.34,2.34-.08.08-.07.07-21.6,21.6-.08.08-.07.07-21.6,21.6-.08.08-.07.07-21.6,21.6h0l-.08.08L117.87,350.9l-.08.08-21.6,21.6-.07.07-.08.08-21.6,21.6-.07.07-.08.08L58.05,410.72l1.19,1,16.14-16.13Z" fill="url(#radial-gradient-161)"/><path d="M104.38,424.57l.07-.08,21.68-21.67h0l.07-.08L148,381l.08-.07,21.6-21.6.07-.08.08-.07,21.59-21.6.08-.08.08-.07,21.59-21.6.08-.08.07-.07,14.8-14.79c-.16-.57-.33-1.13-.49-1.69l-15.39,15.39-.08.08-.07.07-21.6,21.6-.08.08-.07.07-21.6,21.6-.08.07-.07.08-21.6,21.6-.08.07-.07.08-21.6,21.6h0l-.07.07-21.68,21.68h0l-.07.07L95.75,431l1.69.49,6.94-6.95Z" fill="url(#radial-gradient-162)"/><path d="M100.75,420.94l.08-.08,21.67-21.67h0l.08-.07,21.67-21.68h0l.08-.07L166,355.69h0l.08-.07,21.67-21.68h0l.08-.07,21.67-21.68h0l.07-.08,16.78-16.78c-.18-.54-.37-1.07-.56-1.61L208.56,311h0l-.07.07-21.68,21.68h0l-.07.07-21.68,21.67h0l-.07.08L143.31,376.2h0l-.07.08L121.57,398h0l-.08.08L99.82,419.7h0l-.08.08-9.45,9.45,1.61.56,8.85-8.85Z" fill="url(#radial-gradient-163)"/><path d="M97.2,417.24l.08-.08L119,395.49l.08-.07,21.6-21.6h0l.07-.08,21.68-21.67h0l.07-.08,21.67-21.67h0l.07-.08,21.67-21.67.08-.07.07-.08,18.37-18.37c-.21-.51-.41-1-.63-1.54l-18.82,18.82-.08.08-.07.07-21.6,21.6h0l-.08.08-21.67,21.67h0l-.08.07-21.67,21.68h0l-.08.07L117.87,394.4l-.08.08-21.6,21.6-.07.07-.08.08-11,11c.51.22,1,.43,1.54.63l10.52-10.51Z" fill="url(#radial-gradient-164)"/><path d="M93.58,413.61l.08-.07h0l21.67-21.67.07-.08h0l21.68-21.67.07-.08h0l21.68-21.67.07-.08h0l21.68-21.67.07-.08h0l21.67-21.67.08-.08h0L222.2,285c-.23-.49-.45-1-.69-1.48l-20.27,20.27-.08.08h0l-21.67,21.67-.08.08h0l-21.67,21.67-.08.08h0L136,369l-.08.07h0l-21.67,21.68-.07.07h0l-21.6,21.6-.08.08L80.07,425c.49.24,1,.46,1.48.69l12-11.95Z" fill="url(#radial-gradient-165)"/></g><circle cx="-21.14" cy="150.84" r="105.94" transform="translate(-112.86 29.23) rotate(-45)" fill="url(#linear-gradient-28)"/><polygon points="97.73 -98.12 -25.22 24.83 76.69 24.83 97.73 -98.12" opacity="0.3" fill="url(#linear-gradient-29)" style="mix-blend-mode:multiply"/><polygon points="119.23 -105.62 -3.72 17.33 98.19 17.33 119.23 -105.62" fill="none" stroke-miterlimit="10" stroke-width="2" stroke="url(#linear-gradient-30)"/><polygon points="-0.86 89.53 126.2 -37.53 123.37 -37.53 -3.69 89.53 -0.86 89.53" fill="url(#linear-gradient-31)" style="mix-blend-mode:screen"/><polygon points="-4.49 439.61 122.58 312.55 119.75 312.55 -7.31 439.61 -4.49 439.61" fill="url(#linear-gradient-32)" style="mix-blend-mode:screen"/><g style="mix-blend-mode:screen"><path d="M-3.72,393.79a6.67,6.67,0,0,1-6.66-6.67,6.67,6.67,0,0,1,6.66-6.66A6.67,6.67,0,0,1,3,387.12,6.67,6.67,0,0,1-3.72,393.79Zm0-11a4.37,4.37,0,0,0-4.37,4.37,4.37,4.37,0,0,0,4.37,4.37,4.37,4.37,0,0,0,4.37-4.37A4.37,4.37,0,0,0-3.72,382.75Z" fill="#fff"/></g></g></g></g></g></svg>